<svg xmlns="http://www.w3.org/2000/svg" viewBox="0 0 105.754 19.826"><defs><style>.a{fill:#78b22d;}.b{fill:#1a1311;}.c{fill:#fff;}.d{fill:#a8c420;}.e{fill:#f2c700;}</style></defs><g transform="translate(0 0)"><path class="a" d="M220.36,183a9.865,9.865,0,1,1-9.865-9.913A9.889,9.889,0,0,1,220.36,183Z" transform="translate(-200.631 -173.087)"/><path class="b" d="M202.7,195.408l-.014.005c0,.009.01.023.015.031A.041.041,0,0,1,202.7,195.408Z" transform="translate(-201.614 -183.709)"/><path class="c" d="M215.4,182.8a1.327,1.327,0,0,0-.877.348.355.355,0,0,0-.095.257.314.314,0,0,0,.061.159,1.155,1.155,0,0,0,.992.29c.567-.044.994-.31.971-.605a.354.354,0,0,0-.132-.239A1.328,1.328,0,0,0,215.4,182.8Zm-9.911-.007c-.569-.025-1.023.188-1.036.484a.332.332,0,0,0,.067.209c.011.015.023.03.035.044a1.328,1.328,0,0,0,.888.318c.569.025,1.024-.188,1.037-.483S206.059,182.818,205.491,182.793Zm14.871,1.421c0-.148,0-.294-.011-.44a1.069,1.069,0,0,0-.407-.392h0a.932.932,0,0,0-.548-.1c.009-.082.032-.172.032-.249a1.43,1.43,0,0,0-.557-1.228,1.552,1.552,0,0,0-1.224-.252,10.06,10.06,0,0,0-5.741-2.912.833.833,0,0,0,.082-.527c-.027-.164-.127-.073.208-.546a1.408,1.408,0,0,0-2.088-1.672,2.524,2.524,0,0,0-1.152,2.409c0,.06-.012.119-.013.182,0,.038.008.081.009.121a9.957,9.957,0,0,0-5.384,2.705,1.518,1.518,0,0,0-1.33.211,1.353,1.353,0,0,0-.516,1.128,2.656,2.656,0,0,0,.068.557c-.292.035-.79.23-1.157,1.081a9.97,9.97,0,0,0,.356,2.574,5.921,5.921,0,0,1,.279-2.1c.171-.475.4-.771.62-.791.885-.083,2.189,1.841,2.577,2.522a.176.176,0,0,0,.321-.139.48.48,0,0,1-.005-.334c.012-.012.078-.029.234.027a.461.461,0,0,1,.219.183c.021.03.044.065.066.1l.215.428.493.953q.239.41.531.82a15.32,15.32,0,0,0,1.8,2.054,10.436,10.436,0,0,0,5.816,2.838c.209-.084.416-.172.617-.269a10.223,10.223,0,0,1-4.038-1.242,13.328,13.328,0,0,0,4.461-4.468c.346-.5.776-1.121.917-1.131.116-.008.155.028.173.052l.007.01a.99.99,0,0,1-.055.656c0,.023-.028.137-.028.137l.02.051.045.04.025.017.043.026a.177.177,0,0,0,.177-.061s.014-.02.016-.023a17.859,17.859,0,0,1,2.382-2.9c.31-.245.534-.333.664-.262.241.132.476.828.263,3.331A9.934,9.934,0,0,0,220.361,184.215Zm-10.545-6.722c.323-.827,1.072-.974,1.38-.635s.015,1.269-.235,1.4c.2-.107.353.089.221.332-.1.07-.393.278-.673.484l-.665.346c-.011-.041-.023-.09-.036-.139,0,0,0,0,0,0a3.482,3.482,0,0,1-.1-.65A2.322,2.322,0,0,1,209.817,177.493Zm-6.945,6.492-.006-.008.006.006a.1.1,0,0,1,.011.022A.076.076,0,0,0,202.872,183.985Zm15.206.648-.02.042a20.792,20.792,0,0,0-1.408,1.728.752.752,0,0,0-.041-.18l-.014-.025a.453.453,0,0,0-.027-.041.509.509,0,0,0-.482-.2c-.3.021-.578.408-1.183,1.282a12.748,12.748,0,0,1-4.5,4.454l-.02.02a10.115,10.115,0,0,1-1.8-1.386,14.94,14.94,0,0,1-1.755-2.006q-.284-.4-.514-.794l-.478-.925-.23-.454c-.029-.05-.058-.1-.087-.136a.775.775,0,0,0-.384-.306.548.548,0,0,0-.6.051l-.052.091c-.083-.127-.178-.271-.292-.429a6.594,6.594,0,0,0-1.333-1.446l-.009-.013c-.009-.012-.013-.022,0-.028h0c-.2-.382-.617-1.45-.156-1.8.554-.419,1.563.345,1.605.378a.177.177,0,0,0,.247-.03.179.179,0,0,0,0-.213.171.171,0,0,0-.034-.036,3.655,3.655,0,0,0-.484-.3,9,9,0,0,1,5.355-2.634c.041.075.079.143.113.2l.067.244.1.1.144-.007,1.083-.563a9.367,9.367,0,0,1,6.251,2.869,3.031,3.031,0,0,0-.46.264.177.177,0,0,0-.038.247l.115.071.131-.032c.039-.028.965-.678,1.523-.269C218.955,182.813,218.482,184.069,218.077,184.633Zm-15.211-.7s0,0-.013,0l.013.027A.033.033,0,0,1,202.867,183.928Zm10.609-2.719a.324.324,0,0,0-.462.156.942.942,0,0,0,0,.686,1.214,1.214,0,0,0,.158.314.724.724,0,0,0,.256.232.324.324,0,0,0,.462-.155.942.942,0,0,0,0-.687A.931.931,0,0,0,213.476,181.21Zm-3.092,1.562c-.935.02-1.756.572-1.748.993.009.393.792.683,1.783.661s1.762-.345,1.755-.736C212.164,183.269,211.319,182.753,210.383,182.772Zm-2.868-1.449c-.246-.08-.541.177-.671.583s-.038.787.208.867.542-.176.672-.582a.936.936,0,0,0-.01-.687A.346.346,0,0,0,207.515,181.322Z" transform="translate(-200.632 -174.302)"/><g transform="translate(1.084 11.756)"><path class="b" d="M202.709,195.517l.008.008a.113.113,0,0,1,.013.025.1.1,0,0,0-.013-.024Z" transform="translate(-202.709 -195.517)"/></g></g><g transform="translate(25.611 4.104)"><g transform="translate(0 0)"><path class="b" d="M257.453,186.7l.617,1.665-1.374.516-.963-2.181h-5.6l-.4-1.072,5.37-.348-.629-1.407h-4.008l-.4-1.007,3.815-.323-.552-1.252,1.952-.374.552,1.472,3.083-.258v1.743h-2.53l.488,1.291,3.275-.22V186.7Z" transform="translate(-249.733 -180.918)"/><path class="b" d="M257.4,198.441c-4.046-.168-5.922-1.33-5.922-2.724a2.68,2.68,0,0,1,1-1.845l.989.387a1.736,1.736,0,0,0-.591,1.1c0,.839,1.349,1.433,5.023,1.433Z" transform="translate(-250.57 -187.082)"/></g><g transform="translate(11.521 2.182)"><path class="b" d="M278.59,192.225a6.765,6.765,0,0,0,.643-2.027,2.391,2.391,0,0,0,.026-.284c0-.464-.218-.671-.707-.671a3.025,3.025,0,0,0-.539.064,15.75,15.75,0,0,0-2.852.852c.578,1.394,1.143,2.93,1.618,4.35l-1.477.7c-.36-1.588-.81-3.163-1.272-4.569-.514.245-1.028.5-1.542.762l-.668-1.3c.6-.232,1.181-.452,1.772-.645-.283-.71-.565-1.355-.848-1.924l.976-.452c.309.581.655,1.278.976,2.014a26.024,26.024,0,0,1,3.006-.736,9.134,9.134,0,0,1,1.426-.142c1.156,0,1.657.4,1.657,1.213a3.833,3.833,0,0,1-.232,1.187,7.482,7.482,0,0,1-1.13,1.962Z" transform="translate(-271.821 -186.029)"/><ellipse class="a" cx="1.028" cy="1.033" rx="1.028" ry="1.033" transform="translate(3.982)"/></g><g transform="translate(21.807 1.807)"><path class="b" d="M302.732,192.54a43.441,43.441,0,0,1-6.243-4.118.851.851,0,0,0-.488-.246c-.141,0-.257.078-.411.246a22.347,22.347,0,0,1-3.07,2.7l-.976-1.884a14.235,14.235,0,0,0,3.545-2.22,1.3,1.3,0,0,1,.8-.31,1.98,1.98,0,0,1,1.067.413,31.649,31.649,0,0,0,6.693,3.356Z" transform="translate(-291.543 -185.479)"/><path class="d" d="M306.442,187.056a.865.865,0,0,1,0-1.73.865.865,0,1,1,0,1.73Z" transform="translate(-298.259 -184.822)"/><path class="e" d="M309.96,185.94a.788.788,0,0,1,0-1.575.788.788,0,1,1,0,1.575Z" transform="translate(-299.979 -184.365)"/></g><path class="b" d="M319.138,192.558a13.806,13.806,0,0,0,5.228-3.989,2.15,2.15,0,0,0,.437-1.175c0-.775-.77-1.317-2.659-1.317a18.134,18.134,0,0,0-5.755,1.395l-.643-1.782a24.876,24.876,0,0,1,6.539-.981c2.9,0,4.47,1.291,4.47,2.84a3,3,0,0,1-.668,1.794c-1.413,1.872-3.469,3.1-6.192,4.208Z" transform="translate(-281.315 -182.722)"/><g transform="translate(46.505 0.439)"><path class="b" d="M347.423,192.417a18.21,18.21,0,0,1-4.56-.542c-.963-.31-1.426-.852-1.426-1.446a2.073,2.073,0,0,1,.925-1.511,12.663,12.663,0,0,1,3.558-1.884h-6.654l-.372-.942,4.8-.362,3.263-3.976,1.67,1.213-3.455,2.659,5.1-.387v1.795a10.984,10.984,0,0,0-2.543.232,10.444,10.444,0,0,0-3.815,1.988c-.373.322-.552.593-.552.813,0,.258.282.452.822.542a8.582,8.582,0,0,0,1.4.09c.719,0,1.5-.039,2.158-.1Z" transform="translate(-338.893 -181.755)"/><path class="a" d="M344.181,185.374a1.33,1.33,0,1,1,1.323-1.33A1.325,1.325,0,0,1,344.181,185.374Z" transform="translate(-340.79 -182.212)"/></g><g transform="translate(57.781 0.62)"><path class="d" d="M360.513,195.9a10.107,10.107,0,0,0,3.4-1.885l.655.7a13.224,13.224,0,0,1-2.826,3.007Z" transform="translate(-360.513 -187.772)"/><path class="b" d="M366.307,192.194v-.788l1.927-.155a2.54,2.54,0,0,0,.3-1.252v-.168c-.116-1.975-1.387-2.3-1.387-3.937a2.6,2.6,0,0,1,1.644-2.1h-3.1l-.45-1.046,5.729-.645.4,1.872c-1.618.129-2.8.839-2.8,1.949,0,1.033,1.721,1.82,1.76,4.183v.1a6.772,6.772,0,0,1-.553,2.8Z" transform="translate(-362.775 -182.1)"/><path class="e" d="M376.865,195.246a1.5,1.5,0,1,1,1.5,1.511A1.505,1.505,0,0,1,376.865,195.246Z" transform="translate(-368.336 -187.643)"/></g><path class="b" d="M394.751,192.076c-.835.039-1.605.051-2.325.051a26.21,26.21,0,0,1-5.24-.452c-1.067-.207-1.606-.826-1.606-1.613a3.734,3.734,0,0,1,1.49-2.569,19.711,19.711,0,0,1,1.9-1.484l-1.837-4.634,2.081-.31,1.168,4c1-.633,2.094-1.278,3.173-1.846l.848.8c-1.233.8-2.492,1.678-3.6,2.517l.321,1.1-1.194.787-.36-.9a18.984,18.984,0,0,0-1.5,1.355,1.481,1.481,0,0,0-.527.929c0,.323.3.542.8.62a9.735,9.735,0,0,0,1.516.09,45.218,45.218,0,0,0,5.01-.375Z" transform="translate(-314.724 -180.988)"/></g></svg>