<svg xmlns="http://www.w3.org/2000/svg" viewBox="0 0 219.905 181.168"><defs><style>.a{fill:#3c2819;}</style></defs><path class="a" d="M962.836,608.275a6.256,6.256,0,0,1-3.167-1.385,6.884,6.884,0,0,1-2.275-5.566v-2.152l-.148-.124v-3.685l.148-.123v-3.414a1.34,1.34,0,0,1,1.262-.4l.618.519v.891l-.124.123v2.918l-.123.124v2.77l.123.123v2.029l.124.123v1.41a6.122,6.122,0,0,0,1.781,3.661,5.112,5.112,0,0,0,2.276.767L965.36,606l.123-.371,1.262-.248.519.371v.495A6.236,6.236,0,0,1,962.836,608.275Zm19.467-.817-1.039-.766-.123-.5a7.425,7.425,0,0,0,2.424-3.339l.4-1.658-.248-.52-1.039-.371a14.038,14.038,0,0,0-6.011,3.068l-.891,1.41h-.89l-.643-1.163a11.107,11.107,0,0,1,4.725-3.71,9.668,9.668,0,0,1,4.106-.891,4.435,4.435,0,0,1,2.3,1.286l.372,1.534a14.008,14.008,0,0,1-2.3,5.12Zm12.788.545a5.953,5.953,0,0,1-1.978-2.35l-.372-1.385V600.9l.124-.122v-2.128l.742-3.24.866-.248.866,1.237-.743,2.994v1.88l-.123.123v2.993l.618,1.633h.52l.123-.371.618-.148.494,1.137-.617,1.237Zm6.382-.619-1.633-.742-.618-.866v-1.262a3.591,3.591,0,0,1,1.361-1.36l1.138-.371h1.855l.247-.643-.124-.124v-1.484l-.618-.371-2.745.619H998.6l-.891-.891v-.5l.247-.247h2.128l3.364-.743.123-.742-.247-.89v-1.36l-.123-1.113h-.989q-2.252.619-4.5,1.36l-.866-.866V594.3a24,24,0,0,1,5-1.509h1.979l.123-.618-.247-2,1.015-1.361a4.166,4.166,0,0,1,2.127-.89h1.732a4.277,4.277,0,0,1,2.5,1.756,4.152,4.152,0,0,1,.866,2.994,4.718,4.718,0,0,1-1.238,2.869l-.618.247-.767.989-1.36.4-.742-.519-.247-.99-2-1.113v.618l.124.124v1.88l.247.618.494.124a2.051,2.051,0,0,1,1.509-.619l.742.371.123.742a6.575,6.575,0,0,1-2.745,1.114l-.123.891.123.122v2.623q1.756,1.112,3.488,2.35l.247.89-.371.5h-.743l-2.5-1.756-.742,1.385a3.038,3.038,0,0,1-1.88.865Zm1.732-1.731.494-1.262a1.342,1.342,0,0,0-1.113-.247l-1.509.866-.123.643a1.284,1.284,0,0,0,1.262.5Zm5.615-10.86a5.332,5.332,0,0,0,1.385-2.251v-1.385l-1.138-1.484-1.483-.247-2,1.112-.123.494.123.52-.123.866,1.385,1.112.247.768,1.608.618ZM1022,608.324l-.767-.742V606.2a44.784,44.784,0,0,1,1.385-5.814l-.495-.247-3.413.89-.742-.395-.4-.99a52.331,52.331,0,0,1,5.442-1.262q.866-3.289,1.633-6.679l1.014-.123.742.618.124.618a24.925,24.925,0,0,0-1.509,4.922l.768.248,3.018-.619h1.633a3.625,3.625,0,0,1,1.014,1.633v1.9l.123.372a24.632,24.632,0,0,1-1.756,6.035l-.644.124-.742-.618V605.8a14.4,14.4,0,0,0,1.386-5.664l-.52-1.014-.494-.123-4.156.89-1.781,6.431v1.386A.877.877,0,0,1,1022,608.324Zm23.5.4-.5-.4v-.742a57.079,57.079,0,0,0,3.513-11.8h-.891a56.068,56.068,0,0,0-9.029,2.276l-.989-.891V596.8a56.967,56.967,0,0,1,8.509-2.375h1.509l.891-.247h1.508l.618.5v1.262a83.4,83.4,0,0,1-3.76,12.665l-.123.123Zm14.421-.692-.519-.247-.371-1.138a.936.936,0,0,1,1.013-.4l.643.148,1.014-.4.124-1.013-.124-.124v-3.933l.124-.743-.891-.272a8.438,8.438,0,0,1-3.29.643l-.767-1.262.371-.4h1.287q3.414-.618,6.7-1.385l.618.124.519-.124,1.509.371.272.768a1.593,1.593,0,0,1-1.286.643h-1.633l-1.014-.124-.643.618v1.658l-.123.123v3.414l.123.643.643.123.123-.123h1.658l1.756-.4h1.262l.643.643v.371a2.231,2.231,0,0,1-2.028.767h-1.262l-1.262.248h-1.533A8.523,8.523,0,0,1,1059.926,608.028Zm32.256-1.855q-3.339-4.576-6.679-9l-3.067,3.191h-.248l-.743,1.113-1.731,1.855a4.748,4.748,0,0,1-1.113,2.227l-.742.123-.742-.5-.248-.988a41.4,41.4,0,0,1,4.205-5.194h.248l3.438-3.81.989-.123,1.237.742,2.721,3.563,2.6,4.7.989.618.248,1.113-.123.247ZM976.825,638.385a3.645,3.645,0,0,1-1.9-1.781v-.99l1.014-1.014,1.9-.643h1.633l.618-.248.4-1.632-.123-.372.123-.123v-2.523l-.272-.643-.866-.494-.124-.371.743-.519v-.743a25.79,25.79,0,0,0-2-5.046,1.034,1.034,0,0,1,1.138-.371l.743.742a24.935,24.935,0,0,1,1.781,4.675l.618.123,5.788-1.781,1.138.52.123.742q-3.636.89-7.3,2.028l-.123.865.247,1.138v1.905l-.124.123v1.756a20.891,20.891,0,0,1,6.555,2.647l.247,1.138a2.029,2.029,0,0,1-1.386.248l-.371-.618a13.183,13.183,0,0,0-5.294-1.9,8.082,8.082,0,0,1-2.276,3.042l-.494.124Zm1.757-1.509a2.332,2.332,0,0,0,1.014-1.657l-.618-.124a4.8,4.8,0,0,0-2.276,1.138l-.124.5a1.247,1.247,0,0,0,1.262.519Zm24.538,2.251-.742-.89a20.212,20.212,0,0,0,3.909-8.609l-.371-.643-.643-.371h-2.4a22.124,22.124,0,0,0-6.976,2.152l-.618-.519-.124-.891a15.833,15.833,0,0,1,6.7-2.275h3.166a3.775,3.775,0,0,1,2.4,1.138,4.429,4.429,0,0,1,.643,2.423,17.051,17.051,0,0,1-4.18,8.336Zm.52-15.337-.643-.643-.618-1.014-3.438-2.893.273-.52.989-.123,4.7,3.934v.617l-.247.643Zm19.468,2.969-.371-.866-1.633-.371h-1.237l-1.508-.248-.99.123-.371-.123-2.128.371-.865-1.261a1.327,1.327,0,0,1,1.237-.619h2l.5-.123.123.123h2.128a19.033,19.033,0,0,1,4.972,1.138l.273,1.113A2.553,2.553,0,0,1,1023.107,626.759Zm-7.866,11.107-.99-1.238.618-.495h1.732a82.638,82.638,0,0,0,9-1.508,1.217,1.217,0,0,1,.617,1.113,8.837,8.837,0,0,1-3.611,1.262h-1.262l-2.622.617h-1.361l-1.756.248-.123-.124Zm26.517,1.681a9.809,9.809,0,0,1-2.4-1.755,5.582,5.582,0,0,1-1.484-3.884q1.633-2.769,3.513-5.392h-.273q-3.116,1.113-6.382,2h-1.385l-.866-.767v-.495l7.4-6.011v-.371h-1.261l-1.263.371-.742-.123-3.513.494a1.911,1.911,0,0,1-.866-1.384,1.343,1.343,0,0,1,1.238-.373l1.261.124.99-.247h1.632l1.757-.371h1.632l.124-.124h1.756l.52.866a63.206,63.206,0,0,1-6.531,6.134h.742a38.805,38.805,0,0,1,6.284-1.484l.618.5v.618a28.8,28.8,0,0,0-4.5,7.149,5.557,5.557,0,0,0,1.756,2.771l1.634.742.123.767A2.292,2.292,0,0,1,1041.757,639.547Zm12.368-7.717-.767-.619v-2.547a28.954,28.954,0,0,1,2.548-9.425h.643l.891.519.247,1.014a33.622,33.622,0,0,0-2.547,9.029v1.658Zm.4,7.272-.767-.891v-1.78l.494-.891,1.287-.148.643.643v.643l-.149.519.149.371-.768,1.41ZM1124.5,593.6c-4.335-6.673-10.625-11.9-17.216-16.239a138.124,138.124,0,0,0-21.324-11.332,156.8,156.8,0,0,0-46.819-11.957,159.3,159.3,0,0,0-48.222,2.646,149.9,149.9,0,0,0-23.253,6.912,99.154,99.154,0,0,0-22.326,11.68,54.44,54.44,0,0,0-16.38,18.06,39.459,39.459,0,0,0-4.85,23.019c1.893,16.133,15.58,27.32,28.872,34.75a148.693,148.693,0,0,0,49.267,17.016c4.165.657,8.355,1.123,12.559,1.429.853.062,1.558-.828.361-.916a147.049,147.049,0,0,1-50.126-12.815A111.664,111.664,0,0,1,943.8,643.6c-6.1-4.617-11.632-10.3-14.96-17.269-7.2-15.068-1.176-32.5,9.981-43.862a73.315,73.315,0,0,1,20.7-14.252,137.024,137.024,0,0,1,22.914-8.5,154.014,154.014,0,0,1,47.347-5.357,156.139,156.139,0,0,1,46.833,9.211,148.461,148.461,0,0,1,21.871,10c6.879,3.856,13.607,8.257,19.106,13.962,5.324,5.525,9.355,12.349,10.307,20.06a36.5,36.5,0,0,1-4.409,21.373,49.492,49.492,0,0,1-15.08,17.065c-7.15,5.067-15.313,8.492-23.664,11.031-8.4,2.556-17.019,4.2-25.594,6.059-7.73,1.672-16.032,4.28-20.3,11.5a14.527,14.527,0,0,0-1.936,5.58l-5.085-10.51c-.25-.516-1.986-.18-1.679.457q3.519,7.27,7.035,14.542c.223.461,1.863.215,1.725-.343a13.373,13.373,0,0,1,2.534-11.009,21.609,21.609,0,0,1,10.306-7.242,93.119,93.119,0,0,1,13.194-3.27c4.4-.916,8.785-1.866,13.137-2.967,16.143-4.085,32.621-10.625,42.964-24.329a42.707,42.707,0,0,0,8.611-20.334A32.351,32.351,0,0,0,1124.5,593.6Zm-5.344-21.149a1.443,1.443,0,0,0-1.233,0c-.216.1-.616.446-.239.647a28.242,28.242,0,0,1,12.225,12.872c.243.517,1.981.185,1.679-.457A28.764,28.764,0,0,0,1119.155,572.446Zm21.886,11.607-11.169-14.527c-.368-.478-2.073-.055-1.679.457l11.17,14.527C1139.729,584.988,1141.434,584.565,1141.04,584.053ZM938.695,652.212l-9.527-8.8a1.2,1.2,0,0,0-1.13-.169c-.156.043-.842.354-.548.625l9.526,8.8a1.2,1.2,0,0,0,1.13.168C938.3,652.793,938.988,652.482,938.695,652.212Zm-2.351,9.307a33.441,33.441,0,0,1-13.421-11.813c-.324-.5-2.045-.107-1.678.457a34.05,34.05,0,0,0,13.626,12,1.471,1.471,0,0,0,1.233,0C936.307,662.071,936.732,661.707,936.344,661.518Zm144.98-136.727c-.028-.308-.5-.577-.942-.673.258-.27.513-.543.775-.81.334-.341-.365-.752-.608-.833l-5.785-1.906a1.233,1.233,0,0,0-.495-.064c.221-.173.434-.355.657-.525.5-.382-1.044-1.2-1.529-.828a63.881,63.881,0,0,0-14.127,15.053c-.079.117-.027.252.1.379a.4.4,0,0,0,.034.131c.164.371.732.534,1.088.58a18.313,18.313,0,0,1,2.149.418c-.092.164-.19.324-.28.491-.276.508,1.36,1.2,1.673.628.109-.2.229-.4.34-.6.226.08.444.179.667.266l-.03.047c-.279.469,1.228,1.142,1.629.667.267.133.54.256.8.4-.165.25-.334.5-.5.749s.239.572.7.73a1.423,1.423,0,0,0,1.063.195l6.131-1.569,3.065-.785c.753-.193,2.063-.186,2.33-1A28.277,28.277,0,0,0,1081.323,524.791Zm-14.184,11.651a35.722,35.722,0,0,1,7.266-8.332c.494-.415-1.064-1.219-1.53-.828a36.369,36.369,0,0,0-7.353,8.441c-.233-.093-.463-.2-.7-.281a50.34,50.34,0,0,1,9.879-12.1c.489-.438-1.078-1.232-1.53-.829A51.108,51.108,0,0,0,1063.1,534.9c-.625-.171-1.257-.321-1.9-.439a63.185,63.185,0,0,1,12.629-13.606c.008.191.189.413.616.553l4.718,1.555a101.289,101.289,0,0,0-11.217,13.884C1067.684,536.7,1067.41,536.576,1067.139,536.442Zm11.458-1.282c-.332.677-1.794.763-2.5.943l-2.9.742-3.807.974a100.024,100.024,0,0,1,10.261-12.943,29.347,29.347,0,0,1-.026,4.878c-.086.931-.22,1.858-.4,2.776A11.086,11.086,0,0,1,1078.6,535.16ZM938,544.493c-1.083-.037-2.217.759-3.249.278a2.269,2.269,0,0,1-.573-.4l-.664-2.7c-.166-.673-1.757-.224-1.9.292a3.009,3.009,0,0,0,.676,2.9q1.023,4.155,2.046,8.31a16.531,16.531,0,0,0-2.75,5.79c-.079.314.33.431.559.44a1.742,1.742,0,0,0,1.14-.333,9.989,9.989,0,0,0,3.292-4.7c.132-.4-.559-.463-.8-.439-.041,0-.091.016-.136.023.172-.262.338-.527.527-.779a.672.672,0,0,0,.1-.337l-1.689-6.856a4.956,4.956,0,0,0,1.6-.167c.4-.1.946-.392,1.359-.229.758.3,1.124,1.824.2,2.149-.27.095-.775.395-.535.736s.955.173,1.249.071a2.338,2.338,0,0,0,1.741-2.273A2.133,2.133,0,0,0,938,544.493Zm76.821,141.494a2.96,2.96,0,0,0-2.352-1.2,3.846,3.846,0,0,0-1.884.44c-.206-1.062-.389-2.129-.522-3.206-.046-.369-.813-.2-.987-.156a80.25,80.25,0,0,0-12.412,4.143c-.563.038-1.26.416-1.091.768l6.061,12.65a.463.463,0,0,0,.386.227.338.338,0,0,0-.1.332c.112.352.754.229.987.157l10.474-3.237c.206-.063.869-.365.718-.7a47.1,47.1,0,0,1-1.742-4.406,4.711,4.711,0,0,0,3.011-3.335A3.205,3.205,0,0,0,1014.818,685.987Zm-5.485,1.9a1.2,1.2,0,0,0-.47.3c-.288.449-.545.914-.816,1.372q.449-1.718.9-3.436Q1009.122,687.013,1009.333,687.89Zm-.466-2.171a1.878,1.878,0,0,0-1.55.441l-2.721,4.491q.992-3.309,1.985-6.62c.1-.34-.473-.362-.652-.347a1.82,1.82,0,0,0-.274.047c.915-.272,1.835-.532,2.759-.769C1008.536,683.889,1008.692,684.806,1008.867,685.72Zm-3.24-1.977a1.208,1.208,0,0,0-.708.455l-2.732,4.189q.345-1.527.69-3.053c.158-.7-1.358-.159-1.556.036l-1.775,1.751.1-.782c.035-.262-.214-.36-.531-.351Q1002.323,684.72,1005.627,683.742Zm-7.794,3.662-.362-.756c.187-.08.378-.149.566-.227a.416.416,0,0,0-.1.21C997.9,686.889,997.868,687.147,997.833,687.4Zm.919,1.918a1.459,1.459,0,0,0,.4-.217l1.569-1.549-.9,4Zm1.585,3.309a2.008,2.008,0,0,0,.972-.468l2.233-3.424-1.952,6.51Zm3.735,6.218-.727.225a.251.251,0,0,0-.01-.185l-1.206-2.517a1.275,1.275,0,0,0,.884-.489q1.533-2.532,3.068-5.062-1.023,3.914-2.044,7.829A.214.214,0,0,0,1004.073,698.848Zm1.689-.522a40.7,40.7,0,0,1,2.007-5.254q-.409,1.87-.819,3.741c-.153.7,1.466.183,1.661-.164l.65-1.161c-.012.4-.021.8,0,1.205.029.483.9.207,1.368-.065a.309.309,0,0,0,.24.118Zm4.245-7.942c.061.2.122.406.185.607l-.521.93Q1009.84,691.153,1010.008,690.384Zm3.661-2.608a3.043,3.043,0,0,1-.613,2.33,3.012,3.012,0,0,1-.94.811l-.058.03c-.035-.107-.079-.213-.113-.321a.237.237,0,0,0-.062-.2q-.619-1.982-1.065-4.015a.94.94,0,0,0,.152-.158,1.122,1.122,0,0,1,.136-.179q.055-.056.113-.107l.032-.023c.031-.022.063-.042.1-.063l.052-.026.025-.011c.04-.014.08-.027.121-.038-.222.064.1,0,.068-.006.081,0,.223,0,.15-.008a1.45,1.45,0,0,1,.528.131A2.5,2.5,0,0,1,1013.669,687.777Zm72.321-52.977a35.508,35.508,0,0,1,.542-5.428c.033-.185-.148-.313-.4-.385.167-.089.272-.215.165-.395q-.974-1.65-1.95-3.3a5.255,5.255,0,0,0-.8-1.307,3.065,3.065,0,0,0-1.445-.339c-.041-.006-.094-.01-.152-.013-.12-.968-.26-1.935-.383-2.9-.047-.367-.6-.454-.894-.447a1.828,1.828,0,0,0-.7.15l-.031-.012a1.406,1.406,0,0,0-1.223.16,9.719,9.719,0,0,0-2.03,2.513,5.36,5.36,0,0,0-.6,1.421,2.006,2.006,0,0,0-.452.114l-8.677,3.515a.413.413,0,0,0-.243.191c-.291.061-.53.2-.554.422a18.9,18.9,0,0,0,.54,6.869c.112.418.885.508,1.38.38l16.374,1.352c.064.005.153.011.249.011.534.131,1.305-.006,1.29-.412-.017-.465-.015-.928-.014-1.392a.488.488,0,0,0,.381-.275C1086.45,635.028,1086.225,634.877,1085.989,634.8Zm-7.6-11.422a8.75,8.75,0,0,1,1.474-1.956q.107.838.215,1.674a1.147,1.147,0,0,0-.6-.138c-1.069,0-1.078.894,0,.894a.97.97,0,0,0,.673-.206l.03.223c.077.6.424,1.8-.2,2.235a.372.372,0,0,1-.091.045l-.059.01-.009,0c-.1-.029-.333-.061-.5-.108a3.19,3.19,0,0,1-1.087-.423C1077.451,625.032,1078.023,624.053,1078.394,623.379Zm-2.155,2.154a1.829,1.829,0,0,0,.391.489,4.08,4.08,0,0,0,1.59.74,5.307,5.307,0,0,0,2.028.266,2.218,2.218,0,0,0,1.555-.754,1.948,1.948,0,0,0,.3-1.356c-.009-.114-.029-.23-.039-.345l2.17,3.674-14.2-.2Zm8.505,3.839a35.036,35.036,0,0,0-.529,5.172l-14.327-1.874c-.275-.036-.987-.038-1.1.312s.346.514.624.55l14.8,1.935c0,.324-.009.649,0,.973l-15.714-1.3-.108-.007a19.152,19.152,0,0,1-.506-4.028l.063,0a82.933,82.933,0,0,1,14.794,1.417c.292.055.96.025,1.1-.312.151-.365-.378-.5-.624-.549a85.663,85.663,0,0,0-15.27-1.449l-.067,0c.012-.434.029-.869.071-1.3l16.934.235A.394.394,0,0,0,1084.744,629.372Zm-4.666-4.7v.074a.3.3,0,0,1-.122.226l-.139.09a1.289,1.289,0,0,1-.394.114l-.238.016a1.2,1.2,0,0,1-.344-.038.936.936,0,0,1-.288-.092.4.4,0,0,1-.185-.144.225.225,0,0,1-.077-.172v-.074a.3.3,0,0,1,.122-.225l.139-.091a1.289,1.289,0,0,1,.394-.114l.238-.016a1.234,1.234,0,0,1,.344.038.957.957,0,0,1,.288.092.41.41,0,0,1,.185.144A.224.224,0,0,1,1080.078,624.672Z" transform="translate(-921.194 -519.056)"/></svg>