<svg xmlns="http://www.w3.org/2000/svg" width="78.09" height="605.61" viewBox="0 0 78.09 605.61"><defs><style>.a{fill:#3c2819;}</style></defs><path class="a" d="M-189.786-215.926c0,.175-.115.287-.23.431a4.121,4.121,0,0,0-.8,1.838c0,.316.23.46.517.46a24.7,24.7,0,0,0,4.68-1.264,3.009,3.009,0,0,1,.833-.23c.431,0,.517.373.718,1.293a13.567,13.567,0,0,1,.316,2.384c0,.6-.347.716-1.465.946-1.609.316-4.163.689-5.829.862-.431.057-.919.115-1.147.517a4.267,4.267,0,0,0-.318,1.233c0,.232.175.345.4.345a.544.544,0,0,0,.287-.084,8.649,8.649,0,0,1,3.789-.89,6.042,6.042,0,0,1,6.346,6.4c0,6.545-7,7.978-12.2,7.978-1.206,0-1.379-.23-1.637-1.348a17.726,17.726,0,0,1-.431-2.413.711.711,0,0,1,.718-.718,27.1,27.1,0,0,0,2.727.259c2.5,0,6.719-.687,6.719-3.9a2.138,2.138,0,0,0-2.126-2.324,8.8,8.8,0,0,0-5.683,2.525c-.287.316-.632.776-.891,1.12a1.085,1.085,0,0,1-.8.575,5.173,5.173,0,0,1-2.382-1.005c-.46-.345-.862-.632-.862-1.178a2.865,2.865,0,0,1,.4-1.175,22.232,22.232,0,0,0,1.635-4.68.521.521,0,0,0-.543-.517c-.144,0-2.212.259-3.246.259a.843.843,0,0,1-.948-.718,15.333,15.333,0,0,1-.486-3.014c0-.431.115-.747.6-.747.227,0,2.238.2,4.361.2,1.293,0,1.551-.086,1.982-4.077.086-.689.144-1.206.632-1.206C-193.6-217.791-189.786-216.728-189.786-215.926Zm-5.685,28.984c.632.23.689.46.689.575s-.086.172-.259.259a1.931,1.931,0,0,0-1.089,1.092,19.162,19.162,0,0,0-1.637,7.751c0,1.752.086,2.011.345,2.011.2,0,.314-.316.4-.546.23-.517.371-.89.658-.89.4,0,1.9.833,1.9,1.264s-1.178,3.445-1.178,5.022a10.254,10.254,0,0,0,.115,1.321,4.237,4.237,0,0,1,.029.6c0,1.063-2.324,1.838-2.956,1.838-.517,0-.776-.316-1.235-1.092a18.861,18.861,0,0,1-2.152-9.5,32.962,32.962,0,0,1,1.405-9.3,6.471,6.471,0,0,0,.23-.948c.144-.687.23-.946.517-.946C-199.433-188.434-196.3-187.258-195.472-186.942Zm10.681-1.434c.4.057.517.113.517.314a5.57,5.57,0,0,0-.175,1.092v.689c0,2.267.117,2.928.718,2.928a12.51,12.51,0,0,0,1.695-.373,1.522,1.522,0,0,1,.488-.086c.517,0,.632.689.689,1.092a15.087,15.087,0,0,1,.172,2.269c0,.747-.144.862-2.1,1.092-.747.084-1.321.2-1.321,1v1.178a15.566,15.566,0,0,1-1,6.171,14.258,14.258,0,0,1-2.786,4.393c-.431.46-1.2,1.293-1.836,1.293-.431,0-1.092-.575-1.982-1.35-.546-.486-1.005-.946-1.005-1.319,0-.287.2-.46.718-.862,2.844-2.3,3.734-4.824,3.734-8.412,0-.919-.144-1.149-.718-1.149a3.515,3.515,0,0,0-.546.057c-.833.144-3.215.517-3.9.517-.718,0-1.12-.115-1.12-2.841,0-1.321.029-1.35,1.206-1.379q1.935-.043,3.876-.259c.488-.057.888-.23.888-.8,0-.113-.057-.457-.057-.6-.141-1.233-.486-2.87-.744-4.077a1.445,1.445,0,0,1-.086-.486c0-.318.345-.4.6-.4S-185.078-188.407-184.791-188.376Zm3.876.23a9.181,9.181,0,0,1,.661,1.836c0,.6-1.781,1.092-2.04,1.092s-.316-.172-.546-.8c-.2-.546-.46-1.264-1.005-2.5a1.651,1.651,0,0,1-.17-.488c0-.46,1.75-.833,2.037-.833S-181.576-189.7-180.915-188.146Zm3.358-1.465a7.86,7.86,0,0,1,.661,1.781c0,.63-1.838,1.089-2.04,1.089-.259,0-.316-.172-.543-.831-.175-.491-.488-1.295-1.034-2.47a1.269,1.269,0,0,1-.172-.46c0-.46,1.75-.862,2.068-.862C-178.332-191.364-178.188-191.019-177.556-189.611Zm-11.368,47.9c0,.977.057,1.9.057,2.844,0,1.348-.029,1.491-.948,1.491h-2.9c-.658,0-1-.029-1-.687,0-1.18.086-2.384.086-3.591v-15.933c0-.89,0-1.781-.029-2.669,0-.345-.029-.747-.029-1.063,0-.2.057-.259.259-.259.776,0,3.617.172,4.335.259.287.029.658.057.658.258,0,.144-.084.23-.2.371a2.036,2.036,0,0,0-.285,1.379Zm-.517,7.394c.316.055.919.144.919.515,0,.345-.23.232-.431.689a8.262,8.262,0,0,0-.373,3.244c0,.517.2.893.776.893a14.006,14.006,0,0,0,3.215-.862,5.677,5.677,0,0,1,1.321-.4c.4,0,.63.517,1.005,1.463a7.822,7.822,0,0,1,.63,2.212c0,.373-.4.486-1.491.8a36.057,36.057,0,0,1-4.251.89c-.687.115-1.175.23-1.175,1.063,0,.431.115,2.614.172,3.33.084.862.285.919,1.379,1.235a27.33,27.33,0,0,1,6.315,2.64.943.943,0,0,1,.517.718c0,.747-1.465,3.186-2.183,3.186a1.743,1.743,0,0,1-.689-.342c-.716-.488-3.7-2.212-4.45-2.212a.622.622,0,0,0-.6.6c-.371,3.1-3.157,4.105-5.913,4.105-2.87,0-6.289-1.264-6.289-4.651,0-3.56,3.591-5.111,6.662-5.111h.4a.748.748,0,0,0,.776-.744c0-.232-.144-3.246-.172-3.964a65.733,65.733,0,0,0-.488-8.9,2.264,2.264,0,0,1-.057-.433c0-.4.345-.46.661-.46C-192.657-134.805-190.16-134.43-189.442-134.315Zm-4.508,17.74c-.833,0-3.16.172-3.16,1.293,0,.833,1.465.948,2.068.948,1.063,0,2.154-.2,2.154-1.522C-192.886-116.515-193.461-116.574-193.949-116.574Zm5.6,28.728a2.824,2.824,0,0,1-2.987,2.956,2.5,2.5,0,0,1-2.669-2.525,2.861,2.861,0,0,1,2.956-3.071A2.6,2.6,0,0,1-188.35-87.847Zm-3.878-4.45c-.747,0-.859-.115-.888-.862l-.287-6.8c-.115-1.781-.345-5.743-.345-6.317,0-.488.172-.6.8-.6h3.5c.632,0,.8.115.8.6,0,.575-.227,4.507-.342,6.662l-.259,6.458c-.029.747-.144.862-.891.862Zm2.47,11.526c.345.086.632.2.632.4,0,.144-.2.259-.316.316a1.125,1.125,0,0,0-.575.687,3.716,3.716,0,0,0-.23.747.393.393,0,0,0,.4.4,17.1,17.1,0,0,0,3.33-1.005.937.937,0,0,1,.373-.115c.345,0,.546.345.661.689a16.36,16.36,0,0,1,.574,2.557c0,.543-.488.687-1.12.831-1.379.316-2.841.546-4.278.776-.23.029-.661.144-.661.373,0,.259.287.259.46.259.23,0,.919-.029,1.494-.029,4.709,0,8.871,2.442,8.871,7.607,0,3.706-2.384,6.231-5.455,7.923a14.143,14.143,0,0,1-4.163,1.551c-.8,0-1.752-2.669-1.752-3.33,0-.345.287-.4.574-.488a30.551,30.551,0,0,0,3.1-1.12c1.9-.831,3.418-2.238,3.418-4.421,0-1.807-1.034-3.157-1.551-3.157-.287,0-.431.172-.6.488a30.357,30.357,0,0,1-3.933,5.2.614.614,0,0,0-.23.488c0,.172.115.488.115.773,0,.661-2.212,2.327-3.215,2.327a.678.678,0,0,1-.46-.2.461.461,0,0,0-.316-.144.415.415,0,0,0-.2.057,9.742,9.742,0,0,1-3.789.977,3.851,3.851,0,0,1-3.789-3.99c0-2.873,1.98-5.685,4.134-7.409a14.722,14.722,0,0,1,2.928-1.807.762.762,0,0,0,.46-.689c0-.316-.2-.46-.517-.46a6.453,6.453,0,0,0-.744.057,26.09,26.09,0,0,1-2.614.144c-1.58,0-1.666,0-1.666-1.436,0-2.353.144-2.468.661-2.468.6,0,1.293.086,2.1.086,2.87,0,3.157-.029,3.272-1.12.029-.287.373-2.841.4-2.928a.5.5,0,0,1,.517-.373C-193.176-81.747-190.3-80.914-189.758-80.77Zm-8.5,16.709c0,.345.23.488.546.488a4.877,4.877,0,0,0,2.238-.862.92.92,0,0,0,.287-.833c0-.345-.029-.718-.029-1.063,0-.287.029-.546.029-.8s-.057-.548-.373-.548C-196.161-67.681-198.256-65.01-198.256-64.062Zm6.889-5.283c0,.2.086.689.373.689.316,0,1.063-1.063,1.063-1.321,0-.23-.23-.316-.431-.316C-191.366-70.293-191.366-69.632-191.366-69.345Zm.8,15.289c.546.144,1.408.4,1.408.689,0,.144-.172.23-.287.287-.4.2-.517.661-.776,1.606q-.086.391-.259.948a2.468,2.468,0,0,0-.057.259.491.491,0,0,0,.546.517,12.294,12.294,0,0,0,2.324-.745,2.473,2.473,0,0,1,.718-.2c.776,0,.776,2.841.776,3.7,0,.4-.115.572-.574.716-1.149.376-2.985.8-4.105,1.034-1.233.259-1.321.287-1.666,1.321a82.647,82.647,0,0,1-5.51,12.689c-.23.373-.4.689-.891.689s-3.473-1.293-3.473-2.154a2.69,2.69,0,0,1,.575-1.12,45.235,45.235,0,0,0,4.706-9.443,1.891,1.891,0,0,0,.2-.661c0-.4-.314-.488-.63-.488-.575,0-1.264.086-1.9.086-.6,0-.977-.086-1.149-.718a21.772,21.772,0,0,1-.316-3.043c0-.373.057-.661.517-.661.287,0,1.58.144,3.071.144,1.436,0,1.9,0,2.126-.718a31.662,31.662,0,0,0,.833-5.283c0-.17.057-.314.23-.314C-193.748-54.915-191.079-54.2-190.562-54.056Zm-.718,17.915c1.178,1.408,3.358,1.724,5.082,1.724a13.866,13.866,0,0,0,4.335-.6,1.031,1.031,0,0,1,.316-.057c.46,0,.517.632.517,1.551v.859c0,1.58,0,1.925-.517,2.068a33.53,33.53,0,0,1-4.852.373c-2.04,0-4.824-.259-6.518-1.494-.457-.345-1.376-1.149-1.376-1.807,0-.491,1.063-1.781,1.408-2.183.23-.259.747-.833,1.089-.833C-191.6-36.543-191.4-36.284-191.28-36.141Zm2.815-8.728a25.368,25.368,0,0,1,6.516.862c.4.115.718.23.718.689a10.117,10.117,0,0,1-.862,3.157.609.609,0,0,1-.546.345,2.472,2.472,0,0,1-.718-.2,12.619,12.619,0,0,0-4.936-.776h-1.034c-.661,0-.862-.086-.862-.6C-190.189-44.7-189.614-44.868-188.465-44.868Zm-4.22,20.314c.23.057.63.172.63.4a.278.278,0,0,1-.2.23c-.46.258-.517.6-.661,1.321a54.034,54.034,0,0,0-.917,10.736c0,2.269,0,4.594,2.3,4.594a6.152,6.152,0,0,0,4.62-2.439,9.4,9.4,0,0,0,1.838-4.163c.115-.575.2-1.092.689-1.092.632,0,1.491.776,1.951,1.178.517.46,1.379,1.233,1.379,1.951a10.8,10.8,0,0,1-1.235,3.531,10.193,10.193,0,0,1-9.015,5.628,7.005,7.005,0,0,1-5.542-2.356c-1.434-1.836-1.606-4.879-1.606-7.177,0-3.3.287-6.832.517-9.934.057-.6.086-1.578.086-2.238,0-.632,0-1.005.486-1.005C-196.707-25.388-193.6-24.756-192.685-24.555Zm-1.58,31.6c.689.23,1.29.4,1.29.718,0,.172-.2.287-.342.345-.373.17-.4.316-.575,1.005-.2.8-.316,1.635-.488,2.468a4.6,4.6,0,0,0-.086.661c0,.259.144.517.4.517a8.835,8.835,0,0,0,1.724-.862,9.641,9.641,0,0,1,4.278-1.005,6.66,6.66,0,0,1,5.08,2.154,5.88,5.88,0,0,1,1.522,4.249,6.141,6.141,0,0,1-1.549,4.448,11.8,11.8,0,0,1-5.053,2.844,19.144,19.144,0,0,1-4.134.8,1.059,1.059,0,0,1-1.092-.575,8.762,8.762,0,0,1-.919-3.186c0-.546.4-.632.776-.632,2.238-.029,7.665-.6,7.665-3.646,0-1.58-1.436-2.327-2.815-2.327-2.755,0-5.74,2.614-7.349,4.68-.259.345-.488.632-.946.632s-2.987-.4-2.987-1.408a2.044,2.044,0,0,1,.115-.6,44.67,44.67,0,0,0,1.58-10.593c0-1.063,0-1.551.632-1.551A22.137,22.137,0,0,1-194.265,7.041Zm.517-6.116a3.154,3.154,0,0,1,1.005.373,41.58,41.58,0,0,1,4.019,2.439c.6.433,1.032.721,1.032,1.037,0,.63-1.692,3.129-2.525,3.129a1.281,1.281,0,0,1-.747-.4,28.962,28.962,0,0,0-4.278-2.959c-.431-.259-.718-.4-.718-.716C-195.96,3.4-194.7.925-193.748.925Zm11.11,33.034a10.1,10.1,0,0,1,3.045,7.378,10.763,10.763,0,0,1-5.771,9.532,11.026,11.026,0,0,1-3.416,1.29c-1.005,0-2.528-2.64-2.528-3.442,0-.259.259-.376,1.092-.575,3.33-.862,6.059-2.959,6.059-6.633,0-4.508-3.445-6.288-4.306-6.288-.488,0-.546.517-.577,1.034-.314,3.99-1.463,8.871-4.1,12.029a5.566,5.566,0,0,1-4.165,2.384,5.115,5.115,0,0,1-4.362-2.956,9.72,9.72,0,0,1-.948-4.306,12.163,12.163,0,0,1,12.23-12.376A10.64,10.64,0,0,1-182.639,33.959Zm-15.7,9.388c0,.687.172,2.784,1.175,2.784.692,0,1.666-1.9,1.953-2.5a25.916,25.916,0,0,0,1.81-7.349c0-.23-.115-.431-.373-.431C-194.61,35.853-198.342,38.493-198.342,43.348Zm15.359,17.183a.66.66,0,0,0-.687.687v11c0,.259.057.718.572.718a1.179,1.179,0,0,0,.316-.029c.373-.057,3.16-.46,3.33-.46.577,0,.718.287.718,1.893,0,.8-.057,1.293-.831,1.522-.574.172-2.671.517-3.332.6-.716.086-.773.46-.773,1.032v.491c0,1.118.057,2.238.057,3.358,0,.687-.316.744-1.005.744h-1.867c-.948,0-1.206-.057-1.206-.716,0-1.206.057-2.413.057-3.619,0-.371-.2-.572-.515-.572-.057,0-6.432.773-7.035.831-.8.086-4.824.546-5.341.661-.316.057-.373.144-.575.4a.406.406,0,0,1-.345.172c-.4,0-.515-.373-.831-1.293-.144-.4-.287-.917-.517-1.549a4.2,4.2,0,0,1-.287-.977c0-.46.517-.46.862-.488l2.324-.172c.632-.057.89-.259.89-.89V60.987a.472.472,0,0,0-.46-.457h-.517c-1.089,0-2.181.055-3.244.055-.632,0-.689-.314-.689-1.147V57.945c0-.89.057-1.149.718-1.149,1.063,0,2.126.057,3.215.057h17.743c1.063,0,2.154-.057,3.217-.057.63,0,.687.23.687,1.034v1.781c0,.661-.057.974-.661.974-1.089,0-2.152-.055-3.244-.055Zm-11.311,0a.785.785,0,0,0-.8.8v.486a.785.785,0,0,0,.8.8h5.855a.785.785,0,0,0,.8-.8v-.486a.768.768,0,0,0-.8-.8Zm0,5.482a.785.785,0,0,0-.8.8v.517a.8.8,0,0,0,.8.8h5.855a.8.8,0,0,0,.8-.8v-.517a.768.768,0,0,0-.8-.8Zm0,5.628a.822.822,0,0,0-.8.8v.917a.792.792,0,0,0,.8.89c.431,0,5-.546,5.829-.632a.812.812,0,0,0,.831-.888v-.287a.8.8,0,0,0-.8-.8Zm4.938,13.882c.515.232.891.433.891.692,0,.227-.316.314-.517.371a1.859,1.859,0,0,0-.776,1.092c0,.23.144.316.345.316a12.963,12.963,0,0,0,2.324-.632,2.547,2.547,0,0,1,.8-.2c.632,0,.776.6.89,1.12a12.634,12.634,0,0,1,.345,2.327c0,.428-.259.546-1.838.831s-3.531.632-5.309.833c-.919.115-.979.747-.979.776,0,.144.146.2.259.2a.927.927,0,0,0,.261-.086,7.148,7.148,0,0,1,2.439-.431,4.207,4.207,0,0,1,2.068.46,2.868,2.868,0,0,1,1.376,1.637.517.517,0,0,0,.488.342,16.508,16.508,0,0,0,2.671-1.348c.256-.144.457-.259.572-.316a1,1,0,0,1,.373-.144c.718,0,1.724,3.3,1.724,3.962,0,.373-.287.46-.862.661-1.379.517-2.241.89-3.56,1.436-.689.285-.8.543-.8,1.319,0,.345.029,1.034.029,1.666,0,1.836-.029,1.867-1.637,1.867-1.98,0-2.583-.089-2.583-.979a6.959,6.959,0,0,1,.057-.773v-.144a.364.364,0,0,0-.345-.4c-.287,0-1.724.919-1.724,1.922,0,1.436,2.442,1.436,3.447,1.436a24.107,24.107,0,0,0,5.338-.718,3.469,3.469,0,0,1,.718-.086c.689,0,.718,1.034.718,2.873,0,1.089-.057,1.376-.89,1.549a39.171,39.171,0,0,1-5.568.345,10.756,10.756,0,0,1-5.025-.919,4.658,4.658,0,0,1-2.93-4.45c0-2.7,2.04-4.247,4.134-5.484.491-.285,1.063-.6,1.58-.859.258-.115.488-.259.488-.575a.819.819,0,0,0-.89-.747,8.854,8.854,0,0,0-3.933,1.666A12.967,12.967,0,0,0-198.227,102a.467.467,0,0,1-.431.316c-.632,0-3.56-1.609-3.56-2.3,0-.23.172-.4.515-.776,1.178-1.348,3.045-4.335,3.964-5.625a.629.629,0,0,0,.17-.4.415.415,0,0,0-.428-.4c-.345,0-.747.029-1.12.029-.977,0-1.063-.086-1.063-2.238,0-1.781.115-1.81,1.034-1.81.632,0,1.666.057,2.614.057,1.405,0,1.664-.115,1.894-.517a14.194,14.194,0,0,0,1.35-3.56c.086-.431.144-.632.431-.632A35.027,35.027,0,0,1-189.355,85.521Zm-45.59-299.379c0,.4-.287.6-.6.773a38.314,38.314,0,0,0-4.393,3.16c-.259.2-1.551,1.262-1.695,1.434a.326.326,0,0,0-.086.23c0,.2.172.287.345.287a7.517,7.517,0,0,0,1.092-.259c.8-.23,7.895-2.181,8.067-2.181.46,0,.546.546.718,2.267a15.371,15.371,0,0,1,.144,1.58c0,.517-.086.517-2.181.8a15.1,15.1,0,0,0-6.087,2.411c-1.12.776-2.355,1.953-2.355,3.416,0,2.241,3.706,2.3,5.283,2.413.345.029.6.029.6.46a19.658,19.658,0,0,1-.747,3.129.939.939,0,0,1-1.032.718,14.95,14.95,0,0,1-4.452-1.005c-2.238-.919-3.99-2.583-3.99-5.139a5.378,5.378,0,0,1,1.034-3.129.825.825,0,0,0,.2-.431.345.345,0,0,0-.345-.316c-.4,0-4.249,1.35-4.852,1.58a2.33,2.33,0,0,1-.833.258c-.486,0-.661-.488-.945-1.264a8.121,8.121,0,0,1-.546-2.3c0-.572.428-.661,1.578-.888a3.571,3.571,0,0,0,2.039-1.034c1.807-1.434,3.531-2.93,5.254-4.479a.475.475,0,0,0,.23-.373.3.3,0,0,0-.316-.287,9.794,9.794,0,0,0-1.235.316,4.322,4.322,0,0,1-1.005.258c-.632,0-.862-.8-1.034-1.408a11.073,11.073,0,0,1-.4-2.353c0-.546.086-.661,1.75-.8,1.838-.172,5.915-.689,7.323-1.35a1.612,1.612,0,0,1,.687-.23C-236.554-217.592-234.945-214.662-234.945-213.858Zm2.037,28.812a10.1,10.1,0,0,1,3.045,7.378,10.764,10.764,0,0,1-5.771,9.532,11.033,11.033,0,0,1-3.416,1.293c-1.005,0-2.528-2.64-2.528-3.445,0-.258.259-.376,1.092-.574,3.33-.862,6.059-2.956,6.059-6.633,0-4.508-3.445-6.286-4.306-6.286-.488,0-.546.517-.577,1.034-.314,3.99-1.463,8.869-4.1,12.029a5.564,5.564,0,0,1-4.165,2.382,5.115,5.115,0,0,1-4.361-2.956,9.72,9.72,0,0,1-.948-4.306,12.163,12.163,0,0,1,12.23-12.374A10.638,10.638,0,0,1-232.908-185.046Zm-15.7,9.388c0,.689.172,2.784,1.175,2.784.692,0,1.666-1.893,1.953-2.5a25.949,25.949,0,0,0,1.81-7.351.377.377,0,0,0-.373-.429C-244.879-183.15-248.611-180.51-248.611-175.658ZM-253-142.37c2.3-.46,2.324-.974,2.324-1.893v-3.617c0-.6-.2-1.034-.859-1.034-.6,0-1.206.086-1.81.086-.718,0-.776-.345-.776-1.149v-1.637c0-.831.086-1.147.747-1.147.546,0,1.235.057,1.922.057h1.092c.718,0,1.436-.057,2.154-.057.948,0,1.75.287,1.75,1.379,0,.687-.057,1.491-.057,2.554v2.3c0,.4,0,.716.258.716.488,0,2.068-2.784,2.557-4.077a22.662,22.662,0,0,0,1.2-7.32.82.82,0,0,0-.8-.8c-.575,0-1.178.057-1.752.057-.862,0-.948-.316-.948-1.348v-1.321c0-1.034.057-1.35.977-1.35,1.034,0,2.1.086,3.129.086h7.437c.946,0,1.922-.029,2.87-.029,1.982,0,2.181.661,2.181,2.439,0,3.588-.172,11.141-1.376,14.356a3.784,3.784,0,0,1-2.5,2.439,15.118,15.118,0,0,1-3.619.46c-1.779,0-2.583-.144-2.583-2.841,0-.6.086-1.35.689-1.35.115,0,.574.057.718.057a8.462,8.462,0,0,0,.888.057c1.436,0,2.384-.141,2.729-1.721a88.9,88.9,0,0,0,.658-8.871c0-1.063-.172-1.149-1.175-1.149h-2.355c-.718,0-1.063.2-1.089.977a25.916,25.916,0,0,1-1.752,9.475,15.454,15.454,0,0,1-3.243,5.022.6.6,0,0,1-.46.232,3.542,3.542,0,0,1-1.781-.977.89.89,0,0,0-.373-.172c-.172,0-.2.144-.2.287,0,.46.6,1.149,1.408,1.434a7.578,7.578,0,0,0,2.1.316c1.98.115,4.105.144,6.056.144q2.973,0,5.944-.172c.373-.029,1.436-.113,1.721-.113.689,0,.689.515.689,1.175a5.384,5.384,0,0,1-.517,2.525,1.512,1.512,0,0,1-1.2.4c-.919.031-2.068.057-3.275.057-1.577,0-3.272-.026-4.563-.026-1.982,0-6.518-.031-8.242-.661a4.672,4.672,0,0,1-1.98-1.321,1,1,0,0,0-.718-.431c-.259,0-.46.172-.747.373-.661.431-1.35.8-2.011,1.235-.259.17-.428.227-.572.515-.115.2-.287.546-.546.546-.287,0-.373-.086-.776-1.175a22.593,22.593,0,0,1-1.005-3.215c0-.433.46-.577,1.034-.692Zm1.779-19.981c.575,0,5,4.421,5,5,0,.632-2.123,2.353-2.669,2.353-.23,0-.431-.256-.574-.4a53.523,53.523,0,0,0-3.962-4.077c-.172-.17-.345-.314-.345-.572C-253.78-160.771-251.771-162.351-251.225-162.351Zm18.317,33.492a10.1,10.1,0,0,1,3.045,7.378,10.758,10.758,0,0,1-5.771,9.532,11.033,11.033,0,0,1-3.416,1.293c-1.005,0-2.528-2.643-2.528-3.445,0-.258.259-.373,1.092-.574,3.33-.862,6.059-2.956,6.059-6.631,0-4.51-3.445-6.288-4.306-6.288-.488,0-.546.517-.577,1.034-.314,3.99-1.463,8.869-4.1,12.029a5.564,5.564,0,0,1-4.165,2.382,5.11,5.11,0,0,1-4.361-2.956,9.713,9.713,0,0,1-.948-4.306,12.163,12.163,0,0,1,12.23-12.374A10.648,10.648,0,0,1-232.908-128.859Zm-15.7,9.388c0,.689.172,2.784,1.175,2.784.692,0,1.666-1.893,1.953-2.5a25.936,25.936,0,0,0,1.81-7.349c0-.23-.115-.431-.373-.431C-244.879-126.963-248.611-124.323-248.611-119.471Zm3.847,18.217c.287.144,2.04,1.092,2.212,1.235.113.086.227.17.227.345,0,.144-.057.2-.258.316a1.447,1.447,0,0,0-.716.773,50.806,50.806,0,0,1-5.513,8.357c-.431.515-2.04,2.468-2.614,2.468-.486,0-3.56-1.838-3.56-2.557a.738.738,0,0,1,.259-.486,33.887,33.887,0,0,0,7.466-10.681c.141-.316.259-.6.486-.6A9.055,9.055,0,0,1-244.765-101.254Zm9.044.057a23.771,23.771,0,0,1,2.066,2.528c.89,1.2,4.51,6.688,4.51,7.923,0,.63-1.35,1.319-1.838,1.577a6.645,6.645,0,0,1-2.1.776c-.373,0-.546-.345-.658-.661a44.758,44.758,0,0,0-5.427-9.357,1.065,1.065,0,0,1-.345-.661c0-.431,1.092-1.178,1.463-1.436a4.4,4.4,0,0,1,1.695-.89A1.262,1.262,0,0,1-235.721-101.2Zm7.435-1.321a3.009,3.009,0,0,1-3.014,2.987,3,3,0,0,1-2.985-2.987,3.007,3.007,0,0,1,2.985-3.014A3.015,3.015,0,0,1-228.286-102.518Zm-4.536,0A1.533,1.533,0,0,0-231.3-101a1.512,1.512,0,0,0,1.52-1.522,1.492,1.492,0,0,0-1.52-1.52A1.532,1.532,0,0,0-232.822-102.518Zm-6.372,42.246c0,.977.057,1.9.057,2.844,0,1.348-.029,1.491-.948,1.491h-2.9c-.658,0-1-.026-1-.687,0-1.178.086-2.384.086-3.591V-76.148c0-.891,0-1.781-.029-2.669,0-.345-.029-.747-.029-1.063,0-.2.057-.259.259-.259.776,0,3.617.172,4.335.259.287.029.658.057.658.259,0,.144-.084.227-.2.371a2.04,2.04,0,0,0-.285,1.379Zm4.678,16.151c1.321,0,2.7-.057,4.022-.057.8,0,.859.259.859,1.58v1.092c0,1.379-.2,1.664-.917,1.664-1.321,0-2.643-.057-3.964-.057h-3.071c-.661,0-.831.433-.919,1.005a13.558,13.558,0,0,1-3.215,6.863c-1.723,1.721-5.254,3.56-6.142,3.56-.833,0-3.129-2.844-3.129-3.416,0-.345.486-.431.917-.546,3.476-.977,5.657-2.241,6.777-5.886a5.613,5.613,0,0,0,.23-.919.633.633,0,0,0-.661-.661h-4.91c-1.178,0-3.014.089-3.761.089-.718,0-.89-.433-.89-1.781v-1.063c0-1.465.2-1.549.89-1.549.8,0,2.5.084,3.761.084Zm-4.134-7.292c1.35,0,2.671-.057,3.993-.057.8,0,.888.287.888,1.609v1.321c0,1.089-.029,1.405-.948,1.405-1.29,0-2.554-.057-3.816-.057h-6.346c-1.293,0-2.583.057-3.876.057-.862,0-.919-.259-.919-1.721v-1.005c0-1.235.086-1.609.891-1.609,1.2,0,2.384.057,3.531.057Zm2.126,41.7c0,.546.029,1.12.029,1.666,0,.8-.661.833-1.293.833h-.974c-1.551,0-1.58-.144-1.58-1.092,0-.89.057-1.752.057-2.64v-4.912a.368.368,0,0,0-.373-.4,1.449,1.449,0,0,0-.718.373c-.575.429-3.387,2.324-3.933,2.324-.574,0-2.7-2.066-2.7-2.727,0-.316.345-.46.689-.6,4.879-2.181,9.07-5.455,11.512-9.388.2-.345.345-.574.517-.574a6.812,6.812,0,0,1,1.893,1.092c.373.287,1.58.977,1.58,1.436,0,.23-.172.316-.4.373a1.435,1.435,0,0,0-1.034.687,30.858,30.858,0,0,1-2.468,2.7,1.855,1.855,0,0,0-.8,1.752Zm-2.669,26.657c0,.974.057,1.894.057,2.841,0,1.35-.029,1.494-.948,1.494h-2.9c-.658,0-1-.031-1-.689,0-1.178.086-2.384.086-3.591V1.066c0-.888,0-1.779-.029-2.669,0-.345-.029-.747-.029-1.063,0-.2.057-.259.259-.259.776,0,3.617.172,4.335.259.287.029.658.057.658.259,0,.144-.084.23-.2.373a2.032,2.032,0,0,0-.285,1.379Zm2.813,12.046a4.667,4.667,0,0,0,1.092-.086.977.977,0,0,1,.287-.029c.946,0,2.87,2.411,2.87,2.93a2.175,2.175,0,0,1-.4.8c-.172.316-.4.689-.661,1.149-2.956,5.6-5.625,9.647-11.052,13.149-.718.46-3.359,2.095-4.048,2.095-.546,0-1.666-1-2.126-1.405-.345-.316-1.092-.977-1.092-1.408,0-.4.546-.6,1.034-.8a26.129,26.129,0,0,0,11.715-10.564,4,4,0,0,0,.515-1.321c0-.373-.4-.4-.744-.4H-243.1c-.486,0-.716.345-.974.689-.575.8-1.839,2.238-2.526,2.985a2.331,2.331,0,0,0-.232.259c-.546.546-1.549,1.58-1.951,1.58a10.162,10.162,0,0,1-3.129-1.81.919.919,0,0,1-.373-.661A.616.616,0,0,1-252,35.68a23.882,23.882,0,0,0,4.536-4.768,27.13,27.13,0,0,0,3.33-5.8c.115-.316.287-.8.517-.8a24.71,24.71,0,0,1,2.784,1.293c.488.23.89.429,1.034.488.172.084.6.285.6.486,0,.115-.172.2-.258.259a2.733,2.733,0,0,0-1.149,1.637c0,.316.23.46.517.517Zm6.231-.46c0,.575-1.58,1.494-1.838,1.494-.144,0-.23-.144-.316-.259a30.924,30.924,0,0,0-2.011-2.671.613.613,0,0,1-.2-.342c0-.46,1.637-1.321,1.9-1.321A11.1,11.1,0,0,1-230.15,28.53Zm3.014-2.1c0,.517-1.465,1.494-1.807,1.494-.144,0-.261-.172-.345-.287a30.742,30.742,0,0,0-2.04-2.64c-.086-.115-.172-.2-.172-.316,0-.431,1.609-1.321,1.9-1.321A10.633,10.633,0,0,1-227.137,26.433Zm-15.99,30.878a10.886,10.886,0,0,1,1.348,2.5c0,.718-2.5,1.836-2.956,1.836-.316,0-.488-.345-.6-.575a37.3,37.3,0,0,0-2.3-3.818c-.17-.259-.227-.345-.227-.546,0-.6,2.353-1.664,2.87-1.664C-244.535,55.044-243.472,56.765-243.127,57.311Zm12.833-2.181c.371.17.63.345.63.6,0,.141-.141.285-.371.46-.29.2-.316.227-.46.716-.948,3.217-1.695,5.4-3.9,8.038a16.533,16.533,0,0,1-8.1,5.226,4.643,4.643,0,0,1-.948.259c-.486,0-1.2-1.034-1.491-1.465a3.587,3.587,0,0,1-.747-1.376c0-.373.2-.488.546-.575a18.561,18.561,0,0,0,4.68-1.953,11.608,11.608,0,0,0,4.22-4.048,16.817,16.817,0,0,0,2.123-6.4c.057-.345.089-.632.4-.632.175,0,1.465.46,2.04.661C-231.041,54.871-230.639,54.986-230.294,55.13Zm-7.409.371a11.911,11.911,0,0,1,1.465,2.7c0,.689-2.5,1.807-2.928,1.807-.316,0-.488-.316-.632-.572a35.65,35.65,0,0,0-2.327-3.9.82.82,0,0,1-.2-.46c0-.546,2.384-1.637,2.873-1.637C-239.051,53.435-238.218,54.728-237.7,55.5Zm-.716,21.949c.546,0,1.463,0,1.98-.057.2-.026.575-.086.689-.086.919,0,2.47,2.183,2.47,2.585a14.082,14.082,0,0,1-1.036,1.925,35.214,35.214,0,0,1-3.387,5.139.937.937,0,0,0-.23.543c0,.316.172.46.4.632a53.772,53.772,0,0,1,5.226,4.048c.287.259,1.321,1.178,1.522,1.408a.53.53,0,0,1,.144.345c0,.8-2.413,3.33-3.16,3.33-.46,0-.974-.632-1.319-1.034a30.082,30.082,0,0,0-5.082-4.651,1.555,1.555,0,0,0-.919-.46.938.938,0,0,0-.687.345,32.251,32.251,0,0,1-6.834,4.795,7.676,7.676,0,0,1-1.695.718c-.373,0-1.092-.862-1.692-1.75a5.311,5.311,0,0,1-.89-1.838c0-.488.46-.661.833-.776a25.911,25.911,0,0,0,11.77-9.475,1.709,1.709,0,0,0,.345-.773c0-.488-.546-.546-1.005-.546h-4.335c-1.29,0-2.612.084-3.9.084-.747,0-.8-.4-.8-1.463V78.57c0-1,.057-1.178.776-1.178.747,0,1.494.057,2.241.057Zm5.884-2.468c.431.373,2.3,2.126,2.3,2.585,0,.517-1.35,1.606-1.695,1.606-.172,0-.4-.316-.632-.6-.6-.687-1.262-1.379-1.922-2.037-.086-.086-.259-.23-.259-.373,0-.431,1.491-1.494,1.779-1.494C-232.851,74.665-232.621,74.9-232.535,74.981Zm5.341.431c0,.517-1.35,1.609-1.692,1.609-.146,0-.29-.172-.376-.287a31.151,31.151,0,0,0-2.3-2.47A.3.3,0,0,1-231.7,74c0-.4,1.436-1.463,1.779-1.463C-229.664,72.542-227.194,74.924-227.194,75.412Zm-18.346,27.174a20.348,20.348,0,0,1,2.327-.23c.773,0,.831.057,1.032,2.212a22.459,22.459,0,0,0,.488,3.473c.086.345.23.747.661.747a19.89,19.89,0,0,0,3.732-1.9,10.547,10.547,0,0,1,2.269-1.149c.314,0,.917.89,1.319,1.551a8.425,8.425,0,0,1,1.178,2.468c0,.316-.316.431-.919.632-.115.057-.259.086-.4.144a49.514,49.514,0,0,0-9.044,4.536c-1.376.862-3.358,2.154-3.358,3.646,0,1.925,3.648,1.925,4.967,1.925a36.067,36.067,0,0,0,4.364-.23c.6-.086,2.585-.4,3.045-.546.084,0,.2-.029.285-.029.287,0,.373.488.4.718.086.833.115,1.779.115,2.614,0,.859-.029,1.118-.776,1.319a57.513,57.513,0,0,1-7.866.488,11.777,11.777,0,0,1-6.257-1.293,5.622,5.622,0,0,1-2.872-4.907c0-2.844,2.04-5.228,4.309-6.691.429-.259.687-.4.687-.891a2.413,2.413,0,0,0-.172-.689c-.23-.776-.431-1.578-.632-2.411a42.228,42.228,0,0,0-1.2-4.393,1.515,1.515,0,0,1-.086-.345C-247.951,103.018-247.606,102.845-245.54,102.587Zm11.4,32.139c1.434,0,2.9-.086,4.335-.086.831,0,.919.428.919,1.52v1.953c0,1.175-.089,1.549-.919,1.549-1.436,0-2.9-.115-4.335-.115h-14.643c-1.436,0-2.87.115-4.335.115-.833,0-.919-.4-.919-1.549V136.16c0-1.092.086-1.52.919-1.52,1.436,0,2.87.086,4.335.086Zm-13.609,23.3a2.5,2.5,0,0,0-.373.661c0,.172.2.2.316.2.2,0,1.118-.029,1.118-.258a2.807,2.807,0,0,0-.256-.776,1.547,1.547,0,0,1-.115-.4c0-.572,1.606-1.032,2.037-1.032.6,0,.891.831,1.551,3.1.144.46.285.948.747.948a4.74,4.74,0,0,0,1.779-1.092c.144-.115.23-.172.316-.23.144-.086.287-.172.287-.345s-.23-.2-.345-.2-.23.029-.316.029c-.689,0-1.348.057-2.039.057-.572,0-.63-.259-.63-1.12v-1.75c0-.718.057-1.034.63-1.034.776,0,1.551.086,2.327.086.46,0,.6-.144.6-.632v-.316c0-.488-.144-.661-.689-.661-.488,0-.977.031-1.465.031-.575,0-.632-.232-.632-1.063v-1.666c0-.862.057-1.149.632-1.149.373,0,.747.057,1.12.057.718,0,1.005-.258,1.005-.974,0-.376-.058-.833-.058-1.206,0-.345.172-.488.517-.488.4,0,2.612.2,3.1.259.46.057,1.034.057,1.034.46a.56.56,0,0,1-.345.488c-.2.113-.259.488-.259.747a.713.713,0,0,0,.8.687c.316,0,.6-.029.919-.029.515,0,.6.345.6.8v.316c0,.23,0,.431.144.431.285,0,1.405-2.468,1.578-2.844.086-.2.144-.371.431-.371a4.876,4.876,0,0,1,1.465.63c.144.086.227.144.345.2,1.089.546,1.98.948,1.98,1.408,0,.259-.2.345-.431.373-.431.057-.46.115-.718.546-.515.862-1.578,2.468-2.152,3.3a.524.524,0,0,0-.144.316c0,.23.144.316.345.316.6,0,1.2-.057,1.807-.057s.661.23.661,1.264v1.147c0,1.293,0,1.494-.661,1.494-.831,0-1.75-.086-2.755-.086H-234a1.621,1.621,0,0,0-1.52,1.063c0,.259.345.259.747.259h.917c.862,0,1.752-.057,2.614-.057s1.779.057,1.779,1.149c0,.661-.057,1.319-.057,2.008v6.6c0,.919.086,2.152.086,2.669,0,.575-.345.632-1.175.632h-1.522c-.977,0-1.321-.057-1.321-.632v-.086a.467.467,0,0,0-.517-.517h-3.157c-.431,0-.574.316-.574.661,0,.517-.4.575-1.262.575h-1.58c-.977,0-1.321-.057-1.321-.632,0-.6.086-1.692.086-2.669V165.46c0-.23,0-.546-.287-.546a.84.84,0,0,0-.259.057.65.65,0,0,1-.227.057c-.517,0-1.178-1.005-1.465-1.379-.23-.316-.287-.373-.546-.373-.144,0-.259.029-.373.029-.431,0-.517-.259-.6-.747-.057-.287-.115-.431-.431-.431-.89,0-.89.345-.89.632v4.824c0,1.494.06,2.959.06,4.45,0,.8-.29.862-1.206.862h-1.522c-.89,0-1.178-.057-1.178-.833,0-1.494.058-2.985.058-4.479v-2.095c0-.086,0-.287-.115-.287-.227,0-.287.488-.314.917-.057.8-.376,3.964-.548,4.91-.086.546-.2.776-.63.776-.546,0-2.47-.431-2.47-1.092a8.219,8.219,0,0,1,.23-1.089c.2-.948.4-2.671.488-3.674.029-.4.057-.718.086-.977.086-.977.115-1.12.373-1.12.4,0,2.181.373,2.557.373.258,0,.342-.115.342-.373v-.575c0-.259-.084-.373-.342-.373-.175,0-1.005.115-1.35.172-.373.057-.4.057-.546.287a.585.585,0,0,1-.46.259c-.431,0-.488-.287-.8-1.982-.086-.428-.2-.974-.316-1.606a2.55,2.55,0,0,1-.057-.431c0-.373.373-.373.632-.373.948,0,1.465,0,1.867-.546a2.922,2.922,0,0,0,.658-1.405c0-.433-.572-.862-.946-1.178-.689-.574-1.35-1.034-2.1-1.58-.172-.115-.345-.2-.345-.431,0-.316,1.264-2.9,1.81-2.9a.53.53,0,0,1,.345.144.415.415,0,0,0,.2.057c.2,0,.287-.287.517-.862.428-1.063.8-2.037,1.175-3.244.115-.373.172-.488.431-.488a11,11,0,0,1,2.1.776c.891.373,1.178.46,1.178.744,0,.232-.175.345-.433.4a.726.726,0,0,0-.6.433c-.517,1.06-1.092,2.209-1.551,3.1a3.3,3.3,0,0,0-.431.948c0,.23.287.632.546.632s.373-.316.574-.744c.373-.778.747-1.58,1.118-2.355.175-.345.232-.6.577-.6a7.683,7.683,0,0,1,1.865.862l.46.23c.833.4,1.35.575,1.35,1.005,0,.316-.2.371-.46.428a.809.809,0,0,0-.632.46C-245.655,154.807-246.66,156.416-247.75,158.022Zm4.077,7.064a28.968,28.968,0,0,1,.773,3.042,1.1,1.1,0,0,1,.031.287c0,.747-1.867,1.034-2.3,1.034s-.488-.2-.574-.6c-.287-1.494-.517-2.64-.891-3.933a1.2,1.2,0,0,1-.112-.46c0-.546,1.692-.8,2.066-.8C-244.133,163.65-244.075,163.765-243.673,165.086Zm5.913-1.35a.437.437,0,0,0,.46.46h3.476a.472.472,0,0,0,.457-.46v-.144a.494.494,0,0,0-.457-.46H-237.3a.472.472,0,0,0-.46.46Zm0,4.163a.454.454,0,0,0,.46.46h3.476a.472.472,0,0,0,.457-.46v-.144a.472.472,0,0,0-.457-.46H-237.3a.437.437,0,0,0-.46.46Zm2.614-14.643c0-.227-.316-.227-.488-.227-.4,0-.776.026-.776.661v.687c0,.259,0,.46.086.46A5.28,5.28,0,0,0-235.146,153.256ZM-250.392,179.6c.144-.546.287-1.089.373-1.549.086-.546.115-.8.488-.8a36.989,36.989,0,0,1,4.249,1.549c.575.259.747.433.747.575,0,.115-.086.172-.2.23a1.739,1.739,0,0,0-1.063,1.178,23.157,23.157,0,0,0-1.75,8.153c0,1.58,0,2.355.371,2.355.2,0,.345-.232.488-.46.172-.287.347-.6.661-.6.345,0,1.494.974,1.494,1.408,0,.4-1.264,2.612-1.264,4.16,0,.2.057.919.115,1.35a8.177,8.177,0,0,1,.086.833c0,1.063-2.123,1.9-3.014,1.9-.546,0-.8-.373-1.321-1.408a20.716,20.716,0,0,1-1.838-9.216A35.362,35.362,0,0,1-250.392,179.6Zm8.211,12.316a4.486,4.486,0,0,0,4.019,1.925,23.286,23.286,0,0,0,6.288-.919,2.881,2.881,0,0,1,.689-.115c.373,0,.546.373.574.632a28.28,28.28,0,0,1,.144,2.987c0,.371-.029.572-.4.744-1.005.488-5.8.919-7.093.919-4.622,0-6.66-2.3-6.66-2.956,0-.546,1.434-3.445,2.095-3.445C-242.383,191.686-242.268,191.829-242.182,191.913Zm-.057-12.431a5.822,5.822,0,0,1,.891.115,20.971,20.971,0,0,0,3.789.4,17.711,17.711,0,0,0,4.249-.572,2.42,2.42,0,0,1,.574-.089c.546,0,.718.6.776,1.034a21.645,21.645,0,0,1,.172,2.353c0,.689-.086.891-.833,1.005a34.025,34.025,0,0,1-4.823.345c-.862,0-4.824-.144-5.367-.6-.232-.2-.232-1.06-.232-1.376C-243.043,179.971-242.926,179.482-242.239,179.482Zm3.33,24.249c.232.029.661.115.661.316,0,.086-.084.172-.2.259a1.193,1.193,0,0,0-.46.859c-.026.29-.055.893-.055,1.321,0,.747.029,1.206.891,1.206,2.267,0,4.536-.287,6.8-.287.431,0,.8.029.8,2.039a12.1,12.1,0,0,1-.172,2.152c-.086.23-.172.345-.431.345-.144,0-3.246-.2-4.134-.23-.948-.029-1.925-.029-2.9-.029a.763.763,0,0,0-.831.862v.689a2.534,2.534,0,0,0,.4,1.578,9.485,9.485,0,0,1,.773,3.876c0,4.625-3.186,10.221-4.649,10.221a7.929,7.929,0,0,1-2.327-.776c-.8-.345-1.465-.661-1.465-1.063,0-.259.373-.6.6-.8.546-.517,1.925-1.81,1.925-2.269,0-.316-.259-.373-.517-.373-2.643-.057-3.648-3.042-3.648-5.252,0-2.557,1.178-5.312,3.964-5.829.2-.029.546-.057.546-.316,0-.144-.117-.287-.373-.287-.316,0-2.413.23-2.873.287-.687.086-4.706.747-5.281.891a3.846,3.846,0,0,1-.519.086c-.457,0-.6-.661-.744-2.384-.086-.948-.115-1.606-.115-1.836,0-.431.144-.488.833-.517,2.612-.115,5.2-.316,7.493-.431.747-.029,1.408-.086,1.408-1.034a22.6,22.6,0,0,0-.259-3.129.81.81,0,0,1-.029-.23.39.39,0,0,1,.431-.431C-242.842,203.214-239.568,203.645-238.909,203.731Zm-5.022,14.384c0,.515.115,2.008.888,2.008s.977-1.436.977-2.008c0-.6-.115-1.867-.946-1.867C-243.788,216.249-243.932,217.541-243.932,218.116Zm-8.326,32.053a103.371,103.371,0,0,1,6.688-12.891c1.206-1.867,2.5-3.732,3.617-5.657.086-.172.172-.316.4-.316a15.375,15.375,0,0,1,2.557,1.724l.373.287c.546.4.859.661.859.919s-.172.371-.4.431c-.747.141-.747.285-1.319,1a42.186,42.186,0,0,0-2.985,4.163,1.075,1.075,0,0,0-.2.46.427.427,0,0,0,.371.373,2.176,2.176,0,0,0,.46-.086,4.389,4.389,0,0,1,1.034-.115c2.5,0,4.077,1.293,4.077,3.847a27.58,27.58,0,0,1-.689,4.278,6.274,6.274,0,0,0-.144,1.092c0,.287.144.575.488.575,1.005,0,3.7-3.246,4.364-4.105.488-.632.747-.948,1.12-.948.574,0,1.922,3.045,1.922,3.56,0,.546-1.894,2.3-2.353,2.729-1.752,1.578-3.9,3.244-6.375,3.244-2.324,0-3.3-1.953-3.3-4.019a18.475,18.475,0,0,1,.4-3.33,15.562,15.562,0,0,0,.287-2.126c0-.488-.172-.8-.689-.8a4.983,4.983,0,0,0-2.181.689,6.17,6.17,0,0,0-2.5,2.643,29.417,29.417,0,0,0-2.468,5.884c-.115.431-.23.862-.747.862a10.465,10.465,0,0,1-3.014-1.149c-.488-.259-.8-.4-.8-.661A26.549,26.549,0,0,1-252.257,250.169Zm9.271,10.81c.376.115.661.23.661.4,0,.115-.084.172-.2.23-.517.287-.575.8-.661,1.321a56.266,56.266,0,0,0-.917,10.736c0,2.241,0,4.594,2.3,4.594a6.144,6.144,0,0,0,4.62-2.439,9.262,9.262,0,0,0,1.839-4.192c.086-.546.2-1.063.689-1.063.632,0,1.491.776,1.951,1.178.517.46,1.379,1.235,1.379,1.951a10.779,10.779,0,0,1-1.235,3.531,10.193,10.193,0,0,1-9.015,5.628,7.011,7.011,0,0,1-5.542-2.353c-1.434-1.838-1.606-4.881-1.606-7.177,0-3.3.287-6.6.517-9.934.057-.661.086-1.58.086-2.241,0-.632,0-1.005.486-1.005A42.21,42.21,0,0,1-242.986,260.979Zm5.513,2.1c.4.373,2.241,2.209,2.241,2.669,0,.517-1.408,1.58-1.724,1.58-.172,0-.345-.23-.431-.373-.63-.8-1.321-1.551-2.008-2.3-.115-.117-.287-.29-.287-.433,0-.428,1.52-1.434,1.81-1.434C-237.732,262.789-237.559,262.99-237.473,263.076Zm3.189-2.442c.345.316.716.718,1.118,1.149a5.211,5.211,0,0,1,1.178,1.578c0,.491-1.379,1.58-1.692,1.58-.089,0-.232-.086-.433-.342a24.138,24.138,0,0,0-2.066-2.3c-.172-.172-.287-.316-.287-.431,0-.46,1.522-1.436,1.81-1.436A.607.607,0,0,1-234.284,260.634Zm-7.868,30.418a6.527,6.527,0,0,1,.632-1.721c.258-.517.431-.948.891-.948a17.956,17.956,0,0,1,3.1,1.032c.373.144,1.149.46,1.149.948a.976.976,0,0,1-.029.287v.144c0,.23.172.345.4.345.086,0,.316-.029.6-.057a3.886,3.886,0,0,1,.661-.029c2.727,0,4.68,1.609,4.68,4.421,0,4.45-5.341,5.628-6.231,5.628-.948,0-1.666-2.327-1.666-2.729,0-.431.287-.546.661-.6,1.12-.2,3.588-.716,3.588-2.181a1.174,1.174,0,0,0-1.233-1.235,11.975,11.975,0,0,0-4.881,1.867.727.727,0,0,0-.373.661c0,.689,3.215,5.771,3.818,6.66a1.609,1.609,0,0,1,.287.689c0,.632-2.3,1.779-2.9,1.779a.658.658,0,0,1-.575-.371c-.373-.632-2.557-4.852-3.074-5.858-.227-.46-.4-.862-.859-.862-.4,0-1.494,1.005-1.838,1.321a.816.816,0,0,1-.488.259c-.689,0-2.066-2.382-2.066-2.928,0-.29.287-.46.546-.6,1.463-.8,2.152-1.235,2.152-1.81a7.241,7.241,0,0,0-1.321-2.382,1.245,1.245,0,0,1-.4-.689c0-.373.577-.574,1.867-1.063.345-.115.747-.287,1.206-.46a2.052,2.052,0,0,1,.658-.172c.2,0,.433.144.433.345a3.385,3.385,0,0,0-.115.546,4.394,4.394,0,0,0,.429,1.206c.258.574.373.776.8.776a2.41,2.41,0,0,0,.919-.4c.316-.175.517-.287.517-.517a.4.4,0,0,0-.345-.4c-.172-.057-.46-.144-.574-.172C-241.751,291.6-242.153,291.483-242.153,291.052Zm-1.721,20.026c.345.055.8.141.8.457a.481.481,0,0,1-.23.373c-.4.285-.431.345-.517,1.175-.029.2-.057.431-.086.747,0,.086-.029.2-.029.318,0,.316.115.457.431.8a3.287,3.287,0,0,1,.917,1.52,1.626,1.626,0,0,1-.46.835c-.057.057-.084.115-.113.144a6.037,6.037,0,0,0-1.034,1.494.22.22,0,0,0,.2.227c.144,0,.259-.144.373-.259.428-.457,1.206-1.12,1.692-1.549,1.666-1.436,3.272-2.528,5.542-2.528a5.156,5.156,0,0,1,4.622,2.554c.977,1.668,1.149,4.223,1.149,6.116a17.975,17.975,0,0,1-.115,2.152c0,.117-.029.232-.029.316a.933.933,0,0,0,.63.891c.345.2.862.517,1.18.749.457.316.888.63.888,1.2,0,.718-1.178,2.7-2.181,2.7a2.556,2.556,0,0,1-1.206-.577.923.923,0,0,0-.574-.227.787.787,0,0,0-.689.342,6.579,6.579,0,0,1-4.938,2.126c-2.382,0-5.309-1.321-5.309-4.077,0-2.985,3.56-4.192,6.028-4.192.862,0,1.465.115,1.637.115a.667.667,0,0,0,.747-.747,20.173,20.173,0,0,0-.144-2.3c-.115-1.147-.345-3.157-1.838-3.157-2.554,0-5.6,3.016-7.32,4.737-.546.546-.6.977-.6,2.382v1.637c0,1.637.057,3.3.2,4.941,0,.055.029.141.029.2,0,.744-.287.773-3.387.773-.632,0-1.293,0-1.293-.517,0-.055.23-2.267.23-3.215,0-.144-.029-.287-.2-.287-.259,0-.919,1.321-1.063,1.664-.086.23-.259.488-.546.488-.546,0-2.841-2.066-2.841-2.669a3.182,3.182,0,0,1,.6-1.032,47.048,47.048,0,0,0,4.306-7.035,1.223,1.223,0,0,0,.057-.316c0-.172-.057-.287-.259-.287a6.148,6.148,0,0,0-1.235.4,5.72,5.72,0,0,1-1.781.517c-.428,0-.6-.287-.859-.891a16.239,16.239,0,0,1-.948-2.985c0-.462.345-.575.891-.632a24.627,24.627,0,0,0,3.186-.546c.431-.115.89-.172,1.12-.6a2.318,2.318,0,0,0,.144-1.034V314.2c.029-.773.086-1.98.086-2.7v-.574c0-.345.17-.488.517-.488A26.99,26.99,0,0,1-243.874,311.079Zm4.651,17.97c0,.575,1.118.689,1.549.689.661,0,1.81-.287,1.81-.8s-1.293-.574-1.637-.574C-237.961,328.359-239.223,328.446-239.223,329.049Zm2.008,13.712c.833,0,2.585,2.612,2.585,3.129,0,.345-.29.515-.546.689-.747.543-2.3,1.951-3.016,2.612-.428.4-.687.689-.687.891,0,.345.2.46.661.63a2.789,2.789,0,0,1,1.807,2.987,14.787,14.787,0,0,1-.2,2.241,15.18,15.18,0,0,0-.2,1.549c0,.345.115.575.488.575a9.142,9.142,0,0,0,3.416-1.436,2.167,2.167,0,0,0,.23-.144,3.934,3.934,0,0,1,1.522-.689c.287,0,.345.287.373.517.086.548.2,2.327.2,2.87,0,1.005-.113,1.178-.572,1.408a16.774,16.774,0,0,1-5.829,1.58,3.864,3.864,0,0,1-3.99-3.674c0-1.293.46-2.928.46-3.962,0-.287-.115-.574-.46-.574-2.269,0-6.4,6.4-7.177,7.38-.488.63-.776,1.032-1.034,1.032-.776,0-3.358-2.011-3.358-2.987,0-.316.345-.744,1.465-1.664.716-.6,3.531-3.617,4.821-5.051,1.12-1.266,2.269-2.5,3.416-3.734.144-.144.376-.373.376-.575a.267.267,0,0,0-.287-.259c-.115,0-1.724.491-2.011.577a19.657,19.657,0,0,1-2.64.6c-.287,0-.517-.115-.8-.574a9.663,9.663,0,0,1-1.408-3.129c0-.431.287-.546.718-.575a52.247,52.247,0,0,0,7.263-1.149c.259-.055.46-.115.46-.316s-.144-.287-.4-.371c-1.089-.373-2.123-.776-3.244-1.092-1.149-.316-1.666-.431-1.666-.948a11.536,11.536,0,0,1,.6-2.1c.431-1.178.488-1.262.833-1.262a3.019,3.019,0,0,1,.977.23c1.29.428,2.612.891,3.933,1.293,1.063.316,1.522.428,1.522.888a11.17,11.17,0,0,1-.632,2.269.946.946,0,0,0-.086.371.382.382,0,0,0,.373.376.622.622,0,0,0,.256-.06A7.67,7.67,0,0,1-237.215,342.76Zm-1.405,42.1a2.824,2.824,0,0,1-2.987,2.956,2.5,2.5,0,0,1-2.669-2.525,2.863,2.863,0,0,1,2.956-3.074A2.6,2.6,0,0,1-238.62,384.862Zm-3.878-4.452c-.747,0-.859-.112-.888-.859l-.287-6.806c-.115-1.779-.345-5.74-.345-6.315,0-.488.172-.6.8-.6h3.5c.632,0,.8.115.8.6,0,.574-.227,4.505-.342,6.66l-.259,6.461c-.029.747-.144.859-.891.859Z" transform="translate(254.986 217.791)"/></svg>