<svg xmlns="http://www.w3.org/2000/svg" width="27.878" height="485.535" viewBox="0 0 27.878 485.535"><defs><style>.a{fill:#3c2819;}</style></defs><path class="a" d="M-158.437-198.181c-.2.115-.46.259-.46.517,0,.2.144.316.316.4a20.774,20.774,0,0,0,4.251,1.635c.486.144.8.259.8.575,0,.8-1.319,3.272-2.181,3.272a2.58,2.58,0,0,1-.776-.2,24.338,24.338,0,0,1-6.346-3.473,14.13,14.13,0,0,1-4.879-6.458.972.972,0,0,0-1.063-.718h-1.58a.8.8,0,0,0-.8.8v4.022c0,.428.086.8.6.8.345,0,3.272-.634,3.818-.747a4.118,4.118,0,0,1,.6-.115c.517,0,.575.687.575,1.465v.6c0,1.321-.2,1.436-1.264,1.695-2.956.718-6.832,1.463-9.846,1.9-.29.026-.345.055-.46.256-.115.287-.2.488-.517.488-.431,0-.574-.4-.689-.744a31.1,31.1,0,0,1-1.034-3.16c0-.488.373-.517,1.666-.632q.689-.043,1.724-.172a.716.716,0,0,0,.687-.773v-13.58c0-1.005-.086-2.04-.086-3.074,0-1.175.517-1.578,1.666-1.578,1.005,0,2.008.057,3.014.057h1.35a.8.8,0,0,0,.8-.8c0-.345-.057-.862-.086-1.178a3.049,3.049,0,0,1-.029-.431c0-.373.287-.4.6-.4.8,0,2.7.144,3.359.2.689.057,1.178.086,1.178.431,0,.172-.2.259-.376.4a1.217,1.217,0,0,0-.342,1.034.773.773,0,0,0,.8.747h1.522c.977,0,1.982-.057,2.956-.057,1.005,0,1.695.23,1.695,1.578,0,1.034-.057,2.068-.057,3.074v3.3c0,1,.057,2.008.057,2.985v.373c0,.862.259,1.063,2.269,2.841.144.144.428.373.428.632a.417.417,0,0,1-.428.4,3.172,3.172,0,0,1-.46-.086h-.086a.776.776,0,0,0-.316.144C-156.627-199.359-157.6-198.67-158.437-198.181ZM-162-210.5a.472.472,0,0,0,.46-.46v-.084a.472.472,0,0,0-.46-.46h-8.7a.454.454,0,0,0-.46.46v.084a.454.454,0,0,0,.46.46Zm-8.7,3.361a.454.454,0,0,0-.46.46v.113a.454.454,0,0,0,.46.46h8.7a.472.472,0,0,0,.46-.46v-.113a.472.472,0,0,0-.46-.46Zm7.437,4.508c-.232,0-.546.029-.546.316,0,.2.974,2.123,1.664,2.123a1.937,1.937,0,0,0,.919-.431.455.455,0,0,1,.144-.112c.316-.2,1.836-1.264,1.836-1.551,0-.316-.285-.345-2.669-.345Zm-7.725,16.666.259.086c.46.172.919.345.919.658,0,.146-.086.175-.259.259a1.949,1.949,0,0,0-1.092,1.092,19.348,19.348,0,0,0-1.635,7.753c0,1.063,0,2.008.345,2.008.172,0,.227-.115.428-.546.232-.517.373-.891.661-.891.373,0,1.867.833,1.867,1.264s-1.178,3.445-1.178,5.025c0,.345.086.977.115,1.321a4.282,4.282,0,0,1,.057.6c0,1.06-2.353,1.836-2.956,1.836-.517,0-.8-.258-1.264-1.092a19.2,19.2,0,0,1-2.123-9.5,32.946,32.946,0,0,1,1.405-9.3,6.468,6.468,0,0,0,.23-.948c.115-.776.23-.948.517-.948a25.411,25.411,0,0,1,2.612.919C-171.558-186.167-171.155-186.023-170.983-185.966Zm11.773-1.293c.256.029.488.086.488.287a.735.735,0,0,1-.232.4,2.075,2.075,0,0,0-.287,1.379c0,2.152.144,2.727.747,2.727a13.417,13.417,0,0,0,1.695-.345,1.99,1.99,0,0,1,.46-.086c.517,0,.661.689.718,1.092a18.593,18.593,0,0,1,.172,2.212c0,.859-.23.888-2.355,1.175-.373.057-1.092.144-1.092.977,0,.46.031.946.031,1.436A14.291,14.291,0,0,1-162-166.244c-.46.6-1.721,2.068-2.5,2.068a1.38,1.38,0,0,1-.747-.316c-.862-.632-2.269-1.752-2.269-2.355,0-.227.117-.4.488-.687.086-.057.115-.089.232-.172,2.928-2.355,3.732-4.852,3.732-8.5v-.517c0-.431-.175-.776-.689-.776-.23,0-1.838.259-2.04.287-.661.086-1.838.287-2.468.287-.689,0-1.063-.172-1.063-2.614,0-1.551.029-1.606,1.063-1.606.572,0,3.33-.144,4.134-.287.429-.086.745-.287.745-.776a32.725,32.725,0,0,0-.8-4.479,2.518,2.518,0,0,1-.057-.46c0-.345.316-.4.6-.4C-163.376-187.546-161.307-187.46-159.21-187.259Zm-8.441,26.372c.316.057.428.172.428.373s-.144.316-.287.431c-.373.287-.373.4-.46,1.29-.026.2-.227,2.04-.227,2.3a.865.865,0,0,0,.345.718,2.9,2.9,0,0,1,.888,1.465c0,.144-.057.256-.057.373,0,.172.115.2.144.2.144,0,.431-.318.661-.546,1.235-1.178,2.726-2.356,4.507-2.356a3.835,3.835,0,0,1,3.071,1.436,5.669,5.669,0,0,1,.661,3.3c0,1.551-.057,3.1-.115,4.622-.029.948-.115,1.9-.115,2.813,0,.46,0,1.063.46,1.063.4,0,1.551-1.264,1.867-1.609a.909.909,0,0,1,.661-.4c.373,0,.831.919.974,1.2a9.588,9.588,0,0,1,.948,2.384c0,.316-.316.6-.948,1.12-1.434,1.175-3.244,2.382-5.166,2.382a2.818,2.818,0,0,1-2.384-1.436,8.171,8.171,0,0,1-.747-4.134c0-2.784.373-5.683.373-7.205,0-.373-.115-.8-.574-.8-1.092,0-4.364,3.215-5.195,4.077a1.65,1.65,0,0,0-.546,1.494c0,2.353.055,5.973.314,8.268a1.881,1.881,0,0,1,.031.4c0,.287-.23.345-.517.373a25.369,25.369,0,0,1-2.557.115c-1.206,0-1.609-.029-1.609-.575,0-.057.175-2.039.175-2.987,0-.2-.029-.457-.259-.457-.259,0-.747,1-1.034,1.578-.057.144-.115.259-.144.316-.086.172-.23.431-.46.431-.6,0-3.014-2.008-3.014-2.612a3.376,3.376,0,0,1,.6-1.063c1.465-2.183,2.959-4.651,4.309-6.92a1.373,1.373,0,0,0,.227-.745c0-.287-.055-.546-.371-.546a3.545,3.545,0,0,0-1.206.431,8.687,8.687,0,0,1-2.154.689c-.6,0-.917-.575-1.118-1.092a15.978,15.978,0,0,1-.862-2.755c0-.46.373-.632,1.206-.661.831-.117,3.933-.689,4.421-1.206a1.381,1.381,0,0,0,.23-.919v-.23c.029-1.149.055-2.3.055-3.445,0-.287-.026-.546-.026-.833,0-.4.227-.488.572-.488C-171.069-161.26-168.283-161-167.651-160.886Zm-3.16,30.533c.661.287.776.46.776.632s-.144.23-.287.287a2.058,2.058,0,0,0-1.12,1.175,21.564,21.564,0,0,0-1.721,8.613c0,.718,0,1.494.342,1.494.2,0,.29-.2.491-.632.057-.112.113-.227.17-.371.086-.175.2-.433.433-.433.371,0,1.865.89,1.865,1.379,0,.431-1.494,3.7-1.494,5.542,0,.316.057.977.086,1.235a3.891,3.891,0,0,1,.057.572c0,1.12-2.411,1.838-3.014,1.838-.517,0-.833-.661-1.034-1.06a21.362,21.362,0,0,1-1.951-9.791,38.524,38.524,0,0,1,.974-8.125c.23-1.063.632-2.1.89-3.418.057-.23.144-.546.431-.546A41.648,41.648,0,0,1-170.811-130.353Zm9.676-1.063c1.034.115,1.149.172,1.149.4a12.871,12.871,0,0,0-.259,2.9v.259c0,.345.057.833.6.833a13.207,13.207,0,0,0,2.152-.546,3.576,3.576,0,0,1,.747-.144c.316,0,.431.287.517.574a12.037,12.037,0,0,1,.488,2.844c0,.63-.373.831-3.361,1.29-.6.086-.946.23-.946.89,0,.431.23,3.674.259,4.249.029.661.144.862.486,1.063.316.172,1.005.517,1.408.776,1.436.891,2.959,1.98,2.959,2.841,0,.833-1.35,2.669-2.241,2.669-.517,0-1.089-.546-1.549-.974-.376-.373-.577-.546-.833-.546-.287,0-.4.2-.546.431-.89,1.522-2.93,1.982-4.565,1.982-2.614,0-5.168-1.3-5.168-4.223a4.052,4.052,0,0,1,3.5-3.99,10.222,10.222,0,0,1,1.867-.144c.747,0,.831-.345.831-.718,0-.345-.17-2.181-.2-2.7-.026-.345-.084-.948-.716-.948-.23,0-2.959.172-4.479.172-.46,0-1.149,0-1.264-.546-.057-.316-.172-2.612-.172-3.014,0-.316.086-.718.517-.718.4,0,2.841.23,4.393.23h.259c.431,0,1-.057,1-.689,0-.259-.314-3.416-.342-3.876a3.12,3.12,0,0,1-.029-.517c0-.345.172-.431.488-.431C-163.692-131.732-161.738-131.471-161.135-131.416Zm-5.025,17.657c0,.546.919.833,1.522.833.661,0,1.321-.23,1.321-1.005,0-.574-.833-.6-1.264-.6C-165.039-114.535-166.159-114.392-166.159-113.76Zm8.843-19.062c.373.4,2.068,2.324,2.068,2.755,0,.574-1.522,1.522-1.81,1.522-.172,0-.316-.2-.575-.6-.086-.115-.144-.2-.23-.316-.517-.718-.946-1.235-1.494-1.9-.084-.113-.256-.314-.256-.457,0-.4,1.549-1.321,1.865-1.321C-157.6-133.137-157.432-132.965-157.317-132.821Zm5.2.859c0,.546-1.465,1.522-1.781,1.522-.17,0-.259-.144-.4-.345-.6-.862-1.29-1.692-1.98-2.5-.144-.172-.23-.259-.23-.373,0-.46,1.606-1.35,1.865-1.35A10.513,10.513,0,0,1-152.12-131.962Zm-7,31.94c1.434,0,2.9-.086,4.335-.086.831,0,.919.428.919,1.52v1.953c0,1.175-.089,1.549-.919,1.549-1.436,0-2.9-.115-4.335-.115h-14.643c-1.436,0-2.87.115-4.335.115-.833,0-.919-.4-.919-1.549v-1.953c0-1.092.086-1.52.919-1.52,1.436,0,2.87.086,4.335.086Zm-13.609,23.3a2.5,2.5,0,0,0-.373.661c0,.172.2.2.316.2.2,0,1.118-.029,1.118-.258a2.809,2.809,0,0,0-.256-.776,1.547,1.547,0,0,1-.115-.4c0-.575,1.606-1.034,2.037-1.034.6,0,.891.833,1.551,3.1.144.46.285.946.747.946a4.761,4.761,0,0,0,1.779-1.089c.144-.115.23-.172.316-.232.144-.084.287-.17.287-.342s-.23-.2-.345-.2-.23.029-.316.029c-.689,0-1.348.057-2.039.057-.572,0-.63-.259-.63-1.12v-1.752c0-.716.057-1.032.63-1.032.776,0,1.551.086,2.327.086.46,0,.6-.144.6-.632v-.316c0-.488-.144-.661-.689-.661-.488,0-.977.029-1.465.029-.574,0-.632-.23-.632-1.063v-1.664c0-.862.057-1.149.632-1.149.373,0,.747.057,1.12.057.718,0,1.005-.259,1.005-.977,0-.373-.057-.833-.057-1.206,0-.345.172-.488.517-.488.4,0,2.612.2,3.1.261.46.057,1.034.057,1.034.46a.559.559,0,0,1-.345.486c-.2.115-.259.488-.259.747a.715.715,0,0,0,.8.689c.316,0,.6-.029.919-.029.515,0,.6.345.6.8v.318c0,.23,0,.429.144.429.285,0,1.405-2.468,1.578-2.841.086-.2.144-.373.431-.373a4.832,4.832,0,0,1,1.465.632c.144.086.227.144.345.2,1.089.546,1.98.948,1.98,1.408,0,.258-.2.345-.431.373-.431.055-.46.113-.718.546-.515.859-1.578,2.468-2.152,3.3a.524.524,0,0,0-.144.316c0,.23.144.316.345.316.6,0,1.2-.057,1.807-.057s.661.227.661,1.264v1.147c0,1.293,0,1.494-.661,1.494-.831,0-1.75-.086-2.755-.086h-2.068a1.623,1.623,0,0,0-1.52,1.06c0,.261.345.261.747.261h.917c.862,0,1.752-.06,2.614-.06s1.779.06,1.779,1.149c0,.661-.057,1.321-.057,2.011v6.6c0,.919.086,2.154.086,2.671,0,.572-.345.63-1.175.63h-1.522c-.977,0-1.321-.057-1.321-.63v-.089a.466.466,0,0,0-.517-.515h-3.157c-.431,0-.575.316-.575.661,0,.515-.4.572-1.262.572h-1.58c-.977,0-1.321-.057-1.321-.63,0-.6.086-1.695.086-2.671V-69.29c0-.23,0-.546-.287-.546a.781.781,0,0,0-.259.06.7.7,0,0,1-.227.055c-.517,0-1.178-1-1.465-1.376-.23-.318-.287-.373-.546-.373-.144,0-.259.029-.373.029-.431,0-.517-.258-.6-.747-.057-.287-.115-.431-.431-.431-.891,0-.891.345-.891.632v4.823c0,1.491.06,2.956.06,4.45,0,.8-.29.862-1.206.862h-1.522c-.891,0-1.178-.057-1.178-.833,0-1.494.057-2.987.057-4.479v-2.1c0-.086,0-.287-.115-.287-.227,0-.287.488-.314.919-.057.8-.376,3.962-.548,4.91-.086.546-.2.776-.63.776-.546,0-2.47-.431-2.47-1.092a8.248,8.248,0,0,1,.23-1.092c.2-.948.4-2.669.488-3.674.029-.4.057-.718.086-.974.086-.979.115-1.12.373-1.12.4,0,2.181.373,2.557.373.258,0,.342-.115.342-.373v-.575c0-.259-.084-.373-.342-.373-.175,0-1.005.115-1.35.172-.373.057-.4.057-.546.287a.585.585,0,0,1-.46.259c-.431,0-.488-.29-.8-1.982-.086-.431-.2-.977-.316-1.606a2.576,2.576,0,0,1-.057-.433c0-.371.373-.371.632-.371.948,0,1.465,0,1.867-.546a2.92,2.92,0,0,0,.658-1.408c0-.431-.572-.862-.946-1.178-.689-.572-1.35-1.034-2.1-1.578-.172-.115-.345-.2-.345-.431,0-.316,1.264-2.9,1.81-2.9a.54.54,0,0,1,.345.141.415.415,0,0,0,.2.057c.2,0,.287-.285.517-.859.429-1.063.8-2.04,1.175-3.246.115-.371.172-.488.431-.488a11.006,11.006,0,0,1,2.1.776c.891.373,1.178.46,1.178.747,0,.23-.175.345-.433.4a.727.727,0,0,0-.6.431c-.517,1.06-1.092,2.209-1.551,3.1a3.273,3.273,0,0,0-.431.948c0,.23.287.632.546.632s.373-.316.575-.747c.373-.776.747-1.578,1.118-2.353.175-.345.232-.6.577-.6a7.681,7.681,0,0,1,1.865.862c.172.084.345.17.46.227.833.4,1.35.574,1.35,1.005,0,.316-.2.373-.46.431a.8.8,0,0,0-.632.46C-170.638-79.943-171.644-78.334-172.733-76.725Zm4.077,7.062a29.125,29.125,0,0,1,.773,3.042,1.1,1.1,0,0,1,.031.287c0,.747-1.867,1.034-2.3,1.034s-.488-.2-.574-.6c-.287-1.491-.517-2.64-.891-3.933a1.2,1.2,0,0,1-.113-.46c0-.543,1.692-.8,2.066-.8C-169.116-71.1-169.058-70.983-168.656-69.664Zm5.913-1.35a.436.436,0,0,0,.46.46h3.476a.472.472,0,0,0,.457-.46v-.141a.494.494,0,0,0-.457-.46h-3.476a.472.472,0,0,0-.46.46Zm0,4.165a.454.454,0,0,0,.46.46h3.476a.472.472,0,0,0,.457-.46v-.144a.472.472,0,0,0-.457-.46h-3.476a.437.437,0,0,0-.46.46Zm2.614-14.643c0-.23-.316-.23-.488-.23-.4,0-.776.029-.776.661v.689c0,.259,0,.46.086.46A5.28,5.28,0,0,0-160.13-81.491ZM-175.376-55.15c.144-.546.287-1.092.373-1.551.086-.546.115-.8.488-.8a37.113,37.113,0,0,1,4.249,1.551c.575.259.747.431.747.575,0,.115-.086.172-.2.23a1.739,1.739,0,0,0-1.063,1.178,23.157,23.157,0,0,0-1.75,8.153c0,1.578,0,2.353.371,2.353.2,0,.345-.23.488-.46.172-.287.347-.6.661-.6.345,0,1.494.977,1.494,1.408,0,.4-1.264,2.614-1.264,4.163,0,.2.057.919.115,1.35a8.183,8.183,0,0,1,.086.833c0,1.063-2.123,1.894-3.014,1.894-.546,0-.8-.373-1.321-1.408a20.706,20.706,0,0,1-1.838-9.214A35.362,35.362,0,0,1-175.376-55.15Zm8.211,12.316a4.486,4.486,0,0,0,4.019,1.925,23.284,23.284,0,0,0,6.288-.919,2.883,2.883,0,0,1,.689-.115c.373,0,.546.373.575.632a28.248,28.248,0,0,1,.144,2.985c0,.373-.029.575-.4.747-1.005.488-5.8.919-7.093.919-4.622,0-6.66-2.3-6.66-2.959,0-.543,1.434-3.445,2.095-3.445C-167.366-43.064-167.251-42.92-167.165-42.834Zm-.057-12.431a5.826,5.826,0,0,1,.89.115,20.968,20.968,0,0,0,3.789.4,17.594,17.594,0,0,0,4.249-.574,2.526,2.526,0,0,1,.575-.086c.546,0,.718.6.776,1.034a21.553,21.553,0,0,1,.172,2.353c0,.689-.086.89-.833,1.005a34.025,34.025,0,0,1-4.823.345c-.862,0-4.824-.144-5.367-.6-.232-.2-.232-1.063-.232-1.379C-168.027-54.777-167.909-55.265-167.222-55.265Zm-2.64,44.46c0-.287-.086-.4-.4-.4h-.287c-.773,0-1.551.029-2.324.029-.517,0-.546-.347-.546-.977v-.575c0-.919.029-1.092.747-1.092.431,0,1.092.057,2.123.057h.316c.259,0,.373-.144.373-.4v-.086c0-.144,0-.4-.316-.4-.546,0-1.092.086-1.637.086-.8,0-1.2-.256-1.2-1.262,0-.661.029-1.321.029-1.982v-2.583c0-.661-.029-1.321-.029-1.982,0-.862.287-1.233,1.175-1.233.546,0,1.12.057,1.666.057.23,0,.316-.144.316-.376v-.057c0-.259-.086-.4-.345-.4-.776,0-1.551.06-2.324.06-.517,0-.632-.23-.632-.689,0-.115-.029-.316-.172-.316-.115,0-.316.6-.575,1.264l-.259.687a.675.675,0,0,0-.057.232c0,.227.23.285.373.342a.3.3,0,0,1,.144.259c0,.172-.144.259-.259.373-.259.23-.287.862-.287,1.551V-9.314c0,1.12.057,2.241.057,3.387,0,.575-.259.634-1.063.634h-1.35c-.8,0-1.089-.06-1.089-.634,0-1.118.057-2.267.057-3.387v-6.774c0-.431,0-.575-.373-.8a3.835,3.835,0,0,1-1.149-1.321,4.683,4.683,0,0,0-.316-.488A2.236,2.236,0,0,1-180-19.935a1.5,1.5,0,0,1,.316-.862,26.2,26.2,0,0,0,3.445-9.532c.06-.345.117-.862.575-.862a11.6,11.6,0,0,1,1.58.4c.2.057,1.178.345,1.319.345a.832.832,0,0,0,.577-.259.547.547,0,0,1,.285-.086h.287a28.355,28.355,0,0,0,6.806-.661.677.677,0,0,1,.23-.057c.316,0,.546.431.8.977.084.144.172.316.258.488a1.38,1.38,0,0,0,.115.2,5.445,5.445,0,0,1,.515,1.262.345.345,0,0,1-.345.318,1.259,1.259,0,0,1-.46-.144.689.689,0,0,0-.342-.117l-1.867.29c-.373.055-.431.144-.431.428v.373c0,.259.115.373.373.373h.2c.862,0,1.695-.057,2.557-.057.572,0,.63.287.63.833,0,.287.029.4.23.4h.086c.345,0,.8.057.8-.689V-27.8c0-1.089-.057-2.727-.057-3.014,0-.46.287-.488.575-.488.373,0,2.9.144,3.215.2.23.029.431.115.431.373,0,.2-.115.287-.287.373a.772.772,0,0,0-.373.8v2.7c0,.718.287,1.005,1.005,1.005.431,0,.833-.029,1.264-.029,1.52,0,1.865.747,1.865,2.126v2.066c0,2.9-.112,11.684-1,14.068-.689,1.779-1.925,2.209-3.734,2.209-1.2,0-1.52,0-1.692-1.264-.029-.17-.086-.515-.316-.515s-.431.488-.517.689c-.6,1.147-.718,1.175-.977,1.175-.6,0-2.7-.718-2.7-1.434,0-.057.029-.144.029-.2a.335.335,0,0,0-.373-.316c-.086,0-.23.029-.345.029-2.068.287-4.191.431-6.26.632-.373.026-.517.057-.661.4-.084.227-.141.316-.4.316-.227,0-.4-.232-.543-.835-.115-.515-.287-1.2-.488-1.922a3.587,3.587,0,0,1-.086-.546c0-.4.287-.431,1.721-.46.433,0,.778-.029,1.321-.057.661-.029.977-.086.977-.6Zm0-16.737c0-.261-.057-.4-.316-.4s-.517.026-.776.026c-.63,0-.747-.227-1.032-.974-.031-.144-.117-.316-.316-.316s-.261.316-.345.831c-.057.2-.086.433-.144.661a1.612,1.612,0,0,0-.086.376c0,.227.086.285,2.612.285.316,0,.4-.086.4-.4Zm.2,7.349a.34.34,0,0,0,.345-.373v-.4a.356.356,0,0,0-.345-.373h-.259a.38.38,0,0,0-.373.373v.4a.362.362,0,0,0,.373.373Zm-.259,2.095a.38.38,0,0,0-.373.373v.517a.356.356,0,0,0,.373.345h.259a.332.332,0,0,0,.345-.345v-.517a.356.356,0,0,0-.345-.373Zm3.674-2.095a.34.34,0,0,0,.345-.373v-.4a.356.356,0,0,0-.345-.373h-.287a.38.38,0,0,0-.373.373v.4a.362.362,0,0,0,.373.373Zm-.287,2.095a.38.38,0,0,0-.373.373v.517a.356.356,0,0,0,.373.345h.287a.332.332,0,0,0,.345-.345v-.517a.356.356,0,0,0-.345-.373Zm.575-6.289c-.23,0-.373.089-.373.376v.057c0,.227.086.4.345.4.546,0,1.063-.057,1.609-.057.8,0,1.233.259,1.233,1.233,0,.661-.055,1.321-.055,1.982v2.583c0,.661.055,1.321.055,1.982,0,.862-.314,1.262-1.2,1.262-.546,0-1.12-.086-1.637-.086-.259,0-.345.175-.345.373v.115c0,.259.115.4.373.4h.287c.776,0,1.522-.057,2.3-.057.488,0,.546.23.577.661,0,.086.026.259.141.259.23,0,.431-1.319.546-1.922,0-.117.029-.2.029-.259.2-1.695.575-4.91.575-6.576,0-.172-.057-.373-.287-.373-.086,0-.172.029-.259.029-.517,0-.632-.2-.632-.977v-.948c0-.428,0-.46-3.071-.46Zm0,13.18c-.259,0-.373.115-.373.4v.373c0,.227.115.4.46.4.086,0,1.092-.117,1.264-.117a2.22,2.22,0,0,1,.431-.057.369.369,0,0,1,.373.2.306.306,0,0,0,.227.057c.345,0,.462-.632.462-.8,0-.431-.287-.46-2.039-.46Zm7.895-9.733a46.4,46.4,0,0,1-1.577,10.71,1.1,1.1,0,0,0-.086.428c0,.316.287.345.8.345.8,0,.946-.086,1.175-1.867.316-2.3.488-7.263.488-9.645,0-.546-.029-1.092-.46-1.092C-158.092-22.061-158.035-21.716-158.064-20.941ZM-171.727,1.41c.285.057.6.144.6.4,0,.115-.086.2-.287.345a2.043,2.043,0,0,0-.546,1.264,21.123,21.123,0,0,0-.371,4.019,13.353,13.353,0,0,0,1.032,5.513c.23.488.747,1.405,1.379,1.405.661,0,1.321-1.175,1.58-1.635.2-.345.457-.718.89-.718.859,0,2.985,1.637,2.985,2.324s-1.321,2.212-1.81,2.758c-1.005,1.118-2.008,2.066-3.588,2.066-1.922,0-3.56-1.405-4.622-2.9-2.126-2.987-2.327-7.179-2.327-10.71,0-.546.115-4.019.146-4.421.029-.316.17-.457.488-.457C-175.806.666-172.446,1.267-171.727,1.41Zm10.506-.917c.776,0,3.043,1.779,4.306,3.818a15.652,15.652,0,0,1,2.126,5.884c.057.46.141,1.149.141,1.494,0,.6-.141.862-.718,1.034a9.882,9.882,0,0,1-2.727.486c-1.063,0-1.089-.371-1.175-1.463-.259-3.445-1.465-6.171-4.192-8.125a.587.587,0,0,1-.287-.488C-163.747,2.473-162.083.494-161.221.494ZM-177.47,31.11a19.412,19.412,0,0,1-.46-3.071c0-.891.4-.891,1.922-.977,4.223-.23,8.414-.632,12.632-1.149,2.068-.259,4.366-.546,6.432-.919a.864.864,0,0,1,.259-.026c.517,0,.661.486.747.946a24.033,24.033,0,0,1,.345,3.189c0,.543-.345.543-1.522.572a11.86,11.86,0,0,0-4.134.517,8.9,8.9,0,0,0-5.915,8.383c0,2.729,1.408,3.473,3.933,3.473.747,0,1.666-.084,2.1-.084.517,0,.718.084.718.63a12.659,12.659,0,0,1-.488,3.361c-.259.6-.6.661-1.206.661-5.338,0-9.791-1.379-9.791-7.581a12.028,12.028,0,0,1,2.355-7.119,1.275,1.275,0,0,0,.287-.632c0-.259-.2-.431-.517-.431a13.251,13.251,0,0,0-1.549.259c-1.522.287-3.476.718-4.969,1.149a2.218,2.218,0,0,1-.428.057C-177.212,32.317-177.384,31.512-177.47,31.11Zm13.034,20.515c.258.117.46.259.46.46,0,.175-.117.23-.259.287-.46.2-.689.316-1.034,1.379l-.517,1.58a1.2,1.2,0,0,0-.115.46c0,.572.4.687,1.321.747.687.057,1.379.084,2.066.084.546,0,.89,0,.89.632a13.213,13.213,0,0,1-.431,2.557c-.2.744-.345,1-.776,1a30.049,30.049,0,0,1-3.56-.373.607.607,0,0,0-.23-.026c-.661,0-.773.543-.891,1.089l-.057.23a2.741,2.741,0,0,0-.057.46c0,.747.776.776,2.844.776.776,0,1.235.029,1.235.517a10.131,10.131,0,0,1-.517,2.755c-.2.6-.4.919-1.092.919a23.112,23.112,0,0,1-2.382-.259.494.494,0,0,0-.2-.029c-.6,0-.661.575-.661.919v.172a3.91,3.91,0,0,0,.4,1.865,3.081,3.081,0,0,0,2.727,1.293,6.788,6.788,0,0,0,3.1-.689,2.073,2.073,0,0,0,.919-1.865,14.144,14.144,0,0,0-.862-4.048,1.961,1.961,0,0,1-.144-.661c0-.373.2-.517,1.034-.862a10.156,10.156,0,0,1,2.413-.6c.515,0,.658.517.946,1.436a17.233,17.233,0,0,1,.919,5.111,5.474,5.474,0,0,1-2.557,4.91,11.04,11.04,0,0,1-5.855,1.52c-4.938,0-7.493-2.87-7.493-7.722,0-.345.084-1.206.084-1.264,0-.632-.457-.776-.859-.917-1.9-.661-2.269-.89-2.269-1.408a9.45,9.45,0,0,1,.4-1.953c.2-.747.4-1.578,1.034-1.578a1.6,1.6,0,0,1,.833.345,2.93,2.93,0,0,0,1.235.515c.227,0,.515-.115.661-.716a7.465,7.465,0,0,0,.2-.919c0-.517-.347-.747-.776-.919-2.355-.862-2.47-1.178-2.47-1.609,0-.6.689-3.5,1.522-3.5a2.269,2.269,0,0,1,1.032.517,5.589,5.589,0,0,0,1.522.747c.46,0,.6-.345.718-.776.23-.8.661-2.241.948-3.358.115-.46.144-.632.4-.632A40.475,40.475,0,0,1-164.436,51.625Zm-5.082,33.032c.689.23,1.29.4,1.29.716,0,.175-.2.29-.342.347-.373.17-.4.314-.575,1-.2.8-.316,1.637-.488,2.47a4.554,4.554,0,0,0-.086.661c0,.256.144.515.4.515a8.819,8.819,0,0,0,1.724-.859,9.64,9.64,0,0,1,4.278-1.005,6.66,6.66,0,0,1,5.08,2.154,5.878,5.878,0,0,1,1.522,4.247,6.147,6.147,0,0,1-1.549,4.45,11.8,11.8,0,0,1-5.053,2.844,19.147,19.147,0,0,1-4.134.8,1.063,1.063,0,0,1-1.092-.574,8.774,8.774,0,0,1-.919-3.189c0-.546.4-.63.776-.63,2.238-.029,7.665-.6,7.665-3.648,0-1.578-1.436-2.324-2.815-2.324-2.755,0-5.74,2.612-7.349,4.68-.259.345-.488.632-.946.632s-2.987-.4-2.987-1.408a2.043,2.043,0,0,1,.115-.6,44.669,44.669,0,0,0,1.58-10.592c0-1.063,0-1.551.632-1.551A22.141,22.141,0,0,1-169.518,84.657Zm.517-6.116a3.154,3.154,0,0,1,1.005.373,41.581,41.581,0,0,1,4.019,2.439c.6.431,1.032.721,1.032,1.034,0,.632-1.692,3.131-2.525,3.131a1.294,1.294,0,0,1-.747-.4,28.962,28.962,0,0,0-4.278-2.959c-.431-.259-.718-.4-.718-.718C-171.213,81.011-169.949,78.541-169,78.541Zm6.8,32.745c.833,0,2.585,2.612,2.585,3.129,0,.345-.29.519-.546.689-.747.546-2.3,1.953-3.016,2.614-.429.4-.687.689-.687.891,0,.342.2.46.661.63a2.787,2.787,0,0,1,1.807,2.987,14.7,14.7,0,0,1-.2,2.238,15.311,15.311,0,0,0-.2,1.551c0,.345.115.575.488.575a9.142,9.142,0,0,0,3.416-1.436,2.652,2.652,0,0,0,.23-.144,3.926,3.926,0,0,1,1.522-.687c.287,0,.345.285.373.515.086.546.2,2.327.2,2.873,0,1-.113,1.175-.572,1.405a16.774,16.774,0,0,1-5.829,1.58,3.866,3.866,0,0,1-3.99-3.677c0-1.29.46-2.928.46-3.959,0-.287-.115-.575-.46-.575-2.269,0-6.4,6.4-7.177,7.378-.488.632-.776,1.034-1.034,1.034-.776,0-3.358-2.011-3.358-2.985,0-.316.345-.747,1.465-1.666.716-.6,3.531-3.619,4.821-5.053,1.12-1.264,2.269-2.5,3.416-3.732.144-.144.376-.373.376-.575a.267.267,0,0,0-.287-.259c-.115,0-1.723.488-2.011.575a19.311,19.311,0,0,1-2.64.6c-.287,0-.517-.115-.8-.575A9.7,9.7,0,0,1-174.6,114.1c0-.428.287-.543.718-.572a52.256,52.256,0,0,0,7.263-1.149c.259-.057.46-.115.46-.316s-.144-.287-.4-.373c-1.089-.373-2.123-.776-3.244-1.089-1.149-.316-1.666-.433-1.666-.948a11.481,11.481,0,0,1,.6-2.1c.431-1.178.488-1.264.833-1.264a3.083,3.083,0,0,1,.977.23c1.29.431,2.612.89,3.933,1.293,1.063.316,1.522.431,1.522.891a11.148,11.148,0,0,1-.632,2.267.948.948,0,0,0-.086.373.38.38,0,0,0,.373.373.663.663,0,0,0,.256-.057A7.527,7.527,0,0,1-162.2,111.285Zm-1.577,23.787c.141.029.4.057.4.287a.963.963,0,0,1-.2.488,3.113,3.113,0,0,0-.457,1.807.625.625,0,0,0,.632.661c.515,0,3.3-.63,4.046-.8a6.774,6.774,0,0,1,1.178-.227c.4,0,.546.572.6.888a14.211,14.211,0,0,1,.316,2.442c0,.689-.345.8-1.262.974-1.436.259-2.93.488-4.4.689-.687.086-1,.172-1,.776,0,.4.2.718.63.718a25.877,25.877,0,0,0,3.045-.6,3.382,3.382,0,0,1,.718-.115c.227,0,.371.23.486.6a11.979,11.979,0,0,1,.2,2.758c0,.917-.888,1.032-3.531,1.319-1.147.115-1.376.259-1.376.776,0,1.58.029,1.807.917,2.095,1.206.4,5.053,2.04,5.053,3.39,0,.632-1.206,2.784-2.126,2.784a6.238,6.238,0,0,1-2.152-1.321,3.22,3.22,0,0,0-1.262-.689c-.4,0-.519.318-.661.632-.919,2.241-3.215,2.873-5.455,2.873a6.441,6.441,0,0,1-3.5-.891,4.11,4.11,0,0,1-1.81-3.387,3.946,3.946,0,0,1,1.637-3.16,7.807,7.807,0,0,1,4.45-1.178h.316a.565.565,0,0,0,.6-.63.683.683,0,0,0-.661-.776c-.517,0-2.3.144-3.562.144-1.089,0-1.376-.029-1.549-.8a11.393,11.393,0,0,1-.4-2.671c0-.428.057-.831.575-.831.833,0,2.066.144,3.445.144h.776c.718,0,1.264-.057,1.264-.689a.657.657,0,0,0-.689-.718c-.977,0-2.729.115-4.079.115h-.859c-1.149,0-2.068-.029-2.238-.431a10.254,10.254,0,0,1-.318-3.014c0-.4.029-.89.575-.89s3.56.259,5.455.259h.632c.689,0,1.2-.057,1.2-.661,0-.258-.141-1.865-.227-2.382a3.828,3.828,0,0,1-.086-.8c0-.345.2-.431.546-.431C-167.392,134.584-164.493,134.957-163.775,135.072Zm-7.208,18.976c0,.692,1.063.718,1.551.718.776,0,1.724-.2,1.724-1.175,0-.4-.345-.431-.89-.431C-169.173,153.16-170.983,153.217-170.983,154.048Zm2.442,11.3c.172.029.457.144.457.345,0,.172-.2.4-.314.546-.373.431-.46,1.35-.46,2.815,0,.285,0,.917.6.917.285,0,2.784-.431,3.33-.517.517-.086.8-.287.8-.833a34.279,34.279,0,0,0-.488-4.505,3.285,3.285,0,0,1-.086-.517.415.415,0,0,1,.46-.431c.342,0,3.3.457,4.421.716.287.06.457.175.457.345,0,.115-.144.232-.314.4a4.189,4.189,0,0,0-.258,1.9v.891c0,.115-.029.259-.029.4,0,.433.172.778.658.778.316,0,1.436-.144,1.982-.232a21.31,21.31,0,0,1,2.152-.287c.546,0,.718.175.718,2.327,0,2.353-.026,2.353-1,2.353h-.632c-.546,0-2.959.089-3.359.175-.488.115-.632.46-.689,1-.4,3.761-1.522,5.858-5.685,5.858-.46,0-.8-.029-1.034-.46a10.941,10.941,0,0,1-.543-3.071c0-.316.141-.6.515-.6.287,0,.575.029.862.029a1.364,1.364,0,0,0,1.522-.891,3.849,3.849,0,0,0,.2-.776.4.4,0,0,0-.428-.4c-.172,0-.718.086-2.3.345-1.98.316-2.008.46-2.008,1.465v.345a25.921,25.921,0,0,0,.23,3.7c.431,1.606,1.865,1.664,3.674,1.664a33.792,33.792,0,0,0,5.111-.428c.2-.031.8-.115,1.005-.115.428,0,.546.373.546,1.434a6.419,6.419,0,0,1-.376,2.844c-.428.4-4.764.517-5.568.517a17.886,17.886,0,0,1-5.111-.6,5.137,5.137,0,0,1-3.157-3.16,20.314,20.314,0,0,1-.517-5.341c0-.428-.086-.917-.661-.917-.345,0-3.157.776-3.789.948a1.834,1.834,0,0,1-.373.057c-.4,0-.517-.172-.689-2.269-.057-.689-.115-1.436-.115-1.98,0-.718.316-.747.948-.747.546,0,2.841-.316,3.473-.4.747-.115,1.063-.316,1.063-1.092a37.278,37.278,0,0,0-.23-4.019c0-.144-.029-.345-.029-.488,0-.373.23-.515.575-.515C-172.446,164.863-169.087,165.234-168.541,165.349Zm-8.7,43.222a103.358,103.358,0,0,1,6.688-12.891c1.206-1.867,2.5-3.732,3.617-5.657.086-.172.172-.316.4-.316a15.378,15.378,0,0,1,2.557,1.724l.373.287c.546.4.859.661.859.919s-.172.371-.4.431c-.747.141-.747.285-1.319,1a42.173,42.173,0,0,0-2.985,4.163,1.074,1.074,0,0,0-.2.46.427.427,0,0,0,.371.373,2.178,2.178,0,0,0,.46-.086,4.387,4.387,0,0,1,1.034-.115c2.5,0,4.077,1.293,4.077,3.847a27.58,27.58,0,0,1-.689,4.278,6.274,6.274,0,0,0-.144,1.092c0,.287.144.574.488.574,1.005,0,3.7-3.246,4.364-4.105.488-.632.747-.948,1.12-.948.575,0,1.922,3.045,1.922,3.56,0,.546-1.894,2.3-2.353,2.729-1.752,1.577-3.9,3.244-6.375,3.244-2.324,0-3.3-1.953-3.3-4.019a18.477,18.477,0,0,1,.4-3.33,15.556,15.556,0,0,0,.287-2.126c0-.488-.172-.8-.689-.8a4.983,4.983,0,0,0-2.181.689,6.17,6.17,0,0,0-2.5,2.643,29.414,29.414,0,0,0-2.468,5.884c-.115.431-.23.862-.747.862a10.466,10.466,0,0,1-3.014-1.149c-.488-.259-.8-.4-.8-.661A26.558,26.558,0,0,1-177.24,208.571Zm11.311,10.408c.431.115.747.2.747.46,0,.2-.23.316-.431.4-.488.23-.6,1.005-.718,1.838l-.086.574c-.029.17-.057.314-.057.371a.585.585,0,0,0,.287.546,1.585,1.585,0,0,0,.689.144,5.345,5.345,0,0,1,2.411.6c1.9,1.063,2.384,2.841,2.384,4.91,0,2.557-.517,6.748-1.81,8.929a6.422,6.422,0,0,1-6.056,3.215c-.833,0-1.206-.086-1.494-.8a11.149,11.149,0,0,1-.632-2.9c0-.373.144-.661.546-.661s.8.029,1.206.029c1.752,0,2.123-.144,2.727-1.235a16.365,16.365,0,0,0,1.293-6.344c0-1.35-.2-1.752-1.293-1.752-.974,0-1.233.115-1.491,1.063a36.521,36.521,0,0,1-4.421,9.532,21.449,21.449,0,0,1-2.04,2.813.75.75,0,0,1-.488.2c-.632,0-3.387-1.52-3.387-2.468,0-.287.316-.6.575-.862a22.69,22.69,0,0,0,5.139-8.038,1.577,1.577,0,0,0,.144-.517.4.4,0,0,0-.46-.431,18.909,18.909,0,0,0-2.442.833,1.22,1.22,0,0,1-.546.172c-.486,0-.8-1.092-1.032-2.1-.146-.658-.431-1.807-.431-2.095,0-.431.316-.488,1.06-.546a28.368,28.368,0,0,0,4.421-.747c.575-.115.891-.316.977-.948a38.97,38.97,0,0,0,.23-4.134v-.431c0-.285.057-.543.4-.543C-169.719,218.063-166.475,218.836-165.93,218.98Zm7.667,2.355a24.4,24.4,0,0,1,2.238,2.9c.057.115.172.259.287.46a17.083,17.083,0,0,1,1.951,3.588c0,.919-2.64,2.442-3.416,2.442-.4,0-.6-.46-.747-.776a24.18,24.18,0,0,0-3.99-6.461c-.115-.115-.316-.316-.316-.488,0-.661,2.413-2.209,3.131-2.209A1.24,1.24,0,0,1-158.262,221.335Zm-10.279,39.232c-.431,0-.488-.23-.488-.891,0-2.64,1.721-4.247,3.473-5.683.919-.747,1.664-1.408,1.664-2.3,0-1.175-1-1.836-2.64-1.836a5.507,5.507,0,0,0-4.163,2.181c-.23.287-.373.46-.546.46-.141,0-.316-.144-.575-.4L-173.911,250c-.259-.259-.373-.431-.373-.632,0-.172.115-.345.345-.6a9.9,9.9,0,0,1,7.722-3.33c4.45,0,7.263,2.411,7.263,5.568,0,2.643-1.606,3.964-3.789,5.714a4.256,4.256,0,0,0-1.836,3.215c0,.517-.057.632-.517.632Zm4.68,4.077a2.807,2.807,0,0,1-2.987,2.956,2.5,2.5,0,0,1-2.64-2.525A2.84,2.84,0,0,1-166.562,262,2.6,2.6,0,0,1-163.861,264.643Z" transform="translate(179.998 217.935)"/></svg>