<svg xmlns="http://www.w3.org/2000/svg" width="27.763" height="650.278" viewBox="0 0 27.763 650.278"><defs><style>.a{fill:#3c2819;}</style></defs><path class="a" d="M-123.951-202.932c.862,0,1.894-.057,2.727-.057.747,0,1.867.029,1.867.974,0,.376-.057.948-.057,1.666v5.455c0,.862.057,1.836.057,2.066,0,.46-.287.517-1.293.517h-1.408c-1,0-1.319,0-1.319-.546-.029-.546-.431-.773-.948-.773h-6.889c-.546,0-.919.227-.919.8-.029.46-.316.517-1.149.517h-1.81c-.747,0-1.06-.057-1.06-.517,0-.23.086-1.262.086-2.066v-3.157c0-.232-.029-.632-.345-.632a.861.861,0,0,0-.575.342c-.488.491-2.152,2.126-2.786,2.126s-2.7-2.152-2.7-2.813c0-.4.46-.689.747-.862a20.806,20.806,0,0,0,3.99-3.789c.2-.287.517-.632.517-.833,0-.287-.287-.345-.488-.345-.4,0-.776.029-1.178.029-.658,0-.716-.259-.716-1.034v-1.175c0-.747.057-1.005.687-1.005.948,0,1.867.057,2.786.057.833,0,.977-.345,1.089-.747a.659.659,0,0,0,.089-.316c0-.46-.373-.575-.776-.575H-137.9c-1.175,0-2.353.086-3.56.086-.6,0-.661-.227-.661-.948v-1.376c0-.747.057-1.063.661-1.063,1.178,0,2.353.057,3.56.057h2.959c.428,0,.888-.115.888-.632,0-.661-.543-.8-1.089-.8h-1.838c-.8,0-1.609.057-2.068.057-.428,0-.486-.259-.486-.833v-1.491c0-.747.057-1.005.46-1.005s1.233.057,2.095.057h12.718c.89,0,1.75-.057,2.612-.057.948,0,1.293.287,1.293,1.408,0,.8-.057,1.609-.057,2.411a.822.822,0,0,0,.862.891c.747,0,1.522-.057,2.269-.057.6,0,.658.287.658,1.063v1.348c0,.689-.057.977-.632.977-.773,0-1.549-.057-2.324-.057a.831.831,0,0,0-.833.891v.718c0,.977.086,2.037.086,2.841,0,.862-.316.948-1.348.948h-.977c-1.178,0-1.436,0-1.666-.373-.144-.287-.546-.316-.833-.316H-131.5c-.776,0-.948.316-1.206.833a1.932,1.932,0,0,1-.172.345.579.579,0,0,0-.086.316c0,.431.488.46,1.034.46Zm-.172,6.056a.8.8,0,0,0,.8-.8v-1.233a.8.8,0,0,0-.8-.8h-7.291a.822.822,0,0,0-.8.8v1.233a.784.784,0,0,0,.8.8Zm-.89-11.11a.7.7,0,0,0,.689-.689v-.258a.7.7,0,0,0-.689-.689h-4.565c-.888,0-1.12.259-1.264.8a1.3,1.3,0,0,0-.084.345c0,.4.342.488.687.488Zm0-4.881a.68.68,0,0,0,.689-.689v-.057a.68.68,0,0,0-.689-.689h-3.674c-.661,0-1.206.115-1.206.919,0,.431.373.517.747.517Zm8.3,28.007c0,.833-2.066,3.043-2.87,3.043-.287,0-.46-.259-.632-.486a20.143,20.143,0,0,0-4.565-4.108c-.172-.115-.431-.314-.431-.515,0-.546,2.1-2.786,2.7-2.786C-121.94-189.711-116.717-185.577-116.717-184.859Zm-12.919,11.174c.316.977.517,1.12.89,1.12a6.62,6.62,0,0,0,1.609-.689,2.471,2.471,0,0,1,1.063-.4c.63,0,1.692,2.384,1.692,3.074,0,.46-.373.687-.718.888a14.464,14.464,0,0,1-1.779.862c-.232.086-.6.23-.6.488,0,.172.115.575.431.575a11.056,11.056,0,0,0,2.928-1.436,2.035,2.035,0,0,1,.89-.371c.431,0,.776.572,1.06,1.032a5.283,5.283,0,0,1,.977,2.04c0,.46-.543.744-1.549,1.2-.6.287-1.235.575-1.838.833-.345.144-.574.345-.574.718a2.076,2.076,0,0,0,.345.89,23.349,23.349,0,0,0,2.212,3.5,2.753,2.753,0,0,1,.8,1.463c0,.778-2.324,2.442-3.071,2.442-.259,0-.431-.144-.8-.517a7.1,7.1,0,0,0-4.709-1.779c-.831,0-2.152.256-2.152,1.319,0,1.58,2.612,1.838,3.761,1.838a18.51,18.51,0,0,0,1.9-.144c.316-.029.8-.086.946-.086.689,0,.833.46.833,1.664,0,2.729-.488,2.758-1.35,2.758a27.231,27.231,0,0,1-4.594-.259c-2.985-.546-5.568-2.324-5.568-5.628,0-3.473,2.727-5.139,5.913-5.139a9.443,9.443,0,0,1,1.551.144h.115a.434.434,0,0,0,.431-.4,1.956,1.956,0,0,0-.316-.658.7.7,0,0,0-.6-.4,1.592,1.592,0,0,0-.285.057,39.5,39.5,0,0,1-7.466,1.293c-.517,0-.689-.316-.862-.833a9.811,9.811,0,0,1-.546-2.7c0-.4.115-.6,1.293-.658a36.161,36.161,0,0,0,5.858-.747.432.432,0,0,0,.373-.431c0-.23-.2-.517-.431-.517a3.206,3.206,0,0,0-.373.086,22.949,22.949,0,0,1-3.619.546c-.486,0-.63-.287-.8-.718a10.5,10.5,0,0,1-.661-2.554c0-.433.259-.747,1.034-.776.429-.029,1.206-.086,1.779-.172.517-.086.833-.259.833-.689a2.336,2.336,0,0,0-.4-.862,3.524,3.524,0,0,1-.6-1.235c0-.457.888-.716,1.262-.833a9.985,9.985,0,0,1,2.353-.543C-130.038-175.033-129.923-174.6-129.636-173.685Zm11.713,36.106c0,3.646-2.583,6.056-5.8,7.32a17.257,17.257,0,0,1-4.536,1.147c-.546,0-.776-.285-1.005-.744a7.615,7.615,0,0,1-.718-2.3c0-.546.546-.6,1.092-.661,2.614-.287,7.15-1.463,7.15-4.792,0-1.551-1.18-2.3-2.614-2.3-2.557,0-6.056,1.494-8.211,2.784a2.1,2.1,0,0,1-1.063.4c-.974,0-2.382-2.382-2.382-3.272,0-.575.488-.632,1.206-.8.543-.144,1.491-.488,2.008-.689,2.554-.948,5.771-2.095,8.354-2.095C-120.793-143.581-117.923-141.429-117.923-137.579Zm-15.617,14.224a20.348,20.348,0,0,1,2.327-.23c.773,0,.831.057,1.032,2.212a22.462,22.462,0,0,0,.488,3.473c.086.345.23.747.661.747a19.886,19.886,0,0,0,3.732-1.9,10.661,10.661,0,0,1,2.269-1.149c.314,0,.917.893,1.319,1.551a8.438,8.438,0,0,1,1.178,2.47c0,.316-.316.428-.919.63-.115.057-.259.086-.4.144a49.517,49.517,0,0,0-9.044,4.536c-1.376.862-3.358,2.154-3.358,3.646,0,1.925,3.648,1.925,4.967,1.925a36.072,36.072,0,0,0,4.364-.23c.6-.086,2.585-.4,3.045-.546.084,0,.2-.029.285-.029.287,0,.373.488.4.718.086.833.115,1.781.115,2.614,0,.859-.029,1.12-.776,1.319a57.515,57.515,0,0,1-7.866.488,11.8,11.8,0,0,1-6.257-1.29,5.629,5.629,0,0,1-2.873-4.91c0-2.844,2.04-5.226,4.309-6.691.428-.259.687-.4.687-.891a2.4,2.4,0,0,0-.172-.687c-.23-.778-.431-1.58-.632-2.413a42.215,42.215,0,0,0-1.2-4.393,1.517,1.517,0,0,1-.086-.345C-135.951-122.925-135.606-123.1-133.54-123.355Zm-1.2,30.676c.285.057.6.144.6.4,0,.115-.086.2-.287.345a2.043,2.043,0,0,0-.546,1.262,21.17,21.17,0,0,0-.371,4.022,13.335,13.335,0,0,0,1.032,5.511c.23.488.747,1.408,1.379,1.408.661,0,1.321-1.175,1.58-1.635.2-.345.457-.718.891-.718.859,0,2.985,1.635,2.985,2.324s-1.321,2.212-1.81,2.755c-1.005,1.12-2.008,2.068-3.588,2.068-1.922,0-3.56-1.408-4.622-2.9-2.126-2.987-2.327-7.179-2.327-10.71,0-.546.115-4.019.146-4.421.029-.316.17-.46.488-.46C-138.823-93.426-135.462-92.823-134.744-92.679Zm10.506-.919c.776,0,3.043,1.781,4.306,3.82a15.652,15.652,0,0,1,2.126,5.884c.057.46.141,1.149.141,1.494,0,.6-.141.859-.718,1.034a9.883,9.883,0,0,1-2.727.486c-1.063,0-1.089-.371-1.175-1.463-.259-3.445-1.465-6.174-4.192-8.127a.58.58,0,0,1-.287-.486C-126.763-91.616-125.1-93.6-124.238-93.6Zm-10.506,26.37c.285.057.6.144.6.4,0,.115-.086.2-.287.345a2.043,2.043,0,0,0-.546,1.264,21.145,21.145,0,0,0-.371,4.019,13.353,13.353,0,0,0,1.032,5.513c.23.488.747,1.408,1.379,1.408.661,0,1.321-1.178,1.58-1.637.2-.345.457-.718.891-.718.859,0,2.985,1.637,2.985,2.324s-1.321,2.212-1.81,2.758c-1.005,1.12-2.008,2.068-3.588,2.068-1.922,0-3.56-1.408-4.622-2.9-2.126-2.985-2.327-7.177-2.327-10.71,0-.546.115-4.019.146-4.421.029-.316.17-.457.488-.457C-138.823-67.973-135.462-67.372-134.744-67.228Zm10.506-.917c.776,0,3.043,1.779,4.306,3.818a15.652,15.652,0,0,1,2.126,5.884c.057.46.141,1.149.141,1.494,0,.6-.141.862-.718,1.034a9.886,9.886,0,0,1-2.727.488c-1.063,0-1.089-.373-1.175-1.465-.259-3.445-1.465-6.171-4.192-8.125a.587.587,0,0,1-.287-.488C-126.763-66.165-125.1-68.145-124.238-68.145ZM-138.191-30.78a18.029,18.029,0,0,1,2.729-1.034c.371,0,.46.287.517.718a3.409,3.409,0,0,0,.745,1.865c1.092,1.12,2.9,1.178,4.395,1.178a30.865,30.865,0,0,0,8.268-1,2.522,2.522,0,0,1,.658-.117c.546,0,.661.6.718,1.551.029.488.115,1.953.115,2.327,0,.515-.316.689-1.005.859a48.1,48.1,0,0,1-8.642.8c-3.071,0-6.4-.371-8.326-3.043a7.391,7.391,0,0,1-1.293-3.157C-139.312-30.235-138.909-30.464-138.191-30.78Zm2.3-11.055c.055-.342.2-.773.8-.773a4.474,4.474,0,0,1,1.063.2,21.582,21.582,0,0,0,4.737.546,24.074,24.074,0,0,0,5.139-.6,2.322,2.322,0,0,1,.46-.057c.661,0,.8.718.862,1.721.029.488.086,1.522.086,2.011,0,.661-.2.718-.89.831a28.821,28.821,0,0,1-5.2.4c-1.35,0-6.26-.144-7.234-.8a.688.688,0,0,1-.287-.6C-136.353-39.25-136.008-41.2-135.893-41.835Zm2.353,24.591a20.2,20.2,0,0,1,2.327-.227c.773,0,.831.057,1.032,2.209a22.465,22.465,0,0,0,.488,3.473c.086.345.23.747.661.747a20.015,20.015,0,0,0,3.732-1.893,10.55,10.55,0,0,1,2.269-1.149c.314,0,.917.89,1.319,1.549a8.438,8.438,0,0,1,1.178,2.47c0,.316-.316.431-.919.63-.115.057-.259.089-.4.146A49.365,49.365,0,0,0-130.9-4.753c-1.376.859-3.358,2.152-3.358,3.646,0,1.922,3.648,1.922,4.967,1.922a36.557,36.557,0,0,0,4.364-.227c.6-.089,2.585-.4,3.045-.548.084,0,.2-.029.285-.029.287,0,.373.488.4.718.086.833.115,1.781.115,2.614,0,.859-.029,1.12-.776,1.319a57.518,57.518,0,0,1-7.866.488,11.8,11.8,0,0,1-6.257-1.29,5.626,5.626,0,0,1-2.873-4.91c0-2.844,2.04-5.226,4.309-6.691.428-.258.687-.4.687-.89a2.4,2.4,0,0,0-.172-.687c-.23-.776-.431-1.58-.632-2.413a42.383,42.383,0,0,0-1.2-4.393,1.516,1.516,0,0,1-.086-.345C-135.951-16.813-135.606-16.985-133.54-17.244Zm5.513,28.036c.345.086.632.2.632.4,0,.144-.2.259-.316.316a1.125,1.125,0,0,0-.575.687,3.716,3.716,0,0,0-.23.747.393.393,0,0,0,.4.4,17.106,17.106,0,0,0,3.33-1.005.936.936,0,0,1,.373-.115c.345,0,.546.345.661.689a16.36,16.36,0,0,1,.574,2.557c0,.543-.488.687-1.12.831-1.379.316-2.841.546-4.278.776-.23.029-.661.144-.661.373,0,.259.287.259.46.259.23,0,.919-.029,1.494-.029,4.709,0,8.871,2.442,8.871,7.607,0,3.706-2.384,6.231-5.455,7.923a14.143,14.143,0,0,1-4.163,1.551c-.8,0-1.752-2.669-1.752-3.33,0-.345.287-.4.574-.488a30.548,30.548,0,0,0,3.1-1.12c1.9-.831,3.418-2.238,3.418-4.421,0-1.807-1.034-3.157-1.551-3.157-.287,0-.431.172-.6.488a30.36,30.36,0,0,1-3.933,5.2.612.612,0,0,0-.23.486c0,.175.115.491.115.776,0,.661-2.212,2.327-3.215,2.327a.678.678,0,0,1-.46-.2.461.461,0,0,0-.316-.144.415.415,0,0,0-.2.057,9.738,9.738,0,0,1-3.789.974,3.85,3.85,0,0,1-3.789-3.99c0-2.87,1.98-5.683,4.134-7.406A14.723,14.723,0,0,1-133.6,19a.762.762,0,0,0,.46-.689c0-.316-.2-.46-.517-.46a6.452,6.452,0,0,0-.744.057,26.09,26.09,0,0,1-2.614.144c-1.58,0-1.666,0-1.666-1.436,0-2.353.144-2.468.661-2.468.6,0,1.293.086,2.1.086,2.87,0,3.157-.029,3.272-1.12.029-.287.373-2.841.4-2.928a.5.5,0,0,1,.517-.373C-131.446,9.816-128.573,10.649-128.027,10.793Zm-8.5,16.709c0,.345.23.488.546.488a4.878,4.878,0,0,0,2.238-.862.92.92,0,0,0,.287-.833c0-.345-.029-.718-.029-1.063,0-.287.029-.546.029-.8s-.057-.546-.373-.546C-134.431,23.882-136.525,26.553-136.525,27.5Zm6.889-5.283c0,.2.086.689.373.689.316,0,1.063-1.063,1.063-1.321,0-.23-.23-.316-.431-.316C-129.636,21.27-129.636,21.931-129.636,22.218Zm6.317,19.512c0,.172-.172.316-.316.4a24.294,24.294,0,0,0-3.531,2.9.742.742,0,0,0-.259.517.638.638,0,0,0,.661.6c.086,0,.2-.031.314-.031a9.51,9.51,0,0,1,2.011.347,6.77,6.77,0,0,1,5.025,6.688c0,5.484-4.737,8.211-9.733,8.211-2.7,0-6.344-1.089-6.344-4.393a4.2,4.2,0,0,1,4.3-3.99,5.056,5.056,0,0,1,3.876,1.838,4.9,4.9,0,0,1,.778,1.434.8.8,0,0,0,.687.546c.689,0,2.068-1.436,2.068-3.33,0-2.439-1.982-3.531-4.191-3.531a8.2,8.2,0,0,0-5.542,2.212,38.389,38.389,0,0,0-3.531,3.615c-.4.517-.632.718-.747.718-.661,0-2.9-2.353-2.9-2.9,0-.345.287-.6.89-1.063.718-.572,5.482-5.309,6.487-6.286.546-.546.977-1.063,1.465-1.609.2-.2.4-.373.4-.661,0-.345-.457-.4-.572-.4-.086,0-3.217.575-3.962.689a1.4,1.4,0,0,1-.345.029c-.661,0-.833-3.244-.833-3.789v-.287c0-.431.086-.431.919-.431h.658c1.867-.029,5.972-.345,7.61-1.034a4.5,4.5,0,0,1,1.235-.457C-125.5,38.285-123.319,41.1-123.319,41.73Zm-7.837,14.439a.827.827,0,0,0-.919.776c0,.776.974,1.149,1.635,1.149a.677.677,0,0,0,.718-.632A1.43,1.43,0,0,0-131.156,56.169Zm3.445,9.058c.316.057.919.144.919.517,0,.345-.23.23-.431.687a8.279,8.279,0,0,0-.373,3.246c0,.517.2.89.776.89a14.005,14.005,0,0,0,3.215-.862,5.8,5.8,0,0,1,1.321-.4c.4,0,.63.517,1.005,1.463a7.844,7.844,0,0,1,.63,2.212c0,.373-.4.488-1.491.8a36.06,36.06,0,0,1-4.251.89c-.687.115-1.175.227-1.175,1.063,0,.428.115,2.612.172,3.33.084.862.285.917,1.379,1.233a27.234,27.234,0,0,1,6.315,2.643.943.943,0,0,1,.517.718c0,.747-1.465,3.186-2.183,3.186a1.749,1.749,0,0,1-.689-.345c-.716-.488-3.7-2.212-4.45-2.212a.624.624,0,0,0-.6.6c-.371,3.1-3.157,4.108-5.913,4.108-2.87,0-6.288-1.264-6.288-4.651,0-3.562,3.591-5.113,6.662-5.113h.4a.747.747,0,0,0,.776-.744c0-.23-.144-3.246-.172-3.962a65.753,65.753,0,0,0-.488-8.9,2.215,2.215,0,0,1-.057-.431c0-.4.345-.46.661-.46C-130.926,64.739-128.429,65.112-127.711,65.227Zm-4.508,17.743c-.833,0-3.16.172-3.16,1.293,0,.831,1.465.946,2.068.946,1.063,0,2.154-.2,2.154-1.52C-131.156,83.028-131.73,82.97-132.219,82.97Zm15.186,13.453a4.1,4.1,0,0,1-4.105,4.105,4.1,4.1,0,0,1-4.077-4.105,4.08,4.08,0,0,1,4.077-4.105A4.1,4.1,0,0,1-117.033,96.423Zm-6.516,0a2.431,2.431,0,0,0,2.411,2.439,2.438,2.438,0,0,0,2.442-2.439,2.434,2.434,0,0,0-2.442-2.413A2.427,2.427,0,0,0-123.548,96.423Zm-11.742,31.416c0,1.408.086,2.786.086,4.163,0,.718-.259.8-1.178.8h-1.81c-.862,0-1.178-.057-1.178-.776,0-1.379.089-2.784.089-4.192v-1.463c0-.172-.031-.517-.259-.517a.869.869,0,0,0-.433.2.687.687,0,0,1-.342.115c-.689,0-2.327-2.126-2.327-2.813,0-.4.345-.634.862-1.063a29.837,29.837,0,0,0,4.048-4.421,8.481,8.481,0,0,0,1.436-2.269c0-.345-.4-.373-1.034-.373h-1.58c-.862,0-1.721.057-2.583.057-.632,0-.689-.287-.689-1.149v-1.664c0-.776.057-1.063.689-1.063.345,0,.689.029,1.034.029.486,0,1.178-.172,1.178-.8v-1.951c0-.948-.115-1.264-.115-1.58,0-.345.285-.4.572-.4.6,0,2.7.23,3.418.287.661.057,1.032.144,1.032.546,0,.316-.287.46-.546.689-.285.23-.285.776-.285,1.836v.517c0,.833.6.89,1.089.89h.259a2.115,2.115,0,0,1,1.982.919.6.6,0,0,0,.287.172c.141,0,.172-.172.2-.287.029-1.12.543-1.379,1.606-1.379.833,0,1.666.057,2.5.057.948,0,1.032-.345,1.032-1.06v-.835c0-.859-.115-1.463-.115-1.75,0-.373.316-.373.6-.373.919,0,2.183.057,3.131.086.488.029.917.057.917.431,0,.172-.113.259-.259.4-.227.23-.256.689-.256,1.321v.718c0,.773.287,1.06,1.032,1.06.8,0,1.609-.057,2.442-.057.974,0,1.635.2,1.635,1.35,0,.8-.057,1.637-.057,2.442v7.923c0,1.06.057,2.095.057,3.157,0,.689-.259.776-1.264.776h-1.405c-.891,0-1.092-.031-1.178-.661a.289.289,0,0,0-.314-.259h-.4a.577.577,0,0,0-.577.575v1.206c0,1.577.086,3.157.086,4.737,0,.716-.314.773-1.29.773h-1.666c-.888,0-1.2-.057-1.2-.773,0-1.58.084-3.16.084-4.737V126.2a.576.576,0,0,0-.572-.575h-.4c-.287,0-.316.23-.345.373-.115.546-.373.546-1.321.546h-1.293c-.862,0-1.233-.057-1.233-.689,0-.115.057-.4.057-.89,0-.115-.029-.316-.144-.316a.489.489,0,0,0-.287.172c-.287.316-.919,1.034-1.35,1.034-.373,0-1.235-.977-1.494-1.264-.113-.115-.287-.373-.46-.373-.2,0-.2.23-.2.373Zm3.962-11.4c0-.259,0-.517-.23-.517-.172,0-.373.259-.431.4-.431.776-.948,1.522-1.436,2.241a1.856,1.856,0,0,0-.46,1.06c0,.517.488.948,1.005,1.494.057.029.086.086.144.144.287.259.632.6.948.6.4,0,.46-.546.46-.862Zm3.7-.373a.545.545,0,0,0,.546.546h.259a.552.552,0,0,0,.572-.546v-.661a.552.552,0,0,0-.572-.546h-.259a.545.545,0,0,0-.546.546Zm0,5.2a.544.544,0,0,0,.546.546h.259a.552.552,0,0,0,.572-.546v-.632a.57.57,0,0,0-.572-.546h-.259a.565.565,0,0,0-.546.546Zm6.717-5.858a.528.528,0,0,0-.546-.546h-.227a.553.553,0,0,0-.577.546v.661a.553.553,0,0,0,.577.546h.227a.528.528,0,0,0,.546-.546Zm0,5.226a.528.528,0,0,0-.546-.546h-.227a.572.572,0,0,0-.577.546v.632a.553.553,0,0,0,.577.546h.227a.528.528,0,0,0,.546-.546Zm-1.005,14.973a.687.687,0,0,1,.316.115c.862.4,1.781.747,2.671,1.063.632.23.946.345.946.632,0,.345-.256.371-.515.46a.969.969,0,0,0-.574.431,2.683,2.683,0,0,1-.144.227,4.773,4.773,0,0,0-.6,1.034c0,.259.23.373.46.373.517,0,1.032-.057,1.551-.057.63,0,.687.287.687.919v1.206c0,.747-.057,1.032-.687,1.032-1.005,0-1.982-.057-2.959-.057H-122.6a.382.382,0,0,0-.373.373v.144a.38.38,0,0,0,.373.373h1.321c.888,0,1.779-.057,2.669-.057.687,0,.747.287.747,1.034v.919c0,.632-.06.977-.689.977-.919,0-1.81-.057-2.727-.057H-122.6a.378.378,0,0,0-.373.371v.172a.362.362,0,0,0,.373.373h2.267c.977,0,1.951-.055,2.956-.055.632,0,.689.314.689,1v1.12c0,.776-.057,1.032-.718,1.032-.23,0-.428-.026-.658-.026-.172,0-.4.057-.4.287a9.1,9.1,0,0,0,1.262,1.405c.144.144.488.488.488.718a.343.343,0,0,1-.345.316h-.172a.483.483,0,0,0-.2-.029.694.694,0,0,0-.457.172c-.089.057-.172.144-.29.23-.457.373-1.032.833-1.032,1.063,0,.2.172.345.316.457.689.634,1.206,1.092,1.953,1.666.457.345.687.517.687.776,0,.718-1.951,2.353-2.64,2.353-.632,0-2.985-2.87-3.445-3.473-.086-.115-.2-.259-.345-.259-.259,0-.287.259-.287.431,0,.4.029.8.029,1.206a3.5,3.5,0,0,1-.747,2.5c-1.005,1.034-2.959,1.178-4.306,1.178-.46,0-1.12,0-1.321-.46a7.247,7.247,0,0,1-.431-2.353c0-.46.172-.891.718-.891.345,0,.948.144,1.551.144.431,0,.517-.144.517-.8v-5.858a.806.806,0,0,0-.8-.8H-130.1c-.144,0-.314.031-.314.2,0,.089.141.175.256.232.146.086,1.436.974,1.436,1.29a5.05,5.05,0,0,1-.747,1.465c-.057.086-.144.172-.144.259a.136.136,0,0,0,.144.144.8.8,0,0,0,.345-.144,5.869,5.869,0,0,1,.833-.431c.46,0,.919,1.609.919,2.355,0,.486-.2.63-.689.946-.689.46-2.327,1.494-3.5,2.183-.2.115-.259.2-.287.546-.057.2-.144.46-.4.46-.144,0-.287-.175-.488-.46a19.275,19.275,0,0,1-1.235-2.384,1.633,1.633,0,0,1-.2-.63c0-.232.115-.261.287-.318.6-.2,1.81-.744,2.355-1,.429-.2.718-.345.718-.575,0-.2-.089-.23-.29-.4a14.4,14.4,0,0,0-1.865-1.264c-.144-.086-.2-.144-.2-.259a8.45,8.45,0,0,1,.862-1.893.415.415,0,0,0,.057-.2c0-.2-.2-.06-.287-.431-.029-.086-.057-.2-.115-.2-.086,0-.144.144-.144.2-.086.172-.575,1.06-.718,1.319a.622.622,0,0,1-.517.433c-.287,0-.515-.433-.716-.721-.089-.115-.117-.17-.2-.17-.146,0-.175.17-.175.428v5.312c0,1.321.06,2.64.06,3.962,0,.661-.287.718-1.12.718h-1.666c-.862,0-1.12-.057-1.12-.744,0-1.321.057-2.643.057-3.935v-2.066c0-.23-.026-.345-.144-.345-.2,0-.342.431-.4.6-.2.488-.658,1.779-1.175,1.779-.632,0-2.355-1.922-2.355-2.841,0-.259.115-.46.4-.948a30.985,30.985,0,0,0,2.442-6.087,20.164,20.164,0,0,0,.572-2.267.442.442,0,0,0-.457-.4c-.488,0-.977.057-1.465.057-.6,0-.661-.287-.661-1.063v-1.692c0-.8.057-1.12.661-1.12.575,0,1.149.057,1.721.057a.822.822,0,0,0,.862-.891v-1.724a11.281,11.281,0,0,0-.084-1.692v-.23c0-.345.227-.4.486-.4a4.716,4.716,0,0,1,.661.057c.46.057.89.086,1.264.115,1.293.086,2.04.144,2.04.546,0,.172-.146.287-.318.431-.23.2-.259.6-.259,1.293v1.635a.811.811,0,0,0,.8.833c.115,0,.517-.029.776-.029.6,0,.661.259.661,1.092v1.721c0,.776-.057,1.063-.632,1.063-.373,0-.8-.057-1.178-.057a.448.448,0,0,0-.431.46,1.445,1.445,0,0,0,.23.776,21.178,21.178,0,0,0,2.011,2.669c.057.029.086.086.172.086.115,0,.115-.144.144-.23.029-.488.287-.572.718-.572.977,0,1.922.055,2.9.055h1.609a.348.348,0,0,0,.373-.373v-.172a.362.362,0,0,0-.373-.371h-.8c-.89,0-1.81.057-2.7.057-.658,0-.716-.316-.716-1.092v-.776c0-.776.086-1.063.747-1.063.888,0,1.779.057,2.669.057h.8a.364.364,0,0,0,.373-.373v-.144a.365.365,0,0,0-.373-.373h-1.235c-.977,0-1.953.057-2.956.057-.661,0-.718-.285-.718-1.06v-1.063c0-.776.086-1.034.776-1.034.227,0,.428.029.661.029.314,0,.63-.115.63-.488a4.392,4.392,0,0,0-.543-1.178c-.06-.141-.462-.946-.462-1.032,0-.661,2.9-1.408,3.16-1.408.316,0,.517.23,1.118,1.436l.146.287a8.667,8.667,0,0,1,.546,1.319c0,.345-.661.6-.919.661-.115.057-.316.115-.316.259,0,.115.115.172.342.172h1.867c1.063,0,1.551-.259,2.815-3.732C-122.258,135.693-122.2,135.607-121.913,135.607ZM-122,150.65c-.227,0-.543.057-.543.347,0,.172.661,1.29,1.032,1.29a.757.757,0,0,0,.46-.259c.2-.172.689-.718.747-.776.086-.084.2-.2.2-.314,0-.232-.172-.29-.488-.29Zm-11.885,15.378c0-.287.057-.546.4-.546.287,0,3.531.776,4.077.919.23.057.747.17.747.457,0,.2-.2.29-.46.4-.46.23-.575,1.005-.687,1.81l-.06.4c-.029.172-.086.488-.086.575,0,.661.6.689.977.689a5,5,0,0,1,2.382.63c2.04,1.178,2.413,2.873,2.413,4.912,0,2.525-.546,6.717-1.81,8.929a6.446,6.446,0,0,1-6.056,3.215c-.833,0-1.235-.117-1.494-.8a11.385,11.385,0,0,1-.632-2.9c0-.371.115-.689.546-.689.4,0,.8.031,1.206.031,1.695,0,2.152-.115,2.727-1.206a16.625,16.625,0,0,0,1.293-6.372c0-1.321-.2-1.752-1.321-1.752-.946,0-1.2.112-1.465,1.06a37.99,37.99,0,0,1-4.419,9.561,18.825,18.825,0,0,1-2.04,2.786.63.63,0,0,1-.488.2c-.661,0-3.387-1.522-3.387-2.442,0-.287.259-.575.718-1.032a22.45,22.45,0,0,0,5-7.9,1.581,1.581,0,0,0,.144-.486.4.4,0,0,0-.46-.433,18.6,18.6,0,0,0-2.442.8,1.355,1.355,0,0,1-.572.2c-.46,0-.8-1.118-1.063-2.238a15.162,15.162,0,0,1-.373-1.982c0-.373.2-.46,1.06-.546a30.732,30.732,0,0,0,4.393-.718c.747-.141.919-.371,1.005-1.147a36.254,36.254,0,0,0,.23-3.962Zm11.686,2.841a21.16,21.16,0,0,1,2.324,2.873c.431.6,2.353,3.416,2.353,3.959,0,.948-2.612,2.442-3.416,2.442-.316,0-.46-.259-.718-.776a24.189,24.189,0,0,0-3.99-6.43.912.912,0,0,1-.316-.517c0-.6,2.212-2.068,2.873-2.068A1.314,1.314,0,0,1-122.2,168.869Zm2.813-2.355c.747.747,1.321,1.379,1.321,1.637,0,.575-1.35,1.637-1.695,1.637-.115,0-.287-.172-.431-.345a29.319,29.319,0,0,0-2.068-2.238c-.17-.146-.314-.29-.314-.433,0-.4,1.434-1.491,1.779-1.491C-120.592,165.281-119.9,166-119.386,166.513Zm2.1-2.9c.4.371,2.066,1.922,2.066,2.324,0,.572-1.379,1.664-1.695,1.664-.17,0-.345-.23-.428-.373-.634-.773-1.379-1.491-2.1-2.209-.115-.115-.316-.287-.316-.46,0-.4,1.465-1.465,1.779-1.465C-117.779,163.1-117.377,163.528-117.289,163.617Zm-5.657,33c0,.4-.287.6-.6.773a38.312,38.312,0,0,0-4.393,3.16c-.259.2-1.551,1.264-1.695,1.434a.328.328,0,0,0-.086.232c0,.2.172.285.345.285a7.511,7.511,0,0,0,1.092-.259c.8-.227,7.895-2.181,8.067-2.181.46,0,.546.546.718,2.267a15.371,15.371,0,0,1,.144,1.58c0,.517-.086.517-2.181.8a15.1,15.1,0,0,0-6.087,2.411c-1.12.776-2.355,1.953-2.355,3.418,0,2.238,3.706,2.3,5.283,2.411.345.029.6.029.6.46a19.721,19.721,0,0,1-.747,3.129.939.939,0,0,1-1.032.718,14.95,14.95,0,0,1-4.452-1.005c-2.238-.919-3.99-2.583-3.99-5.139a5.377,5.377,0,0,1,1.034-3.129.826.826,0,0,0,.2-.431.345.345,0,0,0-.345-.316c-.4,0-4.249,1.35-4.852,1.58a2.33,2.33,0,0,1-.833.259c-.486,0-.661-.488-.945-1.264a8.1,8.1,0,0,1-.546-2.3c0-.572.428-.658,1.578-.888a3.571,3.571,0,0,0,2.039-1.034c1.807-1.434,3.531-2.928,5.254-4.479a.475.475,0,0,0,.23-.373.3.3,0,0,0-.316-.287,9.8,9.8,0,0,0-1.235.316,4.319,4.319,0,0,1-1.005.259c-.632,0-.862-.8-1.034-1.405a11.1,11.1,0,0,1-.4-2.355c0-.546.086-.661,1.75-.8,1.838-.172,5.915-.689,7.323-1.35a1.608,1.608,0,0,1,.687-.227C-124.554,192.886-122.945,195.813-122.945,196.618Zm1.491,36.967c0,4.821-3.7,8.984-7.809,11.138a6.237,6.237,0,0,1-2.066.776c-1.235,0-2.987-3.016-2.987-3.533,0-.287.287-.4.517-.457a12.722,12.722,0,0,0,5.312-2.844,6.518,6.518,0,0,0,2.413-4.766,3,3,0,0,0-3.246-3.043,10.064,10.064,0,0,0-5.941,2.528,1,1,0,0,1-.6.285c-.948,0-2.241-2.956-2.241-3.9,0-.46.46-.689.8-.862a20.924,20.924,0,0,1,8.268-2.267C-124.755,226.636-121.454,229.075-121.454,233.585Zm-11.368-13.151c1.836.89,5.427,1.35,7.493,1.494.689.057.948.115.948.488,0,.259-.115.977-.23,1.692-.144.948-.316,2.126-1.149,2.126a42.444,42.444,0,0,1-6.918-1.293c-1.81-.486-2.3-.632-2.3-1.089a13.571,13.571,0,0,1,.833-2.815c.115-.316.287-.8.718-.8A1.5,1.5,0,0,1-132.822,220.433Zm12.374,32.113c.919,0,1.838-.057,2.758-.057.6,0,.63.316.63.977V254.7c0,.8-.057,1.032-.63,1.032-.919,0-1.838-.055-2.758-.055h-18.059c-.888,0-1.807.055-2.727.055-.575,0-.632-.227-.632-.946v-1.379c0-.689.057-.919.632-.919.919,0,1.807.057,2.727.057Zm-13.839,20.239c-.345,0-.457.261-.488.546-.057.46-.572.517-1.147.517H-137.7c-1.092,0-1.408-.084-1.408-.745,0-.718.086-1.752.086-2.7v-2.813c0-.833-.055-1.609-.055-2.269,0-1.032.8-1.089,1.606-1.089.919,0,1.836.057,2.755.057H-124.3c.919,0,1.81-.057,2.727-.057.833,0,1.637.057,1.637,1.089,0,.747-.057,1.494-.057,2.269V270.4c0,.948.086,1.925.086,2.7,0,.661-.316.745-1.436.745h-1.348c-1.321,0-1.494-.026-1.58-.661a.469.469,0,0,0-.46-.4Zm10.308-24.259c.919,0,1.838-.057,2.755-.057.575,0,.632.23.632.919v1.494c0,.632-.057.859-.632.859-.917,0-1.836-.055-2.755-.055H-135c-.919,0-1.838.055-2.758.055-.575,0-.632-.227-.632-.974V249.36c0-.661.057-.891.632-.891.919,0,1.838.057,2.758.057Zm-.057,7.9c.919,0,1.838-.057,2.758-.057.543,0,.6.285.6.946v1.235c0,.747-.057,1.005-.574,1.005-.919,0-1.865-.057-2.784-.057H-135.06c-.919,0-1.838.057-2.758.057-.517,0-.575-.23-.575-.862v-1.379c0-.718.057-.946.6-.946.919,0,1.838.057,2.729.057Zm-.029,3.933c.89,0,1.807-.057,2.7-.057.575,0,.632.227.632.888v1.35c0,.661-.057.89-.6.89-.919,0-1.836-.057-2.727-.057H-135.06c-.891,0-1.81.057-2.7.057-.575,0-.632-.23-.632-.919v-1.235c0-.747.057-.974.632-.974.89,0,1.81.057,2.7.057Zm-10.767,8.354a.768.768,0,0,0,.8.8h9.044a.82.82,0,0,0,.8-.8v-.4a.8.8,0,0,0-.8-.8h-9.044a.8.8,0,0,0-.8.8Zm16.91,17.783c0,3.646-2.583,6.059-5.8,7.323a17.351,17.351,0,0,1-4.536,1.147c-.546,0-.776-.287-1.005-.744a7.615,7.615,0,0,1-.718-2.3c0-.546.546-.6,1.092-.661,2.614-.287,7.15-1.465,7.15-4.795,0-1.549-1.18-2.3-2.614-2.3-2.557,0-6.056,1.491-8.211,2.784a2.1,2.1,0,0,1-1.063.4c-.974,0-2.382-2.382-2.382-3.272,0-.574.488-.632,1.206-.8.543-.144,1.491-.488,2.008-.689,2.554-.948,5.771-2.095,8.354-2.095C-120.793,280.5-117.923,282.648-117.923,286.495Zm-22.564,21.4a19.408,19.408,0,0,1-.46-3.071c0-.89.4-.89,1.922-.977,4.223-.23,8.414-.632,12.632-1.149,2.068-.259,4.366-.546,6.432-.919a.863.863,0,0,1,.259-.026c.517,0,.661.486.747.946a24.029,24.029,0,0,1,.345,3.189c0,.543-.345.543-1.522.572a11.86,11.86,0,0,0-4.134.517,8.9,8.9,0,0,0-5.915,8.385c0,2.724,1.408,3.473,3.933,3.473.747,0,1.666-.086,2.1-.086.517,0,.718.086.718.63a12.659,12.659,0,0,1-.488,3.361c-.259.6-.6.658-1.206.658-5.338,0-9.791-1.376-9.791-7.579a12.041,12.041,0,0,1,2.355-7.122,1.268,1.268,0,0,0,.287-.63c0-.259-.2-.431-.517-.431a13.244,13.244,0,0,0-1.549.259c-1.522.287-3.476.718-4.97,1.149a2.212,2.212,0,0,1-.428.055C-140.228,309.1-140.4,308.3-140.487,307.9Zm17.168,23.988c0,.17-.172.316-.316.4a24.141,24.141,0,0,0-3.531,2.9.737.737,0,0,0-.259.517.639.639,0,0,0,.661.6c.086,0,.2-.029.314-.029a9.476,9.476,0,0,1,2.011.342,6.773,6.773,0,0,1,5.025,6.691c0,5.482-4.737,8.211-9.733,8.211-2.7,0-6.344-1.092-6.344-4.393a4.2,4.2,0,0,1,4.3-3.99,5.056,5.056,0,0,1,3.876,1.838,4.9,4.9,0,0,1,.778,1.434.8.8,0,0,0,.687.546c.689,0,2.068-1.436,2.068-3.33,0-2.439-1.982-3.531-4.191-3.531a8.207,8.207,0,0,0-5.542,2.209,38.709,38.709,0,0,0-3.531,3.617c-.4.517-.632.718-.747.718-.661,0-2.9-2.353-2.9-2.9,0-.345.287-.6.89-1.063.718-.574,5.482-5.312,6.487-6.286.546-.548.977-1.065,1.465-1.609.2-.2.4-.373.4-.661,0-.345-.457-.4-.572-.4-.086,0-3.217.572-3.962.687a1.4,1.4,0,0,1-.345.029c-.661,0-.833-3.244-.833-3.789v-.287c0-.428.086-.428.919-.428h.658c1.867-.031,5.972-.347,7.61-1.037a4.454,4.454,0,0,1,1.235-.46C-125.5,328.439-123.319,331.252-123.319,331.886Zm-7.837,14.439a.828.828,0,0,0-.919.776c0,.776.974,1.149,1.635,1.149a.679.679,0,0,0,.718-.632A1.43,1.43,0,0,0-131.156,346.325Zm2.209,10.324c.431.115.747.2.747.457,0,.2-.23.316-.431.4-.488.232-.6,1.005-.718,1.838l-.086.575c-.029.172-.057.316-.057.373a.585.585,0,0,0,.287.546,1.608,1.608,0,0,0,.689.141,5.376,5.376,0,0,1,2.411.6c1.9,1.065,2.384,2.844,2.384,4.91,0,2.554-.517,6.746-1.81,8.929a6.418,6.418,0,0,1-6.056,3.215c-.833,0-1.206-.086-1.494-.8a11.11,11.11,0,0,1-.632-2.9c0-.373.144-.658.546-.658s.8.029,1.206.029c1.752,0,2.123-.146,2.727-1.235a16.374,16.374,0,0,0,1.293-6.344c0-1.353-.2-1.755-1.293-1.755-.974,0-1.233.117-1.491,1.065a36.541,36.541,0,0,1-4.421,9.53,21.47,21.47,0,0,1-2.04,2.815.749.749,0,0,1-.488.2c-.632,0-3.387-1.522-3.387-2.468,0-.29.316-.6.575-.864a22.668,22.668,0,0,0,5.139-8.038,1.578,1.578,0,0,0,.144-.517.4.4,0,0,0-.46-.431,18.91,18.91,0,0,0-2.442.833,1.219,1.219,0,0,1-.546.172c-.486,0-.8-1.092-1.032-2.1-.146-.658-.431-1.807-.431-2.095,0-.428.316-.488,1.06-.546a28.373,28.373,0,0,0,4.421-.747c.575-.115.89-.316.977-.946a39.085,39.085,0,0,0,.23-4.136v-.431c0-.287.057-.543.4-.543C-132.736,355.73-129.492,356.5-128.946,356.65Zm7.667,2.353a24.6,24.6,0,0,1,2.238,2.9c.057.115.172.259.287.46a17.084,17.084,0,0,1,1.951,3.588c0,.919-2.64,2.442-3.416,2.442-.4,0-.6-.46-.747-.776a24.179,24.179,0,0,0-3.99-6.461c-.115-.113-.316-.314-.316-.488,0-.658,2.413-2.207,3.131-2.207A1.236,1.236,0,0,1-121.279,359Zm-11.256,29.76c.689.227,1.29.4,1.29.718,0,.17-.2.285-.342.342-.373.172-.4.316-.575,1.005-.2.8-.316,1.637-.488,2.468a4.6,4.6,0,0,0-.086.661c0,.259.144.517.4.517a8.838,8.838,0,0,0,1.724-.862,9.673,9.673,0,0,1,4.278-1.005,6.66,6.66,0,0,1,5.08,2.154,5.884,5.884,0,0,1,1.522,4.249,6.147,6.147,0,0,1-1.549,4.45,11.8,11.8,0,0,1-5.053,2.841,19.146,19.146,0,0,1-4.134.8,1.061,1.061,0,0,1-1.092-.572,8.8,8.8,0,0,1-.919-3.189c0-.546.4-.632.776-.632,2.238-.029,7.665-.6,7.665-3.646,0-1.58-1.436-2.324-2.815-2.324-2.755,0-5.74,2.612-7.349,4.68-.259.342-.488.63-.946.63s-2.987-.4-2.987-1.405a2.045,2.045,0,0,1,.115-.6,44.684,44.684,0,0,0,1.58-10.595c0-1.063,0-1.551.632-1.551A22.157,22.157,0,0,1-132.535,388.762Zm.517-6.116a3.135,3.135,0,0,1,1.005.371,42.037,42.037,0,0,1,4.019,2.442c.6.431,1.032.718,1.032,1.032,0,.634-1.692,3.131-2.525,3.131a1.281,1.281,0,0,1-.747-.4,28.941,28.941,0,0,0-4.278-2.956c-.431-.259-.718-.4-.718-.718C-134.23,385.114-132.966,382.646-132.018,382.646Zm5.4,47.1a2.824,2.824,0,0,1-2.987,2.956,2.5,2.5,0,0,1-2.669-2.528,2.861,2.861,0,0,1,2.956-3.071A2.6,2.6,0,0,1-126.62,429.746Zm-3.878-4.452c-.747,0-.859-.112-.888-.859l-.287-6.806c-.115-1.779-.345-5.74-.345-6.315,0-.488.172-.6.8-.6h3.5c.632,0,.8.115.8.6,0,.575-.227,4.505-.342,6.66l-.259,6.461c-.029.747-.144.859-.891.859Z" transform="translate(142.986 217.575)"/></svg>