<svg xmlns="http://www.w3.org/2000/svg" viewBox="0 0 132.347 40.953"><defs><style>.a{fill:#9e7b55;}</style></defs><path class="a" d="M47.113,94.183l-.679-.733.091-.492a36.428,36.428,0,0,1,4.1-5.584q-1.746-1.154-3.489-2.187l-.07-.727a1.08,1.08,0,0,1,.922-.036q1.746,1.036,3.512,2.07A36.5,36.5,0,0,1,56.73,80.3l.609.01.537.4-.01.612a36.009,36.009,0,0,0-5.391,5.955l3.676,2.833-.053.3-.942.132L51.6,88.164a27.414,27.414,0,0,0-4.057,5.9ZM68.18,97.6l-.694-.657.055-.3.12-.1.221-1.2L67.869,94.2,68,94.128,68.21,93l.036-1.97.2-1.1-.417-.506q-3.183,1.923-6.088,4.1l-.592-.108-.542-1.038q6.227-3.867,12.672-7.675l.73.01.5.622-.094.513L70,88.342l-.144.788.084.648L69.735,90.9l.072.727-.188,1.026.08.116-.369,2.011.08.116L69.2,96.019l.231,1.081A1.683,1.683,0,0,1,68.18,97.6ZM82.4,93.919l-.9-1.308a41.808,41.808,0,0,1-2.332-5.276,1.183,1.183,0,0,1,1.257-.072q1.313,2.4,2.6,4.915l.207.65-.186,1.005ZM80.39,99.334l-.641-1.055q3.36-1.439,6.644-3.018l.2.038.154-.277a12.06,12.06,0,0,1,3.872-1.347l.009.509a70.005,70.005,0,0,1-8.783,5.009l-.2-.036-.154.277-.116.082Zm17.716,2.925a5.285,5.285,0,0,1-2.426-1.992,6.849,6.849,0,0,1-.612-3.433l.2-1.1,0-.532.116-.08.333-1.812.381-.969.221-1.2a1.288,1.288,0,0,1,1.041-.014l.421.486-.014.629-1.01,2.727.593.21a41.171,41.171,0,0,1,8.658-.9l.539.508-.108.592a62.843,62.843,0,0,0-9.877,1.2l-.229.691a4.762,4.762,0,0,0,.725,2.821l.892.8,1.5.275a8.979,8.979,0,0,0,4.29-1.289l.407-.557.925.068.356.392-.108.592-.545.633a10.356,10.356,0,0,1-5.346,1.5Zm12.6,2.293a2.479,2.479,0,0,1-.59-1.229l.185-1.005-.08-.116.217-1.183-.077-.137,1.019-5.557-.08-.115.221-1.2a1.084,1.084,0,0,1,.923-.036l.578.737.612.113a32.007,32.007,0,0,1,4.638-.084l3.961.725.619.624-.166.906-.116.08-.93,5.064.026.412-.116.08-.185,1.005.412,1.094a3.35,3.35,0,0,0-.867,1.39l-1.024-.087-.366-.78.156-.3-.752-.342-.116.082-2.187-.4-.116.08-1.1-.2-3.6.074-.291.354Zm9.243-1.074.207-.574-.082-.115.294-1.6.05-.826.152-.279-.08-.116.619-3.37a1.619,1.619,0,0,0-1.067-.4l-.118.082-.985-.183a23.844,23.844,0,0,0-6.322.267l-.116.08-.185,1,.08.118-.275,1.5.026.412-.116.08-.311,1.694-.038,1.318,1.5.274,1.552-.021,1.281.236.116-.08,1.4.256,1,.082.887.263Zm14.175,6.227-.694-.657.055-.3.12-.1.221-1.2-.015-1.144.137-.077.207-1.123.036-1.97.2-1.1-.415-.506a72.529,72.529,0,0,0-6.09,4.1l-.592-.109-.544-1.036q6.232-3.867,12.674-7.675l.732.01.5.622-.094.511-4.613,2.494-.144.788.085.646L135.675,103l.07.725-.188,1.026.08.115-.369,2.011.08.116-.205,1.125.227,1.081A1.671,1.671,0,0,1,134.119,109.7Zm14.221-3.684-.9-1.3a41.534,41.534,0,0,1-2.332-5.276,1.184,1.184,0,0,1,1.257-.075q1.31,2.4,2.6,4.919l.207.648-.186,1.005Zm-2.012,5.416-.641-1.055q3.362-1.441,6.644-3.018l.2.038.15-.277a12.043,12.043,0,0,1,3.874-1.347l.009.509a69.891,69.891,0,0,1-8.783,5.009l-.2-.036-.152.277-.118.08ZM27.282,118.982A113.105,113.105,0,0,1,53.574,105.3c.73-.265-.622-1.224-1.134-1.039a114.187,114.187,0,0,0-24.419,12.358q.9-1.805,1.8-3.607c.265-.53-1.267-1.291-1.534-.756l-4.037,8.085c-.246.494.838.93,1.176.916l10.721-.456c.35-.014.462-.256.268-.542a1.425,1.425,0,0,0-1.086-.533l-9.055.385c.18-.361.361-.721.54-1.082A.606.606,0,0,0,27.282,118.982Z" transform="translate(-24.215 -80.305)"/></svg>