<svg xmlns="http://www.w3.org/2000/svg" viewBox="0 0 116.832 40.212"><defs><style>.a{fill:#9b96af;}</style></defs><path class="a" d="M59.817,175.721c-.18.361-.361.722-.54,1.082l9.054-.385a1.425,1.425,0,0,1,1.086.533c.193.286.082.528-.268.542l-10.721.456c-.339.014-1.422-.422-1.176-.916l4.037-8.085c.267-.535,1.8.226,1.534.756q-.9,1.8-1.8,3.607A114.188,114.188,0,0,1,85.44,160.954c.511-.185,1.864.774,1.134,1.039a113.106,113.106,0,0,0-26.292,13.681A.606.606,0,0,1,59.817,175.721Zm23.792-24.444-.123-.551.239-1.3.14-.1.185-1.005.116-.08.2-1.1.364-.868.183-1.005.368-.891.239-1.3.5-.945a16.047,16.047,0,0,0,3.182-.354l.094-.513-.421-.484-1.122-.205-1.079.209-.458-.39.231-.59.185-1.005-.1-.12-.614-.54-.845.05-.089,1.041-.239,1.3-.251.26a22.416,22.416,0,0,0-4.326.267l-.3-.157-.121-.451.239-1.3.12-.1-.089-.627-.812-.68-.665.185-.075,2.082-.185,1.005-.118.08q-1.711.215-3.3.434l.005.532.5.621a2.851,2.851,0,0,0,2.142-.239l.458.287-.446,2.424a2.883,2.883,0,0,0,.074,1.378l.574.309.395.074.605-.421-.127-.532.157-.3-.017-1.571.207-.573-.041-.333.364-.87L83.642,142l.576.308-1.578,5.151.009.511-.4,1.067-.354,1.93.08.116.874.894A1,1,0,0,0,83.609,151.277Zm14.606,3.435q3.275-4.511,7.022-8.731a3.182,3.182,0,0,0-.243-2l.289-1.578-.08-.118.217-1.181-.08-.116.217-1.183a1.263,1.263,0,0,0-.641-.951.867.867,0,0,0-.964.149l.051,1.944-.289,1.576.079.116-.275,1.5-.233.162-1.084-.2-.116.08L101.1,144l-.116.082-1.082-.2a33.148,33.148,0,0,0-6.454.65l-.029.708.617.521A25.648,25.648,0,0,1,101,145.1l.985.18.118-.079,1.181.215.1.121L97.1,153.59a1,1,0,0,0,.214,1.058Zm9.655-7.536,1.045-2.253.691-3.763.116-.082a1.517,1.517,0,0,0-.511-1.214,1,1,0,0,0-1.057.214l.044.313-.308,1.677.08.116-.344,1.872-.66,1.935a1.11,1.11,0,0,0,.195,1.156Zm9.041,10.113a10.358,10.358,0,0,0,5.348-1.5l.545-.633.108-.592-.356-.39-.925-.068-.407.557a8.973,8.973,0,0,1-4.291,1.289l-1.5-.275-.892-.795a4.761,4.761,0,0,1-.725-2.823l.229-.691a63.256,63.256,0,0,1,9.875-1.2l.109-.592-.539-.506a40.945,40.945,0,0,0-8.658.9l-.595-.21,1.012-2.729.012-.627-.421-.486a1.31,1.31,0,0,0-1.041.012l-.219,1.2-.383.968-.333,1.812-.116.08.005.532-.2,1.1a6.841,6.841,0,0,0,.61,3.433,5.288,5.288,0,0,0,2.426,1.994Zm12.082,2.094.289-.354,3.6-.074,1.1.205.118-.082,2.187.4.116-.08.752.34-.157.3.366.781,1.022.085a3.387,3.387,0,0,1,.867-1.388l-.41-1.094.185-1.005.118-.082-.027-.41.93-5.064.116-.082.166-.9-.617-.624-3.963-.727a32.5,32.5,0,0,0-4.638.085l-.61-.113-.578-.737a1.084,1.084,0,0,0-.923.034l-.221,1.2.08.118-1.021,5.557.077.137-.217,1.181.082.115-.186,1.005a2.5,2.5,0,0,0,.59,1.231Zm7.906-1.012-.887-.267-1-.08-1.4-.258-.116.08-1.281-.236-1.552.022-1.5-.275.039-1.318.311-1.694.116-.08-.026-.412.274-1.5-.08-.115.185-1.005.118-.082a23.759,23.759,0,0,1,6.321-.263l.985.18.118-.082a1.614,1.614,0,0,1,1.067.4l-.619,3.368.08.118-.152.277-.05.826-.294,1.6.08.116-.207.573Zm15.958,5.618-.229-1.082.207-1.122-.08-.118.369-2.009-.08-.118.188-1.024-.072-.727.205-1.122-.084-.648.144-.788,4.614-2.494.094-.511-.5-.621-.732-.014q-6.442,3.808-12.674,7.677l.544,1.036.59.109q2.906-2.177,6.092-4.1l.415.5-.2,1.1-.036,1.97-.207,1.125-.135.075.014,1.144-.221,1.2-.12.1-.053.294.692.658A1.683,1.683,0,0,0,152.857,163.989Zm13.616-3.266.185-1.005-.207-.65q-1.29-2.521-2.6-4.917a1.177,1.177,0,0,0-1.255.075,41.745,41.745,0,0,0,2.33,5.274l.9,1.306ZM164.8,166.4l.116-.08.154-.279.2.036a69.518,69.518,0,0,0,8.781-5.008l-.007-.509a12.08,12.08,0,0,0-3.874,1.346l-.152.277-.2-.036q-3.285,1.577-6.646,3.018l.641,1.053Z" transform="translate(-57.215 -137.738)"/></svg>