<svg xmlns="http://www.w3.org/2000/svg" width="153.203" height="82.098" viewBox="0 0 153.203 82.098"><defs><style>.a{fill:#3c2819;}.b{fill:#9e7b55;}.c{fill:#3d2618;}</style></defs><g transform="translate(360 -3821)"><path class="a" d="M-43.555-26.758l.078,11.836q0,5.859-.117,8.672A42.749,42.749,0,0,0-48.516-12.3a18.842,18.842,0,0,0,2.148-.039l-.234-9.18a26.426,26.426,0,0,1-2.891-.078q.078,14.688.43,21.875L-52.734.156V-26.758ZM-54.141-8.32q-2.383,4.3-13.789,6.289l-.859-3.281q1.133-.234,1.992-.352l-.312-5.039,3.4-.156v4.414l1.25-.234-.039-8.437-2.148.039q-.391,0-1.992.117l-.156-3.828q3.437-.039,4.18-.117l.039-2.539-2.187-.078a4.955,4.955,0,0,1-2.969,1.6,28.52,28.52,0,0,0,.9-9.023l4.57.156a7.328,7.328,0,0,1-.273,1.934,6.841,6.841,0,0,1-.625,1.816q5.937-.039,8.594-.117l-.039,4.219-3.672.078.234,2.031q1.055-.078,3.477-.117l-.078,3.125q-2.461.078-3.945.234l-.156,1.953,3.4-.2-.117,3.438-3.359.039v3.359A18.183,18.183,0,0,0-54.141-8.32Zm-15-15.391a13.635,13.635,0,0,1-5.43.938,22.547,22.547,0,0,1-3.789-.312,17.728,17.728,0,0,0,6.25-4.844Zm.977,4.336a29.216,29.216,0,0,1-3.086,5.039q.234,7.813.469,11.563l-3.633.313.234-10.391a11.758,11.758,0,0,1-3.594.664,8.778,8.778,0,0,1-1.445-.117A21.127,21.127,0,0,0-74.8-16.289a17.161,17.161,0,0,0,3.125-5ZM-7.07-.352H-33.086l.43-29.062,25.234.156Zm-3.711-24.922q-6.172-.352-8.789-.312-1.719.039-9.961.2.078,1.953-.156,21.484,2.3-.078,18.867,0-.039-1.25-.039-5.352Q-10.859-14.727-10.781-25.273Zm-2.344,8.4-13.906.039-.039-2.578q3.633-.156,5.352-.2l-.039-1.055q-1.992.039-3.281.039l-.391-2.461,3.4-.117-.156-1.523H-18.4l-.039,1.6q3.008.117,3.867.117l-.078,2.656-3.789.078v1.133l5.273-.039Zm-.039,9.219-2.07,2.773a40.512,40.512,0,0,1-5.039-4.844l.547,4.8h-2.93q.039-.273.234-4.648-1.055,1.68-5.2,1.68a12.3,12.3,0,0,0,4.336-3.789H-25.2q-.156-2.539-.156-4.062,7.383-.2,10.039-.117l.078,4.57q-1.406.078-3.359.039A5.311,5.311,0,0,0-16.6-9.336l.859-1.641,1.719,1.289a5.84,5.84,0,0,1-1.6,1.094Q-14.414-8.086-13.164-7.656Zm-5.2-6.445-3.281-.078.078,1.523q.742.039,1.406.039.9,0,1.719-.078Zm52.5-13.516-.117,2.93q-2.383-.273-3.281-.273l.039,2.031-3.594.078v-2.3l-3.633.391-.039-2.969,3.984-.078-.273-2.148L30.664-30v2.383Zm-16.992-.391-.156,2.891q-2.578-.156-3.516-.2l.078,2.344-2.969.039q.078-1.289.078-2.07-3.086,0-4.18.078l-.039-2.969,4.219.039-.078-2.187h3.281q-.156,1.484-.273,2.188Zm17.3,14.453-.039,3.672q-3.477.2-4.883.391.313,8.672.2,10.156L9.766.508q.469-8.633.313-10.039L5.313-9.844l-.039-3.633q5.039-.039,5.43-.117l.352-7.852,17.852-.234.7,8.047Zm-9.141-3.984-9.8-.117L15.2-13.437q.2.078,10.039.352ZM25.2-7.93l-9.609-.078.156,4.453q1.328.156,9.3.117Zm-2.148-8.125-1.562,2.773-3.2-1.68,1.641-2.461Zm-.469,9.688L20.9-3.594q-1.875-1.133-2.852-1.68L19.8-7.734ZM73.984-28.789l-.078,3.125L70.469-25.9l-.352,2.344H67.656q.039-1.094,0-2.344l-4.609.078v-2.812l4.18-.117v-2.187l3.047.117v1.992Zm-17.227,3.4q-2.461-.2-3.2-.2l-.039,2.227H49.883l.039-2.266a33.614,33.614,0,0,0-3.75.234L46.25-28.2l3.867.039-.039-2.227,2.813.039.2,2.266,3.672.039Zm16.6,10.664-.078,2.734q-4.3.234-5.586.2v2.148l3.086-.039-.039,2.852q-2.812,0-7.969.078v1.523l9.414-.117L72.07-1.562l-9.727-.156.078,2.852H57.891l.117-2.617q-2.7.078-10.2.2l.078-3.984q4.492.117,9.922.039L57.773-6.68,50.664-6.8V-9.023a16.384,16.384,0,0,0,1.992.039L52.539-11.6h-6.25v-3.32l6.836-.156-.078-2.656q-.859-.117-3.242-.312L50-22.3l19.922-.234.2,3.789a12.246,12.246,0,0,1-2.773.234l.078,3.789Zm-9.1-2.891-2.109.078-.039,2.188q1.211-.039,2.07-.039Zm.2,5.859-2.187.039V-10l2.109-.078Zm-5.469-3.477-.039-2.187H56.211l-.039,2.188q.586.039,1.289.039T58.984-15.234Zm-.43,3.633-2.93.078v1.8a27.315,27.315,0,0,0,2.852.078Z" transform="translate(-280.781 3885)"/><path class="b" d="M-41.026-7.109l2.051,5.449,2.046-5.449h1.6V0h-1.23V-2.344l.122-3.135L-38.541,0h-.884l-2.095-5.474.122,3.13V0h-1.23V-7.109ZM-30.725,0h-1.187V-5.283h1.187Zm-1.26-6.655a.63.63,0,0,1,.173-.454.655.655,0,0,1,.5-.181.663.663,0,0,1,.5.181.625.625,0,0,1,.176.454.61.61,0,0,1-.176.447.668.668,0,0,1-.5.178.66.66,0,0,1-.5-.178A.615.615,0,0,1-31.985-6.655Zm7.513,5.22a.538.538,0,0,0-.261-.483,2.778,2.778,0,0,0-.867-.293,4.455,4.455,0,0,1-1.011-.322A1.349,1.349,0,0,1-27.5-3.779a1.406,1.406,0,0,1,.576-1.143,2.278,2.278,0,0,1,1.465-.459,2.37,2.37,0,0,1,1.531.469A1.487,1.487,0,0,1-23.344-3.7h-1.187a.731.731,0,0,0-.254-.569.973.973,0,0,0-.674-.227,1.051,1.051,0,0,0-.637.181.57.57,0,0,0-.247.483.481.481,0,0,0,.229.425,3.156,3.156,0,0,0,.928.305,4.392,4.392,0,0,1,1.1.366,1.552,1.552,0,0,1,.591.51,1.3,1.3,0,0,1,.193.723A1.377,1.377,0,0,1-23.9-.344,2.519,2.519,0,0,1-25.444.1,2.732,2.732,0,0,1-26.6-.137a1.9,1.9,0,0,1-.791-.645,1.526,1.526,0,0,1-.283-.884h1.152a.836.836,0,0,0,.317.647,1.233,1.233,0,0,0,.776.227,1.2,1.2,0,0,0,.713-.178A.552.552,0,0,0-24.472-1.436Zm3.978-1.255a3.115,3.115,0,0,1,.308-1.4,2.247,2.247,0,0,1,.864-.957,2.435,2.435,0,0,1,1.279-.334,2.308,2.308,0,0,1,1.736.688,2.708,2.708,0,0,1,.72,1.826l0,.278a3.143,3.143,0,0,1-.3,1.4,2.22,2.22,0,0,1-.859.952A2.453,2.453,0,0,1-18.034.1a2.292,2.292,0,0,1-1.79-.745,2.852,2.852,0,0,1-.671-1.985Zm1.187.1a2.129,2.129,0,0,0,.337,1.277,1.1,1.1,0,0,0,.938.461,1.083,1.083,0,0,0,.935-.469,2.351,2.351,0,0,0,.334-1.372,2.1,2.1,0,0,0-.344-1.27,1.1,1.1,0,0,0-.935-.469,1.089,1.089,0,0,0-.923.461A2.307,2.307,0,0,0-19.308-2.588Zm7.83-2.7.034.61a1.9,1.9,0,0,1,1.538-.708q1.65,0,1.68,1.89V0H-9.413V-3.423a1.088,1.088,0,0,0-.217-.745.914.914,0,0,0-.71-.242,1.143,1.143,0,0,0-1.069.649V0H-12.6V-5.283ZM-5.24-2.69a3.115,3.115,0,0,1,.308-1.4,2.247,2.247,0,0,1,.864-.957,2.435,2.435,0,0,1,1.279-.334,2.308,2.308,0,0,1,1.736.688,2.708,2.708,0,0,1,.72,1.826l0,.278a3.143,3.143,0,0,1-.3,1.4,2.22,2.22,0,0,1-.859.952A2.453,2.453,0,0,1-2.779.1a2.292,2.292,0,0,1-1.79-.745A2.852,2.852,0,0,1-5.24-2.632Zm1.187.1a2.129,2.129,0,0,0,.337,1.277,1.1,1.1,0,0,0,.938.461,1.083,1.083,0,0,0,.935-.469A2.351,2.351,0,0,0-1.509-2.69a2.1,2.1,0,0,0-.344-1.27,1.1,1.1,0,0,0-.935-.469,1.089,1.089,0,0,0-.923.461A2.307,2.307,0,0,0-4.053-2.588ZM8.584,0H7.354V-7.109h1.23Zm5.574-.85a1.073,1.073,0,0,0,.737-.259.884.884,0,0,0,.313-.64h1.118a1.743,1.743,0,0,1-.308.92,2.018,2.018,0,0,1-.781.676A2.328,2.328,0,0,1,14.173.1,2.253,2.253,0,0,1,12.416-.62,2.847,2.847,0,0,1,11.766-2.6v-.122a2.8,2.8,0,0,1,.645-1.931,2.232,2.232,0,0,1,1.758-.725,2.171,2.171,0,0,1,1.536.549,1.968,1.968,0,0,1,.623,1.443H15.208a1.087,1.087,0,0,0-.31-.747,1,1,0,0,0-.74-.293,1.044,1.044,0,0,0-.889.417,2.13,2.13,0,0,0-.317,1.267v.19a2.166,2.166,0,0,0,.31,1.282A1.043,1.043,0,0,0,14.159-.85Zm6.233-3.857a1.857,1.857,0,0,1,1.47-.674q1.689,0,1.714,1.929V0H22.389V-3.408a1.043,1.043,0,0,0-.237-.774.968.968,0,0,0-.7-.227,1.143,1.143,0,0,0-1.064.635V0H19.206V-7.5h1.187ZM28.037,0H26.85V-5.283h1.187Zm-1.26-6.655a.63.63,0,0,1,.173-.454.655.655,0,0,1,.5-.181.663.663,0,0,1,.5.181.625.625,0,0,1,.176.454.61.61,0,0,1-.176.447.668.668,0,0,1-.5.178.66.66,0,0,1-.5-.178A.615.615,0,0,1,26.777-6.655Zm6.268,4.39-.527.542V0H31.331V-7.5h1.187v4.326l.371-.464,1.46-1.646h1.426l-1.963,2.2L35.984,0H34.612ZM41.7,0a1.831,1.831,0,0,1-.137-.493A1.847,1.847,0,0,1,40.181.1a1.864,1.864,0,0,1-1.3-.454,1.453,1.453,0,0,1-.5-1.123,1.5,1.5,0,0,1,.627-1.3A3.041,3.041,0,0,1,40.8-3.228h.728v-.347a.925.925,0,0,0-.229-.657.91.91,0,0,0-.7-.247,1.045,1.045,0,0,0-.664.2.627.627,0,0,0-.259.515H38.492a1.317,1.317,0,0,1,.288-.813,1.919,1.919,0,0,1,.784-.593,2.753,2.753,0,0,1,1.106-.215,2.217,2.217,0,0,1,1.479.466A1.663,1.663,0,0,1,42.715-3.6v2.383a2.7,2.7,0,0,0,.2,1.138V0ZM40.4-.854a1.35,1.35,0,0,0,.662-.171,1.142,1.142,0,0,0,.466-.459v-1h-.64a1.749,1.749,0,0,0-.991.229.743.743,0,0,0-.332.649.693.693,0,0,0,.227.544A.879.879,0,0,0,40.4-.854Z" transform="translate(-283.373 3903)"/><g transform="translate(-293 3821)"><path class="c" d="M554.666,225.1a4.134,4.134,0,0,1,1.9,2.521,31.356,31.356,0,0,0,2.11,3.674c.775,1.339.968,2.336-.4,3.669s-2.11,1.043-2.894.882-1.01.171-2.2.642-2-.041-2.883-.431a5.622,5.622,0,0,0-2.948-.016c-1.139.131-2.173-.784-2.16-3.1s1.805-3.43,2.1-3.848a7.8,7.8,0,0,0,.538-2.468,2.339,2.339,0,0,1,.894-1.658,2.069,2.069,0,0,1,2.188,0,1.559,1.559,0,0,0,.892.258c.282-.051.493-.365.9-.448A2.422,2.422,0,0,1,554.666,225.1Zm-8.138-3.861a2.488,2.488,0,0,0,1.817,2.293,2.416,2.416,0,0,0,2.635-1.322,5.448,5.448,0,0,0,.545-1.581,6.95,6.95,0,0,0-.082-3.632,1.46,1.46,0,0,0-2.28-.94,2.468,2.468,0,0,0-.5.3,5.766,5.766,0,0,0-2.134,4.38C546.526,220.911,546.516,221.079,546.528,221.244Zm6.49,1.585a2.062,2.062,0,0,0,2.421.962,2.6,2.6,0,0,0,1.865-2.221,6.816,6.816,0,0,0-1.211-4.246,3.456,3.456,0,0,0-.982-.995,1.3,1.3,0,0,0-1.992.4,3.259,3.259,0,0,0-.329.645,7.233,7.233,0,0,0-.434,2.778A4.693,4.693,0,0,0,553.018,222.829Zm8.749,1.594a6.071,6.071,0,0,0-1.074-2.287,1.085,1.085,0,0,0-1.725-.229,2.845,2.845,0,0,0-.428.4A5.746,5.746,0,0,0,557.2,225.3a3.511,3.511,0,0,0,2.224,3.806,1.615,1.615,0,0,0,2.092-.667,3.6,3.6,0,0,0,.516-2.133A6.737,6.737,0,0,0,561.767,224.423Zm-16.074-1.958c-.884-.865-1.647-.789-2.289.266a8.029,8.029,0,0,0-1.1,3.938,3.976,3.976,0,0,0,.265,1.782,1.45,1.45,0,0,0,1.712.93,2.494,2.494,0,0,0,1-.395,3.663,3.663,0,0,0,1.7-3.226A4.641,4.641,0,0,0,545.693,222.465Z" transform="translate(-542.302 -215.815)"/></g></g></svg>