<svg xmlns="http://www.w3.org/2000/svg" width="189.375" height="82.098" viewBox="0 0 189.375 82.098"><defs><style>.a{fill:#3c2819;}.b{fill:#9e7b55;}.c{fill:#3d2618;}</style></defs><g transform="translate(378 -3569)"><path class="a" d="M-71.484-17.773a8.617,8.617,0,0,1-1.836.2,8.857,8.857,0,0,1-1.172-.078l-.078-2.734,3.086.078Q-71.445-19.1-71.484-17.773Zm6.328-7.422a44.356,44.356,0,0,1-1.8,8.125,12.917,12.917,0,0,0-2.383-4.57q-4.766,0-8.4.2l-.156,5-4.414.117q-.078-.9-.156-5.352-4.18.156-8.008.156l.039,3.008-4.687-.156.039-6.68q10,.078,12.656-.078v-1.523l-5.859.039-.039-4.336,16.055-.117-.234,4.453q-4.375.156-5.586.117l.156,1.641Zm-6.406,12.344-3.242-.586.039-2.461h3.2ZM-84.883-17.7q-.859.078-1.758.078-.664,0-1.328-.039a18.483,18.483,0,0,1-.078-2.773l3.086.117Zm-.156,4.648a8.957,8.957,0,0,1-1.68.156,10.249,10.249,0,0,1-1.758-.156l.039-2.617h3.164Zm12.969,1.719q.156,2.109.156,4.727A27.361,27.361,0,0,1-72.578.625q-4.453.312-10.586.313Q-85.7.938-88.516.9l-.039-3.2q9.219.2,10.742.117l.039-1.523q-5.977.2-8.633.2l.078-2.891h8.789l-.039-1.406q-7.93.234-10.7.156l-.117-3.672Zm48.359-11.445-.156,5.508q-2.734,0-3.672-.039,0,11.875-.2,18.75A71.709,71.709,0,0,0-35.7-5.234q2.266.156,3.984.2V-17.07l-7.7.078-.234-6.133q6.133.234,7.383.156l-.273-6.328,5.547.2-.273,6.484Q-25.9-22.734-23.711-22.773ZM-35.977-9.961l-3.789.313q0-.586-.273-4.219l3.75-.117.078.625A27.624,27.624,0,0,1-35.977-9.961Zm-5.859-2.656A3.561,3.561,0,0,1-44.8-11.211a3.365,3.365,0,0,1-2.227-.82l.547,10.742-4.18.078.469-11.016q-1.836,3.516-7.227,3.516,5.977-5.625,6.719-9.57l-4.727.313-.078-4.8,4.766.156-.2-5.664h4.883q-.117,1.562-.273,5.742l3.789-.2.078,4.492q-2.539-.078-3.75-.078l-.078,2.539a16.365,16.365,0,0,0,1.836,1.523A11.58,11.58,0,0,0-41.836-12.617Zm55.273-.625q-8.516.156-10.312.078L3.555-.2-2.656-.234l.2-12.383-11.133.352-.156-6.25,11.406-.078-.039-4.336A31.751,31.751,0,0,1-6.6-23.2a17.951,17.951,0,0,1-5.391-1.758,61.123,61.123,0,0,0,8.828-2.266q6.172-1.953,8.242-3.4l3.047,5.234a22.663,22.663,0,0,1-4.922,1.8v5.234q5.625-.078,10.2-.391ZM58.906-20.2a10.221,10.221,0,0,1-2.7.313q-6.523,0-9.492-4.375a26.784,26.784,0,0,1-3.2,2.5,15.538,15.538,0,0,1-7.773,1.641A25.486,25.486,0,0,0,43.984-28.2l5.859-.078a17.486,17.486,0,0,0,3.906,4.824A15.311,15.311,0,0,0,58.906-20.2Zm-7.422,1.406-.078,3.828q-2.3.156-5.469.156-1.6,0-3.437-.039l-.156-3.828q.9.039,2.188.039Q47.148-18.633,51.484-18.789Zm3.828,9.648q-4.531.352-7.461.469L45.391-3.281a5.8,5.8,0,0,0,2.07.273,8.805,8.805,0,0,0,3.047-.43L49.414-6.172l3.672-1.055L55.2-1.68A7.917,7.917,0,0,1,51.484-.156a20.171,20.171,0,0,1-4.023.43,19.074,19.074,0,0,1-7.422-1.484q2.539-5.273,3.164-7.07a39.538,39.538,0,0,1-4.18-.078l.039-4.1q11.992-.078,16.172-.273ZM36.992-11.8a25.381,25.381,0,0,1-6.68.859,20.207,20.207,0,0,1-6.719-1.055l5.078-5.117a56.58,56.58,0,0,1-5.039-3.047q.469-.547,6.25-7.187.508.43,3.945,2.852-.664.508-4.766,3.047.391.117,4.453,1.914-.625.82-4.531,5.547a9.778,9.778,0,0,0,2.773.391,8.562,8.562,0,0,0,1.68-.156l-.352-2.187,3.2-.2ZM38.867-5a4.676,4.676,0,0,1-1.055.117,5.452,5.452,0,0,1-2.734-.664,3.022,3.022,0,0,1-1.6-2.187l3.2-1.406a5.686,5.686,0,0,0,.664,2.3A3.968,3.968,0,0,0,38.867-5ZM32.344-.625l-3.75.078q.391-7.969.313-9.336L31.953-10l.078,5.508Q32.07-2.891,32.344-.625ZM27.461-5.742q-1.875,1.6-5.742,1.367,3.047-2.422,3.75-4.258Zm66.8-22.148L94.18-24.1l-3.789-.586.2,2.852-3.125.352a27.5,27.5,0,0,0,.2-3.32q-2.578.313-3.555.352l.2-3.2,3.945-.234-.508-2.422h2.734l.117,2.656ZM93.164,1.055q-4.414-2.93-7.031-5.078,1.758.078,3.281.039l-.312-15.7,3.984-.117ZM77.7-27.539l-.273,3.32-3.594-.469.352,2.227H71.25v-2.227a17.426,17.426,0,0,1-3.984.469l-.2-3.555h4.18l-.156-2.539h3.242l-.352,2.891ZM88.4-12.3a7.057,7.057,0,0,1-1.953,2.617,11.747,11.747,0,0,1-4.766,2.7V-18.008h3.906l-.078,6.758A9.574,9.574,0,0,0,88.4-12.3ZM78.75-15.2l-.078,3.789-3.906-.078v1.055a24.923,24.923,0,0,0,3.867,1.484L77.148-6.055a7.941,7.941,0,0,1-2.773-1.836l.586,7.773-4.3.234.352-7.461Q69.375-5.586,64.727-5.7a16.449,16.449,0,0,0,3.281-2.578q2.227-2.109,2.227-3.2l-4.961.078-.156-3.75q5,.039,6.172-.078l-.039-1.719A10.878,10.878,0,0,1,65.2-18.516q3.047-.742,6.055-1.758a15.361,15.361,0,0,0,4.57-2.109l2.734,3.711a23.069,23.069,0,0,1-4.1,1.367l.2,2.148Z" transform="translate(-282.883 3633)"/><path class="b" d="M-46.373-3.74l1.636-3.369h1.367l-2.383,4.492V0h-1.24V-2.617l-2.388-4.492h1.372ZM-37.7-.518A1.84,1.84,0,0,1-39.187.1a1.64,1.64,0,0,1-1.3-.5,2.139,2.139,0,0,1-.442-1.455V-5.283h1.187v3.408q0,1.006.835,1.006a1.173,1.173,0,0,0,1.167-.62V-5.283h1.187V0h-1.118Zm6.072-1.748-.527.542V0h-1.187V-7.5h1.187v4.326l.371-.464,1.46-1.646H-28.9l-1.963,2.2L-28.691,0h-1.372ZM-24.865,0h-1.187V-5.283h1.187Zm-1.26-6.655a.63.63,0,0,1,.173-.454.655.655,0,0,1,.5-.181.663.663,0,0,1,.5.181.625.625,0,0,1,.176.454.61.61,0,0,1-.176.447.668.668,0,0,1-.5.178.66.66,0,0,1-.5-.178A.615.615,0,0,1-26.125-6.655Zm5.667,1.372.034.552A1.9,1.9,0,0,1-18.9-5.381a1.46,1.46,0,0,1,1.45.811,1.874,1.874,0,0,1,1.621-.811,1.647,1.647,0,0,1,1.3.483,2.128,2.128,0,0,1,.437,1.426V0h-1.187V-3.437a1.051,1.051,0,0,0-.22-.737.962.962,0,0,0-.728-.234.988.988,0,0,0-.662.217,1.146,1.146,0,0,0-.359.569l0,3.623h-1.187V-3.477a.846.846,0,0,0-.952-.933,1.045,1.045,0,0,0-1.011.581V0h-1.187V-5.283ZM-7.672-.518A1.84,1.84,0,0,1-9.156.1a1.64,1.64,0,0,1-1.3-.5A2.139,2.139,0,0,1-10.9-1.86V-5.283h1.187v3.408q0,1.006.835,1.006a1.173,1.173,0,0,0,1.167-.62V-5.283h1.187V0H-7.643ZM-.55-4.2a2.936,2.936,0,0,0-.483-.039,1.088,1.088,0,0,0-1.1.625V0H-3.318V-5.283h1.133l.029.591A1.337,1.337,0,0,1-.965-5.381a1.111,1.111,0,0,1,.42.068ZM5.21,0a1.831,1.831,0,0,1-.137-.493A1.847,1.847,0,0,1,3.687.1a1.864,1.864,0,0,1-1.3-.454,1.453,1.453,0,0,1-.5-1.123,1.5,1.5,0,0,1,.627-1.3,3.041,3.041,0,0,1,1.794-.452h.728v-.347A.925.925,0,0,0,4.8-4.231a.91.91,0,0,0-.7-.247,1.045,1.045,0,0,0-.664.2.627.627,0,0,0-.259.515H2a1.317,1.317,0,0,1,.288-.813,1.919,1.919,0,0,1,.784-.593,2.753,2.753,0,0,1,1.106-.215,2.217,2.217,0,0,1,1.479.466A1.663,1.663,0,0,1,6.221-3.6v2.383a2.7,2.7,0,0,0,.2,1.138V0Zm-1.3-.854a1.35,1.35,0,0,0,.662-.171,1.142,1.142,0,0,0,.466-.459v-1h-.64a1.749,1.749,0,0,0-.991.229.743.743,0,0,0-.332.649.693.693,0,0,0,.227.544A.879.879,0,0,0,3.906-.854Zm15.587-1.46a2.567,2.567,0,0,1-.84,1.775A2.863,2.863,0,0,1,16.705.1a2.772,2.772,0,0,1-1.5-.4,2.644,2.644,0,0,1-1-1.145,4.132,4.132,0,0,1-.366-1.724v-.664A4.162,4.162,0,0,1,14.2-5.61a2.686,2.686,0,0,1,1.023-1.182,2.853,2.853,0,0,1,1.541-.415,2.748,2.748,0,0,1,1.895.637,2.663,2.663,0,0,1,.835,1.8h-1.23a1.756,1.756,0,0,0-.447-1.106,1.477,1.477,0,0,0-1.052-.339,1.442,1.442,0,0,0-1.238.589,2.943,2.943,0,0,0-.442,1.728v.63A3.122,3.122,0,0,0,15.5-1.5,1.369,1.369,0,0,0,16.705-.9,1.6,1.6,0,0,0,17.8-1.226a1.706,1.706,0,0,0,.464-1.089Zm4.158-2.393a1.857,1.857,0,0,1,1.47-.674q1.689,0,1.714,1.929V0H25.648V-3.408a1.043,1.043,0,0,0-.237-.774.968.968,0,0,0-.7-.227,1.143,1.143,0,0,0-1.064.635V0H22.465V-7.5h1.187ZM31.3,0H30.109V-5.283H31.3Zm-1.26-6.655a.63.63,0,0,1,.173-.454.655.655,0,0,1,.5-.181.663.663,0,0,1,.5.181.625.625,0,0,1,.176.454.61.61,0,0,1-.176.447.668.668,0,0,1-.5.178.66.66,0,0,1-.5-.178A.615.615,0,0,1,30.036-6.655ZM36.914.1a2.455,2.455,0,0,1-1.829-.71,2.577,2.577,0,0,1-.7-1.892v-.146a3.17,3.17,0,0,1,.305-1.414,2.323,2.323,0,0,1,.857-.969,2.265,2.265,0,0,1,1.23-.347,2.074,2.074,0,0,1,1.667.688,2.911,2.911,0,0,1,.588,1.948v.479H35.581a1.587,1.587,0,0,0,.437,1.035,1.312,1.312,0,0,0,.964.381,1.607,1.607,0,0,0,1.328-.659l.64.61a2.136,2.136,0,0,1-.847.735A2.652,2.652,0,0,1,36.914.1Zm-.142-4.526a1,1,0,0,0-.789.342,1.772,1.772,0,0,0-.383.952h2.261v-.088a1.442,1.442,0,0,0-.317-.9A.992.992,0,0,0,36.772-4.429ZM44.72-4.2a2.936,2.936,0,0,0-.483-.039,1.088,1.088,0,0,0-1.1.625V0H41.951V-5.283h1.133l.029.591A1.337,1.337,0,0,1,44.3-5.381a1.111,1.111,0,0,1,.42.068ZM48.731,0H47.545V-5.283h1.187Zm-1.26-6.655a.63.63,0,0,1,.173-.454.655.655,0,0,1,.5-.181.663.663,0,0,1,.5.181.625.625,0,0,1,.176.454.61.61,0,0,1-.176.447.668.668,0,0,1-.5.178.66.66,0,0,1-.5-.178A.615.615,0,0,1,47.472-6.655Z" transform="translate(-283.619 3651)"/><g transform="translate(-293 3569)"><path class="c" d="M316.556,215.354c-.076-3.822,2.136-4.255,2.136-4.255,1.583-.281,2.647,1.036,2.9,2.449s.219,3.424-.752,4.195S316.632,219.176,316.556,215.354Zm7.165-9.919s-2.089.229-2.431,3.069,1.007,4.324,2.689,4.236,2.275-2.048,2.147-4.085S325.249,205.4,323.721,205.435Zm6.79,7.52c.533-.009,2.544-1.408,1.888-4.668s-2.2-3.356-2.948-3.269c0,0-2.721.409-2.419,4.546S329.978,212.964,330.511,212.955Zm3.805-1.773a3.626,3.626,0,0,0-2.513,2.136,4.75,4.75,0,0,0,.377,4.64c.656,1.014,2.478,1.7,3.688-.466S336.763,210.744,334.316,211.183Zm-7.189,3.586c-.383.08-.584.384-.852.433a1.466,1.466,0,0,1-.848-.249,1.943,1.943,0,0,0-2.08,0,2.263,2.263,0,0,0-.85,1.6,7.639,7.639,0,0,1-.511,2.384c-.282.4-1.986,1.478-2,3.717s.971,3.123,2.054,3a5.266,5.266,0,0,1,2.8.015,3.118,3.118,0,0,0,2.742.416c1.133-.455,1.347-.776,2.094-.62s1.455.436,2.752-.852,1.115-2.251.377-3.544a30.416,30.416,0,0,1-2.006-3.549,3.989,3.989,0,0,0-1.81-2.435A2.275,2.275,0,0,0,327.127,214.769Z" transform="translate(-316.554 -205)"/></g></g></svg>