<svg xmlns="http://www.w3.org/2000/svg" viewBox="0 0 32.704 22.608"><defs><style>.a{fill:#9b96af;}</style></defs><path class="a" d="M3.262,22.608C16.2,22.608,20.359,0,7.311,0A7.393,7.393,0,0,0,0,7.424a7.3,7.3,0,0,0,7.311,7.311h.562c-.225.225-.337.562-.562.787a4.922,4.922,0,0,1-4.049,2.137Zm17.434,0C33.631,22.608,37.793,0,24.745,0a7.393,7.393,0,0,0-7.311,7.424,7.3,7.3,0,0,0,7.311,7.311h.562c-.225.225-.337.562-.562.787A4.922,4.922,0,0,1,20.7,17.659Z" transform="translate(32.704 22.608) rotate(180)"/></svg>