<svg xmlns="http://www.w3.org/2000/svg" width="278.152" height="19.432" viewBox="0 0 278.152 19.432"><defs><style>.a{fill:#3c2819;}</style></defs><path class="a" d="M-122.206-18.34q0,.672-.014,1.288t-.014,1.232q0,.672.042,1.4t.042,1.484h-.336a6.05,6.05,0,0,0-1.736-4.1,5.984,5.984,0,0,0-4.368-1.532,4.855,4.855,0,0,0-2.282.615,6.6,6.6,0,0,0-2.1,1.817,9.84,9.84,0,0,0-1.526,2.963,12.793,12.793,0,0,0-.588,4.054,14.027,14.027,0,0,0,.336,2.935,10.035,10.035,0,0,0,1.106,2.908,6.879,6.879,0,0,0,2.016,2.223,5.177,5.177,0,0,0,3.066.881,7.073,7.073,0,0,0,2.52-.434,5.506,5.506,0,0,0,1.974-1.26,6.013,6.013,0,0,0,1.3-1.974,7.442,7.442,0,0,0,.532-2.576h.336q0,.812-.042,1.722t-.042,1.442v.532q0,.252.014.56t.028.728q.014.42.042,1.036h-.28l-.672-1.148q-.252.2-.728.5a8.168,8.168,0,0,1-1.19.616,10.02,10.02,0,0,1-1.666.532,9.446,9.446,0,0,1-2.156.224,11.535,11.535,0,0,1-3.878-.63,8.7,8.7,0,0,1-3.08-1.848,8.32,8.32,0,0,1-2.03-3.038,11.332,11.332,0,0,1-.728-4.228,9.476,9.476,0,0,1,.742-3.738,9.579,9.579,0,0,1,2.058-3.066,9.88,9.88,0,0,1,3.094-2.086,9.653,9.653,0,0,1,3.878-.77,9.282,9.282,0,0,1,2.954.462,10.611,10.611,0,0,1,2.59,1.274l.5-1.008Zm28.336-.392q.84,0,1.344.014t.868.042q.364.028.672.042t.784.014q.448,0,.77-.014t.686-.042q.364-.028.868-.042t1.344-.014v.28a5.022,5.022,0,0,0-.854.07,1.923,1.923,0,0,0-.714.266,1.393,1.393,0,0,0-.49.546,2.044,2.044,0,0,0-.182.938V-2.1a2.044,2.044,0,0,0,.182.938,1.393,1.393,0,0,0,.49.546,1.923,1.923,0,0,0,.714.266,5.022,5.022,0,0,0,.854.07V0q-.84,0-1.344-.014t-.868-.042q-.364-.028-.686-.042t-.77-.014q-.476,0-.784.014t-.672.042q-.364.028-.868.042T-93.87,0V-.28a5.022,5.022,0,0,0,.854-.07A1.923,1.923,0,0,0-92.3-.616a1.393,1.393,0,0,0,.49-.546A2.044,2.044,0,0,0-91.63-2.1V-9.352h-8.736V-2.1a2.044,2.044,0,0,0,.182.938,1.393,1.393,0,0,0,.49.546,1.923,1.923,0,0,0,.714.266,5.022,5.022,0,0,0,.854.07V0q-.84,0-1.344-.014t-.868-.042q-.364-.028-.686-.042t-.77-.014q-.476,0-.784.014t-.672.042q-.364.028-.868.042T-105.462,0V-.28a5.022,5.022,0,0,0,.854-.07,1.923,1.923,0,0,0,.714-.266,1.393,1.393,0,0,0,.49-.546,2.044,2.044,0,0,0,.182-.938V-16.632a2.044,2.044,0,0,0-.182-.938,1.393,1.393,0,0,0-.49-.546,1.923,1.923,0,0,0-.714-.266,5.023,5.023,0,0,0-.854-.07v-.28q.84,0,1.344.014t.868.042q.364.028.672.042t.784.014q.448,0,.77-.014t.686-.042q.364-.028.868-.042t1.344-.014v.28a5.022,5.022,0,0,0-.854.07,1.923,1.923,0,0,0-.714.266,1.393,1.393,0,0,0-.49.546,2.044,2.044,0,0,0-.182.938v6.776h8.736v-6.776a2.044,2.044,0,0,0-.182-.938,1.393,1.393,0,0,0-.49-.546,1.923,1.923,0,0,0-.714-.266,5.023,5.023,0,0,0-.854-.07ZM-71.638-.28a2.831,2.831,0,0,0,2.8-2.1L-62.566-19.1h.532L-55.706-2.52A4.334,4.334,0,0,0-54.642-.784a2.371,2.371,0,0,0,1.6.5V0q-.84,0-1.33-.014t-.84-.028L-55.86-.07q-.294-.014-.714-.014t-.714.014l-.644.028q-.35.014-.882.028T-60.242,0V-.28a5.083,5.083,0,0,0,.658-.042,2.129,2.129,0,0,0,.6-.168,1.077,1.077,0,0,0,.448-.364,1.019,1.019,0,0,0,.168-.6,2.3,2.3,0,0,0-.1-.644q-.1-.336-.21-.616L-60.494-7.5h-5.88l-1.848,5.1a2.817,2.817,0,0,0-.168.868,1.139,1.139,0,0,0,.168.644A1.2,1.2,0,0,0-67.8-.5a1.6,1.6,0,0,0,.574.182,4.869,4.869,0,0,0,.63.042V0q-.588,0-.952-.014t-.616-.028l-.462-.028q-.21-.014-.49-.014-.308,0-.518.014l-.462.028q-.252.014-.616.028T-71.638,0Zm10.976-7.728L-63.35-15.6l-2.856,7.588ZM-38.15-18.732q.84,0,1.344.014t.854.014q.35,0,.658.014t.756.014q.728,0,1.694-.07t2.142-.07a16.336,16.336,0,0,1,2.282.168,6.937,6.937,0,0,1,2.184.672A4.344,4.344,0,0,1-24.6-16.534a4.3,4.3,0,0,1,.644,2.478,4.136,4.136,0,0,1-.42,1.876,4.856,4.856,0,0,1-1.106,1.456A6.225,6.225,0,0,1-27.048-9.7a6.7,6.7,0,0,1-1.806.546q.28.364.98,1.2t1.568,1.89q.868,1.05,1.806,2.156t1.694,1.974a10.226,10.226,0,0,0,1.218,1.19,1.983,1.983,0,0,0,1.274.462V0q-.616,0-.994-.014t-.63-.028l-.476-.028q-.224-.014-.56-.014t-.574.014L-24-.042l-.462.028Q-24.71,0-25.1,0q-.868-1.092-1.6-2.058t-1.428-1.89q-.7-.924-1.428-1.862t-1.568-2a3.649,3.649,0,0,0-.728-.742,1.713,1.713,0,0,0-.952-.21h-.252V-2.1a2.044,2.044,0,0,0,.182.938,1.393,1.393,0,0,0,.49.546,1.923,1.923,0,0,0,.714.266,5.022,5.022,0,0,0,.854.07V0q-.84,0-1.344-.014t-.868-.042q-.364-.028-.686-.042t-.77-.014q-.476,0-.784.014t-.672.042q-.364.028-.868.042T-38.15,0V-.28A5.022,5.022,0,0,0-37.3-.35a1.923,1.923,0,0,0,.714-.266,1.393,1.393,0,0,0,.49-.546A2.044,2.044,0,0,0-35.91-2.1V-16.632a2.044,2.044,0,0,0-.182-.938,1.393,1.393,0,0,0-.49-.546,1.923,1.923,0,0,0-.714-.266,5.023,5.023,0,0,0-.854-.07Zm5.1,9.464h1.4A4.354,4.354,0,0,0-28.266-10.5a5.2,5.2,0,0,0,1.12-3.612,4.639,4.639,0,0,0-.28-1.624,3.956,3.956,0,0,0-.812-1.33,3.815,3.815,0,0,0-1.316-.91,4.437,4.437,0,0,0-1.764-.336q-.224,0-.532.014a1.661,1.661,0,0,0-.574.126,1.2,1.2,0,0,0-.448.322.847.847,0,0,0-.182.574ZM-5.614-.28a2.831,2.831,0,0,0,2.8-2.1L3.458-19.1H3.99L10.318-2.52A4.334,4.334,0,0,0,11.382-.784a2.371,2.371,0,0,0,1.6.5V0q-.84,0-1.33-.014t-.84-.028L10.164-.07Q9.87-.084,9.45-.084T8.736-.07l-.644.028q-.35.014-.882.028T5.782,0V-.28A5.083,5.083,0,0,0,6.44-.322a2.13,2.13,0,0,0,.6-.168A1.077,1.077,0,0,0,7.49-.854a1.019,1.019,0,0,0,.168-.6,2.3,2.3,0,0,0-.1-.644q-.1-.336-.21-.616L5.53-7.5H-.35L-2.2-2.408a2.817,2.817,0,0,0-.168.868A1.139,1.139,0,0,0-2.2-.9a1.2,1.2,0,0,0,.42.392A1.6,1.6,0,0,0-1.2-.322a4.869,4.869,0,0,0,.63.042V0q-.588,0-.952-.014t-.616-.028L-2.6-.07q-.21-.014-.49-.014-.308,0-.518.014l-.462.028q-.252.014-.616.028T-5.614,0ZM5.362-8.008,2.674-15.6-.182-8.008ZM43.078-18.34q0,.672-.014,1.288T43.05-15.82q0,.672.042,1.4t.042,1.484H42.8a6.05,6.05,0,0,0-1.736-4.1,5.984,5.984,0,0,0-4.368-1.532,4.855,4.855,0,0,0-2.282.615,6.6,6.6,0,0,0-2.1,1.817,9.84,9.84,0,0,0-1.526,2.963A12.793,12.793,0,0,0,30.2-9.114a14.027,14.027,0,0,0,.336,2.935A10.034,10.034,0,0,0,31.64-3.271a6.879,6.879,0,0,0,2.016,2.223,5.177,5.177,0,0,0,3.066.881A7.073,7.073,0,0,0,39.242-.6a5.506,5.506,0,0,0,1.974-1.26,6.013,6.013,0,0,0,1.3-1.974,7.442,7.442,0,0,0,.532-2.576h.336q0,.812-.042,1.722T43.3-3.248v.532q0,.252.014.56t.028.728q.014.42.042,1.036h-.28L42.434-1.54q-.252.2-.728.5a8.168,8.168,0,0,1-1.19.616A10.02,10.02,0,0,1,38.85.112a9.446,9.446,0,0,1-2.156.224,11.535,11.535,0,0,1-3.878-.63,8.7,8.7,0,0,1-3.08-1.848,8.32,8.32,0,0,1-2.03-3.038,11.332,11.332,0,0,1-.728-4.228,9.476,9.476,0,0,1,.742-3.738,9.579,9.579,0,0,1,2.058-3.066A9.88,9.88,0,0,1,32.872-18.3a9.653,9.653,0,0,1,3.878-.77,9.282,9.282,0,0,1,2.954.462,10.611,10.611,0,0,1,2.59,1.274l.5-1.008ZM64.33-.28a5.022,5.022,0,0,0,.854-.07A1.919,1.919,0,0,0,65.9-.616a1.4,1.4,0,0,0,.49-.547A2.05,2.05,0,0,0,66.57-2.1V-18.228q-1.6-.056-2.3-.084t-.84-.028a2.846,2.846,0,0,0-2.394,1.03,4.866,4.866,0,0,0-.854,2.61h-.28l.14-4.088q.644-.028,1.19-.028h1.022q1.12,0,1.96.028t1.5.042q.658.014,1.19.042t1.064.028q.532,0,1.064-.028t1.2-.042q.672-.014,1.526-.042t2.03-.028h1.064q.56,0,1.2.028L76.23-14.7h-.28a6.677,6.677,0,0,0-.252-1.368,3.7,3.7,0,0,0-.588-1.185,2.867,2.867,0,0,0-.994-.832,3.112,3.112,0,0,0-1.442-.31q-.14,0-.9.042l-2.352.126V-2.1a2.05,2.05,0,0,0,.182.939,1.4,1.4,0,0,0,.49.547,1.919,1.919,0,0,0,.714.266,5.022,5.022,0,0,0,.854.07V0q-.84,0-1.344-.014t-.868-.042Q69.09-.084,68.768-.1T68-.112q-.476,0-.784.014t-.672.042q-.364.028-.868.042T64.33,0Zm34.5-9.66a2.468,2.468,0,0,0,1.862-.63,2.471,2.471,0,0,0,.6-1.778h.28q0,.644-.014,1.064t-.028.7q-.014.28-.028.477t-.014.434q0,.237.014.419t.028.448q.014.266.028.672t.014,1.05h-.28a2.39,2.39,0,0,0-.6-1.722,2.468,2.468,0,0,0-1.862-.63h-1.9V-3.4A5.676,5.676,0,0,0,97.1-1.8a1.534,1.534,0,0,0,.644.89,2.857,2.857,0,0,0,1.218.376,17.866,17.866,0,0,0,1.9.084q1.008,0,1.89-.069a4.211,4.211,0,0,0,1.554-.4,2.7,2.7,0,0,0,1.106-1.042,4.542,4.542,0,0,0,.546-1.958h.308L106.05,0q-1.26.028-2.24.042t-2.128.014q-2.38,0-3.836-.07t-2.352-.07q-.448,0-.77.014l-.686.028q-.364.014-.868.028T91.826,0V-.28a5.022,5.022,0,0,0,.854-.07,1.923,1.923,0,0,0,.714-.266,1.393,1.393,0,0,0,.49-.546,2.044,2.044,0,0,0,.182-.938V-16.632a2.044,2.044,0,0,0-.182-.938,1.393,1.393,0,0,0-.49-.546,1.923,1.923,0,0,0-.714-.266,5.023,5.023,0,0,0-.854-.07v-.28q.84,0,1.33.014t.84.028l.658.028q.308.014.756.014.952,0,2.31-.084t3.038-.084q1.092,0,1.974.028t2,.056l.168,3.64h-.28a4.079,4.079,0,0,0-.448-1.693,2.463,2.463,0,0,0-.98-.971,4.168,4.168,0,0,0-1.428-.444,13.276,13.276,0,0,0-1.792-.111q-.252,0-.588.014l-.672.028q-.336.014-.644.042t-.5.056a.673.673,0,0,0-.644.753V-9.94Zm23.184-8.792q.84,0,1.344.014t.854.014q.35,0,.658.014t.756.014q.728,0,1.694-.07t2.142-.07a16.336,16.336,0,0,1,2.282.168,6.937,6.937,0,0,1,2.184.672,4.344,4.344,0,0,1,1.638,1.442,4.3,4.3,0,0,1,.644,2.478,4.136,4.136,0,0,1-.42,1.876,4.856,4.856,0,0,1-1.106,1.456A6.224,6.224,0,0,1,133.112-9.7a6.7,6.7,0,0,1-1.806.546q.28.364.98,1.2t1.568,1.89q.868,1.05,1.806,2.156t1.694,1.974a10.225,10.225,0,0,0,1.218,1.19,1.983,1.983,0,0,0,1.274.462V0q-.616,0-.994-.014t-.63-.028l-.476-.028q-.224-.014-.56-.014t-.574.014l-.448.028-.462.028Q135.45,0,135.058,0q-.868-1.092-1.6-2.058t-1.428-1.89q-.7-.924-1.428-1.862t-1.568-2a3.649,3.649,0,0,0-.728-.742,1.713,1.713,0,0,0-.952-.21h-.252V-2.1a2.044,2.044,0,0,0,.182.938,1.393,1.393,0,0,0,.49.546,1.923,1.923,0,0,0,.714.266,5.022,5.022,0,0,0,.854.07V0q-.84,0-1.344-.014t-.868-.042q-.364-.028-.686-.042t-.77-.014q-.476,0-.784.014t-.672.042q-.364.028-.868.042T122.01,0V-.28a5.022,5.022,0,0,0,.854-.07,1.923,1.923,0,0,0,.714-.266,1.393,1.393,0,0,0,.49-.546,2.044,2.044,0,0,0,.182-.938V-16.632a2.044,2.044,0,0,0-.182-.938,1.393,1.393,0,0,0-.49-.546,1.923,1.923,0,0,0-.714-.266,5.023,5.023,0,0,0-.854-.07Zm5.1,9.464h1.4a4.354,4.354,0,0,0,3.388-1.232,5.2,5.2,0,0,0,1.12-3.612,4.639,4.639,0,0,0-.28-1.624,3.956,3.956,0,0,0-.812-1.33,3.815,3.815,0,0,0-1.316-.91,4.437,4.437,0,0,0-1.764-.336q-.224,0-.532.014a1.661,1.661,0,0,0-.574.126,1.2,1.2,0,0,0-.448.322.847.847,0,0,0-.182.574Z" transform="translate(138.306 19.096)"/></svg>