<svg xmlns="http://www.w3.org/2000/svg" width="191.156" height="19.432" viewBox="0 0 191.156 19.432"><defs><style>.a{fill:#3c2819;}</style></defs><path class="a" d="M-84.756-18.7q0,.476-.014.994t-.014,1.022a11.741,11.741,0,0,0,.07,1.2,12.2,12.2,0,0,1,.07,1.26h-.336a4.935,4.935,0,0,0-.448-1.586,5.53,5.53,0,0,0-.938-1.405,4.458,4.458,0,0,0-1.344-1,3.812,3.812,0,0,0-1.694-.376,3.314,3.314,0,0,0-1.358.279,3.415,3.415,0,0,0-1.078.74,3.277,3.277,0,0,0-.7,1.1,3.633,3.633,0,0,0-.252,1.34,2.71,2.71,0,0,0,.532,1.716,4.653,4.653,0,0,0,1.344,1.158,12.911,12.911,0,0,0,1.764.851q.952.377,1.792.8a18.167,18.167,0,0,1,1.638.951,6.374,6.374,0,0,1,1.33,1.148,5.114,5.114,0,0,1,.9,1.5,5.538,5.538,0,0,1,.336,2.03,4.868,4.868,0,0,1-.476,2.156,5.016,5.016,0,0,1-1.316,1.68A6.2,6.2,0,0,1-86.94-.056a7.756,7.756,0,0,1-2.52.392,6.449,6.449,0,0,1-2.506-.462,13.007,13.007,0,0,1-2.2-1.19l-.644,1.092h-.28q0-.868.028-1.372t.028-1.064q0-.588-.028-1.274t-.028-1.582h.336a6.466,6.466,0,0,0,.434,2.03,5.475,5.475,0,0,0,1.036,1.694A5.115,5.115,0,0,0-91.7-.616a4.753,4.753,0,0,0,2.1.448,4.756,4.756,0,0,0,1.638-.28,4.046,4.046,0,0,0,1.344-.8,3.717,3.717,0,0,0,.9-1.218A3.641,3.641,0,0,0-85.4-4a2.845,2.845,0,0,0-.42-1.54A4.642,4.642,0,0,0-86.9-6.734a8.546,8.546,0,0,0-1.47-.924q-.812-.406-1.568-.77-.9-.42-1.764-.924a7.819,7.819,0,0,1-1.554-1.176,5.416,5.416,0,0,1-1.106-1.554,4.809,4.809,0,0,1-.42-2.086,4.312,4.312,0,0,1,.434-1.9,5.2,5.2,0,0,1,1.162-1.568A5.592,5.592,0,0,1-91.5-18.7a5.172,5.172,0,0,1,1.988-.392,5.631,5.631,0,0,1,2.044.378,6.881,6.881,0,0,1,1.848,1.078l.588-1.064ZM-67.144-.28a5.022,5.022,0,0,0,.854-.07,1.923,1.923,0,0,0,.714-.266,1.393,1.393,0,0,0,.49-.546A2.044,2.044,0,0,0-64.9-2.1V-16.632a2.044,2.044,0,0,0-.182-.938,1.393,1.393,0,0,0-.49-.546,1.923,1.923,0,0,0-.714-.266,5.023,5.023,0,0,0-.854-.07v-.28q.84,0,1.386.014t.952.014q.406,0,.714.014t.644.014q.672,0,1.61-.07t1.834-.07A8.913,8.913,0,0,1-54.88-17.6a4,4,0,0,1,1.736,3.486A4.706,4.706,0,0,1-54.95-10a8.537,8.537,0,0,1-5.026,1.288q-.532,0-1.05-.028t-1.022-.084V-2.1a2.044,2.044,0,0,0,.182.938,1.393,1.393,0,0,0,.49.546,1.923,1.923,0,0,0,.714.266,5.022,5.022,0,0,0,.854.07V0q-.84,0-1.344-.014t-.868-.042q-.364-.028-.686-.042t-.77-.014q-.476,0-.784.014t-.672.042q-.364.028-.868.042T-67.144,0Zm5.1-9.043q.392.056.77.083t.714.028A4.236,4.236,0,0,0-57.4-10.325a5.031,5.031,0,0,0,1.092-3.617,4.529,4.529,0,0,0-1.078-3.214,3.915,3.915,0,0,0-3.01-1.155,4.078,4.078,0,0,0-.574.042,2.232,2.232,0,0,0-.532.139.9.9,0,0,0-.392.306.892.892,0,0,0-.154.543ZM-29.96-9.94a2.468,2.468,0,0,0,1.862-.63,2.471,2.471,0,0,0,.6-1.778h.28q0,.644-.014,1.064t-.028.7q-.014.28-.028.477t-.014.434q0,.237.014.419t.028.448q.014.266.028.672t.014,1.05h-.28a2.39,2.39,0,0,0-.6-1.722,2.468,2.468,0,0,0-1.862-.63h-1.9V-3.4a5.676,5.676,0,0,0,.182,1.6,1.534,1.534,0,0,0,.644.89,2.857,2.857,0,0,0,1.218.376,17.866,17.866,0,0,0,1.9.084q1.008,0,1.89-.069a4.211,4.211,0,0,0,1.554-.4,2.7,2.7,0,0,0,1.106-1.042A4.542,4.542,0,0,0-22.82-3.92h.308L-22.736,0q-1.26.028-2.24.042T-27.1.056q-2.38,0-3.836-.07t-2.352-.07q-.448,0-.77.014l-.686.028q-.364.014-.868.028T-36.96,0V-.28a5.022,5.022,0,0,0,.854-.07,1.923,1.923,0,0,0,.714-.266,1.393,1.393,0,0,0,.49-.546A2.044,2.044,0,0,0-34.72-2.1V-16.632a2.044,2.044,0,0,0-.182-.938,1.393,1.393,0,0,0-.49-.546,1.923,1.923,0,0,0-.714-.266,5.023,5.023,0,0,0-.854-.07v-.28q.84,0,1.33.014t.84.028l.658.028q.308.014.756.014.952,0,2.31-.084t3.038-.084q1.092,0,1.974.028t2,.056l.168,3.64h-.28a4.079,4.079,0,0,0-.448-1.693,2.463,2.463,0,0,0-.98-.971A4.168,4.168,0,0,0-27.02-18.2a13.276,13.276,0,0,0-1.792-.111q-.252,0-.588.014l-.672.028q-.336.014-.644.042t-.5.056a.673.673,0,0,0-.644.753V-9.94Zm39.228-8.4q0,.672-.014,1.288T9.24-15.82q0,.672.042,1.4t.042,1.484H8.988a6.05,6.05,0,0,0-1.736-4.1,5.984,5.984,0,0,0-4.368-1.532A4.855,4.855,0,0,0,.6-17.949a6.6,6.6,0,0,0-2.1,1.817,9.84,9.84,0,0,0-1.526,2.963,12.793,12.793,0,0,0-.588,4.054,14.027,14.027,0,0,0,.336,2.935A10.034,10.034,0,0,0-2.17-3.271,6.879,6.879,0,0,0-.154-1.049a5.177,5.177,0,0,0,3.066.881A7.073,7.073,0,0,0,5.432-.6a5.506,5.506,0,0,0,1.974-1.26,6.013,6.013,0,0,0,1.3-1.974A7.442,7.442,0,0,0,9.24-6.412h.336q0,.812-.042,1.722T9.492-3.248v.532q0,.252.014.56t.028.728q.014.42.042,1.036H9.3L8.624-1.54q-.252.2-.728.5a8.168,8.168,0,0,1-1.19.616A10.02,10.02,0,0,1,5.04.112,9.446,9.446,0,0,1,2.884.336,11.535,11.535,0,0,1-.994-.294a8.7,8.7,0,0,1-3.08-1.848A8.32,8.32,0,0,1-6.1-5.18a11.332,11.332,0,0,1-.728-4.228,9.476,9.476,0,0,1,.742-3.738,9.579,9.579,0,0,1,2.058-3.066A9.88,9.88,0,0,1-.938-18.3a9.653,9.653,0,0,1,3.878-.77,9.282,9.282,0,0,1,2.954.462,10.611,10.611,0,0,1,2.59,1.274l.5-1.008Zm16.744-.392q.84,0,1.344.014t.868.042q.364.028.672.042t.784.014q.448,0,.77-.014t.686-.042q.364-.028.868-.042t1.344-.014v.28a5.022,5.022,0,0,0-.854.07,1.923,1.923,0,0,0-.714.266,1.393,1.393,0,0,0-.49.546,2.044,2.044,0,0,0-.182.938V-2.1a2.044,2.044,0,0,0,.182.938,1.393,1.393,0,0,0,.49.546,1.923,1.923,0,0,0,.714.266,5.022,5.022,0,0,0,.854.07V0Q32.508,0,32-.014t-.868-.042Q30.772-.084,30.45-.1t-.77-.014q-.476,0-.784.014t-.672.042q-.364.028-.868.042T26.012,0V-.28a5.022,5.022,0,0,0,.854-.07,1.923,1.923,0,0,0,.714-.266,1.393,1.393,0,0,0,.49-.546,2.044,2.044,0,0,0,.182-.938V-16.632a2.044,2.044,0,0,0-.182-.938,1.393,1.393,0,0,0-.49-.546,1.923,1.923,0,0,0-.714-.266,5.023,5.023,0,0,0-.854-.07ZM48.244-.28a2.831,2.831,0,0,0,2.8-2.1L57.316-19.1h.532L64.176-2.52A4.334,4.334,0,0,0,65.24-.784a2.371,2.371,0,0,0,1.6.5V0Q66,0,65.506-.014t-.84-.028L64.022-.07q-.294-.014-.714-.014t-.714.014l-.644.028q-.35.014-.882.028T59.64,0V-.28A5.083,5.083,0,0,0,60.3-.322a2.129,2.129,0,0,0,.6-.168,1.077,1.077,0,0,0,.448-.364,1.019,1.019,0,0,0,.168-.6,2.3,2.3,0,0,0-.1-.644q-.1-.336-.21-.616L59.388-7.5h-5.88l-1.848,5.1a2.817,2.817,0,0,0-.168.868A1.139,1.139,0,0,0,51.66-.9a1.2,1.2,0,0,0,.42.392,1.6,1.6,0,0,0,.574.182,4.869,4.869,0,0,0,.63.042V0q-.588,0-.952-.014t-.616-.028L51.254-.07q-.21-.014-.49-.014-.308,0-.518.014l-.462.028q-.252.014-.616.028T48.244,0ZM59.22-8.008,56.532-15.6,53.676-8.008ZM91.42.056Q89.488.056,88-.014t-2.492-.07q-.476,0-.812.014l-.714.028q-.378.014-.9.028T81.732,0V-.28a5.022,5.022,0,0,0,.854-.07A1.923,1.923,0,0,0,83.3-.616a1.393,1.393,0,0,0,.49-.546,2.044,2.044,0,0,0,.182-.938V-16.632a2.044,2.044,0,0,0-.182-.938,1.393,1.393,0,0,0-.49-.546,1.923,1.923,0,0,0-.714-.266,5.023,5.023,0,0,0-.854-.07v-.28q.84,0,1.344.014t.868.042q.364.028.672.042t.784.014q.448,0,.77-.014t.686-.042q.364-.028.868-.042t1.344-.014v.28a5.022,5.022,0,0,0-.854.07,1.928,1.928,0,0,0-.714.266,1.39,1.39,0,0,0-.49.545,2.039,2.039,0,0,0-.182.937V-2.908a2.537,2.537,0,0,0,.308,1.356A1.933,1.933,0,0,0,88-.812,3.9,3.9,0,0,0,89.32-.5q.756.056,1.652.056A10.11,10.11,0,0,0,92.806-.6a3.9,3.9,0,0,0,1.442-.556,3.075,3.075,0,0,0,1.008-1.111,5.031,5.031,0,0,0,.532-1.792h.28L95.788,0Q94.724.028,93.6.042T91.42.056Z" transform="translate(95.088 19.096)"/></svg>