<svg xmlns="http://www.w3.org/2000/svg" width="205.548" height="19.46" viewBox="0 0 205.548 19.46"><defs><style>.a{fill:#3c2819;}</style></defs><path class="a" d="M-85.736-5.04q0,.756.014,1.666t.07,1.47a5.94,5.94,0,0,0-1.834.448q-.854.364-1.764.77a16.759,16.759,0,0,1-1.974.728A8.417,8.417,0,0,1-93.66.364a9.764,9.764,0,0,1-3.724-.686,8.391,8.391,0,0,1-2.9-1.946,8.824,8.824,0,0,1-1.89-3.01,10.738,10.738,0,0,1-.672-3.878,10.116,10.116,0,0,1,.756-3.92A9.462,9.462,0,0,1-100-16.212a9.812,9.812,0,0,1,3.122-2.072,9.91,9.91,0,0,1,3.892-.756,9.154,9.154,0,0,1,2.94.462,11.225,11.225,0,0,1,2.6,1.274l.672-1.008h.28q-.028.5-.07.854t-.07.63q-.028.28-.056.532a5.1,5.1,0,0,0-.028.56v.6q0,.238.014.5t.014.658v1.064h-.336A5.814,5.814,0,0,0-88.718-17a5.955,5.955,0,0,0-4.326-1.532,5.128,5.128,0,0,0-2.352.6,6.439,6.439,0,0,0-2.114,1.789,9.625,9.625,0,0,0-1.526,2.963,13.224,13.224,0,0,0-.588,4.152,16.632,16.632,0,0,0,.112,1.859,12.439,12.439,0,0,0,.392,1.985,10.437,10.437,0,0,0,.742,1.9A6.452,6.452,0,0,0-97.23-1.678,5.3,5.3,0,0,0-95.62-.559a5.1,5.1,0,0,0,2.128.419,6.2,6.2,0,0,0,1.736-.252,4.618,4.618,0,0,0,1.568-.8A4.336,4.336,0,0,0-89.04-2.562a4.147,4.147,0,0,0,.448-2,2.8,2.8,0,0,0-.56-1.96,2.833,2.833,0,0,0-2.072-.588v-.28q.84,0,1.386.014t.966.042q.42.028.784.042t.84.014q.448,0,.784-.014t.714-.042q.378-.028.9-.042t1.358-.014v.28a2.83,2.83,0,0,0-1.722.406A2.061,2.061,0,0,0-85.736-5.04Zm17.192-13.692q.84,0,1.344.014t.854.014q.35,0,.658.014t.756.014q.728,0,1.694-.07t2.142-.07a16.336,16.336,0,0,1,2.282.168,6.937,6.937,0,0,1,2.184.672,4.344,4.344,0,0,1,1.638,1.442,4.3,4.3,0,0,1,.644,2.478,4.136,4.136,0,0,1-.42,1.876,4.856,4.856,0,0,1-1.106,1.456A6.224,6.224,0,0,1-57.442-9.7a6.7,6.7,0,0,1-1.806.546q.28.364.98,1.2t1.568,1.89q.868,1.05,1.806,2.156T-53.2-1.932a10.226,10.226,0,0,0,1.218,1.19,1.983,1.983,0,0,0,1.274.462V0q-.616,0-.994-.014t-.63-.028l-.476-.028q-.224-.014-.56-.014t-.574.014l-.448.028-.462.028Q-55.1,0-55.5,0q-.868-1.092-1.6-2.058t-1.428-1.89q-.7-.924-1.428-1.862t-1.568-2a3.649,3.649,0,0,0-.728-.742,1.713,1.713,0,0,0-.952-.21h-.252V-2.1a2.044,2.044,0,0,0,.182.938,1.393,1.393,0,0,0,.49.546,1.923,1.923,0,0,0,.714.266,5.022,5.022,0,0,0,.854.07V0q-.84,0-1.344-.014t-.868-.042q-.364-.028-.686-.042t-.77-.014q-.476,0-.784.014t-.672.042q-.364.028-.868.042T-68.544,0V-.28a5.022,5.022,0,0,0,.854-.07,1.923,1.923,0,0,0,.714-.266,1.393,1.393,0,0,0,.49-.546A2.044,2.044,0,0,0-66.3-2.1V-16.632a2.044,2.044,0,0,0-.182-.938,1.393,1.393,0,0,0-.49-.546,1.923,1.923,0,0,0-.714-.266,5.023,5.023,0,0,0-.854-.07Zm5.1,9.464h1.4A4.354,4.354,0,0,0-58.66-10.5a5.2,5.2,0,0,0,1.12-3.612,4.639,4.639,0,0,0-.28-1.624,3.956,3.956,0,0,0-.812-1.33,3.815,3.815,0,0,0-1.316-.91,4.437,4.437,0,0,0-1.764-.336q-.224,0-.532.014a1.661,1.661,0,0,0-.574.126,1.2,1.2,0,0,0-.448.322.847.847,0,0,0-.182.574ZM-36.008-.28a2.831,2.831,0,0,0,2.8-2.1L-26.936-19.1h.532L-20.076-2.52A4.334,4.334,0,0,0-19.012-.784a2.371,2.371,0,0,0,1.6.5V0q-.84,0-1.33-.014t-.84-.028L-20.23-.07q-.294-.014-.714-.014t-.714.014l-.644.028q-.35.014-.882.028T-24.612,0V-.28a5.083,5.083,0,0,0,.658-.042,2.13,2.13,0,0,0,.6-.168A1.077,1.077,0,0,0-22.9-.854a1.019,1.019,0,0,0,.168-.6,2.3,2.3,0,0,0-.1-.644q-.1-.336-.21-.616L-24.864-7.5h-5.88l-1.848,5.1a2.817,2.817,0,0,0-.168.868,1.139,1.139,0,0,0,.168.644,1.2,1.2,0,0,0,.42.392,1.6,1.6,0,0,0,.574.182,4.869,4.869,0,0,0,.63.042V0q-.588,0-.952-.014t-.616-.028L-33-.07q-.21-.014-.49-.014-.308,0-.518.014l-.462.028q-.252.014-.616.028T-36.008,0Zm10.976-7.728L-27.72-15.6l-2.856,7.588ZM-2.52-.28a5.022,5.022,0,0,0,.854-.07A1.923,1.923,0,0,0-.952-.616a1.393,1.393,0,0,0,.49-.546A2.044,2.044,0,0,0-.28-2.1V-16.632a2.044,2.044,0,0,0-.182-.938,1.393,1.393,0,0,0-.49-.546,1.923,1.923,0,0,0-.714-.266,5.023,5.023,0,0,0-.854-.07v-.28q.84,0,1.386.014t.952.014q.406,0,.714.014t.644.014q.672,0,1.61-.07t1.834-.07A8.913,8.913,0,0,1,9.744-17.6a4,4,0,0,1,1.736,3.486A4.706,4.706,0,0,1,9.674-10,8.537,8.537,0,0,1,4.648-8.708q-.532,0-1.05-.028T2.576-8.82V-2.1a2.044,2.044,0,0,0,.182.938,1.393,1.393,0,0,0,.49.546,1.923,1.923,0,0,0,.714.266,5.022,5.022,0,0,0,.854.07V0q-.84,0-1.344-.014T2.6-.056Q2.24-.084,1.918-.1t-.77-.014Q.672-.112.364-.1t-.672.042q-.364.028-.868.042T-2.52,0Zm5.1-9.043q.392.056.77.083t.714.028a4.236,4.236,0,0,0,3.164-1.113,5.031,5.031,0,0,0,1.092-3.617,4.529,4.529,0,0,0-1.078-3.214,3.915,3.915,0,0,0-3.01-1.155,4.078,4.078,0,0,0-.574.042,2.232,2.232,0,0,0-.532.139.9.9,0,0,0-.392.306.892.892,0,0,0-.154.543Zm36.68-9.409q.84,0,1.344.014t.868.042q.364.028.672.042t.784.014q.448,0,.77-.014t.686-.042q.364-.028.868-.042t1.344-.014v.28a5.022,5.022,0,0,0-.854.07,1.923,1.923,0,0,0-.714.266,1.393,1.393,0,0,0-.49.546,2.044,2.044,0,0,0-.182.938V-2.1a2.044,2.044,0,0,0,.182.938,1.393,1.393,0,0,0,.49.546,1.923,1.923,0,0,0,.714.266,5.022,5.022,0,0,0,.854.07V0q-.84,0-1.344-.014T44.38-.056q-.364-.028-.686-.042t-.77-.014q-.476,0-.784.014t-.672.042q-.364.028-.868.042T39.256,0V-.28a5.022,5.022,0,0,0,.854-.07,1.923,1.923,0,0,0,.714-.266,1.393,1.393,0,0,0,.49-.546A2.044,2.044,0,0,0,41.5-2.1V-9.352H32.76V-2.1a2.044,2.044,0,0,0,.182.938,1.393,1.393,0,0,0,.49.546,1.923,1.923,0,0,0,.714.266A5.022,5.022,0,0,0,35-.28V0q-.84,0-1.344-.014t-.868-.042Q32.424-.084,32.1-.1t-.77-.014q-.476,0-.784.014t-.672.042q-.364.028-.868.042T27.664,0V-.28a5.022,5.022,0,0,0,.854-.07,1.923,1.923,0,0,0,.714-.266,1.393,1.393,0,0,0,.49-.546A2.044,2.044,0,0,0,29.9-2.1V-16.632a2.044,2.044,0,0,0-.182-.938,1.393,1.393,0,0,0-.49-.546,1.923,1.923,0,0,0-.714-.266,5.023,5.023,0,0,0-.854-.07v-.28q.84,0,1.344.014t.868.042q.364.028.672.042t.784.014q.448,0,.77-.014t.686-.042q.364-.028.868-.042T35-18.732v.28a5.022,5.022,0,0,0-.854.07,1.923,1.923,0,0,0-.714.266,1.393,1.393,0,0,0-.49.546,2.044,2.044,0,0,0-.182.938v6.776H41.5v-6.776a2.044,2.044,0,0,0-.182-.938,1.393,1.393,0,0,0-.49-.546,1.923,1.923,0,0,0-.714-.266,5.023,5.023,0,0,0-.854-.07Zm23.408,0q.84,0,1.344.014t.868.042q.364.028.672.042t.784.014q.448,0,.77-.014t.686-.042q.364-.028.868-.042T70-18.732v.28a5.022,5.022,0,0,0-.854.07,1.923,1.923,0,0,0-.714.266,1.393,1.393,0,0,0-.49.546,2.044,2.044,0,0,0-.182.938V-2.1a2.044,2.044,0,0,0,.182.938,1.393,1.393,0,0,0,.49.546,1.923,1.923,0,0,0,.714.266A5.022,5.022,0,0,0,70-.28V0q-.84,0-1.344-.014t-.868-.042Q67.424-.084,67.1-.1t-.77-.014q-.476,0-.784.014t-.672.042q-.364.028-.868.042T62.664,0V-.28a5.022,5.022,0,0,0,.854-.07,1.923,1.923,0,0,0,.714-.266,1.393,1.393,0,0,0,.49-.546A2.044,2.044,0,0,0,64.9-2.1V-16.632a2.044,2.044,0,0,0-.182-.938,1.393,1.393,0,0,0-.49-.546,1.923,1.923,0,0,0-.714-.266,5.023,5.023,0,0,0-.854-.07Zm39.732.392q0,.672-.014,1.288t-.014,1.232q0,.672.042,1.4t.042,1.484h-.336a6.05,6.05,0,0,0-1.736-4.1,5.984,5.984,0,0,0-4.368-1.532,4.855,4.855,0,0,0-2.282.615,6.6,6.6,0,0,0-2.1,1.817A9.84,9.84,0,0,0,90.1-13.168a12.793,12.793,0,0,0-.588,4.054,14.027,14.027,0,0,0,.336,2.935,10.034,10.034,0,0,0,1.106,2.908,6.879,6.879,0,0,0,2.016,2.223,5.177,5.177,0,0,0,3.066.881A7.073,7.073,0,0,0,98.56-.6a5.506,5.506,0,0,0,1.974-1.26,6.013,6.013,0,0,0,1.3-1.974,7.442,7.442,0,0,0,.532-2.576h.336q0,.812-.042,1.722t-.042,1.442v.532q0,.252.014.56t.028.728q.014.42.042,1.036h-.28l-.672-1.148q-.252.2-.728.5a8.168,8.168,0,0,1-1.19.616,10.02,10.02,0,0,1-1.666.532,9.446,9.446,0,0,1-2.156.224,11.535,11.535,0,0,1-3.878-.63,8.7,8.7,0,0,1-3.08-1.848,8.32,8.32,0,0,1-2.03-3.038A11.332,11.332,0,0,1,86.3-9.408a9.476,9.476,0,0,1,.742-3.738A9.579,9.579,0,0,1,89.1-16.212,9.88,9.88,0,0,1,92.19-18.3a9.653,9.653,0,0,1,3.878-.77,9.282,9.282,0,0,1,2.954.462,10.611,10.611,0,0,1,2.59,1.274l.5-1.008Z" transform="translate(102.844 19.096)"/></svg>