<svg xmlns="http://www.w3.org/2000/svg" width="117.18" height="19.432" viewBox="0 0 117.18 19.432"><defs><style>.a{fill:#3c2819;}</style></defs><path class="a" d="M-58.212-.28a5.022,5.022,0,0,0,.854-.07,1.923,1.923,0,0,0,.714-.266,1.393,1.393,0,0,0,.49-.546,2.044,2.044,0,0,0,.182-.938V-16.492l-.616-.784a4.267,4.267,0,0,0-.854-.84,1.974,1.974,0,0,0-1.19-.336v-.28q.5,0,.868.014l.658.028.532.028q.238.014.546.014.28,0,.476-.014l.392-.028.42-.028q.224-.014.56-.014L-42.532-4.4V-16.632a2.044,2.044,0,0,0-.182-.938,1.393,1.393,0,0,0-.49-.546,1.923,1.923,0,0,0-.714-.266,5.023,5.023,0,0,0-.854-.07v-.28q.56,0,.9.014t.588.028l.476.028q.224.014.532.014t.532-.014l.476-.028q.252-.014.6-.028t.91-.014v.28a5.022,5.022,0,0,0-.854.07,1.923,1.923,0,0,0-.714.266,1.393,1.393,0,0,0-.49.546,2.044,2.044,0,0,0-.182.938V.336h-.5L-55.44-15.876V-2.1a2.044,2.044,0,0,0,.182.938,1.393,1.393,0,0,0,.49.546,1.923,1.923,0,0,0,.714.266,5.022,5.022,0,0,0,.854.07V0q-.56,0-.91-.014t-.6-.028l-.476-.028q-.224-.014-.532-.014t-.532.014l-.476.028q-.252.014-.588.028t-.9.014Zm41.384-9.66a2.468,2.468,0,0,0,1.862-.63,2.471,2.471,0,0,0,.6-1.778h.28q0,.644-.014,1.064t-.028.7q-.014.28-.028.477t-.014.434q0,.237.014.419t.028.448q.014.266.028.672t.014,1.05h-.28a2.39,2.39,0,0,0-.6-1.722,2.468,2.468,0,0,0-1.862-.63h-1.9V-3.4a5.676,5.676,0,0,0,.182,1.6,1.534,1.534,0,0,0,.644.89,2.857,2.857,0,0,0,1.218.376,17.866,17.866,0,0,0,1.9.084q1.008,0,1.89-.069a4.211,4.211,0,0,0,1.554-.4,2.7,2.7,0,0,0,1.106-1.042A4.542,4.542,0,0,0-9.688-3.92h.308L-9.6,0q-1.26.028-2.24.042t-2.128.014q-2.38,0-3.836-.07t-2.352-.07q-.448,0-.77.014l-.686.028q-.364.014-.868.028T-23.828,0V-.28a5.022,5.022,0,0,0,.854-.07,1.923,1.923,0,0,0,.714-.266,1.393,1.393,0,0,0,.49-.546,2.044,2.044,0,0,0,.182-.938V-16.632a2.044,2.044,0,0,0-.182-.938,1.393,1.393,0,0,0-.49-.546,1.923,1.923,0,0,0-.714-.266,5.023,5.023,0,0,0-.854-.07v-.28q.84,0,1.33.014t.84.028l.658.028q.308.014.756.014.952,0,2.31-.084t3.038-.084q1.092,0,1.974.028t2,.056l.168,3.64h-.28a4.079,4.079,0,0,0-.448-1.693,2.463,2.463,0,0,0-.98-.971,4.168,4.168,0,0,0-1.428-.444,13.276,13.276,0,0,0-1.792-.111q-.252,0-.588.014l-.672.028q-.336.014-.644.042t-.5.056a.673.673,0,0,0-.644.753V-9.94ZM5.04-18.732q.98,0,1.554.014t.966.042q.392.028.7.042t.756.014q.42,0,.714-.014t.672-.042q.378-.028.938-.042t1.512-.014v.28a7.5,7.5,0,0,0-.77.042,2.8,2.8,0,0,0-.756.182,1.289,1.289,0,0,0-.574.448,1.4,1.4,0,0,0-.224.84,2.849,2.849,0,0,0,.056.56,4.427,4.427,0,0,0,.14.532L14.56-3.92,18.172-14.9l-.532-1.68a2.821,2.821,0,0,0-.91-1.456,2.579,2.579,0,0,0-1.554-.42v-.28q1.008,0,1.624.014t1.022.042q.406.028.7.042t.686.014q.364,0,.658-.014t.714-.042q.42-.028,1.064-.042t1.736-.014v.28a5.872,5.872,0,0,0-.994.084,2.359,2.359,0,0,0-.868.322,1.688,1.688,0,0,0-.6.672,2.4,2.4,0,0,0-.224,1.106,5.18,5.18,0,0,0,.14,1.2,11.619,11.619,0,0,0,.336,1.148L24.416-3.892,28.14-15.344a7.454,7.454,0,0,0,.2-.8,3.39,3.39,0,0,0,.056-.574,1.394,1.394,0,0,0-.7-1.4,4.072,4.072,0,0,0-1.764-.336v-.28q.672,0,1.092.014t.714.028l.532.028q.238.014.6.014.336,0,.574-.014l.5-.028q.266-.014.658-.028t1.036-.014v.28a3.254,3.254,0,0,0-1.078.154,1.881,1.881,0,0,0-.742.476,2.742,2.742,0,0,0-.518.8,10.938,10.938,0,0,0-.406,1.092L23.6.336h-.5L18.452-14.028,13.72.336h-.56L7.672-16.492a2.843,2.843,0,0,0-.98-1.526,3.388,3.388,0,0,0-1.652-.434Zm51.912.028q0,.476-.014.994t-.014,1.022a11.74,11.74,0,0,0,.07,1.2,12.2,12.2,0,0,1,.07,1.26h-.336a4.935,4.935,0,0,0-.448-1.586,5.53,5.53,0,0,0-.938-1.405,4.458,4.458,0,0,0-1.344-1,3.812,3.812,0,0,0-1.694-.376,3.314,3.314,0,0,0-1.358.279,3.415,3.415,0,0,0-1.078.74,3.277,3.277,0,0,0-.7,1.1,3.633,3.633,0,0,0-.252,1.34,2.71,2.71,0,0,0,.532,1.716,4.653,4.653,0,0,0,1.344,1.158,12.911,12.911,0,0,0,1.764.851q.952.377,1.792.8a18.167,18.167,0,0,1,1.638.951,6.374,6.374,0,0,1,1.33,1.148,5.113,5.113,0,0,1,.9,1.5,5.538,5.538,0,0,1,.336,2.03,4.869,4.869,0,0,1-.476,2.156,5.016,5.016,0,0,1-1.316,1.68A6.2,6.2,0,0,1,54.768-.056a7.756,7.756,0,0,1-2.52.392,6.449,6.449,0,0,1-2.506-.462,13.007,13.007,0,0,1-2.2-1.19L46.9-.224h-.28q0-.868.028-1.372t.028-1.064q0-.588-.028-1.274T46.62-5.516h.336a6.466,6.466,0,0,0,.434,2.03,5.475,5.475,0,0,0,1.036,1.694A5.115,5.115,0,0,0,50.008-.616a4.753,4.753,0,0,0,2.1.448,4.756,4.756,0,0,0,1.638-.28,4.046,4.046,0,0,0,1.344-.8,3.717,3.717,0,0,0,.9-1.218A3.641,3.641,0,0,0,56.308-4a2.845,2.845,0,0,0-.42-1.54,4.642,4.642,0,0,0-1.078-1.19,8.545,8.545,0,0,0-1.47-.924q-.812-.406-1.568-.77-.9-.42-1.764-.924a7.819,7.819,0,0,1-1.554-1.176,5.416,5.416,0,0,1-1.106-1.554,4.809,4.809,0,0,1-.42-2.086,4.312,4.312,0,0,1,.434-1.9,5.2,5.2,0,0,1,1.162-1.568A5.592,5.592,0,0,1,50.2-18.7a5.172,5.172,0,0,1,1.988-.392,5.631,5.631,0,0,1,2.044.378,6.881,6.881,0,0,1,1.848,1.078l.588-1.064Z" transform="translate(58.632 19.096)"/></svg>