<svg xmlns="http://www.w3.org/2000/svg" viewBox="0 0 214.5 36.749"><defs><style>.a{fill:#3c2819;}</style></defs><g transform="translate(342.5 -4847.957)"><path class="a" d="M-30.708-.12a2.152,2.152,0,0,0,.366-.03.824.824,0,0,0,.306-.114.6.6,0,0,0,.21-.234.876.876,0,0,0,.078-.4V-7.128a.876.876,0,0,0-.078-.4.6.6,0,0,0-.21-.234.824.824,0,0,0-.306-.114,2.153,2.153,0,0,0-.366-.03v-.12q.336,0,.54.006l.336.012L-29.6-8q.1.006.228.006a3.568,3.568,0,0,0,.4-.018,3.993,3.993,0,0,1,.432-.018l2.6,6.18,2.46-6.18a2.806,2.806,0,0,1,.36.018,3.326,3.326,0,0,0,.408.018q.156,0,.264-.006l.246-.012.342-.012q.2-.006.552-.006v.12a2.152,2.152,0,0,0-.366.03.824.824,0,0,0-.306.114.6.6,0,0,0-.21.234.876.876,0,0,0-.078.4V-.9a.876.876,0,0,0,.078.4.6.6,0,0,0,.21.234.824.824,0,0,0,.306.114,2.152,2.152,0,0,0,.366.03V0q-.36,0-.576-.006t-.372-.018q-.156-.012-.294-.018t-.33-.006q-.2,0-.336.006t-.288.018q-.156.012-.372.018T-24.456,0V-.12a2.152,2.152,0,0,0,.366-.03.824.824,0,0,0,.306-.114.6.6,0,0,0,.21-.234A.876.876,0,0,0-23.5-.9V-7.38L-26.436.012h-.024l-3.06-7.176V-.9a.876.876,0,0,0,.078.4.6.6,0,0,0,.21.234.824.824,0,0,0,.306.114,2.152,2.152,0,0,0,.366.03V0q-.24,0-.39-.006l-.258-.012-.2-.012q-.1-.006-.228-.006t-.228.006l-.2.012-.252.012Q-30.468,0-30.708,0Zm20.664-8.052a4.526,4.526,0,0,1,1.632.294,4.155,4.155,0,0,1,1.356.84,3.963,3.963,0,0,1,.93,1.32A4.215,4.215,0,0,1-5.784-4a4.235,4.235,0,0,1-.342,1.74A3.955,3.955,0,0,1-7.05-.948,4.044,4.044,0,0,1-8.406-.12a4.659,4.659,0,0,1-1.638.288,4.794,4.794,0,0,1-1.7-.294A4,4,0,0,1-13.1-.966a3.832,3.832,0,0,1-.9-1.32,4.451,4.451,0,0,1-.324-1.734A4.235,4.235,0,0,1-14-5.694a3.968,3.968,0,0,1,.894-1.314,4.021,4.021,0,0,1,1.356-.858A4.673,4.673,0,0,1-10.044-8.172Zm0,.216a2.379,2.379,0,0,0-1.254.33,2.861,2.861,0,0,0-.912.881,4.159,4.159,0,0,0-.552,1.27,5.907,5.907,0,0,0-.186,1.486,6.1,6.1,0,0,0,.186,1.534A3.932,3.932,0,0,0-12.21-1.2,2.747,2.747,0,0,0-11.3-.36a2.485,2.485,0,0,0,1.254.312A2.385,2.385,0,0,0-8.838-.354a2.809,2.809,0,0,0,.906-.833,3.963,3.963,0,0,0,.57-1.252,5.868,5.868,0,0,0,.2-1.552,5.821,5.821,0,0,0-.2-1.54,4.116,4.116,0,0,0-.57-1.264,2.824,2.824,0,0,0-.906-.851A2.349,2.349,0,0,0-10.044-7.956ZM8-7.908a.991.991,0,0,0-.972.72L4.344.144H4.152L1.344-6.972q-.1-.228-.174-.4a.974.974,0,0,0-.2-.294.774.774,0,0,0-.282-.18,1.208,1.208,0,0,0-.414-.06v-.12q.36,0,.582.006l.378.012L1.512-8q.12.006.288.006T2.088-8l.276-.012.384-.012q.228-.006.612-.006v.12q-.156.012-.306.03a.922.922,0,0,0-.27.072.446.446,0,0,0-.192.162.537.537,0,0,0-.072.3.893.893,0,0,0,.036.246q.036.126.072.234L4.716-1.488,6.648-6.756a2.346,2.346,0,0,0,.078-.258,1.06,1.06,0,0,0,.03-.246.608.608,0,0,0-.072-.306.587.587,0,0,0-.192-.2.766.766,0,0,0-.27-.108,1.5,1.5,0,0,0-.294-.03v-.12q.252,0,.414.006l.282.012L6.834-8q.09.006.2.006T7.242-8l.192-.012.234-.012Q7.8-8.028,8-8.028Zm6.564-.12q.36,0,.576.006T15.516-8q.156.012.288.018t.336.006q.192,0,.33-.006T16.764-8q.156-.012.372-.018t.576-.006v.12a2.152,2.152,0,0,0-.366.03.824.824,0,0,0-.306.114.6.6,0,0,0-.21.234.876.876,0,0,0-.078.4V-.9a.876.876,0,0,0,.078.4.6.6,0,0,0,.21.234.824.824,0,0,0,.306.114,2.152,2.152,0,0,0,.366.03V0q-.36,0-.576-.006t-.372-.018q-.156-.012-.294-.018t-.33-.006q-.2,0-.336.006t-.288.018q-.156.012-.372.018T14.568,0V-.12a2.152,2.152,0,0,0,.366-.03.824.824,0,0,0,.306-.114A.6.6,0,0,0,15.45-.5a.876.876,0,0,0,.078-.4V-7.128a.876.876,0,0,0-.078-.4.6.6,0,0,0-.21-.234.824.824,0,0,0-.306-.114,2.153,2.153,0,0,0-.366-.03ZM27.6-4.26a1.058,1.058,0,0,0,.8-.27,1.059,1.059,0,0,0,.258-.762h.12q0,.276-.006.456t-.012.3q-.006.12-.012.2t-.006.186q0,.1.006.18t.012.192q.006.114.012.288t.006.45h-.12a1.024,1.024,0,0,0-.258-.738,1.058,1.058,0,0,0-.8-.27h-.816v2.588a2.433,2.433,0,0,0,.078.686.658.658,0,0,0,.276.382,1.224,1.224,0,0,0,.522.161,7.657,7.657,0,0,0,.816.036q.432,0,.81-.03a1.8,1.8,0,0,0,.666-.173,1.157,1.157,0,0,0,.474-.446,1.946,1.946,0,0,0,.234-.839h.132L30.7,0q-.54.012-.96.018t-.912.006q-1.02,0-1.644-.03t-1.008-.03q-.192,0-.33.006l-.294.012-.372.012Q24.96,0,24.6,0V-.12a2.152,2.152,0,0,0,.366-.03.824.824,0,0,0,.306-.114.6.6,0,0,0,.21-.234.876.876,0,0,0,.078-.4V-7.128a.876.876,0,0,0-.078-.4.6.6,0,0,0-.21-.234.824.824,0,0,0-.306-.114,2.153,2.153,0,0,0-.366-.03v-.12q.36,0,.57.006l.36.012L25.812-8q.132.006.324.006.408,0,.99-.036t1.3-.036q.468,0,.846.012l.858.024.072,1.56h-.12a1.748,1.748,0,0,0-.192-.726,1.055,1.055,0,0,0-.42-.416,1.786,1.786,0,0,0-.612-.19,5.69,5.69,0,0,0-.768-.048q-.108,0-.252.006l-.288.012q-.144.006-.276.018t-.216.024a.288.288,0,0,0-.276.323V-4.26Z" transform="translate(-235 4872)"/><g transform="translate(-342.5 4847.957)"><path class="a" d="M262.853,357.492c-.08,0-.166,0-.246.007.057-.092.116-.183.173-.275,0,0,.216,0,.256-.007.449-.017.92-.04,1.433-.072.952-.057,1.922-.132,2.857-.2.347-.025.7-.05,1.046-.072.766-.05,1.4-.084,2-.106.226-.008.452-.017.675-.022q1.34-.028,2.676-.039c1.807-.013,3.43-.008,5.064-.018l.281,0c1.439-.116,2.881-.124,4.1-.111.374.005.746.012,1.119.018l2.524.064.075,0c.846.018,1.716.025,2.561.039q2.632.02,5.275.1c.275.008.551.017.826.027.59.02,1.2.044,1.791.059.895.022,1.788.03,2.621.04q.611.005,1.223.013c1.329.02,2.711.049,4.072.134q2.647.153,5.309.36t5.341.441c.734.07,1.468.149,2.2.229,1.036.112,2.108.236,3.167.355,2.507.292,5.063.474,7.7.69l.044,0,.013.035a.469.469,0,0,0,.057.112c.022.03.042.06.064.092-.3-.027-.6-.052-.9-.077-.525-.042-1.047-.082-1.57-.126q-1.365-.108-2.723-.2c-.893-.067-1.8-.148-2.668-.223l-.044,0c-1.471-.127-2.959-.266-4.394-.387q-.493-.043-.984-.082-2.677-.2-5.337-.347-2.662-.164-5.3-.273c-1.347-.062-2.72-.069-4.039-.064l-1.223.005c-.783,0-1.706.007-2.636-.005-.595-.008-1.185-.023-1.771-.037-.283-.007-.566-.012-.851-.015-1.81-.029-3.583-.057-5.225-.074h-.059c-.836-.01-1.7-.017-2.556-.033-.1,0-.209,0-.315-.007-.819-.02-1.62-.059-2.3-.091-1.55-.082-3.2-.194-5.192-.337-1.726,0-3.439-.013-5.342-.013-.228,0-.454,0-.68,0-1.041,0-2.117.013-3.172.057-.531.02-1.016.049-1.481.082-.35.023-.7.049-1.049.074-.943.069-1.922.144-2.884.2-.506.03-.969.054-1.413.072C262.981,357.491,262.917,357.491,262.853,357.492Zm-33.07,27.764.025.025-.012.037a.626.626,0,0,0-.027.241l.008.037.018.075-.069.023c-1.5.092-3.1.186-4.761.28-2.041.116-4.047.255-6.078.37-2.391.139-4.345.251-6.138.328a59.309,59.309,0,0,1-6.237-.018c-.134-.012-.266-.023-.4-.042a2.618,2.618,0,0,1-.432-.09,2.132,2.132,0,0,1-.788-.426,2.634,2.634,0,0,1-.806-1.512,7.375,7.375,0,0,1-.112-1.634c.005-.243.02-.5.042-.8a4.634,4.634,0,0,0-.01-.712c-.062-.8-.171-1.6-.285-2.385-1.165.275-2.51.588-3.851.8a14.989,14.989,0,0,1-4.1.186,4.77,4.77,0,0,1-1.974-.652,2.857,2.857,0,0,1-1.212-1.592,3.467,3.467,0,0,1-.109-.483c-.013-.08-.023-.161-.03-.245s-.012-.156-.018-.233c-.02-.3-.05-.6-.089-.89-.075-.566-.181-1.158-.322-1.758-.112-.491-.245-.98-.387-1.466-.015.022-.034.044-.049.067l-.047-.012a12.2,12.2,0,0,0-2.737-.273,23.208,23.208,0,0,0-2.909.233c-.458.064-.92.127-1.383.194-1.515.22-3.094.461-4.665.645l-.767.085a2.042,2.042,0,0,1-1-.079.912.912,0,0,1-.441-.352.991.991,0,0,1-.147-.456,2.246,2.246,0,0,1,.106-.791,8.154,8.154,0,0,1,.585-1.351c.226-.432.469-.861.7-1.259l.726-1.228a13.089,13.089,0,0,1,.746-1.083c.029-.035.055-.072.082-.107a5.348,5.348,0,0,0,.712-1.207l.013-.034.04-.106a3.445,3.445,0,0,0,.129-1.069l0-.055a1.37,1.37,0,0,0-.141-.56,3.155,3.155,0,0,0-.287-.536,2.907,2.907,0,0,0-.893-.84c-.379-.235-.788-.449-1.217-.675-.4-.209-.811-.424-1.2-.66-.64-.37-1.248-.779-1.838-1.171-.161-.109-.85-.565-.85-.565-.623-.412-1.267-.838-1.92-1.225-.824-.486-1.674-.943-2.4-1.326-.114-.062-.231-.122-.345-.184a.522.522,0,0,1-.1-.069.4.4,0,0,1-.136-.24.565.565,0,0,1,.1-.389,1.864,1.864,0,0,1,.337-.379c.1-.087.2-.171.332-.266a14.13,14.13,0,0,1,1.356-.861c.855-.486,1.778-.948,2.82-1.411.422-.184.767-.328,1.086-.456a17.23,17.23,0,0,1,1.892-.637c.265-.069.55-.137.873-.208l.1-.02-.02.082a.424.424,0,0,0,.023.275l.034.062c-.025.013-.047.027-.072.039-.292.069-.556.137-.808.211a12.55,12.55,0,0,0-1.19.407c-.565.221-1.128.481-1.656.727-.98.469-1.892.958-2.7,1.451a13.6,13.6,0,0,0-1.238.833c-.092.074-.179.146-.258.221a.7.7,0,0,0-.072.07c.059.027.114.055.173.082.761.367,1.642.8,2.492,1.289.819.461,1.58.957,2.351,1.47.23.149.456.3.682.449.523.347,1.067.705,1.6,1.046q.6.382,1.207.766a10.942,10.942,0,0,1,1.094.776,3.308,3.308,0,0,1,.881,1.081,3.507,3.507,0,0,1,.233.625,1.759,1.759,0,0,1,.074.689,2.608,2.608,0,0,1-.271.89c-.042.094-.085.189-.121.283-.013.035-.025.07-.04.107l-.012.032c-.168.437-.308.88-.439,1.3a7.4,7.4,0,0,1-.528,1.3c-.223.412-.447.828-.67,1.242-.209.394-.432.816-.632,1.238a7.5,7.5,0,0,0-.474,1.218,1.455,1.455,0,0,0-.064.52.323.323,0,0,0,.047.146.161.161,0,0,0,.079.057,1.11,1.11,0,0,0,.476,0c.253-.034.506-.067.757-.1.95-.132,1.972-.272,3.015-.427l.821-.121c.719-.106,1.461-.211,2.2-.3a24.23,24.23,0,0,1,3.055-.2,6.345,6.345,0,0,1,1.523.183,3.468,3.468,0,0,1,1.061.456c-.127-.416-.265-.83-.4-1.24l-.035.062a11.351,11.351,0,0,0-2.127-.546,6.942,6.942,0,0,0-2.269.137c-.778.139-1.567.29-2.358.422-.394.065-.793.127-1.19.188a7.352,7.352,0,0,1-1.195.1c0-.075-.005-.151-.008-.228a9.04,9.04,0,0,1,1.183-.233c.4-.057.789-.116,1.181-.179.786-.126,1.565-.271,2.353-.406.394-.064.791-.124,1.2-.149a5.476,5.476,0,0,1,1.2.052,10.624,10.624,0,0,1,2,.573c-.181-.526-.369-1.047-.556-1.564-.231-.638-.468-1.279-.692-1.922-.168-.459-.322-.933-.474-1.389-.223-.667-.456-1.356-.726-2.013-.069-.164-.144-.327-.219-.491-.186-.075-.295-.193-.283-.36a.167.167,0,0,1,.062-.1c-.387-.774-.83-1.527-1.269-2.259l-.028-.05.365-.174.03.047c.519.835,1.047,1.691,1.495,2.582.754.339,3.258-.084,3.744-.152.156-.023-.2.28-.327.3a16.973,16.973,0,0,1-3.209.282c.03.067.062.134.094.2.288.66.533,1.339.768,2a.169.169,0,0,1,.156.017c1.084.965,3.591.33,4.96.022.323-.074.1.26-.1.3-1.305.3-3.489.843-4.8.256.1.265.193.531.295.794.236.635.483,1.268.727,1.9l.049.126c.054-.01.085,0,.057.049-.114.2,3.115.575,3.538.463.25-.069-.1.263-.22.3a12.535,12.535,0,0,1-3.162-.251c.387,1.021.764,2.063,1.083,3.125a2.9,2.9,0,0,0,3.172.412c.251-.169.414.072.168.241a3.575,3.575,0,0,1-3.129.1c.034.124.067.248.1.372.1.414.193.824.266,1.227a6.577,6.577,0,0,0,1.406.127c.295-.023.049.35-.163.367a5.02,5.02,0,0,1-1.175-.089c.008.055.018.111.027.166.047.3.082.608.109.922.007.074.013.147.02.223s.017.136.03.2a2.75,2.75,0,0,0,.1.4,2.207,2.207,0,0,0,.972,1.238,4.077,4.077,0,0,0,1.674.515,14.3,14.3,0,0,0,3.841-.245c1.32-.231,2.648-.566,3.8-.856-.08-.514-.166-1.046-.263-1.6-.768.3-1.545.585-2.343.818a15.912,15.912,0,0,1-2.78.595,6.683,6.683,0,0,1-2.819-.208,3.584,3.584,0,0,1-2.019-1.671l.22-.132a4.046,4.046,0,0,0,1.976,1.448,6.376,6.376,0,0,0,2.638.2,16.96,16.96,0,0,0,2.713-.538c.8-.221,1.59-.473,2.375-.747-.055-.317-.114-.638-.174-.97-.085-.468-.178-.933-.27-1.394a6.3,6.3,0,0,1-.712.034c-.28,0,.037-.317.2-.318s.3,0,.451-.01c-.263-1.292-.543-2.544-.811-3.682a11.06,11.06,0,0,1-1.1.129c-.114.008-.02-.107.015-.137a.553.553,0,0,1,.305-.149c.243-.018.486-.039.726-.07-.023-.1-.049-.208-.072-.308-.2-.8-.464-1.853-.793-2.9-.02-.062-.039-.119-.057-.179a12.238,12.238,0,0,1-1.855.34c-.325.042-.158-.31.074-.34a13.548,13.548,0,0,0,1.682-.295c-.112-.332-.225-.643-.344-.938a6.179,6.179,0,0,0-.68-1.317l-.032-.045.206-.121a1,1,0,0,1-.141-.154.913.913,0,0,1-.129-.811,2.969,2.969,0,0,1,.86-1.233,8.618,8.618,0,0,1,1.176-.91,16.181,16.181,0,0,1,2.641-1.378c.414-.174.873-.345,1.4-.523a10.808,10.808,0,0,0,1.314-.55,4.275,4.275,0,0,0,1.1-.754c.258-.255.459-.632.238-.928a1.878,1.878,0,0,0-1.074-.588,7.2,7.2,0,0,0-1.411-.2,12.785,12.785,0,0,0-2.946.178c-.654.119-1.3.3-1.934.473-.322.091-.643.181-.965.265l-.067.018c-.93.241-1.894.5-2.832.784-.3.091-.595.183-.895.277-.66.206-1.344.422-2.021.622a49.99,49.99,0,0,1-6.038,1.5l-.044.005a6.325,6.325,0,0,1-1.61.089,1.254,1.254,0,0,1-.486-.148.586.586,0,0,1-.223-.214.5.5,0,0,1-.06-.288.953.953,0,0,1,.171-.439,2.487,2.487,0,0,1,.258-.318,8.108,8.108,0,0,1,1.195-.985c.261-.184.543-.367.856-.563a1.472,1.472,0,0,0-1.143-.716c-.251-.025.126-.364.307-.347a1.641,1.641,0,0,1,1.275.794c.352-.209.711-.412,1.066-.608a2.443,2.443,0,0,0-1.089-1.54,5.851,5.851,0,0,0-2.009-.813,14.6,14.6,0,0,0-4.632-.158,19.621,19.621,0,0,0-4.59,1.086,19.082,19.082,0,0,0-4.181,2.142l-.151-.174a19.336,19.336,0,0,1,4.241-2.182,19.052,19.052,0,0,1,4.67-1.091,15.121,15.121,0,0,1,4.719.186,6.1,6.1,0,0,1,2.1.843,2.74,2.74,0,0,1,1.17,1.565,2.39,2.39,0,0,0,.8-.692l0-.005.007,0a1.016,1.016,0,0,0,.089-.163,1,1,0,0,0-.2-1.024,3.407,3.407,0,0,0-1.005-.813,9.668,9.668,0,0,0-2.7-.979,20.079,20.079,0,0,0-2.993-.4,19.318,19.318,0,0,0-3.5.121l-.106.013c.013-.027.025-.055.037-.084a.436.436,0,0,0,.023-.275c-.005-.022-.008-.042-.015-.064l.079-.008a21,21,0,0,1,3.543-.094,20.349,20.349,0,0,1,3.08.4,10.362,10.362,0,0,1,2.856,1.021,3.888,3.888,0,0,1,1.14.918,1.691,1.691,0,0,1,.332.647,1.23,1.23,0,0,1-.015.623l.007.037a5.087,5.087,0,0,0,.6,1.528c.045.07.09.142.137.214a5.789,5.789,0,0,1,.312.531c.02.049.04.1.062.141a1.019,1.019,0,0,1,.136.523c.432-.126.861-.255,1.284-.385.664-.2,1.336-.419,1.931-.608.034-.01.067-.022.1-.034q.432-.138.868-.273c.9-.276,1.934-.585,2.948-.821a24.4,24.4,0,0,1,2.757-.421c.1-.01.189-.02.283-.032a18.413,18.413,0,0,1,3.055-.154,7.5,7.5,0,0,1,1.517.211,3.628,3.628,0,0,1,.726.263,1.592,1.592,0,0,1,.6.486.832.832,0,0,1,.119.256c.089-.023.176-.049.265-.07l.017.052c.126.364.325,1.093.551,1.936.037.141.075.281.112.422.277,1.042.551,2.1.769,2.814.074.246.144.446.2.585.89-.164,1.79-.323,2.681-.464,2.024-.325,4-.635,5.654-.883q1.41-.209,2.81-.4c1.009-.141,2.014-.305,2.775-.429.471-.077.945-.154,1.418-.228,1.357-.218,2.755-.431,4.139-.586,1.275-.141,2.562-.211,3.8-.27.583-.027,1.166-.052,1.746-.082,1.845-.092,3.68-.226,5.465-.4.84-.085,1.694-.181,2.519-.268.955-.1,1.941-.2,2.912-.275,1.552-.121,3.127-.263,4.645-.385l.757-.06q1.35-.1,2.7-.184c.793-.044,1.649-.069,2.7-.074.313,0,.623,0,.935,0,.932,0,1.89.005,2.834-.005h.1c-.022.035-.044.07-.067.106a.424.424,0,0,0-.045.121l-.008.044h-.049c-.93.01-1.875.005-2.79.005-.305,0-.608,0-.913,0-1.042.005-1.9.03-2.685.075q-1.345.086-2.691.184l-.744.06c-1.523.122-3.1.265-4.659.387-1.651.134-3.424.315-5.418.566-.33.042-.664.087-.992.131-.566.075-1.151.158-1.729.23-.851.1-1.751.178-2.755.24-.583.039-1.168.07-1.751.107-1.232.075-2.509.163-3.754.318-1.344.171-2.713.4-4.04.628l-1.47.258c-.762.131-1.77.305-2.8.456-.933.134-1.865.275-2.8.421-1.659.25-3.633.563-5.649.888q-2.835.468-5.694,1l-.508.092a28.568,28.568,0,0,1-5.381.664,5.14,5.14,0,0,1-1.547-.223,2.012,2.012,0,0,1-.216-.09,7.62,7.62,0,0,1,.585,1.1c.221.5.4,1,.55,1.421.233.669.437,1.342.613,1.952a.122.122,0,0,1,.065,0,5.74,5.74,0,0,0,4.191-.069c.307-.146.129.094-.044.176a6.266,6.266,0,0,1-4.091.322c.049.178.1.352.141.513.032.116.062.231.092.349.049-.012.1-.022.144-.035.094-.027.119.03.064.1a.605.605,0,0,1-.161.121q.244.938.483,1.939c.548-.013,1.109.161,1.649.2a6.213,6.213,0,0,0,2.133-.206c.308-.084.037.228-.119.27a6.217,6.217,0,0,1-1.894.26c-.536-.022-1.135-.186-1.7-.221.114.486.228.987.339,1.5.072-.007.156.015.127.1a.245.245,0,0,1-.082.109q.1.475.2.967a.22.22,0,0,1,.2.007,3.577,3.577,0,0,0,2.748.163c.3-.084.322.26.06.332a4.418,4.418,0,0,1-2.918-.042c.184.912.339,1.75.476,2.551a3.291,3.291,0,0,0,1.285.216c.283-.012,0,.332-.181.34a3.486,3.486,0,0,1-1.029-.116c.106.648.22,1.386.31,2.158.087-.079.223-.161.3-.139a7.593,7.593,0,0,0,4.055-.06c.295-.08.005.208-.127.243a8.063,8.063,0,0,1-4.208.111q.043.375.075.754l0,.037a5.164,5.164,0,0,1,.012.793c0,.049-.007.091-.008.137a4.136,4.136,0,0,0,2.284.236c.266-.032-.025.3-.186.323a5.049,5.049,0,0,1-2.122-.122c0,.065-.005.131-.007.193a6.586,6.586,0,0,0,.1,1.473,1.965,1.965,0,0,0,.592,1.138,1.429,1.429,0,0,0,.543.287,2.15,2.15,0,0,0,.322.065c.119.013.245.025.37.034,1.094.075,2.217.072,3.073.065,1.047-.012,2.083-.037,3.08-.079,1.79-.075,3.737-.189,6.127-.327,2.029-.117,4.039-.256,6.08-.372,1.485-.085,3.008-.176,4.531-.27l.035,0,.013.034a.522.522,0,0,0,.06.111l.018.018.007.007.015.022A.482.482,0,0,0,229.784,385.257ZM377.39,372.042a.359.359,0,0,1-.161.184.555.555,0,0,1-.221.062l-.028,0a1.865,1.865,0,0,1-.412-.035l-.069-.01c-.436-.084-.845-.189-1.238-.29l-.278-.07a38.162,38.162,0,0,0-5.825-1.145,12.552,12.552,0,0,0-2.805.005,6.964,6.964,0,0,0-2.262.684c-.183.7-.333,1.367-.456,2.023a18.861,18.861,0,0,0-.235,1.9c-.012.117-.017.235-.023.352a5.159,5.159,0,0,1-.06.638,2.93,2.93,0,0,1-.354.977,3.815,3.815,0,0,1-1.537,1.4,8.722,8.722,0,0,1-1.982.744,20.5,20.5,0,0,1-4.191.585c-.719.03-1.433.029-2.127-.005-.434-.025-.965-.062-1.528-.142-.03.355-.059.706-.064,1.041a2.8,2.8,0,0,0,.012.335c.013.131.027.258.039.387.025.258.045.519.06.781a7.625,7.625,0,0,1-.065,1.605,2.561,2.561,0,0,1-.756,1.537,2.022,2.022,0,0,1-.8.436,2.071,2.071,0,0,1-.228.054,2.3,2.3,0,0,1-.233.022c-.147.007-.281.008-.416.007-.543-.007-1.086-.035-1.562-.06-1.012-.052-2.036-.111-3.021-.161q-3.072-.156-6.095-.211c-1.1-.023-2.08-.052-3.006-.087-.506-.018-1.021-.045-1.518-.069-.481-.023-.979-.045-1.461-.055q-.626-.013-1.248-.017c-1.537-.013-3.122-.008-4.691-.086-1.664-.077-3.345-.256-4.967-.412q-.483-.045-.965-.089c-.982-.089-1.946-.159-2.941-.214-.915-.054-1.88-.114-2.953-.181q-1.476-.1-2.949-.178c-.194-.01-.392-.022-.588-.034-.769-.042-1.565-.082-2.344-.089-.514-.005-1.032-.005-1.548,0-1.421.005-2.889.025-4.347-.034-.8-.032-1.661-.091-2.72-.181-.6-.05-1.2-.107-1.795-.159-.468-.042-.933-.082-1.4-.116l-.491-.039c-.591-.04-1.18-.069-1.773-.1-.228-.01-.454-.02-.68-.028-.174-.008-.35-.018-.524-.029-.838-.047-1.664-.106-2.437-.159-1.268-.089-2.579-.169-3.879-.208-.724-.02-1.381-.027-2.013-.018-.473,0-.945.01-1.419.018-1.136.02-2.309.05-3.469.052-.342,0-.685,0-1.031-.008h-.054v-.092a8.266,8.266,0,0,1-1.349.109H277.8c-.506,0-1.012,0-1.517-.007q-1.513-.023-3.025-.025c-.93,0-1.929.018-3.243.077-.52.023-1.037.052-1.557.08-.412.023-1.795.106-2.071.124-2.1.131-3.707.215-5.22.25-1.1.032-2.21.052-3.288.08-.9.022-1.833.052-2.748.1-1.238.06-2.507.178-3.727.3-.762.077-1.528.158-2.294.233-1.022.106-2.06.173-3.025.235-1,.08-2,.166-3,.258-1.016.1-2.006.2-3.018.278-.88.074-1.812.131-3.023.189-1.307.064-2.636.109-3.92.164-.674.03-1.346.062-2.019.1l-.067,0c.005-.022.012-.047.015-.072a.553.553,0,0,0-.064-.414c-.012-.018-.025-.037-.035-.055l.059-.035a2.525,2.525,0,0,0,.313-.213l.015-.012.017,0q.9-.048,1.786-.087c1.29-.055,2.619-.1,3.928-.166,1.183-.057,2.137-.114,3-.186,1-.082,1.991-.179,3.006-.275,1.121-.107,2.065-.186,3.02-.248,1.111-.065,2.046-.124,3-.216.761-.07,1.52-.147,2.286-.22,1.228-.117,2.5-.23,3.757-.281.923-.042,1.857-.065,2.765-.084,1.073-.02,2.184-.035,3.273-.059,2.111-.04,4.231-.164,6.029-.263.414-.022.824-.045,1.235-.065,1.579-.079,3.212-.144,4.825-.129q1.511.013,3.023.044c.5.008,1.007.015,1.508.017a11.579,11.579,0,0,1,1.458.087v-.094c.1,0,.194,0,.292,0,1.408-.005,2.844-.067,4.231-.116.478-.017.952-.03,1.429-.042.83-.022,1.7-.02,2.747.013.876.029,1.766.075,2.623.127.186.01.37.02.556.032.618.037,1.235.075,1.853.109.365.02.727.039,1.091.052l.677.023c.716.027,1.456.057,2.182.109.2.013.412.029.617.044.59.045,1.178.091,1.766.141,1.148.094,2.376.191,3.6.23,1.366.044,2.755.018,4.1.007.588-.005,1.178-.008,1.77,0,.789.005,1.59.044,2.365.082l.6.034q1.473.073,2.948.168c1.056.062,2.019.121,2.948.173,1,.05,1.992.119,2.963.206.322.027.642.057.964.085,1.62.151,3.3.325,4.933.4,1.438.065,2.907.064,4.334.079.528.005,1.056.013,1.589.027.5.012,1,.035,1.486.06s1.005.055,1.507.075c.922.039,1.9.069,2.995.1q3.014.068,6.075.231c.994.054,2.028.117,3.068.176.548.029,1.042.055,1.525.062.122,0,.248,0,.36,0,.054,0,.114-.007.144-.012s.1-.022.141-.032a1.245,1.245,0,0,0,.5-.268,1.846,1.846,0,0,0,.515-1.1,6.7,6.7,0,0,0,.054-1.435c-.01-.248-.032-.5-.052-.749-.01-.127-.022-.253-.034-.38a2.661,2.661,0,0,1-.013-.342,4.727,4.727,0,0,1-3.018-.273c-.223-.127.225-.186.335-.121a4.2,4.2,0,0,0,2.688.191c.02-.494.067-.964.114-1.414.025-.226.052-.451.082-.674a13.31,13.31,0,0,1-4.63.134c-.307-.06-.129-.357.129-.308a12.914,12.914,0,0,0,4.545-.171c.029-.231.06-.463.091-.692-.022-.015-.045-.027-.067-.044.022-.072.045-.142.069-.213l.035,0c.065-.459.132-.912.206-1.361-.188,0-.377-.01-.536-.022a7.08,7.08,0,0,1-1.4-.223c-.3-.086.121-.149.245-.114a5.3,5.3,0,0,0,.9.164,2.7,2.7,0,0,0,.816.023c.122-.768.251-1.52.384-2.249a11.5,11.5,0,0,1-3.708-.441c-.307-.085.094-.2.245-.158a10.2,10.2,0,0,0,3.5.4c.2-1.039.414-2.09.645-3.169a13.491,13.491,0,0,1-4.741-.677c-.308-.087.084-.218.246-.173a11.737,11.737,0,0,0,4.543.622c.164-.759.338-1.533.523-2.328a14.319,14.319,0,0,1-4.655-.57c-.315-.087-.142-.387.129-.313a13.361,13.361,0,0,0,4.612.536c.216-.892.442-1.723.692-2.524.176-.558.335-1.005.5-1.408.105-.256.218-.509.349-.756a5.524,5.524,0,0,1-1.29.186,14.061,14.061,0,0,1-1.5-.028c-1-.067-1.986-.206-2.906-.342-1.341-.206-2.688-.429-3.988-.633-.553-.086-1.1-.171-1.654-.251q-1.4-.206-2.8-.4c-.933-.126-1.872-.273-2.787-.436-.838-.151-1.682-.313-2.5-.468-.979-.184-1.989-.369-2.983-.518-.6-.091-1.237-.168-2-.245l-.112-.012.067-.077a.47.47,0,0,0,.062-.085l.007-.012.03-.022.052-.02c.642.057,1.287.116,1.93.181.509.044,1.021.091,1.533.137,1.315.121,2.681.258,4.024.426q1.385.184,2.778.382t2.8.4c.457.069.918.137,1.377.209.055-.158.121-.36.189-.608.251-.875.565-2.153.851-3.283.111-.431.213-.829.3-1.161l0,0a.955.955,0,0,1-.087-.8,1.268,1.268,0,0,1,.536-.608,3.051,3.051,0,0,1,.712-.323,9.708,9.708,0,0,1,3.011-.333,30.238,30.238,0,0,1,5.947.813c.684.156,1.4.342,2.271.587l.069.018-.023.055a.447.447,0,0,0-.005.379l.007.012,0,.086-.086-.008c-.878-.253-1.656-.456-2.373-.622a27.8,27.8,0,0,0-5.8-.789,9.137,9.137,0,0,0-2.767.315,1.417,1.417,0,0,0-.843.548l.035.01-.017.052c-.017.054-.037.121-.057.189a1.117,1.117,0,0,0,.439.6,6.608,6.608,0,0,0,1.818.938l-.188-.121a.773.773,0,0,1,.454-.551,2.4,2.4,0,0,1,.737-.241,5.957,5.957,0,0,1,.766-.065l.749-.027a15.634,15.634,0,0,1,2.968.282c.979.179,1.954.4,2.918.649l1.445.392c.483.139.96.277,1.441.417-.027.07-.055.141-.082.209-.942-.33-1.884-.64-2.84-.9s-1.922-.5-2.9-.669a14.263,14.263,0,0,0-2.936-.243,3.283,3.283,0,0,0-1.364.317,4.989,4.989,0,0,0-.558.295,1.982,1.982,0,0,1-.573.273c.2.072.394.137.578.2a20,20,0,0,1,2.735,1.091,11.2,11.2,0,0,1,2.475,1.585,3.125,3.125,0,0,1,.912,1.21.981.981,0,0,1-.074.851,1.119,1.119,0,0,1-.295.31,6.194,6.194,0,0,0-.551,1.208c-.144.4-.282.846-.431,1.4-.211.784-.392,1.587-.56,2.373.142.081.176.26-.06.292h0c-.015.067-.029.132-.042.2-.409,1.974-.771,3.926-1.088,5.8-.208,1.222-.411,2.509-.585,3.821.214.037.431.074.65.1.506.07,1.019.127,1.533.174a17.246,17.246,0,0,0,3.1.02,12.946,12.946,0,0,0,2.991-.63,9.142,9.142,0,0,0,1.362-.608,5.959,5.959,0,0,0,1.166-.855l.057.055,0-.037c.007-.122.01-.246.022-.369.052-.714.139-1.411.206-1.941.013-.1.029-.2.042-.293a5.753,5.753,0,0,1-3.477,0c-.231-.092.243-.132.352-.089A5.325,5.325,0,0,0,363,372.8a.329.329,0,0,1,.044,0c.084-.6.186-1.2.313-1.833a6.035,6.035,0,0,0-1.3.186,3.422,3.422,0,0,1-1.094,0c-.333-.055-.082-.236.141-.2a4.614,4.614,0,0,0,1.485-.171,3.556,3.556,0,0,1,.811-.034c.086-.407.176-.823.278-1.25.09-.374.183-.722.276-1.057a8.114,8.114,0,0,1-3.072.013c-.29-.022-.285-.161.005-.139,1.118.084,2.316.36,3.187-.283.039-.134.08-.266.124-.4.146-.447.31-.892.471-1.32.079-.213.159-.426.238-.639-1.483.119-3.224.525-4.469-.55-.144-.124.337-.137.437-.05,1.138.984,2.772.459,4.1.394h.01c.025-.072.055-.144.08-.216a27.815,27.815,0,0,1,1.193-2.819l0,0c-.345-.06-.786.181-1.144.184a10.666,10.666,0,0,1-1.4-.062,15.274,15.274,0,0,1-2.7-.607c-.322-.1-.129-.375.144-.288a12.175,12.175,0,0,0,2.9.613,5.116,5.116,0,0,0,1.669-.144.983.983,0,0,1,.545-.01.359.359,0,0,1,.126.049c.543-1.031,1.16-2.034,1.77-3.006l.213-.342.369.164-.023.049c-.228.473-.463.945-.7,1.416-.335.679-.68,1.379-.987,2.075-.464,1.076-.843,2.212-1.2,3.311-.03.094-.062.189-.092.283-.246.776-.5,1.555-.752,2.307-.062.191-.122.382-.184.571.669-.07,1.344-.129,2.026-.163a26.071,26.071,0,0,1,2.778.017,35.368,35.368,0,0,1,5.627.882c-.015.074-.029.147-.04.223a26.65,26.65,0,0,0-5.575-.927,25.562,25.562,0,0,0-2.752,0c-.721.035-1.433.107-2.138.2-.055.178-.116.354-.171.531-.094.305-.184.6-.268.9a3.43,3.43,0,0,1,.414-.221,5.23,5.23,0,0,1,1.433-.367,13.311,13.311,0,0,1,3-.008,38.755,38.755,0,0,1,5.959,1.173l.236.06c.4.1.821.209,1.208.285l.109.018a4.351,4.351,0,0,0,.075-.573,6.954,6.954,0,0,0-.335-2.45,15.7,15.7,0,0,0-.987-2.448c-.272-.553-.573-1.111-.868-1.649-.136-.253-.275-.508-.412-.764-.1-.188-.211-.4-.312-.632a2.868,2.868,0,0,1-.131-.354,1.032,1.032,0,0,1-.039-.233v-.044a.182.182,0,0,1,0-.045c0-.034.007-.067.01-.1a2.348,2.348,0,0,1,.548-1.267,4.8,4.8,0,0,1,1.066-.895c.273-.179.556-.349.83-.511.109-.067.22-.132.33-.2a15.584,15.584,0,0,0,2.133-1.5c.55-.468,1.277-1.078,2.053-1.656.473-.357.969-.7,1.446-1.031.238-.168.478-.333.714-.5.255-.179.5-.362.754-.545-.049-.025-.1-.05-.146-.074-.221-.107-.451-.211-.679-.312-.98-.427-1.959-.825-2.913-1.187-.922-.347-1.84-.669-2.732-.955a23.9,23.9,0,0,0-5.872-1.057,19.093,19.093,0,0,0-2.958.075,11.141,11.141,0,0,0-2.782.615,3.937,3.937,0,0,0-1.128.623.976.976,0,0,0-.436.875,1.22,1.22,0,0,0,.4.649l.01,0,0,.007a2.6,2.6,0,0,0,.266.223,5.021,5.021,0,0,0,.57.362l.654.349c.161.089.33.184.5.281a1.855,1.855,0,0,1-.29-.913,1.184,1.184,0,0,1,.384-.861,3.8,3.8,0,0,1,1.9-.816,15.422,15.422,0,0,1,4.35-.087,28.672,28.672,0,0,1,4.332.779c.712.183,1.418.4,2.112.642a20.912,20.912,0,0,1,2.049.831c-.037.067-.075.133-.114.2a20.025,20.025,0,0,0-4.067-1.6,26.594,26.594,0,0,0-4.312-.823,19.065,19.065,0,0,0-2.184-.094,11.168,11.168,0,0,0-2.14.223,3.626,3.626,0,0,0-1.8.831,1.039,1.039,0,0,0-.3.783,1.634,1.634,0,0,0,.325.823l-.231.092c.282.158.566.327.856.5a4.506,4.506,0,0,1,2.244-.526c.28-.015.473.292.131.312a3.721,3.721,0,0,0-1.977.466c.263.169.521.344.776.53a6.515,6.515,0,0,1,.588.491,2.9,2.9,0,0,1,.27.3.944.944,0,0,1,.2.427.458.458,0,0,1-.062.3.581.581,0,0,1-.233.2,1.385,1.385,0,0,1-.471.124,4.617,4.617,0,0,1-.824-.005c-.509-.038-1.009-.122-1.491-.2l-.044-.007c-.578-.094-1.054-.174-1.5-.256-1-.183-2-.394-2.975-.63-.637-.153-1.287-.323-1.982-.519l-.1-.029.07-.062a.426.426,0,0,0,.149-.32l-.007-.08.089-.008c.679.189,1.309.352,1.925.5.2.049.407.1.613.142.042-.127.084-.246.124-.354a6.5,6.5,0,0,1,.524-1.066,6.755,6.755,0,0,0,.511-1.026c.012-.032.025-.07.04-.106a1.72,1.72,0,0,1-.545-.937,1.2,1.2,0,0,1,.127-.754,1.976,1.976,0,0,1,.483-.583,4.56,4.56,0,0,1,1.315-.739,11.7,11.7,0,0,1,2.978-.674,20.04,20.04,0,0,1,3.083-.087,24.61,24.61,0,0,1,6.075,1.079c.953.3,1.931.645,2.9,1.016.917.347,1.864.734,2.814,1.148q.352.153.7.322c.117.057.235.116.355.181.062.034.124.067.193.111l.025.017a.674.674,0,0,1,.116.09l.023.022v.005a.331.331,0,0,1,.082.364c-.07.085-.1.119-.124.127-.354.266-.7.518-1.051.768q-.357.251-.716.5c-.471.328-.962.67-1.423,1.017-.766.575-1.481,1.176-2.018,1.637a16.237,16.237,0,0,1-2.212,1.552c-.146.091-.295.181-.446.27a6.4,6.4,0,0,0-1.625,1.207,1.85,1.85,0,0,0-.426.992l-.007.072,0,.055c.007.027.012.055.02.079a1.8,1.8,0,0,0,.1.272c.085.194.189.4.29.585.082.154.168.31.251.464a23.866,23.866,0,0,1,2.075,4.523,7.652,7.652,0,0,1,.362,2.661,5.354,5.354,0,0,1-.087.659c-.013.054-.025.107-.037.161a.356.356,0,0,1-.015.055Zm-14.656,3.838a7.8,7.8,0,0,1-1.133.685,9.442,9.442,0,0,1-1.4.573,16.605,16.605,0,0,1-3.006.647,28.372,28.372,0,0,1-3.1.25,14.073,14.073,0,0,1-1.57-.044c-.231-.029-.469-.044-.706-.084-.055.442-.111.886-.157,1.332a13.743,13.743,0,0,0,1.441.166c.674.045,1.366.057,2.061.037a19.3,19.3,0,0,0,4.059-.526,7.991,7.991,0,0,0,1.852-.679,3.248,3.248,0,0,0,1.332-1.217,2.462,2.462,0,0,0,.293-.823A2.682,2.682,0,0,0,362.733,375.879ZM212.753,364.527c1.026-.193,2.024-.436,3.023-.679-.017-.072-.032-.142-.049-.215-1.007.189-2.016.392-3.025.551s-2.041.288-3.067.421-2.058.248-3.093.344c-.516.047-1.034.082-1.553.129l-.776.07c-.256.022-.521.054-.764.062-.018.074-.035.147-.054.219a7.1,7.1,0,0,0,1.594.082c.526-.018,1.052-.069,1.574-.121,1.046-.1,2.083-.231,3.115-.372S211.732,364.71,212.753,364.527Zm-14.93-5.242.56-.152a2.854,2.854,0,0,0,.548-.186c.176-.077.345-.174.523-.251a4.032,4.032,0,0,1,.546-.186,19.686,19.686,0,0,1,2.249-.494,12.243,12.243,0,0,1,2.247-.225,2.736,2.736,0,0,1,1.927.628c.069-.047.139-.092.209-.141a2.107,2.107,0,0,0-.948-.592,4.318,4.318,0,0,0-1.163-.181,10.311,10.311,0,0,0-2.329.24c-.762.161-1.5.382-2.256.57a4.591,4.591,0,0,1-.57.122c-.2.027-.4.039-.592.067a3.087,3.087,0,0,0-.565.141l-.553.181c-1.458.5-2.9,1.108-4.414,1.492-.757.2-1.52.385-2.294.521a10.815,10.815,0,0,1-2.323.213c-.005.075-.012.151-.017.226a29.094,29.094,0,0,0,4.645-.915C194.765,359.954,196.315,359.671,197.823,359.285Zm69.58,20.972q-1.486.04-2.968.1c-.989.029-1.981.062-2.973.122-1.982.116-3.956.293-5.929.382s-3.957.211-5.937.355q-1.483.09-2.968.2-1.483.128-2.971.275c-3.951.441-7.908.654-11.885,1.026,0,.079,0,.156,0,.236,1.986-.156,3.968-.275,5.949-.4.989-.064,1.981-.122,2.973-.2s1.982-.176,2.971-.268,1.976-.174,2.965-.25,1.977-.124,2.966-.176c1.977-.116,3.956-.238,5.934-.323s3.965-.256,5.941-.367c.987-.057,1.972-.089,2.963-.114s1.982-.065,2.973-.089q2.966-.111,5.937-.147,1.483-.025,2.969-.034c.99-.018,1.981-.03,2.971-.064,0-.079,0-.159,0-.24-1.979-.047-3.958-.092-5.937-.107S269.381,380.209,267.4,380.258Zm-59.8,3.957c-.018.077-.04.152-.059.23a12.509,12.509,0,0,0,2.624.142c.875-.02,1.748-.072,2.614-.131s1.734-.122,2.6-.174,1.728-.122,2.587-.2c1.721-.164,3.434-.35,5.136-.508.855-.087,1.7-.156,2.547-.22.426-.03.85-.062,1.274-.091s.851-.065,1.275-.109l.013-.236c-.422-.015-.846-.013-1.269-.02s-.851.01-1.275.017c-.851.017-1.713.079-2.566.161-1.709.168-3.422.365-5.138.54s-3.44.3-5.175.457c-.866.072-1.738.147-2.6.2A13.263,13.263,0,0,1,207.6,384.214Zm143.2-19.972c.2.03.406.059.612.081a2.984,2.984,0,0,0,.644.027L352,364.13a2.974,2.974,0,0,1-.571-.03c-.2-.023-.4-.054-.6-.085-.4-.06-.8-.129-1.2-.2q-1.2-.211-2.4-.409-2.4-.4-4.778-.721c-1.59-.213-3.176-.36-4.747-.511s-3.135-.3-4.687-.476c-3.1-.359-6.184-.736-9.245-1.017s-6.1-.469-9.116-.679-6.023-.315-9-.454-5.946-.288-8.907-.347c-1.475-.027-2.948-.112-4.422-.137s-2.951.022-4.422.032a3.041,3.041,0,0,1-.551-.055,2.536,2.536,0,0,0-.551-.03c-.369,0-.737.039-1.1.064-.736.065-1.47.022-2.2.022-.365-.005-.736-.01-1.1-.013l-1.1-.023q-1.1-.02-2.2-.065c-2.467,0-4.92.206-7.37.267s-4.907-.035-7.378-.012-4.945.191-7.414.345c-1.235.077-2.468.159-3.705.186s-2.478.02-3.727.029-2.51.038-3.764.142-2.509.238-3.759.385-2.5.3-3.759.422-2.527.255-3.792.4-2.534.3-3.806.454-2.539.305-3.822.407a61.092,61.092,0,0,0-7.759.94c.01.07.023.142.035.214.649-.1,1.294-.193,1.939-.268s1.292-.134,1.937-.188c1.29-.106,2.582-.174,3.871-.28,2.582-.184,5.123-.563,7.65-.855q1.9-.219,3.782-.407c1.263-.129,2.517-.287,3.769-.437s2.5-.292,3.74-.394,2.485-.141,3.73-.153,2.49-.007,3.735-.04,2.487-.119,3.725-.2c2.473-.164,4.932-.347,7.392-.367s4.922.042,7.387-.042,4.91-.308,7.363-.333q1.1-.053,2.2-.072c.734-.018,1.47-.025,2.2-.023s1.47-.029,2.2.049c.365.029.734.07,1.1.08a2.645,2.645,0,0,0,.551-.023,3.049,3.049,0,0,1,.551-.045c1.471.035,2.936.189,4.407.3s2.948.157,4.431.206c2.951.092,5.916.24,8.9.372s5.979.213,8.991.407,6.056.36,9.111.623,6.132.617,9.244.957c1.557.168,3.124.307,4.7.447s3.157.278,4.737.479,3.176.434,4.771.689c.8.127,1.6.258,2.4.394C349.991,364.117,350.393,364.182,350.8,364.242Zm12.515-5.061a.742.742,0,0,0,.238.01c.084-.008.168-.02.248-.023a.792.792,0,0,1,.23.032c.295.072.593.139.892.206s.6.127.9.181.617.1.922.124c-.007-.077-.015-.152-.022-.228a3.942,3.942,0,0,1-.888-.013,7.427,7.427,0,0,1-.891-.157c-.295-.069-.583-.153-.873-.241a.932.932,0,0,1-.4-.241.722.722,0,0,0-.2-.119.228.228,0,0,0-.261.065l-.075.211C363.171,359.128,363.236,359.168,363.313,359.182Zm-23.887,24.2c-1.413-.131-2.824-.359-4.233-.545s-2.822-.33-4.225-.407-2.8-.136-4.188-.213-2.78-.2-4.171-.292c-2.777-.2-5.544-.327-8.305-.6-1.382-.127-2.765-.256-4.149-.34-1.384-.1-2.772-.08-4.144-.045s-2.745.079-4.117.022-2.752-.168-4.132-.268-2.765-.171-4.141-.2-2.757-.091-4.136-.129-2.762-.074-4.143-.094q-1.033.02-2.068.047c-.687.008-1.378.02-2.065.034l0,.241c1.381.042,2.763.008,4.141,0,.689.02,1.376-.06,2.065-.03q1.036.017,2.068.045c1.381.044,2.76.1,4.139.142s2.753.1,4.134.208,2.758.221,4.141.28,2.762.018,4.136-.012,2.745-.047,4.124.055,2.76.22,4.144.342c2.77.263,5.538.389,8.314.578,1.388.087,2.779.213,4.174.283s2.79.124,4.188.2,2.8.206,4.2.4,2.819.409,4.243.536a36.52,36.52,0,0,0,4.282.091,27.031,27.031,0,0,0,4.26-.479c-.022-.075-.044-.151-.067-.226a26.456,26.456,0,0,1-4.225.464A35.954,35.954,0,0,1,339.427,383.378Zm7.462-2.552c.092.027.248,0,.29-.091s-.081-.163-.161-.188l-.114-.033a.26.26,0,0,0-.29.09c-.049.1.08.164.161.188Zm12.883-19.491c-.265-.087-.463.168-.141.273C359.9,361.694,360.1,361.441,359.772,361.335Zm-.184,6.953c.07-.209-.349-.307-.456-.159a.21.21,0,0,0-.178.1c-.049.1.072.183.168.216C359.326,368.509,359.521,368.482,359.588,368.288Zm7.876-3.673a2.144,2.144,0,0,1,1.719-.216c.214.044.493-.087.146-.158a3,3,0,0,0-2.3.23C366.876,364.573,367.36,364.683,367.464,364.615Z" transform="translate(-170 -350)"/></g></g></svg>