<svg xmlns="http://www.w3.org/2000/svg" width="76.97" height="766.568" viewBox="0 0 76.97 766.568"><defs><style>.a{fill:#3c2819;}</style></defs><path class="a" d="M-42.5-206.531c-.948,0-1.807.057-2.439.057-.689,0-.747-.316-.747-1.178v-1.635c0-.891.057-1.206.747-1.206.718,0,1.522.086,2.439.086h.345a.81.81,0,0,0,.8-.833v-.632c0-.342-.172-.4-.431-.4-.172,0-1.147.115-1.408.141a1.17,1.17,0,0,1-.316.029c-.63,0-.917-.429-1.348-1.233A4.542,4.542,0,0,1-45.481-215c0-.4.431-.431,1.034-.488a28.839,28.839,0,0,0,8.067-2.123,1.3,1.3,0,0,1,.46-.086c.431,0,.632.23,1.235.859.256.259,1.577,1.752,1.807,2.011a.645.645,0,0,1,.172.4c0,.172-.172.23-.345.23a1.19,1.19,0,0,1-.287-.029,2.391,2.391,0,0,0-.345-.029c-.086,0-2.152.661-2.468.747-1.005.256-1.178.488-1.178,1.034v1.262a.8.8,0,0,0,.8.8h.4c.919,0,1.724-.086,2.411-.086.661,0,.747.287.747,1.092v1.75c0,.862-.057,1.178-.747,1.178-.572,0-1.175-.057-1.75-.057-.172,0-.661-.029-.661.259,0,.575,2.3,3.1,2.813,3.588a.64.64,0,0,1,.259.488c0,.718-1.635,2.468-2.411,2.468-.4,0-1.063-.946-1.293-1.29-.086-.086-.259-.345-.4-.345s-.172.2-.172.287v4.278c0,1.348.086,2.7.086,4.048,0,.718-.316.776-1.264.776H-40.2c-.919,0-1.206-.057-1.206-.776,0-1.35.057-2.7.057-4.048v-.8c0-.115,0-.259-.115-.259s-.316.373-.345.46c-.23.431-.833,1.58-1.319,1.58-.6,0-3.016-1.522-3.016-2.356,0-.373.373-.8.718-1.233a21.79,21.79,0,0,0,3.157-5.714,4.53,4.53,0,0,0,.345-1.12c0-.259-.2-.287-.4-.287Zm13.724,5.973c-.086.371-.517,1.951-.517,2.209,0,.23.115.316.345.316.259,0,1.752-.287,2.1-.373.316-.057.661-.144.661-.486a11.98,11.98,0,0,0-.747-2.154,2.636,2.636,0,0,1-.259-.8c0-.833,2.727-1.491,3.416-1.491a.717.717,0,0,1,.776.457,38.514,38.514,0,0,1,1.522,3.847,34.145,34.145,0,0,1,1.434,5.283c0,.776-.948,1.063-1.609,1.293a6.763,6.763,0,0,1-2.008.431c-.575,0-.689-.4-.8-.919-.316-1.606-.373-1.982-.744-1.982a12.489,12.489,0,0,0-1.609.345c-2.154.488-4.306.977-6.49,1.35a1.042,1.042,0,0,0-.773.46c-.175.2-.4.488-.718.488-.376,0-.488-.689-.776-2.183-.086-.373-.172-.8-.259-1.29a3.364,3.364,0,0,1-.115-.747c0-.488.23-.488.974-.574l.692-.086c1-.115.888-.259,1.348-2.181a160.284,160.284,0,0,0,2.956-16.883c.117-.859.086-1.35.575-1.35a36.823,36.823,0,0,1,3.818.778c.23.057.718.141.718.46,0,.256-.23.4-.46.515a.916.916,0,0,0-.342.6C-26.561-210.32-27.566-205.411-28.773-200.558ZM-42.41-184.781c.259-.919.517-1.637.747-2.585.057-.259.144-.546.431-.546s3.646,1.494,4.163,1.724.689.4.689.574-.115.23-.259.287c-.747.287-.948.716-1.321,1.463a22.06,22.06,0,0,0-1.721,8.584c0,.6,0,1.206.287,1.206.227,0,.316-.2.4-.373.285-.689.46-1.034.718-1.034.4,0,1.865.948,1.865,1.379,0,.517-1.609,3.674-1.609,5.628,0,.316.057.8.086,1.149a3.253,3.253,0,0,1,.029.515c0,.776-.888,1.206-1.52,1.465a5,5,0,0,1-1.465.373c-.517,0-.776-.46-1.092-1.092a21.11,21.11,0,0,1-1.779-9.216A36.484,36.484,0,0,1-42.41-184.781Zm16.137-2.528c.144.029.371.086.371.287a1,1,0,0,1-.227.517,4.517,4.517,0,0,0-.519,2.525.606.606,0,0,0,.634.689,18.435,18.435,0,0,0,2.123-.488,4.535,4.535,0,0,1,.747-.172c.431,0,.546.574.632,1.005a12.239,12.239,0,0,1,.345,2.384c0,.718-.259.862-3.418,1.29-.63.086-.946.23-.946.948,0,.373.172,4.278.2,4.68.057.689.316.747,1.032,1.12a16.654,16.654,0,0,1,3.074,2.181,1.71,1.71,0,0,1,.661,1.206c0,.8-1.408,2.64-2.269,2.64-.431,0-.862-.373-1.465-.946-.112-.117-.23-.2-.345-.316a.871.871,0,0,0-.572-.345c-.259,0-.345.144-.546.46-.89,1.434-2.9,1.893-4.479,1.893-2.614,0-5.226-1.29-5.226-4.249,0-2.813,2.411-4.105,4.938-4.105h.661a.629.629,0,0,0,.687-.718c0-.661-.144-2.008-.144-2.468,0-.977-.115-1.436-.744-1.436-.517,0-2.5.115-3.706.115H-35.2a2.233,2.233,0,0,1-1.436-.287,14.024,14.024,0,0,1-.259-3.215c0-.373.086-.776.546-.776.172,0,1.063.086,1.321.115,1.175.115,2.353.172,3.5.172.46,0,.833-.172.833-.689,0-.6-.316-3.445-.316-4.077,0-.345.115-.488.46-.488C-29.948-187.855-26.992-187.424-26.273-187.309Zm-6.49,17.4c0,.575.919.862,1.522.862.658,0,1.293-.23,1.293-1.005,0-.574-.893-.6-1.321-.6S-32.763-170.543-32.763-169.911Zm6.231,25.568a9.331,9.331,0,0,1-.833,1.692,1.259,1.259,0,0,0-.2.546c0,.23.115.431.661.632l.23.086a33.628,33.628,0,0,1,4.278,2.241c.23.144.517.314.517.6,0,.862-1.379,2.873-2.3,2.873a1.582,1.582,0,0,1-.776-.345c-.917-.6-4.591-2.784-5.484-2.784a1.613,1.613,0,0,0-.917.371,18.716,18.716,0,0,1-5.455,2.183,30.376,30.376,0,0,1-6,.776c-1.034,0-1.379-.977-1.58-1.838a6.724,6.724,0,0,1-.23-1.522c0-.488.316-.515,1.376-.515a28.023,28.023,0,0,0,6.748-.8c.488-.144.862-.23.862-.431,0-.23-.4-.259-.862-.373a4.871,4.871,0,0,0-.89-.172.975.975,0,0,0-.718.4.669.669,0,0,1-.428.2c-.747,0-3.361-.661-3.361-1.465a34.654,34.654,0,0,1,1.982-3.33,1.133,1.133,0,0,0,.144-.4c0-.345-.373-.345-.575-.345h-1.781c-1,0-2.037.086-3.043.086-.718,0-.776-.287-.776-1.12v-1.692c0-.833.086-1.092.776-1.092.919,0,1.98.057,3.043.057h3.9c.718,0,.89-.345,1.551-2.068.2-.517.2-.6.488-.6.23,0,.46.057.575.057a.325.325,0,0,0,.345-.316,17.7,17.7,0,0,0-.919-2.468.935.935,0,0,1-.115-.4c0-.4.718-.718,1.063-.8.086-.026.23-.086.23-.17,0-.115-.115-.146-.2-.146-1.149,0-4.048.2-6.317.2h-.259c-.517,0-1.264-.2-1.264-2.784,0-.689.175-.8,1.063-.8H-40.6c4.048,0,11.742-.4,15.531-1.434a1.412,1.412,0,0,1,.316-.029c.259,0,1.321,1.807,1.838,2.755a2.237,2.237,0,0,1,.345.833.364.364,0,0,1-.4.345,1.631,1.631,0,0,1-.632-.2,1.72,1.72,0,0,0-.345-.057c-.259,0-1.319.2-1.695.259-.086,0-.227.029-.227.17,0,.117.026.146.661.376,1.606.6,2.008.718,2.008,1.118,0,.23-.2.316-.373.345-.345.086-.46.144-.575.431a21.949,21.949,0,0,1-1.922,3.847c-.316.488-.4.575-.689.575-.632,0-3.1-.891-3.1-1.637A11.02,11.02,0,0,1-29-154.018a16.372,16.372,0,0,0,1.235-2.7.86.86,0,0,0,.086-.287c0-.2-.144-.316-.373-.316-.086,0-.575.057-.718.057-.862.113-1.551.17-2.095.2-1.178.086-1.609.144-1.609.543a2.167,2.167,0,0,0,.23.689,17.107,17.107,0,0,1,.833,2.614c0,.515-.661.716-1.149.859-.144.057-.345.144-.345.345s.259.259.431.316c.23.086.661.23.661.546,0,.287-.431.4-.661.488a.608.608,0,0,0-.373.517c0,.23.287.316.488.316h8.182c1.063,0,2.123-.057,3.042-.057.689,0,.776.258.776,1.092v1.721c0,.833-.057,1.092-.776,1.092-1,0-2.037-.086-3.042-.086h-1.578c-.115,0-.2.029-.2.172,0,.086.113.172.2.2a.462.462,0,0,1,.256.373c0,.2-.17.287-.345.373a1.444,1.444,0,0,0-.428.2A.728.728,0,0,0-26.532-144.343ZM-39.968-156.23c.457,0,.718.517,1.293,1.925.026.057.055.172.113.287a8.523,8.523,0,0,1,.6,1.779c0,.8-2.669,1.436-2.985,1.436-.287,0-.345-.115-.689-.948-.23-.546-.575-1.408-1.206-2.755a1.089,1.089,0,0,1-.084-.316C-42.925-155.483-40.543-156.23-39.968-156.23Zm6,10.164a1.742,1.742,0,0,0-1.664,1.434c0,.347.373.4,1.293.634.515.115,1.2.258,2.095.515a1.156,1.156,0,0,0,.431.089c.431,0,.575-.376.773-.689a6.963,6.963,0,0,0,.778-1.637c0-.259-.2-.345-.431-.345Zm-.46,27.837c0,.6.491.776,1.005.776.488,0,.977-.057,1.465-.057,1.436,0,1.721.457,1.721,1.836,0,1.666-.055,3.043-.144,4.335-.026.259-.084.862-.084.948,0,.115.026.345.172.345.546,0,1.836-3.016,1.836-3.732,0-.287-.4-.316-.689-.316-.457,0-.457-.546-.457-.919v-1.293c0-1.034.057-1.2.658-1.2.689,0,.948-.29.948-.977v-.661c0-.488.115-.632.6-.632s2.384.172,2.9.259c.172.029.546.086.546.345,0,.316-.373.46-.6.575a.441.441,0,0,0-.144.373c0,.6.575.776,1.063.776s.977-.057,1.465-.057c1.434,0,1.692.486,1.692,1.836a33.447,33.447,0,0,1-.632,7.093c-.515,1.549-2.181,1.865-3.617,1.865-1.063,0-1.549-.488-1.664-2.382,0-.086-.029-.259-.144-.259s-.23.2-.287.285c-.287.491-1.522,2.355-2.068,2.355-.488,0-1.206-.718-1.52-1.092a.76.76,0,0,0-.4-.287c-.086,0-.144.029-.316.23-.431.431-1.063,1.12-3.3,1.12-.773,0-1.147-.144-1.434-1.293a5.315,5.315,0,0,1-.115-.946c0-.115,0-.46-.144-.46-.057,0-.144.086-.172.144-.259.517-1.264,2.468-1.867,2.468-.46,0-1.262-.744-1.577-1.063-.057-.057-.172-.172-.259-.172-.115,0-.115.172-.115.23,0,.086.029.2.029.261,0,.687-.345.773-1.005.773H-42.7c-.974,0-1.206-.057-1.206-.8,0-1.434.089-2.9.089-4.335V-121.9a.794.794,0,0,0-.862-.776c-.2,0-.575.029-.862.029-.575,0-.632-.287-.632-1.12v-1.838c0-.831.057-1.147.632-1.147.287,0,.6.057.89.057a.756.756,0,0,0,.833-.833v-1.838a22.517,22.517,0,0,0-.089-2.612,1.374,1.374,0,0,1-.026-.259c0-.345.2-.431.486-.431.259,0,2.442.23,2.873.287.8.115.948.2.948.46,0,.172-.144.287-.287.431-.259.227-.259.574-.259,1.032v2.959a.819.819,0,0,0,.919.8c.4,0,.8-.057,1.2-.057.575,0,.632.316.632,1.233v1.724c0,.862-.057,1.149-.632,1.149-.4,0-.8-.057-1.2-.057-.575,0-.919.316-.919.8v10.679c0,.6.029,1.206.316,1.206.575,0,1.781-2.9,1.781-3.792,0-.2-.232-.285-.548-.285-.689,0-.689-.23-.689-1.379v-.833c0-1,.089-1.2.689-1.2.689,0,.833-.574.833-1.149,0-.2-.029-.373-.029-.575,0-.431.086-.574.546-.574.172,0,1.379.086,2.413.172.974.086,1.06.287,1.06.4,0,.2-.316.4-.486.517A.707.707,0,0,0-34.429-118.229Zm6.317-12.69c0,.457.316.572.718.572.977,0,1.982-.057,2.956-.057,1.58,0,2.011.316,2.011,1.752,0,1.58-.086,5.427-.8,6.717a2.265,2.265,0,0,1-1.779,1.264,14.332,14.332,0,0,1-2.47.2c-.747,0-1.264-.086-1.58-.8a6.69,6.69,0,0,1-.4-2.238c0-.431.029-.891.546-.891.2,0,.661.057,1.206.057,1.092,0,1.35-.029,1.35-1.807v-.318c0-.6-.259-.6-1.092-.6h-.517c-.632,0-.776.574-.948,1.06-1.206,3.5-4.795,5.858-5.884,5.858-.862,0-1.925-2.123-1.925-2.612,0-.287.287-.431.517-.517,2.525-.977,3.761-2.844,3.761-3.531,0-.258-.46-.258-.689-.258-.718,0-1.405.057-2.123.057-.632,0-.689-.23-.689-.977v-1.436c0-.718.057-.977.718-.977,1.175,0,1.98.086,2.5.086.747,0,.948-.17.948-.917,0-.23-.029-.488-.029-.718,0-.46.057-.661.575-.661.546,0,2.612.172,3.157.259.259.029.661.057.661.46,0,.287-.259.373-.546.546A.6.6,0,0,0-28.112-130.918Zm-6.2,16.766c-.46,0-.486.431-.543.8a10.884,10.884,0,0,1-.575,2.068,3.007,3.007,0,0,0-.115.488c0,.345.716.345.948.345.661,0,.773-.2.8-.8.029-.4.086-1.81.086-2.154C-33.711-113.894-33.711-114.152-34.314-114.152Zm9.848.029c-.543,0-.632.314-.718.773a13.928,13.928,0,0,1-.46,1.81,1.873,1.873,0,0,0-.17.661c0,.4.457.431.773.431h.316c.546,0,.8-.431.8-2.959C-23.92-113.865-23.92-114.123-24.466-114.123Zm-10.219,12.1c.23.057.63.172.63.4a.272.272,0,0,1-.2.227c-.46.259-.517.6-.661,1.321a54.058,54.058,0,0,0-.917,10.739c0,2.267,0,4.594,2.3,4.594a6.146,6.146,0,0,0,4.62-2.442,9.373,9.373,0,0,0,1.838-4.163c.115-.575.2-1.089.689-1.089.632,0,1.491.773,1.951,1.175.517.46,1.379,1.235,1.379,1.953a10.8,10.8,0,0,1-1.235,3.531,10.2,10.2,0,0,1-9.015,5.625A7,7,0,0,1-38.85-82.5c-1.434-1.838-1.606-4.881-1.606-7.177,0-3.3.287-6.832.517-9.934.057-.6.086-1.58.086-2.238,0-.632,0-1.005.486-1.005C-38.707-102.853-35.6-102.221-34.685-102.02Zm2.123,25.853c.546.144,1.408.4,1.408.689,0,.144-.172.23-.287.287-.4.2-.517.661-.776,1.606q-.086.388-.259.948a2.339,2.339,0,0,0-.057.259.491.491,0,0,0,.546.517,12.136,12.136,0,0,0,2.324-.747,2.471,2.471,0,0,1,.718-.2c.776,0,.776,2.841.776,3.7,0,.4-.115.574-.575.718-1.149.373-2.985.8-4.105,1.034-1.233.259-1.321.287-1.666,1.319a82.465,82.465,0,0,1-5.511,12.692c-.23.373-.4.689-.89.689s-3.473-1.293-3.473-2.154a2.689,2.689,0,0,1,.575-1.12,45.253,45.253,0,0,0,4.706-9.446,1.861,1.861,0,0,0,.2-.661c0-.4-.314-.486-.63-.486-.575,0-1.264.086-1.9.086-.6,0-.977-.086-1.149-.718a21.8,21.8,0,0,1-.316-3.042c0-.376.057-.661.517-.661.287,0,1.58.144,3.071.144,1.436,0,1.9,0,2.126-.718a31.666,31.666,0,0,0,.833-5.283c0-.172.057-.316.23-.316C-35.748-77.029-33.079-76.311-32.562-76.167Zm-.718,17.915c1.178,1.405,3.358,1.724,5.082,1.724a13.865,13.865,0,0,0,4.335-.6,1.032,1.032,0,0,1,.316-.057c.46,0,.517.63.517,1.549v.862c0,1.58,0,1.925-.517,2.066a33.192,33.192,0,0,1-4.852.376c-2.04,0-4.823-.259-6.518-1.494-.457-.345-1.376-1.149-1.376-1.81,0-.488,1.063-1.779,1.408-2.181.23-.259.747-.833,1.089-.833C-33.6-58.655-33.395-58.4-33.28-58.252Zm2.815-8.728a25.367,25.367,0,0,1,6.516.862c.4.115.718.23.718.687a10.132,10.132,0,0,1-.862,3.16.609.609,0,0,1-.546.345,2.471,2.471,0,0,1-.718-.2,12.619,12.619,0,0,0-4.936-.776h-1.034c-.661,0-.862-.086-.862-.6C-32.189-66.808-31.614-66.98-30.465-66.98Zm.172,18.935c.488.517.974,1.034,1.463,1.522l.316.316c.575.6,1.666,1.721,1.666,2.037,0,.172-.172.2-.517.2a1.074,1.074,0,0,0-.718.287c-1.235.919-2.382,1.838-3.588,2.815q-1.982,1.634-3.876,3.358a1.4,1.4,0,0,0-.546.946c0,.491.689,1.235,1.175,1.752a2.594,2.594,0,0,0,.261.287c1.606,1.609,3.3,3.129,4.993,4.651.919.8,2.355,2.126,2.355,2.729,0,.888-2.585,3.3-3.387,3.3-.172,0-.517-.256-.89-.716a81.474,81.474,0,0,0-5.628-5.973A35.6,35.6,0,0,1-40.4-34.006,4.457,4.457,0,0,1-41.4-36.761a3.605,3.605,0,0,1,.661-2.154,27.117,27.117,0,0,1,3.99-3.617A35.542,35.542,0,0,0-31.3-47.873c.144-.2.287-.431.517-.431A.749.749,0,0,1-30.293-48.045Zm-2.327,28.094c.345.086.661.2.661.373,0,.144-.2.287-.546.517a5.519,5.519,0,0,0-.517,1.606,1.257,1.257,0,0,0-.057.232c0,.084-.029.2-.029.314a.4.4,0,0,0,.345.4,2.99,2.99,0,0,0,.632-.172,1.51,1.51,0,0,1,.488-.115c.259,0,.345.144.4.431a27.732,27.732,0,0,1,.287,2.987c0,.658-.4.773-2.643,1.175-1,.172-1.034.373-1.379,1.293C-35.461-9.587-36.007-8.3-36.581-7c-.747,1.695-1.522,3.416-2.411,5.053-.23.4-.519.862-.689,1.2-.144.29-.259.433-.632.433-.977,0-3.732-1.206-3.732-1.953a5.056,5.056,0,0,1,.6-1.149c.577-.977,3.706-6.688,3.706-7.406a.454.454,0,0,0-.488-.431c-.172,0-.747.057-.948.086-.316.029-.919.086-1.264.086-.6,0-.862-.259-1.063-2.7-.026-.232-.084-.747-.084-1.005,0-.4.227-.517.575-.517.486,0,1.175.057,1.807.057,2.612,0,2.985-.057,3.272-.8a19.137,19.137,0,0,0,.718-4.45c0-.23,0-.46.2-.46C-36.639-20.957-33.194-20.1-32.619-19.952Zm3.847,9.015c.488.115.747.316.747.833,0,.287-.057.8-.057,1.319,0,1.436.115,2.844.2,4.249.029.689.172.862.833,1.12.8.316,4.421,2.011,4.421,2.813,0,.634-1.609,2.987-2.528,2.987-.23,0-.632-.259-1.262-.747-.172-.144-.345-.287-.546-.431a.652.652,0,0,0-.46-.172.637.637,0,0,0-.632.488,5.073,5.073,0,0,1-.977,1.35A4.991,4.991,0,0,1-32.5,3.965c-2.727,0-5.568-1.321-5.568-4.421,0-2.873,2.525-4.105,5.08-4.105h.23a.634.634,0,0,0,.689-.689c0-.491-.259-3.045-.345-3.9a10.7,10.7,0,0,1-.115-1.35c0-.6.23-.833.862-.833A16.753,16.753,0,0,1-28.773-10.937ZM-33.826-.457A.969.969,0,0,0-32.763.4c.661,0,.89-.345.89-.948,0-.371-.029-.687-.862-.687C-33.223-1.232-33.826-1.031-33.826-.457Zm9.877-13.9c.661.6,2.47,2.324,2.47,2.928,0,.89-2.327,2.87-3.045,2.87-.345,0-.6-.428-.8-.744A18.2,18.2,0,0,0-28.916-13c-.23-.17-.517-.371-.517-.6,0-.46,1.838-2.813,2.643-2.813C-26.247-16.421-24.409-14.784-23.949-14.353ZM-38.475,11.041c.285.057.6.144.6.4,0,.115-.086.2-.287.345a2.043,2.043,0,0,0-.546,1.264,21.124,21.124,0,0,0-.371,4.019,13.353,13.353,0,0,0,1.032,5.513c.23.488.747,1.405,1.379,1.405.661,0,1.321-1.175,1.58-1.635.2-.345.457-.718.891-.718.859,0,2.985,1.637,2.985,2.324s-1.321,2.212-1.81,2.758c-1.005,1.118-2.008,2.066-3.588,2.066-1.922,0-3.56-1.408-4.622-2.9-2.126-2.987-2.327-7.179-2.327-10.71,0-.546.115-4.019.146-4.421.029-.316.17-.457.488-.457C-42.554,10.3-39.193,10.9-38.475,11.041Zm10.506-.919c.776,0,3.042,1.781,4.306,3.821a15.651,15.651,0,0,1,2.126,5.884c.057.46.141,1.149.141,1.494,0,.6-.141.862-.718,1.034a9.884,9.884,0,0,1-2.727.486c-1.063,0-1.089-.371-1.175-1.463-.259-3.445-1.465-6.174-4.192-8.125a.587.587,0,0,1-.287-.488C-30.494,12.1-28.83,10.121-27.968,10.121ZM-43.988,51.479A103.36,103.36,0,0,1-37.3,38.588c1.206-1.867,2.5-3.732,3.617-5.657.086-.172.172-.316.4-.316a15.376,15.376,0,0,1,2.557,1.724l.373.287c.546.4.859.661.859.919s-.172.371-.4.428c-.747.144-.747.287-1.319,1.005A42.173,42.173,0,0,0-34.2,41.143a1.074,1.074,0,0,0-.2.46.427.427,0,0,0,.371.373,2.178,2.178,0,0,0,.46-.086,4.387,4.387,0,0,1,1.034-.115c2.5,0,4.077,1.293,4.077,3.849a27.594,27.594,0,0,1-.689,4.275,6.276,6.276,0,0,0-.144,1.092c0,.287.144.575.488.575,1.005,0,3.7-3.246,4.364-4.105.488-.632.747-.948,1.12-.948.575,0,1.922,3.045,1.922,3.56,0,.546-1.893,2.3-2.353,2.729-1.752,1.578-3.9,3.244-6.375,3.244-2.324,0-3.3-1.953-3.3-4.019a18.477,18.477,0,0,1,.4-3.33,15.561,15.561,0,0,0,.287-2.126c0-.488-.172-.8-.689-.8a4.983,4.983,0,0,0-2.181.689A6.17,6.17,0,0,0-38.1,49.1a29.414,29.414,0,0,0-2.468,5.884c-.115.431-.23.862-.747.862a10.465,10.465,0,0,1-3.014-1.149c-.488-.259-.8-.4-.8-.661A26.551,26.551,0,0,1-43.988,51.479Zm-.8,13.882c0-.89.316-.919,3.473-1.092.575-.029,1.235-.057,2.04-.115,3.617-.227,11.943-1.175,15.445-1.836a1.077,1.077,0,0,1,.287-.029c.517,0,.6.4.718.946a20.1,20.1,0,0,1,.373,3.189c0,.546-.316.546-1.551.575a11.637,11.637,0,0,0-4.105.517A8.918,8.918,0,0,0-34.056,75.9c0,2.729,1.436,3.476,3.962,3.476.718,0,1.666-.086,2.068-.086.546,0,.747.086.747.632a13.011,13.011,0,0,1-.488,3.358c-.23.575-.632.661-1.235.661-5.312,0-9.762-1.379-9.762-7.581a12.031,12.031,0,0,1,2.47-7.32.809.809,0,0,0,.172-.431c0-.259-.2-.431-.517-.431a10.28,10.28,0,0,0-1.551.259c-1.52.287-3.5.718-5,1.149a1.917,1.917,0,0,1-.4.057c-.6,0-.8-1.293-.948-2.181A15.61,15.61,0,0,1-44.792,65.361Zm19.062,4.766a12.775,12.775,0,0,1,1.953,2.813c0,.575-1.551,1.465-1.836,1.465-.144,0-.2-.086-.575-.661-.546-.833-1.12-1.58-1.752-2.384a.481.481,0,0,1-.144-.314c0-.4,1.609-1.264,1.925-1.264C-26.015,69.782-25.845,69.983-25.73,70.127Zm5.714,1.063c0,.572-1.52,1.491-1.838,1.491-.2,0-.342-.259-.428-.4a22.564,22.564,0,0,0-1.838-2.5.9.9,0,0,1-.23-.431c0-.373,1.58-1.264,1.925-1.264A10.878,10.878,0,0,1-20.016,71.189ZM-30.64,88.171c.232.031.661.115.661.316,0,.086-.084.175-.2.259a1.194,1.194,0,0,0-.46.862c-.026.287-.055.89-.055,1.321,0,.747.029,1.206.891,1.206,2.267,0,4.536-.287,6.8-.287.431,0,.8.029.8,2.037a12.122,12.122,0,0,1-.172,2.154c-.086.23-.172.345-.431.345-.144,0-3.246-.2-4.134-.232-.948-.026-1.925-.026-2.9-.026a.763.763,0,0,0-.831.862v.687a2.541,2.541,0,0,0,.4,1.58,9.478,9.478,0,0,1,.773,3.876c0,4.622-3.186,10.219-4.649,10.219a7.923,7.923,0,0,1-2.327-.773c-.8-.345-1.465-.661-1.465-1.063,0-.259.373-.6.6-.8.546-.517,1.925-1.807,1.925-2.267,0-.316-.259-.373-.517-.373-2.643-.057-3.648-3.045-3.648-5.254,0-2.554,1.178-5.312,3.964-5.826.2-.031.546-.057.546-.316,0-.144-.117-.287-.373-.287-.316,0-2.413.227-2.873.287-.687.084-4.706.744-5.281.888a3.5,3.5,0,0,1-.519.086c-.457,0-.6-.658-.744-2.382-.086-.948-.115-1.609-.115-1.838,0-.428.144-.488.833-.517,2.612-.113,5.2-.314,7.493-.431.747-.026,1.408-.084,1.408-1.032a22.64,22.64,0,0,0-.258-3.131.8.8,0,0,1-.029-.23.388.388,0,0,1,.431-.428C-34.573,87.656-31.3,88.085-30.64,88.171Zm-5.022,14.384c0,.517.115,2.011.888,2.011s.977-1.436.977-2.011c0-.6-.115-1.867-.946-1.867C-35.518,100.688-35.662,101.981-35.662,102.555Zm14.9,17.1a4.1,4.1,0,0,1-4.105,4.105,4.1,4.1,0,0,1-4.077-4.105,4.082,4.082,0,0,1,4.077-4.108A4.1,4.1,0,0,1-20.763,119.654Zm-6.516,0a2.433,2.433,0,0,0,2.411,2.439,2.439,2.439,0,0,0,2.442-2.439,2.434,2.434,0,0,0-2.442-2.413A2.427,2.427,0,0,0-27.279,119.654ZM-87.942-216.523a20.681,20.681,0,0,1,2.068-.2c.773,0,.8.029,1.063,2.786a19.936,19.936,0,0,0,.428,2.9c.086.345.23.747.661.747a19.333,19.333,0,0,0,3.907-2.011,3.5,3.5,0,0,1,1.2-.546c.345,0,.977,1.005,1.321,1.551a7.529,7.529,0,0,1,1.206,2.47c0,.314-.316.428-.919.63-.115.06-.259.086-.4.144A41.807,41.807,0,0,0-85.7-204c-1.092.718-2.815,1.922-2.815,3.358,0,1.922,3.674,1.922,4.967,1.922a32.124,32.124,0,0,0,7.409-.773c.084,0,.2-.031.285-.031.23,0,.345.2.4.577a24.112,24.112,0,0,1,.144,2.841c0,.974-.2,1.149-1.206,1.319a68.294,68.294,0,0,1-7.349.4,12.587,12.587,0,0,1-6.4-1.262,5.477,5.477,0,0,1-2.844-4.91,7.726,7.726,0,0,1,3.933-6.461c.345-.2.661-.373.661-.833a16.67,16.67,0,0,0-.46-1.664c-.486-1.953-.946-3.933-1.578-5.858a1.516,1.516,0,0,1-.086-.345C-90.64-216.147-90.123-216.235-87.942-216.523Zm13.293,2.212a7.826,7.826,0,0,1,1.063,1.865c0,.575-1.609,1.408-1.893,1.408-.146,0-.2-.057-.634-.773-.515-.862-.917-1.494-1.491-2.3a.722.722,0,0,1-.172-.4c0-.4,1.637-1.178,1.953-1.178C-75.569-215.69-74.822-214.569-74.65-214.311Zm2.3-3.358c.287.345.572.718.831,1.089a8.111,8.111,0,0,1,1.12,1.9c0,.6-1.606,1.408-1.865,1.408-.23,0-.318-.2-.431-.431-.546-.948-1.178-1.81-1.781-2.7-.086-.117-.144-.175-.144-.29,0-.428,1.666-1.2,1.953-1.2C-72.524-217.9-72.5-217.842-72.352-217.669ZM-82.056-188c0,.172-.115.287-.23.431a4.122,4.122,0,0,0-.8,1.838c0,.314.23.457.517.457a24.683,24.683,0,0,0,4.68-1.262,3.011,3.011,0,0,1,.833-.23c.431,0,.517.373.718,1.29a13.569,13.569,0,0,1,.316,2.384c0,.6-.347.718-1.465.948-1.609.314-4.163.689-5.829.859-.431.057-.919.115-1.147.517a4.283,4.283,0,0,0-.318,1.235c0,.23.175.345.4.345a.548.548,0,0,0,.287-.086,8.648,8.648,0,0,1,3.789-.89,6.042,6.042,0,0,1,6.346,6.4c0,6.545-7,7.981-12.2,7.981-1.206,0-1.379-.23-1.637-1.35a17.693,17.693,0,0,1-.431-2.411.711.711,0,0,1,.718-.718,27.1,27.1,0,0,0,2.727.259c2.5,0,6.719-.689,6.719-3.9a2.14,2.14,0,0,0-2.126-2.327,8.787,8.787,0,0,0-5.683,2.528c-.287.316-.632.776-.89,1.12a1.088,1.088,0,0,1-.8.572,5.2,5.2,0,0,1-2.382-1c-.46-.347-.862-.632-.862-1.178a2.876,2.876,0,0,1,.4-1.178,22.183,22.183,0,0,0,1.635-4.68.521.521,0,0,0-.543-.517c-.144,0-2.212.259-3.246.259a.843.843,0,0,1-.948-.718A15.335,15.335,0,0,1-94-184.034c0-.431.115-.744.6-.744.227,0,2.238.2,4.361.2,1.293,0,1.551-.086,1.982-4.077.086-.689.144-1.206.632-1.206C-85.874-189.863-82.056-188.8-82.056-188Zm-4.479,31.708c.689.232,1.29.4,1.29.718,0,.172-.2.287-.342.345-.373.172-.4.316-.575,1.005-.2.8-.316,1.637-.488,2.468a4.6,4.6,0,0,0-.086.661c0,.259.144.517.4.517a8.835,8.835,0,0,0,1.724-.862,9.641,9.641,0,0,1,4.278-1.005,6.66,6.66,0,0,1,5.08,2.154,5.884,5.884,0,0,1,1.522,4.249,6.147,6.147,0,0,1-1.549,4.45,11.8,11.8,0,0,1-5.053,2.841,19.15,19.15,0,0,1-4.134.8,1.059,1.059,0,0,1-1.092-.575,8.763,8.763,0,0,1-.919-3.186c0-.546.4-.632.776-.632,2.238-.029,7.665-.6,7.665-3.646,0-1.58-1.436-2.324-2.815-2.324-2.755,0-5.74,2.612-7.349,4.677-.259.345-.488.634-.946.634s-2.987-.4-2.987-1.408a2.045,2.045,0,0,1,.115-.6,44.684,44.684,0,0,0,1.58-10.595c0-1.06,0-1.551.632-1.551A22.139,22.139,0,0,1-86.535-156.288Zm.517-6.114a3.154,3.154,0,0,1,1.005.373,41.1,41.1,0,0,1,4.019,2.439c.6.431,1.032.718,1.032,1.034,0,.632-1.692,3.129-2.525,3.129a1.268,1.268,0,0,1-.747-.4,28.941,28.941,0,0,0-4.278-2.956c-.431-.259-.718-.4-.718-.718C-88.23-159.933-86.966-162.4-86.018-162.4Zm3.071,29.5c.431.115.747.2.747.46,0,.2-.23.316-.431.4-.488.227-.6,1-.718,1.836l-.086.575c-.029.172-.057.316-.057.373a.585.585,0,0,0,.287.546,1.584,1.584,0,0,0,.689.144,5.372,5.372,0,0,1,2.411.6c1.9,1.063,2.384,2.844,2.384,4.912,0,2.554-.517,6.746-1.81,8.926a6.419,6.419,0,0,1-6.056,3.217c-.833,0-1.206-.086-1.494-.8a11.15,11.15,0,0,1-.632-2.9c0-.373.144-.661.546-.661s.8.029,1.206.029c1.752,0,2.123-.144,2.727-1.235a16.377,16.377,0,0,0,1.293-6.346c0-1.348-.2-1.75-1.293-1.75-.974,0-1.233.115-1.491,1.063a36.5,36.5,0,0,1-4.421,9.53,21.477,21.477,0,0,1-2.04,2.815.747.747,0,0,1-.488.2c-.632,0-3.387-1.52-3.387-2.468,0-.287.316-.6.575-.862a22.668,22.668,0,0,0,5.139-8.038,1.583,1.583,0,0,0,.144-.515.4.4,0,0,0-.46-.433,19.28,19.28,0,0,0-2.442.833,1.219,1.219,0,0,1-.546.172c-.486,0-.8-1.092-1.032-2.095-.146-.661-.431-1.81-.431-2.1,0-.431.316-.488,1.06-.546a28.1,28.1,0,0,0,4.421-.747c.575-.113.89-.314.977-.946a39.007,39.007,0,0,0,.23-4.134v-.431c0-.287.057-.546.4-.546C-86.736-133.819-83.492-133.044-82.946-132.9Zm7.667,2.353a24.627,24.627,0,0,1,2.238,2.9c.057.115.172.259.287.46A17.024,17.024,0,0,1-70.8-123.6c0,.917-2.64,2.439-3.416,2.439-.4,0-.6-.46-.747-.776a24.166,24.166,0,0,0-3.99-6.458c-.115-.115-.316-.316-.316-.488,0-.661,2.413-2.212,3.131-2.212A1.24,1.24,0,0,1-75.279-130.547Zm-6.748,24.3c.488.172.6.316.6.431,0,.144-.172.23-.287.287-.4.2-.517.661-.776,1.606-.057.259-.144.577-.259.948a.839.839,0,0,0-.057.259.491.491,0,0,0,.546.517,12.3,12.3,0,0,0,2.324-.744,2.4,2.4,0,0,1,.718-.2c.776,0,.776,2.87.776,3.7,0,.491-.172.574-.575.718-1.034.345-2.985.8-4.105,1.034-1.233.259-1.321.316-1.666,1.321A82.006,82.006,0,0,1-90.3-83.677c-.23.373-.4.689-.89.689s-3.473-1.293-3.473-2.154a2.538,2.538,0,0,1,.575-1.12,47.458,47.458,0,0,0,4.706-9.446,1.864,1.864,0,0,0,.2-.658c0-.4-.314-.488-.63-.488-.575,0-1.264.086-1.9.086-.6,0-.977-.086-1.149-.718a21.77,21.77,0,0,1-.316-3.042c0-.373.057-.661.517-.661.287,0,1.58.144,3.071.144,1.436,0,1.9,0,2.126-.718a32.446,32.446,0,0,0,.833-5.283c.029-.2.057-.316.23-.316A39.321,39.321,0,0,1-82.027-106.243ZM-83.55-88.586c1.178,1.405,3.358,1.724,5.082,1.724a13.865,13.865,0,0,0,4.335-.6,1.032,1.032,0,0,1,.316-.057c.46,0,.517.632.517,1.549v.862c0,1.58,0,1.925-.517,2.068a32.4,32.4,0,0,1-4.852.373c-2.039,0-4.823-.259-6.518-1.494-.457-.345-1.376-1.149-1.376-1.81,0-.488,1.063-1.779,1.408-2.181.23-.259.747-.833,1.089-.833C-83.866-88.989-83.665-88.73-83.55-88.586Zm2.815-8.728a24.486,24.486,0,0,1,6.516.862c.4.115.718.23.718.689a10.136,10.136,0,0,1-.862,3.157.609.609,0,0,1-.546.345,2.473,2.473,0,0,1-.718-.2,12.619,12.619,0,0,0-4.936-.776H-81.6c-.661,0-.862-.086-.862-.6C-82.458-97.314-81.74-97.314-80.735-97.314Zm4.764-7.435c.4.4,2.241,2.209,2.241,2.669,0,.546-1.436,1.58-1.75,1.58-.117,0-.232-.115-.433-.373-.543-.689-1.29-1.551-2.008-2.3-.115-.115-.287-.316-.287-.46,0-.429,1.551-1.405,1.81-1.405C-76.258-105.037-76.057-104.836-75.971-104.749Zm3.16-2.068c.4.373,2.238,2.183,2.238,2.64,0,.517-1.408,1.58-1.721,1.58-.172,0-.345-.23-.431-.342-.747-.948-1.379-1.609-2.183-2.47a.353.353,0,0,1-.144-.287c0-.4,1.465-1.436,1.81-1.436C-73.127-107.134-72.955-106.961-72.811-106.818ZM-88-75.8l.259.086c.46.172.919.345.919.661,0,.144-.086.172-.259.259A1.942,1.942,0,0,0-88.172-73.7a19.337,19.337,0,0,0-1.635,7.751c0,1.06,0,2.008.345,2.008.172,0,.227-.113.428-.546.232-.515.373-.888.661-.888.373,0,1.867.833,1.867,1.264s-1.178,3.445-1.178,5.022c0,.345.086.977.115,1.321a4.284,4.284,0,0,1,.057.6c0,1.063-2.353,1.838-2.956,1.838-.517,0-.8-.259-1.264-1.092a19.2,19.2,0,0,1-2.123-9.5,32.965,32.965,0,0,1,1.405-9.3,6.464,6.464,0,0,0,.23-.948c.115-.776.23-.946.517-.946a25.2,25.2,0,0,1,2.612.917C-88.574-76-88.172-75.854-88-75.8Zm11.773-1.293c.256.031.488.086.488.287a.727.727,0,0,1-.232.4,2.075,2.075,0,0,0-.287,1.379c0,2.154.144,2.727.747,2.727a13.765,13.765,0,0,0,1.695-.342,1.991,1.991,0,0,1,.46-.086c.517,0,.661.687.718,1.089a18.63,18.63,0,0,1,.172,2.212c0,.859-.23.89-2.355,1.178-.373.057-1.092.144-1.092.974,0,.46.031.948.031,1.436a14.3,14.3,0,0,1-3.131,9.762c-.46.6-1.721,2.066-2.5,2.066a1.392,1.392,0,0,1-.747-.314c-.862-.634-2.269-1.752-2.269-2.356,0-.23.117-.4.488-.689.086-.057.115-.086.232-.172,2.928-2.355,3.732-4.852,3.732-8.5v-.517c0-.431-.175-.776-.689-.776-.23,0-1.838.259-2.039.287-.661.086-1.838.287-2.468.287-.689,0-1.063-.172-1.063-2.612,0-1.551.029-1.609,1.063-1.609.572,0,3.33-.144,4.134-.287.428-.086.744-.287.744-.776a32.7,32.7,0,0,0-.8-4.476,2.567,2.567,0,0,1-.057-.46c0-.345.316-.4.6-.4C-80.392-77.374-78.324-77.288-76.227-77.089Zm-8.759,28.01c.376.115.661.23.661.4,0,.115-.084.172-.2.23-.517.287-.575.8-.661,1.319A56.308,56.308,0,0,0-86.1-36.39c0,2.238,0,4.594,2.3,4.594a6.151,6.151,0,0,0,4.62-2.439,9.259,9.259,0,0,0,1.838-4.194c.086-.543.2-1.06.689-1.06.632,0,1.491.776,1.951,1.178.517.457,1.379,1.233,1.379,1.951a10.8,10.8,0,0,1-1.235,3.531A10.2,10.2,0,0,1-83.578-27.2a7.005,7.005,0,0,1-5.542-2.356c-1.434-1.836-1.606-4.879-1.606-7.177,0-3.3.287-6.6.517-9.934.057-.661.086-1.578.086-2.238,0-.632,0-1.005.486-1.005A42.215,42.215,0,0,1-84.986-49.079Zm5.513,2.095c.4.373,2.241,2.212,2.241,2.671,0,.517-1.408,1.578-1.724,1.578-.172,0-.345-.227-.431-.371-.63-.8-1.321-1.551-2.008-2.3-.115-.115-.287-.287-.287-.431,0-.431,1.52-1.436,1.81-1.436C-79.732-47.272-79.559-47.071-79.473-46.985Zm3.189-2.439c.345.316.716.718,1.118,1.149A5.181,5.181,0,0,1-73.989-46.7c0,.488-1.379,1.58-1.692,1.58-.089,0-.232-.086-.433-.345a24.412,24.412,0,0,0-2.066-2.3c-.172-.175-.287-.318-.287-.431,0-.46,1.522-1.436,1.81-1.436A.606.606,0,0,1-76.285-49.424Zm-7.868,30.418a6.573,6.573,0,0,1,.632-1.724c.259-.517.431-.948.89-.948a17.771,17.771,0,0,1,3.1,1.034c.373.144,1.149.46,1.149.948a.977.977,0,0,1-.029.287v.144c0,.23.172.345.4.345.086,0,.316-.029.6-.057a3.885,3.885,0,0,1,.661-.029c2.727,0,4.68,1.606,4.68,4.421,0,4.45-5.341,5.625-6.231,5.625-.948,0-1.666-2.324-1.666-2.726,0-.431.287-.546.661-.6,1.12-.2,3.588-.718,3.588-2.181a1.174,1.174,0,0,0-1.233-1.235,11.974,11.974,0,0,0-4.881,1.867.721.721,0,0,0-.373.661c0,.687,3.215,5.769,3.818,6.66a1.609,1.609,0,0,1,.287.689c0,.632-2.3,1.779-2.9,1.779a.66.66,0,0,1-.575-.373c-.373-.63-2.557-4.852-3.074-5.858-.227-.457-.4-.859-.859-.859-.4,0-1.494,1.005-1.838,1.319a.8.8,0,0,1-.488.259c-.689,0-2.066-2.382-2.066-2.928,0-.287.287-.46.546-.6,1.463-.8,2.152-1.233,2.152-1.807a7.275,7.275,0,0,0-1.321-2.384,1.239,1.239,0,0,1-.4-.687c0-.376.577-.577,1.867-1.063.345-.115.747-.287,1.206-.46a2.052,2.052,0,0,1,.658-.172c.2,0,.433.144.433.345a3.385,3.385,0,0,0-.115.546,4.411,4.411,0,0,0,.429,1.2c.259.574.373.776.8.776a2.409,2.409,0,0,0,.919-.4c.316-.172.517-.287.517-.515a.4.4,0,0,0-.345-.4c-.172-.057-.46-.144-.575-.175C-83.751-18.46-84.153-18.575-84.153-19.006ZM-82.889.9c.345.086.661.2.661.373,0,.144-.2.287-.546.517A5.518,5.518,0,0,0-83.291,3.4a1.258,1.258,0,0,0-.057.232c0,.084-.029.2-.029.314a.4.4,0,0,0,.345.4,2.99,2.99,0,0,0,.632-.172,1.509,1.509,0,0,1,.488-.115c.259,0,.345.144.4.431a27.741,27.741,0,0,1,.287,2.985c0,.661-.4.776-2.643,1.178-1,.172-1.034.373-1.379,1.293-.486,1.319-1.032,2.612-1.606,3.9-.747,1.695-1.522,3.416-2.411,5.053-.23.4-.519.862-.689,1.2-.144.287-.259.431-.632.431-.977,0-3.732-1.2-3.732-1.951a5.056,5.056,0,0,1,.6-1.149c.577-.977,3.706-6.688,3.706-7.406A.454.454,0,0,0-90.5,9.6c-.172,0-.747.057-.948.086-.316.029-.919.086-1.264.086-.6,0-.862-.259-1.063-2.7-.026-.23-.084-.747-.084-1,0-.4.227-.517.575-.517.486,0,1.175.057,1.807.057,2.612,0,2.985-.057,3.272-.8a19.137,19.137,0,0,0,.718-4.45c0-.23,0-.46.2-.46C-86.908-.1-83.463.759-82.889.9Zm3.847,9.015c.488.115.747.316.747.833,0,.287-.057.8-.057,1.319,0,1.436.115,2.844.2,4.249.029.689.172.862.833,1.12.8.316,4.421,2.008,4.421,2.813,0,.634-1.609,2.987-2.528,2.987-.23,0-.632-.259-1.262-.747-.172-.144-.345-.287-.546-.431a.652.652,0,0,0-.46-.172.637.637,0,0,0-.632.488,5.072,5.072,0,0,1-.977,1.35,5,5,0,0,1-3.473,1.092c-2.727,0-5.568-1.321-5.568-4.424,0-2.87,2.525-4.1,5.08-4.1h.23a.635.635,0,0,0,.689-.689c0-.491-.258-3.045-.345-3.9a10.735,10.735,0,0,1-.115-1.35c0-.6.23-.833.862-.833A16.756,16.756,0,0,1-79.042,9.918ZM-84.1,20.4a.969.969,0,0,0,1.063.862c.661,0,.89-.345.89-.948,0-.371-.029-.687-.862-.687C-83.492,19.622-84.1,19.823-84.1,20.4ZM-74.219,6.5c.661.6,2.47,2.324,2.47,2.928,0,.89-2.327,2.87-3.045,2.87-.345,0-.6-.431-.8-.744A18.2,18.2,0,0,0-79.186,7.85c-.23-.172-.517-.373-.517-.6,0-.46,1.838-2.813,2.643-2.813C-76.517,4.434-74.678,6.071-74.219,6.5Zm-6.344,21.951c.488.515.974,1.032,1.463,1.52l.316.316c.575.6,1.666,1.724,1.666,2.04,0,.172-.172.2-.517.2a1.074,1.074,0,0,0-.718.287c-1.235.919-2.382,1.836-3.588,2.813q-1.982,1.637-3.876,3.361a1.394,1.394,0,0,0-.546.946c0,.488.689,1.235,1.175,1.75a2.633,2.633,0,0,0,.261.29c1.606,1.606,3.3,3.129,4.993,4.649.919.8,2.355,2.126,2.355,2.729,0,.89-2.585,3.3-3.387,3.3-.172,0-.517-.259-.89-.718a81.448,81.448,0,0,0-5.628-5.97,35.629,35.629,0,0,1-3.186-3.476,4.446,4.446,0,0,1-1.005-2.755,3.6,3.6,0,0,1,.661-2.152,27.13,27.13,0,0,1,3.99-3.619,35.528,35.528,0,0,0,5.455-5.338c.144-.2.287-.431.517-.431A.749.749,0,0,1-80.562,28.453Zm-13.925,35.44a19.329,19.329,0,0,1-.46-3.071c0-.89.4-.89,1.922-.977,4.223-.23,8.414-.632,12.632-1.149,2.068-.256,4.366-.543,6.432-.917a.8.8,0,0,1,.258-.029c.517,0,.661.488.747.946a24.036,24.036,0,0,1,.345,3.189c0,.546-.345.546-1.522.575a11.8,11.8,0,0,0-4.134.517,8.891,8.891,0,0,0-5.915,8.381c0,2.729,1.408,3.476,3.933,3.476.747,0,1.666-.086,2.1-.086.517,0,.718.086.718.632a12.656,12.656,0,0,1-.488,3.358c-.259.6-.6.661-1.206.661-5.338,0-9.791-1.379-9.791-7.581A12.023,12.023,0,0,1-86.563,64.7a1.275,1.275,0,0,0,.287-.632c0-.259-.2-.431-.517-.431a13.249,13.249,0,0,0-1.549.259c-1.522.287-3.476.718-4.969,1.149a2.22,2.22,0,0,1-.428.057C-94.228,65.1-94.4,64.3-94.487,63.893Zm23.77,24.192c0,.831-2.066,3.043-2.87,3.043-.287,0-.46-.259-.632-.488a20.133,20.133,0,0,0-4.565-4.105c-.172-.115-.431-.316-.431-.517,0-.546,2.1-2.784,2.7-2.784C-75.94,83.233-70.717,87.367-70.717,88.085Zm-15.761,15.251a17.073,17.073,0,0,1,2.011,1.149.305.305,0,0,1,.141.259.342.342,0,0,1-.227.287,1.557,1.557,0,0,0-.747.8,50.785,50.785,0,0,1-5.513,8.354c-.431.517-2.04,2.468-2.614,2.468-.486,0-3.56-1.807-3.56-2.554a.749.749,0,0,1,.259-.488,33.794,33.794,0,0,0,7.466-10.681c.115-.314.227-.6.486-.6A11.258,11.258,0,0,1-86.477,103.336Zm8.843-.026a30,30,0,0,1,2.7,3.445c.747,1.092,3.792,5.855,3.792,6.947,0,.6-1.35,1.293-1.838,1.551a6.718,6.718,0,0,1-2.1.8c-.4,0-.546-.371-.658-.687a43.664,43.664,0,0,0-5.455-9.36,1.094,1.094,0,0,1-.316-.661c0-.46,1.06-1.175,1.463-1.436a4.123,4.123,0,0,1,1.666-.888A1.136,1.136,0,0,1-77.635,103.309Zm5.369.342c0,.519-1.35,1.637-1.695,1.637-.144,0-.23-.144-.316-.259q-1.077-1.25-2.241-2.411a.509.509,0,0,1-.256-.373c0-.4,1.494-1.465,1.75-1.465C-74.736,100.781-72.265,103.192-72.265,103.652Zm3.014-2.382c0,.517-1.35,1.637-1.666,1.637-.144,0-.287-.175-.4-.316-.687-.8-1.434-1.609-2.209-2.355a.472.472,0,0,1-.23-.345c0-.431,1.465-1.494,1.752-1.494C-71.748,98.4-69.252,100.81-69.252,101.27Zm-11.2,42.188c0,.776.031,1.551.031,2.327,0,.517.026,1.063.026,1.606,0,.89-.486.919-1.922.919h-1.178c-1.35,0-1.551-.172-1.551-.833,0-1.29.057-2.583.057-3.876v-6.4c0-.431-.141-.718-.515-.718a1.933,1.933,0,0,0-.833.431c-.776.546-4.737,3.186-5.4,3.186s-3.358-2.64-3.358-3.387c0-.316.345-.431.6-.517a40.368,40.368,0,0,0,5.6-2.987,34.364,34.364,0,0,0,7.323-6.2,29.587,29.587,0,0,0,2.64-3.588c.057-.144.172-.345.373-.345.431,0,2.841,1.75,3.7,2.382.345.261.575.546.575.718,0,.2-.2.259-.373.316a1.814,1.814,0,0,0-1.032.488c-.692.689-1.953,2.269-4.108,4.45a1.889,1.889,0,0,0-.661,1.465Zm-2.439,28.41c0,.948.029,1.9.029,2.873,0,1.376-.086,1.494-1.951,1.494H-86.1c-1.149,0-1.494-.146-1.494-.893,0-1.147.057-2.267.057-3.416V155.36c0-1.175-.057-2.669-.057-3.56,0-.373.057-.546.46-.546a42.618,42.618,0,0,1,4.421.575c.172.057.316.172.316.345a.5.5,0,0,1-.172.345,1.489,1.489,0,0,0-.316,1.032v5.57c0,.144.029.4.345.4.172,0,.345-.115.488-.115a2.964,2.964,0,0,1,1.063.46c.919.575,2.095,1.494,2.468,1.781a34.935,34.935,0,0,1,2.643,2.324.753.753,0,0,1,.2.46c0,.575-2.1,2.9-2.758,2.9-.259,0-.546-.285-.718-.46-.488-.46-2.841-2.583-3.3-2.583-.4,0-.431.4-.431.689Zm1.436,8.055c.259.115.46.256.46.457,0,.175-.117.232-.259.29-.46.2-.689.314-1.034,1.376l-.517,1.58a1.2,1.2,0,0,0-.115.46c0,.575.4.687,1.321.747.687.057,1.379.084,2.066.084.546,0,.891,0,.891.634a13.222,13.222,0,0,1-.431,2.554c-.2.747-.345,1-.776,1a30.539,30.539,0,0,1-3.56-.371.56.56,0,0,0-.23-.029c-.661,0-.773.543-.89,1.092l-.057.227a2.772,2.772,0,0,0-.057.46c0,.747.776.776,2.844.776.776,0,1.235.029,1.235.517a10.164,10.164,0,0,1-.517,2.758c-.2.6-.4.917-1.092.917a23.114,23.114,0,0,1-2.382-.258.494.494,0,0,0-.2-.029c-.6,0-.661.575-.661.919v.172a3.919,3.919,0,0,0,.4,1.867,3.085,3.085,0,0,0,2.727,1.29,6.817,6.817,0,0,0,3.1-.687,2.078,2.078,0,0,0,.919-1.867,14.162,14.162,0,0,0-.862-4.048,1.961,1.961,0,0,1-.144-.661c0-.373.2-.517,1.034-.862a10.155,10.155,0,0,1,2.413-.6c.515,0,.658.517.946,1.436a17.233,17.233,0,0,1,.919,5.111,5.472,5.472,0,0,1-2.557,4.91,11.041,11.041,0,0,1-5.855,1.52c-4.938,0-7.493-2.87-7.493-7.722,0-.345.084-1.2.084-1.262,0-.634-.457-.778-.859-.919-1.9-.661-2.269-.89-2.269-1.408a9.448,9.448,0,0,1,.4-1.953c.2-.747.4-1.578,1.034-1.578a1.622,1.622,0,0,1,.833.345,2.934,2.934,0,0,0,1.235.517c.227,0,.515-.117.661-.718a7.38,7.38,0,0,0,.2-.919c0-.517-.347-.747-.776-.919-2.355-.862-2.47-1.175-2.47-1.609,0-.6.689-3.5,1.522-3.5a2.269,2.269,0,0,1,1.032.517,5.589,5.589,0,0,0,1.522.747c.46,0,.6-.345.718-.776.23-.8.661-2.238.948-3.358.115-.46.144-.632.4-.632A39.945,39.945,0,0,1-81.453,179.923Zm-14.04,37.626c0-.632,0-.689-.6-1.149-.316-.23-.89-.689-.89-1.12,0-.287.373-.632.546-.833a21.652,21.652,0,0,0,4.393-7.378c.057-.23.115-.431.4-.431.144,0,2.267.689,2.612.8,1.034.316,1.522.46,1.522.8,0,.23-.144.316-.345.373-.172.057-.345.141-.345.342s.2.232.546.232h.833c.23,0,.632-.031.89-.031a4.243,4.243,0,0,1,.575-.057c.488,0,.689.29,1.032.661.23.259.546.575.546.919a10.6,10.6,0,0,1-1.147,2.384,1.078,1.078,0,0,0-.23.6c0,.259.2.371.431.428.63.144.8.517.8,1.12,0,.574-.057,1.149-.057,1.752v2.87c0,.776.057,1.494.057,2.1,0,.946-.744,1.032-1.233,1.089-.546.057-.661.4-.661.862v3.272c0,1.034.029,1.379,1.118,1.379h8.759a1.921,1.921,0,0,0,1.262-.287,1.681,1.681,0,0,0,.345-.8.212.212,0,0,0-.23-.232,16.517,16.517,0,0,1-2.525.232c-1.436,0-1.752-.117-1.953-.634a5.645,5.645,0,0,1-.316-1.865c0-.862.172-1.436.977-1.436.488,0,.977.086,1.463.086.778,0,.919-.057,1.12-1.2a61.7,61.7,0,0,0,.345-6.633c0-.89-.084-1.005-.974-1.005-.977,0-.977.431-1.034,1.063a24.391,24.391,0,0,1-2.844,9.819,12.762,12.762,0,0,1-1.175,1.75.87.87,0,0,1-.632.287c-.8,0-2.9-1.434-2.9-2.267a1.068,1.068,0,0,1,.287-.632,14.531,14.531,0,0,0,2.87-6.174,19.716,19.716,0,0,0,.46-3.1.63.63,0,0,0-.718-.689c-.172,0-.345.029-.546.029-.661,0-.747-.259-.747-1.034V212.15c0-.8.057-1.092.747-1.092h.6c.546,0,.718-.4.718-.862v-.259c0-1.089-.057-2.382-.057-2.583,0-.46.259-.546.661-.546.428,0,3.5.172,3.789.259a.383.383,0,0,1,.345.4c0,.172-.172.287-.345.373-.373.2-.4.4-.4,1.235V210.2c0,.632.259.919.919.919h.314c.862,0,1.724-.086,2.585-.086,1.781,0,2.066.632,2.066,2.3,0,2.87-.2,9.558-1.147,12.086a.625.625,0,0,0-.057.287c0,.345.316.457.575.546.658.2,1.635.689,1.635,1.491a8.761,8.761,0,0,1-1.376,3.56,3.08,3.08,0,0,1-2.729,1.12H-85.845c-2.554,0-3.761-.172-3.761-3.042,0-.517.026-1.034.026-1.551v-2.784c0-.316-.026-.431-.227-.431a.62.62,0,0,0-.6.546,19.56,19.56,0,0,1-2.525,6.545c-.232.345-.747,1.149-1.206,1.149-.776,0-2.844-1.408-2.844-2.1,0-.141.144-.285.259-.4a12.341,12.341,0,0,0,2.93-6.774c0-.546-.345-.515-.776-.574a1,1,0,0,1-.977-1.089c0-.689.057-1.379.057-2.068Zm3.761,2.3a.471.471,0,0,0,.46-.46v-1.695a.454.454,0,0,0-.46-.46h-.086a.454.454,0,0,0-.46.46v1.695a.472.472,0,0,0,.46.46Zm2.152,3.646a.453.453,0,0,0-.457-.46H-91.1c-.172,0-.345,0-.345.144s.259.23.718.373c.23.057.46.144.747.23a.521.521,0,0,0,.2.057c.089,0,.2-.057.2-.259Zm-.17-11.081c-.948,0-1.436,1.379-1.436,1.434,0,.259.23.29.546.29h.287c.572,0,.716-.057,1.063-.6a2.365,2.365,0,0,0,.4-.919c0-.2-.2-.2-.546-.2Zm1.893,7.435a.472.472,0,0,0,.46-.46v-1.695a.454.454,0,0,0-.46-.46H-88a.454.454,0,0,0-.46.46v1.695a.471.471,0,0,0,.46.46Zm-2.727,28.668c.632,0,1.293-.029,1.951-.029,1.58,0,1.609.948,1.609,2.209a29.884,29.884,0,0,1-.89,7.495A4.317,4.317,0,0,1-89.663,261a6.954,6.954,0,0,1-3.131.632c-1.147,0-1.58-.086-1.836-1.005a7.789,7.789,0,0,1-.316-2.152c0-.575.057-1.321.8-1.321.371,0,1.005.057,1.376.057,1.149,0,1.264-.115,1.436-.948a17.14,17.14,0,0,0,.345-3.186c0-.661-.345-.8-.948-.8a.649.649,0,0,0-.6.4c-.144.316-.919.316-1.235.316-.658,0-2.439,0-2.439-.948,0-.2.057-.6.086-.833.2-1.635.718-7.205.776-7.981.086-1.118.8-1.149,2.037-1.149.546,0,1.092.031,1.637.031.661,0,.948-.373.948-.776v-.488a.8.8,0,0,0-.8-.8h-1.75c-.6,0-1.264.057-1.58.057-.689,0-.747-.287-.747-1.178v-1.376c0-1.149.057-1.379.776-1.379.345,0,.776.086,1.551.086h3.129c.6,0,1.206-.086,1.836-.086.718,0,1.379.115,1.379,1.005,0,1.034-.057,2.066-.057,3.1v2.841c0,.919.057,1.81.057,2.7,0,.718-.316.776-1.35.776h-.948c-1.089,0-1.348,0-1.52-.433a.372.372,0,0,0-.373-.256c-.373,0-.632.086-.689.515-.029.259-.115,1.35-.115,1.551a.522.522,0,0,0,.517.546Zm8.958,8.527c.773-.057,1.032-.2,1.032-1.034v-.974a.452.452,0,0,0-.457-.46h-.172c-.316,0-.632.057-.632.46v.112c0,.488-.287.546-.776.546h-1.752c-1.063,0-1.262-.086-1.262-.917,0-.46.029-1.637.029-2.47v-3.358c0-.747-.029-1.465-.029-2.209,0-.977.488-1.034,1.319-1.034.919,0,1.838.029,2.758.029h.256a.705.705,0,0,0,.718-.689c0-.517,0-1.12-.6-1.12-.086,0-3.074.259-3.473.287a.569.569,0,0,0-.345.287c-.115.115-.232.287-.433.287-.256,0-.371-.287-.429-.517-.086-.373-.575-3.272-.575-3.531s.115-.373.4-.373h.23c.259,0,.89,0,1.319-.029.575-.029.833-.086,1.063-.6a24.517,24.517,0,0,0,1.149-3.56c.086-.4.172-.747.431-.747s2.181.4,2.554.488c1.178.259,2.011.431,2.011.833,0,.287-.259.4-.689.517a.459.459,0,0,0-.373.259c-.057.086-.172.287-.316.546a17.6,17.6,0,0,0-1.005,1.836c0,.259.23.345.431.345.6,0,1.867-.057,2.614-.086.4-.029.546-.115.546-.345a4.158,4.158,0,0,0-.546-1.063,1.17,1.17,0,0,1-.23-.517c0-.6,2.468-1.147,2.956-1.147a.7.7,0,0,1,.689.4,27.432,27.432,0,0,1,1.465,2.7,19.265,19.265,0,0,1,1.376,3.387c0,.977-2.411,1.522-2.841,1.522-.6,0-.747-.4-.919-.919-.144-.46-.23-.776-.776-.776-.086,0-1.149.086-1.29.115-.144,0-.287,0-.287.086s.057.086.113.086c.175.029.347.115.347.287,0,.259-.29.4-.46.546a.6.6,0,0,0-.259.546.668.668,0,0,0,.661.661h.371c.919,0,1.867-.029,2.786-.029.744,0,1.29.057,1.29.974,0,.747-.029,1.522-.029,2.269v2.384c0,.773.029,1.52.029,2.267,0,.888-.457,1.005-1.233,1.005-.948,0-1.9-.029-2.844-.029h-.63a.472.472,0,0,0-.46.46v1a.589.589,0,0,0,.6.661c.259,0,.486-.057.486-.373a.764.764,0,0,0-.113-.373.455.455,0,0,1-.031-.2c0-.572,2.729-.946,3.16-.946.546,0,.773.687,1.551,2.727a19.238,19.238,0,0,1,.859,2.755c0,.8-2.87,1.321-3.157,1.321-.575,0-.661-.546-.776-1.034a.723.723,0,0,0-.747-.632c-.086,0-.773.086-2.066.23-2.758.287-7.294.747-8.012.8-.371.029-.457.115-.572.4s-.2.4-.4.4c-.4,0-.488-.46-.747-1.807-.115-.661-.4-2.3-.4-2.442,0-.259.144-.287,1.494-.316C-84.668,257.182-82.573,257.1-81.625,257.038Zm.287-7.981a.545.545,0,0,0-.546.546v1.063a.545.545,0,0,0,.546.543h.2a.543.543,0,0,0,.543-.543V249.6a.543.543,0,0,0-.543-.546Zm5.111,0a.552.552,0,0,0-.575.546v1.063a.571.571,0,0,0,.575.543h.287a.57.57,0,0,0,.572-.543V249.6a.57.57,0,0,0-.572-.546Zm-5.226,16.352c.259.115.46.259.46.46,0,.172-.117.23-.259.287-.46.2-.689.316-1.034,1.379l-.517,1.577a1.2,1.2,0,0,0-.115.46c0,.575.4.689,1.321.747.687.057,1.379.086,2.066.086.546,0,.891,0,.891.632a13.191,13.191,0,0,1-.431,2.554c-.2.747-.345,1.005-.776,1.005a30.553,30.553,0,0,1-3.56-.373.56.56,0,0,0-.23-.029c-.661,0-.773.546-.89,1.092l-.057.23a2.74,2.74,0,0,0-.057.46c0,.747.776.776,2.844.776.776,0,1.235.026,1.235.517a10.164,10.164,0,0,1-.517,2.755c-.2.6-.4.919-1.092.919a23.78,23.78,0,0,1-2.382-.259.5.5,0,0,0-.2-.029c-.6,0-.661.572-.661.917v.172a3.919,3.919,0,0,0,.4,1.867,3.081,3.081,0,0,0,2.727,1.293,6.789,6.789,0,0,0,3.1-.689,2.078,2.078,0,0,0,.919-1.867,14.162,14.162,0,0,0-.862-4.048,1.949,1.949,0,0,1-.144-.661c0-.371.2-.515,1.034-.862a10.257,10.257,0,0,1,2.413-.6c.515,0,.658.517.946,1.436a17.231,17.231,0,0,1,.919,5.108,5.472,5.472,0,0,1-2.557,4.91,11.021,11.021,0,0,1-5.855,1.522c-4.938,0-7.493-2.873-7.493-7.725,0-.342.084-1.2.084-1.262,0-.632-.457-.776-.859-.919-1.9-.661-2.269-.891-2.269-1.408a9.427,9.427,0,0,1,.4-1.951c.2-.747.4-1.58,1.034-1.58a1.622,1.622,0,0,1,.833.345,2.9,2.9,0,0,0,1.235.517c.227,0,.515-.115.661-.718a7.379,7.379,0,0,0,.2-.919c0-.515-.347-.747-.776-.917-2.355-.862-2.47-1.178-2.47-1.609,0-.6.689-3.5,1.522-3.5a2.269,2.269,0,0,1,1.032.517,5.641,5.641,0,0,0,1.522.744c.46,0,.6-.342.718-.773.23-.8.661-2.241.948-3.361.115-.46.144-.63.4-.63A39.915,39.915,0,0,1-81.453,265.41Zm7.895,33.489a5.919,5.919,0,0,1,1.494,4.019c0,3.5-2.528,5.513-5.6,6.576a10.181,10.181,0,0,1-2.411.572c-.519,0-.8-.486-1.379-1.578a5.036,5.036,0,0,1-.6-1.781c0-.4.259-.515.546-.572,1.836-.287,5.053-1.034,5.053-3.129a1.729,1.729,0,0,0-1.838-1.752c-2.011,0-4.91,1.52-6.631,2.554a.9.9,0,0,0-.575.776,1.3,1.3,0,0,0,.256.718c1.522,2.784,3.1,5.539,4.852,8.211a1.981,1.981,0,0,1,.4.862c0,.658-2.87,2.152-3.56,2.152-.316,0-.488-.172-.8-.747-.548-.948-1.149-2.152-1.695-3.215-.833-1.58-1.695-3.157-2.5-4.737-.2-.373-.4-.747-.893-.747-.428,0-2.181,1.551-2.583,1.925a1.039,1.039,0,0,1-.517.287c-.689,0-2.5-2.93-2.5-3.617,0-.259.144-.345,1.2-1.005.433-.287,1.005-.632,1.781-1.12.345-.23.661-.46.661-.89A13.975,13.975,0,0,0-93.4,299.1c-.232-.287-.376-.46-.376-.661,0-.316.8-.6,1.953-1.032a21.769,21.769,0,0,1,2.727-.977c.172,0,.373.115.373.287a2.21,2.21,0,0,1-.115.431.677.677,0,0,0-.057.227,16.541,16.541,0,0,0,.948,2.47.734.734,0,0,0,.718.431,2.827,2.827,0,0,0,1.178-.488q.345-.215.776-.431c.46-.23.63-.316.63-.6,0-.4-.859-.632-2.3-1.063-.287-.084-.661-.2-.661-.6a6.58,6.58,0,0,1,.661-1.81c.546-1.12.747-1.494,1.149-1.494a23.662,23.662,0,0,1,3.5,1.149c.8.316,1.867.8,1.867,1.264,0,.345-.2.689-.2.919a.41.41,0,0,0,.428.373,1.576,1.576,0,0,0,.376-.06,13.492,13.492,0,0,1,1.491-.112C-76.859,297.321-74.678,297.692-73.558,298.9Zm-12.316,24.189c.4.172.546.287.546.488,0,.172-.086.2-.23.256a2.714,2.714,0,0,0-1.264,1.695,13.753,13.753,0,0,0-.919,4.278c0,.175,0,.488.259.488.172,0,.287-.144.46-.546.144-.316.316-.687.632-.687.287,0,1.606.831,1.606,1.29a1.51,1.51,0,0,1-.115.488c-.658,1.609-1.721,4.22-1.721,5.855v.721c0,.658-.6.948-1.149,1.149a4.989,4.989,0,0,1-1.692.371c-.89,0-1.149-.661-1.379-1.35a24,24,0,0,1-.977-6.861,29.348,29.348,0,0,1,.689-6.317c.172-.744.373-1.52.546-2.3.115-.488.172-.833.431-.833A33.052,33.052,0,0,1-85.874,323.088Zm6.832-2.095a14.371,14.371,0,0,1,2.183-.347c.543,0,.661.2.833.919a40.611,40.611,0,0,1,.917,8.756c0,4.938-.831,9.187-4.364,12.891-.543.574-1.75,1.81-2.554,1.81-.46,0-1.293-.776-1.637-1.092-.718-.661-1.321-1.2-1.321-1.692,0-.175.117-.316.488-.577a10.655,10.655,0,0,0,3.706-4.278,15.19,15.19,0,0,0,1.2-6.573,35.986,35.986,0,0,0-1.063-8.555,2.37,2.37,0,0,1-.026-.431C-80.677,321.364-80.306,321.249-79.042,320.993ZM-93.8,367.548a1.059,1.059,0,0,0,.371-.948v-3.761c0-.517-.17-.977-.773-.977-.259,0-.948.057-1.264.057-.661,0-.747-.314-.747-1.06v-1.81c0-.776.086-1.092.718-1.092.431,0,1.092.086,1.721.086h1.063c.632,0,1.206-.057,1.752-.057.948,0,1.721.318,1.721,1.379,0,.689-.084,1.494-.084,2.554v4.335c0,1.12,0,2.327,1.147,2.873a9.705,9.705,0,0,0,3.387.431h.546c1.35.055,2.671.055,3.99.055,2.3,0,4.567-.029,6.834-.141.46-.029,1.867-.144,2.152-.144.689,0,.689.517.689,1.175,0,2.671-.632,2.784-2.612,2.784h-6.375c-1.836,0-3.646-.026-5.484-.112a16.756,16.756,0,0,1-3.99-.491,3.259,3.259,0,0,1-2.037-1.491.446.446,0,0,0-.431-.258.468.468,0,0,0-.345.146c-.316.287-1.491,1.147-1.893,1.4-.546.376-.575.433-.661.778a.5.5,0,0,1-.488.373c-.373,0-.4-.261-.517-.548-.345-.917-.632-1.836-.977-2.755a4.943,4.943,0,0,1-.345-1.235c0-.4.345-.488.8-.6.115-.055.287-.084.431-.141A13.215,13.215,0,0,0-93.8,367.548Zm.316-19.294c.2,0,.371.144.63.4.086.06.172.175.287.261.718.687,1.551,1.577,2.212,2.353.057.057.115.144.2.23.4.517,1.149,1.434,1.149,1.81,0,.543-1.953,2.095-2.671,2.095-.259,0-.345-.175-.575-.431a35.167,35.167,0,0,0-3.646-4.077.419.419,0,0,1-.2-.373C-96.1,350.006-94.085,348.254-93.482,348.254ZM-76.974,364.3a.844.844,0,0,0-.948.778c0,.8.057,1.635.057,2.468,0,.745-.259.8-1.12.8h-1.609c-.917,0-1.175-.06-1.175-.8,0-.833.057-1.637.057-2.468a.772.772,0,0,0-.833-.778h-.115a.822.822,0,0,0-.89.778c0,.946.057,1.894.057,2.841,0,.687-.314.747-1.118.747h-1.58c-.862,0-1.178-.06-1.178-.747,0-1.149.057-2.267.057-3.387v-6.229c0-1.036-.057-1.956-.057-2.614,0-1.063.8-1.178,1.666-1.178.833,0,1.695.057,2.525.057.115,0,.345,0,.345-.144,0-.23-.488-.373-1.092-.575-.115-.026-.259-.086-.373-.115-.63-.227-1.149-.345-1.149-.744a2.7,2.7,0,0,1,.661-1.178.466.466,0,0,0,.144-.261c0-.2-.17-.256-.314-.256-.517,0-1.034.055-1.58.055-1.034,0-1.12-.2-1.12-1v-.977c0-.718.115-.89,1.12-.89,1.063,0,2.126.057,3.186.057h7.09c.8,0,1.609-.026,2.413-.026a1.913,1.913,0,0,1,1.922,1.606c0,.6-1.376,1.465-1.865,1.781-.632.4-1.894,1.147-2.528,1.491a.568.568,0,0,0-.371.46c0,.23.259.316.488.46a1.92,1.92,0,0,0,1.06.23c.546,0,1.092-.029,1.637-.029.862,0,1.666.115,1.666,1.178,0,.744-.057,1.635-.057,2.614v5.166c0,.744.029,1.463.029,2.183,0,1.06-.06,1.836-1.034,2.468a5.975,5.975,0,0,1-2.841.517c-.747,0-1.551-.086-1.551-2.5,0-.457.057-1.147.689-1.147.2,0,.428.057.6.057s.287-.086.287-.373c0-.2-.17-.376-.546-.376Zm-4.709-6.516a.4.4,0,0,0-.373-.371h-1.12a.378.378,0,0,0-.373.371v.117a.361.361,0,0,0,.373.371h1.12a.361.361,0,0,0,.373-.371Zm-1.494,3.129a.364.364,0,0,0-.373.376v.115a.38.38,0,0,0,.373.373h1.12a.38.38,0,0,0,.373-.373v-.115a.364.364,0,0,0-.373-.376Zm1.494-9.616c-.172,0-.345,0-.345.141s.259.232.689.4c.2.06.486.175.776.287a.5.5,0,0,0,.287.06,1.175,1.175,0,0,0,.716-.316c.115-.086.488-.318.488-.46,0-.115-.431-.115-.8-.115Zm5.6,6.975a.36.36,0,0,0,.371-.371v-.117a.376.376,0,0,0-.371-.371h-1.465a.378.378,0,0,0-.373.371v.117a.362.362,0,0,0,.373.371Zm0,3.5a.4.4,0,0,0,.371-.373v-.115a.362.362,0,0,0-.371-.376h-1.465a.364.364,0,0,0-.373.376v.115a.38.38,0,0,0,.373.373Zm-8.871,16.752c.23.055.63.172.63.4a.272.272,0,0,1-.2.227c-.46.261-.517.6-.661,1.321A54.073,54.073,0,0,0-86.1,391.22c0,2.267,0,4.594,2.3,4.594a6.146,6.146,0,0,0,4.62-2.442,9.373,9.373,0,0,0,1.838-4.163c.115-.575.2-1.089.689-1.089.632,0,1.491.773,1.951,1.175.517.46,1.379,1.235,1.379,1.951a10.792,10.792,0,0,1-1.235,3.533,10.2,10.2,0,0,1-9.015,5.625,7.011,7.011,0,0,1-5.542-2.353c-1.434-1.836-1.606-4.881-1.606-7.177,0-3.3.287-6.832.517-9.932.057-.6.086-1.582.086-2.241,0-.634,0-1.005.486-1.005C-88.976,377.7-85.874,378.329-84.955,378.53Zm2.123,25.855c.546.141,1.408.4,1.408.689,0,.141-.172.227-.287.285-.4.2-.517.661-.776,1.609-.057.258-.144.574-.259.946a2.464,2.464,0,0,0-.057.261.49.49,0,0,0,.546.515,12.3,12.3,0,0,0,2.324-.744,2.469,2.469,0,0,1,.718-.2c.776,0,.776,2.841.776,3.7,0,.4-.115.575-.575.718-1.149.373-2.985.8-4.105,1.032-1.233.261-1.321.287-1.666,1.321A82.671,82.671,0,0,1-90.3,427.211c-.23.371-.4.687-.89.687s-3.473-1.29-3.473-2.154a2.685,2.685,0,0,1,.575-1.118,45.31,45.31,0,0,0,4.706-9.446,1.891,1.891,0,0,0,.2-.661c0-.4-.314-.488-.63-.488-.575,0-1.264.086-1.9.086-.6,0-.977-.086-1.149-.718a21.733,21.733,0,0,1-.316-3.042c0-.373.057-.661.517-.661.287,0,1.58.144,3.071.144,1.436,0,1.9,0,2.126-.718a31.636,31.636,0,0,0,.833-5.281c0-.172.057-.318.23-.318C-86.018,403.522-83.349,404.24-82.832,404.386ZM-83.55,422.3c1.178,1.408,3.358,1.724,5.082,1.724a13.865,13.865,0,0,0,4.335-.6,1.033,1.033,0,0,1,.316-.057c.46,0,.517.632.517,1.551v.859c0,1.58,0,1.925-.517,2.068a33.534,33.534,0,0,1-4.852.373c-2.039,0-4.823-.258-6.518-1.491-.457-.347-1.376-1.151-1.376-1.81,0-.488,1.063-1.779,1.408-2.181.23-.261.747-.835,1.089-.835C-83.866,421.9-83.665,422.155-83.55,422.3Zm2.815-8.728a25.369,25.369,0,0,1,6.516.862c.4.115.718.232.718.689a10.118,10.118,0,0,1-.862,3.157.609.609,0,0,1-.546.345,2.473,2.473,0,0,1-.718-.2,12.617,12.617,0,0,0-4.936-.773H-81.6c-.661,0-.862-.089-.862-.6C-82.458,413.746-81.884,413.571-80.735,413.571Zm-8.01,22.38c.285.057.6.144.6.4,0,.117-.086.2-.287.347a2.037,2.037,0,0,0-.546,1.262,21.167,21.167,0,0,0-.371,4.022,13.343,13.343,0,0,0,1.032,5.51c.23.488.747,1.405,1.379,1.405.661,0,1.321-1.175,1.58-1.635.2-.345.457-.718.89-.718.859,0,2.985,1.637,2.985,2.327s-1.321,2.209-1.81,2.755c-1.005,1.12-2.008,2.066-3.588,2.066-1.922,0-3.56-1.405-4.622-2.9-2.126-2.985-2.327-7.177-2.327-10.707,0-.546.115-4.019.146-4.421.029-.316.17-.46.488-.46C-92.823,435.2-89.462,435.807-88.744,435.95Zm10.506-.919c.776,0,3.043,1.779,4.306,3.818a15.662,15.662,0,0,1,2.126,5.886c.057.457.141,1.149.141,1.491,0,.6-.141.862-.718,1.034a9.886,9.886,0,0,1-2.727.488c-1.063,0-1.089-.373-1.175-1.463-.259-3.447-1.465-6.176-4.192-8.127a.584.584,0,0,1-.287-.488C-80.763,437.011-79.1,435.031-78.238,435.031Zm-16.019,41.357A103.363,103.363,0,0,1-87.569,463.5c1.206-1.865,2.5-3.734,3.617-5.657.086-.172.172-.316.4-.316a15.231,15.231,0,0,1,2.557,1.724l.373.287c.546.4.859.658.859.917s-.172.376-.4.431c-.747.146-.747.287-1.319,1.005a42.184,42.184,0,0,0-2.985,4.163,1.075,1.075,0,0,0-.2.46.427.427,0,0,0,.371.373,2.174,2.174,0,0,0,.46-.086,4.389,4.389,0,0,1,1.034-.115c2.5,0,4.077,1.293,4.077,3.847a27.7,27.7,0,0,1-.689,4.28,6.217,6.217,0,0,0-.144,1.089c0,.287.144.575.488.575,1.005,0,3.7-3.246,4.364-4.105.488-.632.747-.948,1.12-.948.575,0,1.922,3.042,1.922,3.56,0,.546-1.893,2.3-2.353,2.727-1.752,1.582-3.9,3.246-6.375,3.246-2.324,0-3.3-1.953-3.3-4.022a18.5,18.5,0,0,1,.4-3.327A15.564,15.564,0,0,0-83,471.479c0-.488-.172-.8-.689-.8a5.014,5.014,0,0,0-2.181.689,6.17,6.17,0,0,0-2.5,2.643,29.413,29.413,0,0,0-2.468,5.884c-.115.431-.23.862-.747.862A10.465,10.465,0,0,1-94.6,479.6c-.488-.259-.8-.4-.8-.661A26.292,26.292,0,0,1-94.257,476.389Zm-.8,13.882c0-.89.316-.919,3.473-1.091.575-.029,1.235-.057,2.04-.113,3.617-.232,11.943-1.18,15.445-1.838a1,1,0,0,1,.287-.031c.517,0,.6.4.718.95a20,20,0,0,1,.373,3.186c0,.543-.316.543-1.551.572a11.748,11.748,0,0,0-4.105.517,8.926,8.926,0,0,0-5.944,8.385c0,2.726,1.436,3.473,3.962,3.473.718,0,1.666-.086,2.068-.086.546,0,.747.086.747.632a13.011,13.011,0,0,1-.488,3.358c-.23.575-.632.658-1.235.658-5.312,0-9.762-1.376-9.762-7.579a12.031,12.031,0,0,1,2.47-7.32.809.809,0,0,0,.172-.431c0-.256-.2-.431-.517-.431a10.291,10.291,0,0,0-1.551.261c-1.52.285-3.5.718-5,1.147a1.916,1.916,0,0,1-.4.057c-.6,0-.8-1.29-.948-2.181A15.656,15.656,0,0,1-95.061,490.27ZM-76,495.036a12.677,12.677,0,0,1,1.953,2.815c0,.572-1.551,1.463-1.836,1.463-.144,0-.2-.086-.575-.661-.546-.833-1.12-1.58-1.752-2.384a.481.481,0,0,1-.144-.314c0-.4,1.609-1.264,1.925-1.264C-76.285,494.692-76.115,494.893-76,495.036Zm5.714,1.06c0,.575-1.52,1.494-1.838,1.494-.2,0-.342-.256-.429-.4a22.342,22.342,0,0,0-1.838-2.5.9.9,0,0,1-.23-.431c0-.373,1.58-1.264,1.925-1.264A10.9,10.9,0,0,1-70.286,496.1Zm-10.624,16.984c.232.029.661.115.661.316,0,.086-.084.172-.2.258a1.184,1.184,0,0,0-.46.859c-.026.29-.055.893-.055,1.321,0,.747.029,1.206.89,1.206,2.267,0,4.536-.287,6.8-.287.431,0,.8.029.8,2.04a12.113,12.113,0,0,1-.172,2.152c-.086.23-.172.345-.431.345-.144,0-3.246-.2-4.134-.23-.948-.029-1.925-.029-2.9-.029a.763.763,0,0,0-.831.859v.692a2.548,2.548,0,0,0,.4,1.58,9.462,9.462,0,0,1,.773,3.875c0,4.622-3.186,10.219-4.649,10.219a7.859,7.859,0,0,1-2.327-.776c-.8-.342-1.465-.658-1.465-1.06,0-.261.373-.6.6-.8.546-.517,1.925-1.81,1.925-2.267,0-.318-.259-.376-.517-.376-2.643-.057-3.648-3.042-3.648-5.254,0-2.554,1.178-5.312,3.964-5.829.2-.026.546-.055.546-.314,0-.144-.117-.287-.373-.287-.316,0-2.413.23-2.873.287-.687.086-4.706.747-5.281.891a4.255,4.255,0,0,1-.519.086c-.457,0-.6-.663-.744-2.384-.086-.948-.115-1.606-.115-1.838,0-.431.144-.486.833-.517,2.612-.115,5.2-.314,7.493-.428.747-.029,1.408-.086,1.408-1.034a22.67,22.67,0,0,0-.259-3.131.786.786,0,0,1-.029-.227.39.39,0,0,1,.431-.431C-84.842,512.564-81.568,512.994-80.909,513.081Zm-5.022,14.384c0,.515.115,2.008.888,2.008s.977-1.434.977-2.008c0-.6-.115-1.867-.946-1.867C-85.788,525.6-85.931,526.888-85.931,527.465Zm14.9,17.1a4.1,4.1,0,0,1-4.105,4.105,4.1,4.1,0,0,1-4.077-4.105,4.081,4.081,0,0,1,4.077-4.105A4.1,4.1,0,0,1-71.033,544.564Zm-6.516,0a2.433,2.433,0,0,0,2.411,2.442,2.44,2.44,0,0,0,2.442-2.442,2.434,2.434,0,0,0-2.442-2.413A2.427,2.427,0,0,0-77.548,544.564Z" transform="translate(96.986 217.899)"/></svg>