<svg xmlns="http://www.w3.org/2000/svg" width="146.68" height="82.098" viewBox="0 0 146.68 82.098"><defs><style>.a{fill:#3c2819;}.b{fill:#9e7b55;}.c{fill:#3d2618;}</style></defs><g transform="translate(357 -3958)"><path class="a" d="M-48.281-28.047l-.2,3.672h-19.3a15.936,15.936,0,0,1-4.414,2.891A19.5,19.5,0,0,0-70.82-29.1q0-1.094-.078-1.914l5.117.156a12.045,12.045,0,0,1-.625,2.891Zm2.656,7.031-.156,3.555-4.727-.156-.078,2.109,2.344.078-.117,2.969-22.7.273-.2-2.969,2.773.078v-1.8l-5.469.078-.117-3.75,5.781-.039-.117-1.875,3.672.039.039,1.719,1.8-.039.156-1.875h3.008v1.836h1.641V-23.2l3.164.117.078,2.461,1.68-.039-.039-2.344h3.359l-.352,2.07ZM-53.2-15.625l-.039-1.445-2.031.039.078,1.484Zm-4.648-1.367-2.109.078v1.367q.625,0,2.07-.078Zm-5,1.6v-1.6l-2.031.078.078,1.523ZM-48.125-5.078l-.2,3.438-3.242-.117.078,2.5h-4.062a17.132,17.132,0,0,1,.117-2.109l-5.391.078.039-2.969,5.508-.234-.039-3.164-4.8.156-.039-2.656h4.883l-.039-1.641,3.594.2v1.328l2.773-.117v3.008l-2.734-.078V-5Zm-8.4-.547-1.758,1.094q-.43-.625-1.211-1.8l1.758-1.133ZM-62.148-7.3Q-65.9-.117-72.969.2a13.332,13.332,0,0,0,3.633-2.773l-1.406-1.484,1.563-1.6,1.523.977a5.126,5.126,0,0,0,.977-1.328l-1.8-1.406a5.9,5.9,0,0,1-4.531,1.8,13.861,13.861,0,0,1-2.187-.2,35.539,35.539,0,0,0,3.359-2.656,8.913,8.913,0,0,0,2.578-3.242Q-66.523-10.078-62.148-7.3Zm56.68-21.289q.156,1.328.156,6.172,0,8.242-.508,23.516Q-7.344.039-13.477-4.57l4.18.078-.156-18.984-9.1.2.039-5.664ZM-14.3-16.523A23.468,23.468,0,0,1-18.008-15.2l-.937-2.852q.2-.039,3.633-1.211Zm2.188,2.461A7.509,7.509,0,0,1-14.57-9.453a8.878,8.878,0,0,1-2.773,1.992l-1.8-3.437A36.2,36.2,0,0,0-12.109-14.062Zm-9.766-12.227q.156,6.523-1.6,25.625-2.5-2.07-6.992-5.469h3.086q.625-7.188.625-15.273l-7.656.2-.078-5.43ZM-30.586-16.25a33.978,33.978,0,0,1-3.555,1.406l-.937-2.969q1.016-.273,3.555-1.094Zm-.273,2.5a14.817,14.817,0,0,1-1.367,6.484l-3.4-2.227A24.2,24.2,0,0,0-30.859-13.75Zm62.344-6.562-.156,5.938q-2.3,0-4.062.039-2.3.078-3.164.078a13.719,13.719,0,0,1-3.516,9.531,12.942,12.942,0,0,1-8.4,3.906q6.641-6.562,6.641-13.672l-10.312.43L8.281-20l10.43.039q-.156-4.961-.391-7.734l6.641.234q-.156,5.273-.156,7.5Q27.3-20.039,31.484-20.312Zm40,0-.156,5.938q-2.3,0-4.062.039-2.3.078-3.164.078a13.719,13.719,0,0,1-3.516,9.531,12.942,12.942,0,0,1-8.4,3.906q6.641-6.562,6.641-13.672l-10.312.43L48.281-20l10.43.039q-.156-4.961-.391-7.734l6.641.234q-.156,5.273-.156,7.5Q67.3-20.039,71.484-20.312Z" transform="translate(-281.805 4022)"/><path class="b" d="M-33.541-7.109-31.49-1.66l2.046-5.449h1.6V0h-1.23V-2.344l.122-3.135L-31.056,0h-.884l-2.095-5.474.122,3.13V0h-1.23V-7.109ZM-21.346,0a1.831,1.831,0,0,1-.137-.493A1.847,1.847,0,0,1-22.869.1a1.864,1.864,0,0,1-1.3-.454,1.453,1.453,0,0,1-.5-1.123,1.5,1.5,0,0,1,.627-1.3,3.041,3.041,0,0,1,1.794-.452h.728v-.347a.925.925,0,0,0-.229-.657.91.91,0,0,0-.7-.247,1.045,1.045,0,0,0-.664.2.627.627,0,0,0-.259.515h-1.187a1.317,1.317,0,0,1,.288-.813,1.919,1.919,0,0,1,.784-.593,2.753,2.753,0,0,1,1.106-.215,2.217,2.217,0,0,1,1.479.466A1.663,1.663,0,0,1-20.335-3.6v2.383a2.7,2.7,0,0,0,.2,1.138V0Zm-1.3-.854a1.35,1.35,0,0,0,.662-.171,1.142,1.142,0,0,0,.466-.459v-1h-.64a1.749,1.749,0,0,0-.991.229.743.743,0,0,0-.332.649.693.693,0,0,0,.227.544A.879.879,0,0,0-22.649-.854ZM-15.83,0h-1.187V-5.283h1.187Zm-1.26-6.655a.63.63,0,0,1,.173-.454.655.655,0,0,1,.5-.181.663.663,0,0,1,.5.181.625.625,0,0,1,.176.454.61.61,0,0,1-.176.447.668.668,0,0,1-.5.178.66.66,0,0,1-.5-.178A.615.615,0,0,1-17.09-6.655ZM-7.9-2.588A3.174,3.174,0,0,1-8.452-.63,1.789,1.789,0,0,1-9.963.1a1.723,1.723,0,0,1-1.445-.669L-11.467,0h-1.074V-7.5h1.187v2.725a1.717,1.717,0,0,1,1.382-.605,1.81,1.81,0,0,1,1.519.718A3.226,3.226,0,0,1-7.9-2.656Zm-1.187-.1a2.243,2.243,0,0,0-.3-1.289,1.008,1.008,0,0,0-.879-.43,1.1,1.1,0,0,0-1.084.674v2.178a1.113,1.113,0,0,0,1.094.688A1,1,0,0,0-9.4-1.284a2.173,2.173,0,0,0,.313-1.255ZM-1.752,0a1.831,1.831,0,0,1-.137-.493A1.847,1.847,0,0,1-3.275.1a1.864,1.864,0,0,1-1.3-.454,1.453,1.453,0,0,1-.5-1.123,1.5,1.5,0,0,1,.627-1.3,3.041,3.041,0,0,1,1.794-.452h.728v-.347a.925.925,0,0,0-.229-.657.91.91,0,0,0-.7-.247,1.045,1.045,0,0,0-.664.2.627.627,0,0,0-.259.515H-4.965a1.317,1.317,0,0,1,.288-.813,1.919,1.919,0,0,1,.784-.593,2.753,2.753,0,0,1,1.106-.215,2.217,2.217,0,0,1,1.479.466A1.663,1.663,0,0,1-.741-3.6v2.383a2.7,2.7,0,0,0,.2,1.138V0Zm-1.3-.854a1.35,1.35,0,0,0,.662-.171,1.142,1.142,0,0,0,.466-.459v-1h-.64a1.749,1.749,0,0,0-.991.229.743.743,0,0,0-.332.649.693.693,0,0,0,.227.544A.879.879,0,0,0-3.056-.854ZM12.746,0H11.511L8.342-5.044V0H7.106V-7.109H8.342l3.179,5.063V-7.109h1.226Zm6.5,0a1.831,1.831,0,0,1-.137-.493A1.847,1.847,0,0,1,17.725.1a1.864,1.864,0,0,1-1.3-.454,1.453,1.453,0,0,1-.5-1.123,1.5,1.5,0,0,1,.627-1.3,3.041,3.041,0,0,1,1.794-.452h.728v-.347a.925.925,0,0,0-.229-.657.91.91,0,0,0-.7-.247,1.045,1.045,0,0,0-.664.2.627.627,0,0,0-.259.515H16.035a1.317,1.317,0,0,1,.288-.813,1.919,1.919,0,0,1,.784-.593,2.753,2.753,0,0,1,1.106-.215,2.217,2.217,0,0,1,1.479.466A1.663,1.663,0,0,1,20.259-3.6v2.383a2.7,2.7,0,0,0,.2,1.138V0Zm-1.3-.854a1.35,1.35,0,0,0,.662-.171,1.142,1.142,0,0,0,.466-.459v-1h-.64a1.749,1.749,0,0,0-.991.229.743.743,0,0,0-.332.649.693.693,0,0,0,.227.544A.879.879,0,0,0,17.944-.854ZM24.6-5.283l.034.61a1.9,1.9,0,0,1,1.538-.708q1.65,0,1.68,1.89V0H26.668V-3.423a1.088,1.088,0,0,0-.217-.745.914.914,0,0,0-.71-.242,1.143,1.143,0,0,0-1.069.649V0H23.484V-5.283ZM34.22,0a1.831,1.831,0,0,1-.137-.493A1.847,1.847,0,0,1,32.7.1a1.864,1.864,0,0,1-1.3-.454,1.453,1.453,0,0,1-.5-1.123,1.5,1.5,0,0,1,.627-1.3,3.041,3.041,0,0,1,1.794-.452h.728v-.347a.925.925,0,0,0-.229-.657.91.91,0,0,0-.7-.247,1.045,1.045,0,0,0-.664.2.627.627,0,0,0-.259.515H31.007a1.317,1.317,0,0,1,.288-.813,1.919,1.919,0,0,1,.784-.593,2.753,2.753,0,0,1,1.106-.215,2.217,2.217,0,0,1,1.479.466A1.663,1.663,0,0,1,35.23-3.6v2.383a2.7,2.7,0,0,0,.2,1.138V0Zm-1.3-.854a1.35,1.35,0,0,0,.662-.171,1.142,1.142,0,0,0,.466-.459v-1H33.4a1.749,1.749,0,0,0-.991.229.743.743,0,0,0-.332.649.693.693,0,0,0,.227.544A.879.879,0,0,0,32.916-.854Z" transform="translate(-283.857 4040)"/><g transform="translate(-293 3958)"><path class="c" d="M316.556,215.354c-.076-3.822,2.136-4.255,2.136-4.255,1.583-.281,2.647,1.036,2.9,2.449s.219,3.424-.752,4.195S316.632,219.176,316.556,215.354Zm7.165-9.919s-2.089.229-2.431,3.069,1.007,4.324,2.689,4.236,2.275-2.048,2.147-4.085S325.249,205.4,323.721,205.435Zm6.79,7.52c.533-.009,2.544-1.408,1.888-4.668s-2.2-3.356-2.948-3.269c0,0-2.721.409-2.419,4.546S329.978,212.964,330.511,212.955Zm3.805-1.773a3.626,3.626,0,0,0-2.513,2.136,4.75,4.75,0,0,0,.377,4.64c.656,1.014,2.478,1.7,3.688-.466S336.763,210.744,334.316,211.183Zm-7.189,3.586c-.383.08-.584.384-.852.433a1.466,1.466,0,0,1-.848-.249,1.943,1.943,0,0,0-2.08,0,2.263,2.263,0,0,0-.85,1.6,7.639,7.639,0,0,1-.511,2.384c-.282.4-1.986,1.478-2,3.717s.971,3.123,2.054,3a5.266,5.266,0,0,1,2.8.015,3.118,3.118,0,0,0,2.742.416c1.133-.455,1.347-.776,2.094-.62s1.455.436,2.752-.852,1.115-2.251.377-3.544a30.416,30.416,0,0,1-2.006-3.549,3.989,3.989,0,0,0-1.81-2.435A2.275,2.275,0,0,0,327.127,214.769Z" transform="translate(-316.554 -205)"/></g></g></svg>