<svg xmlns="http://www.w3.org/2000/svg" width="181.094" height="84.134" viewBox="0 0 181.094 84.134"><defs><style>.a{fill:#3c2819;}.b{fill:#9e7b55;}.c{fill:#3d2618;}</style></defs><g transform="translate(374 -3696)"><path class="a" d="M-66.094-6.25-69.18.2q-7.7-4.961-10.664-8.633a9.453,9.453,0,0,1-5.391,5.82,17.236,17.236,0,0,1-8.008,1.6A37.313,37.313,0,0,0-87.07-6.055a14.006,14.006,0,0,0,3.789-6.914l-7.969.469-.117-5.742q5.586.2,8.75.2l-.039-4.062q-1.992-.117-8.516-.352l-.234-5.625L-68.32-28.2l-.2,5.859q-8.086.625-9.258.625l.078,3.672,8.672-.352L-69.1-12.93q-7.227-.352-8.4-.352l.039.977a12.36,12.36,0,0,0,4.922,4.434A12.284,12.284,0,0,0-66.094-6.25Zm40.859-20.078a42.689,42.689,0,0,1-2.539,7.539,27.826,27.826,0,0,0-1.406-3.75q-18.32-.313-19.8-.156l.391,3.438q-2.656.2-4.531.2-.117-2.656-.117-4.57,0-1.6.078-2.7l10.82-.391-.117-3.945h5.977l-.312,4.023Zm-6.641,16.8q.156,2.617.156,4.8A26.616,26.616,0,0,1-32.07.313q-3.867.273-7.5.273A63.719,63.719,0,0,1-46.445.273L-46.6-9.336l4.727-.117q.352-1.836.547-2.5l-3.4-.039q-.156-2.148-.156-4.1a42.208,42.208,0,0,1,.234-4.57l11.055.156q.391,4.453.391,6.914,0,.859-.039,1.484-3.945.156-5.547.117a19.373,19.373,0,0,1-.039,2.383Zm-4.687-5.234q0-.352-.156-2.266l-3.945-.039-.156,2.578A28.241,28.241,0,0,0-36.562-14.766ZM-36.641-2.7V-5.7l-4.687-.078-.156,3.164q1.094.078,2.109.078A22.748,22.748,0,0,0-36.641-2.7Zm52.148-7.539-1.68,5.508A32.337,32.337,0,0,0,9.375-6.719Q8.164-3.437,3.516-2.344A18.9,18.9,0,0,0,5.7-8.437a37.489,37.489,0,0,0-8.32-1.875A6.848,6.848,0,0,1-3.75-6.992,5.618,5.618,0,0,1-8.672-4.219a4.91,4.91,0,0,1-3.477-1.25A4.956,4.956,0,0,1-14.023-9.1a5.271,5.271,0,0,1,2.3-5,9.188,9.188,0,0,1,5.9-1.328,38.973,38.973,0,0,0,0-4.961q-1.719.234-5.312.7l-.508-6.172q6.25-.508,10.117-.547A85.587,85.587,0,0,1-1.8-14.8a71.843,71.843,0,0,1,8.516,1.758l-.312-4.531q3.594.234,5.664.273a20.963,20.963,0,0,1-.937,5.664ZM-6.8-10q.078-.937-.937-1.016a2.588,2.588,0,0,0-1.875.449,1.492,1.492,0,0,0-.508,1.426A1.23,1.23,0,0,0-8.75-8.047a1.769,1.769,0,0,0,.625-.117A1.876,1.876,0,0,0-6.8-10ZM48.75-7.891,44.1-1.8q-9.219-8.555-15.117-13.125,10.9-9.57,14.727-12.7l3.4,4.492q-8.477,5.977-10.7,7.422Q42.3-11.719,48.75-7.891ZM87.148-25a40.8,40.8,0,0,1,.7,7.188Q87.852-4.1,75.82-.742a23.489,23.489,0,0,0,6.8-16.406,42.821,42.821,0,0,0-.781-7.539Zm-8.4,7.891q-1.992,2.617-4.922,7.3-3.164-4.219-3.594-13.437l5-.312a32.8,32.8,0,0,0,.43,7.813Z" transform="translate(-280.758 3760)"/><path class="b" d="M-44.77-1.655h-2.754L-48.1,0h-1.284L-46.7-7.109h1.108L-42.9,0h-1.289Zm-2.407-1h2.061L-46.147-5.6Zm8.084-2.632.034.552a1.9,1.9,0,0,1,1.523-.649,1.46,1.46,0,0,1,1.45.811,1.874,1.874,0,0,1,1.621-.811,1.647,1.647,0,0,1,1.3.483,2.128,2.128,0,0,1,.437,1.426V0h-1.187V-3.437a1.051,1.051,0,0,0-.22-.737.962.962,0,0,0-.728-.234.988.988,0,0,0-.662.217,1.146,1.146,0,0,0-.359.569l0,3.623h-1.187V-3.477a.846.846,0,0,0-.952-.933,1.044,1.044,0,0,0-1.011.581V0h-1.187V-5.283ZM-26.351,0a1.831,1.831,0,0,1-.137-.493A1.847,1.847,0,0,1-27.875.1a1.864,1.864,0,0,1-1.3-.454,1.453,1.453,0,0,1-.5-1.123,1.5,1.5,0,0,1,.627-1.3,3.041,3.041,0,0,1,1.794-.452h.728v-.347a.925.925,0,0,0-.229-.657.91.91,0,0,0-.7-.247,1.045,1.045,0,0,0-.664.2.627.627,0,0,0-.259.515h-1.187a1.317,1.317,0,0,1,.288-.813,1.919,1.919,0,0,1,.784-.593,2.753,2.753,0,0,1,1.106-.215,2.217,2.217,0,0,1,1.479.466A1.663,1.663,0,0,1-25.34-3.6v2.383a2.7,2.7,0,0,0,.2,1.138V0Zm-1.3-.854a1.35,1.35,0,0,0,.662-.171,1.142,1.142,0,0,0,.466-.459v-1h-.64a1.749,1.749,0,0,0-.991.229.743.743,0,0,0-.332.649.693.693,0,0,0,.227.544A.879.879,0,0,0-27.655-.854Zm6.673-4.429.034.552a1.9,1.9,0,0,1,1.523-.649,1.46,1.46,0,0,1,1.45.811,1.874,1.874,0,0,1,1.621-.811,1.647,1.647,0,0,1,1.3.483,2.128,2.128,0,0,1,.437,1.426V0H-15.8V-3.437a1.051,1.051,0,0,0-.22-.737.962.962,0,0,0-.728-.234.988.988,0,0,0-.662.217,1.146,1.146,0,0,0-.359.569l0,3.623h-1.187V-3.477a.846.846,0,0,0-.952-.933,1.045,1.045,0,0,0-1.011.581V0H-22.1V-5.283ZM-10.134,0h-1.187V-5.283h1.187Zm-1.26-6.655a.63.63,0,0,1,.173-.454.655.655,0,0,1,.5-.181.663.663,0,0,1,.5.181.625.625,0,0,1,.176.454.61.61,0,0,1-.176.447.668.668,0,0,1-.5.178.66.66,0,0,1-.5-.178A.615.615,0,0,1-11.394-6.655Zm6.4,4.956L-3.92-5.283h1.265L-4.755.8A1.707,1.707,0,0,1-6.4,2.134a2.115,2.115,0,0,1-.571-.088V1.123l.225.015A1.155,1.155,0,0,0-6.066.974,1.084,1.084,0,0,0-5.708.425l.171-.454L-7.392-5.283h1.279ZM3.182,0a1.831,1.831,0,0,1-.137-.493A1.847,1.847,0,0,1,1.659.1,1.864,1.864,0,0,1,.36-.356a1.453,1.453,0,0,1-.5-1.123,1.5,1.5,0,0,1,.627-1.3,3.041,3.041,0,0,1,1.794-.452h.728v-.347a.925.925,0,0,0-.229-.657.91.91,0,0,0-.7-.247,1.045,1.045,0,0,0-.664.2.627.627,0,0,0-.259.515H-.031a1.317,1.317,0,0,1,.288-.813,1.919,1.919,0,0,1,.784-.593,2.753,2.753,0,0,1,1.106-.215,2.217,2.217,0,0,1,1.479.466A1.663,1.663,0,0,1,4.193-3.6v2.383a2.7,2.7,0,0,0,.2,1.138V0Zm-1.3-.854a1.35,1.35,0,0,0,.662-.171,1.142,1.142,0,0,0,.466-.459v-1h-.64a1.749,1.749,0,0,0-.991.229.743.743,0,0,0-.332.649.693.693,0,0,0,.227.544A.879.879,0,0,0,1.878-.854ZM13.642-7.109,15.693-1.66l2.046-5.449h1.6V0H18.1V-2.344l.122-3.135L16.127,0h-.884L13.149-5.474l.122,3.13V0h-1.23V-7.109ZM23.943,0H22.756V-5.283h1.187Zm-1.26-6.655a.63.63,0,0,1,.173-.454.655.655,0,0,1,.5-.181.663.663,0,0,1,.5.181.625.625,0,0,1,.176.454.61.61,0,0,1-.176.447.668.668,0,0,1-.5.178.66.66,0,0,1-.5-.178A.615.615,0,0,1,22.683-6.655Zm6.268,4.39-.527.542V0H27.237V-7.5h1.187v4.326l.371-.464,1.46-1.646H31.68l-1.963,2.2L31.89,0H30.518Zm8.7,1.748A1.84,1.84,0,0,1,36.17.1a1.64,1.64,0,0,1-1.3-.5,2.139,2.139,0,0,1-.442-1.455V-5.283h1.187v3.408q0,1.006.835,1.006a1.173,1.173,0,0,0,1.167-.62V-5.283H38.8V0H37.684ZM44.777-4.2a2.936,2.936,0,0,0-.483-.039,1.088,1.088,0,0,0-1.1.625V0H42.008V-5.283h1.133l.029.591a1.337,1.337,0,0,1,1.191-.688,1.111,1.111,0,0,1,.42.068ZM48.789,0H47.6V-5.283h1.187Zm-1.26-6.655a.63.63,0,0,1,.173-.454.655.655,0,0,1,.5-.181.663.663,0,0,1,.5.181.625.625,0,0,1,.176.454.61.61,0,0,1-.176.447.668.668,0,0,1-.5.178.66.66,0,0,1-.5-.178A.615.615,0,0,1,47.529-6.655Z" transform="translate(-283.616 3778)"/><g transform="translate(-293 3696)"><path class="c" d="M554.666,225.1a4.134,4.134,0,0,1,1.9,2.521,31.356,31.356,0,0,0,2.11,3.674c.775,1.339.968,2.336-.4,3.669s-2.11,1.043-2.894.882-1.01.171-2.2.642-2-.041-2.883-.431a5.622,5.622,0,0,0-2.948-.016c-1.139.131-2.173-.784-2.16-3.1s1.805-3.43,2.1-3.848a7.8,7.8,0,0,0,.538-2.468,2.339,2.339,0,0,1,.894-1.658,2.069,2.069,0,0,1,2.188,0,1.559,1.559,0,0,0,.892.258c.282-.051.493-.365.9-.448A2.422,2.422,0,0,1,554.666,225.1Zm-8.138-3.861a2.488,2.488,0,0,0,1.817,2.293,2.416,2.416,0,0,0,2.635-1.322,5.448,5.448,0,0,0,.545-1.581,6.95,6.95,0,0,0-.082-3.632,1.46,1.46,0,0,0-2.28-.94,2.468,2.468,0,0,0-.5.3,5.766,5.766,0,0,0-2.134,4.38C546.526,220.911,546.516,221.079,546.528,221.244Zm6.49,1.585a2.062,2.062,0,0,0,2.421.962,2.6,2.6,0,0,0,1.865-2.221,6.816,6.816,0,0,0-1.211-4.246,3.456,3.456,0,0,0-.982-.995,1.3,1.3,0,0,0-1.992.4,3.259,3.259,0,0,0-.329.645,7.233,7.233,0,0,0-.434,2.778A4.693,4.693,0,0,0,553.018,222.829Zm8.749,1.594a6.071,6.071,0,0,0-1.074-2.287,1.085,1.085,0,0,0-1.725-.229,2.845,2.845,0,0,0-.428.4A5.746,5.746,0,0,0,557.2,225.3a3.511,3.511,0,0,0,2.224,3.806,1.615,1.615,0,0,0,2.092-.667,3.6,3.6,0,0,0,.516-2.133A6.737,6.737,0,0,0,561.767,224.423Zm-16.074-1.958c-.884-.865-1.647-.789-2.289.266a8.029,8.029,0,0,0-1.1,3.938,3.976,3.976,0,0,0,.265,1.782,1.45,1.45,0,0,0,1.712.93,2.494,2.494,0,0,0,1-.395,3.663,3.663,0,0,0,1.7-3.226A4.641,4.641,0,0,0,545.693,222.465Z" transform="translate(-542.302 -215.815)"/></g></g></svg>