<svg xmlns="http://www.w3.org/2000/svg" viewBox="0 0 32.704 22.609"><defs><style>.a{fill:#9b96af;}</style></defs><path class="a" d="M12.5-87.95c12.935,0,17.1-22.608,4.049-22.608a7.393,7.393,0,0,0-7.311,7.424,7.3,7.3,0,0,0,7.311,7.311h.562c-.225.225-.337.562-.562.787A4.922,4.922,0,0,1,12.5-92.9Zm17.434,0c12.935,0,17.1-22.608,4.049-22.608a7.393,7.393,0,0,0-7.311,7.424,7.3,7.3,0,0,0,7.311,7.311h.562c-.225.225-.337.562-.562.787A4.922,4.922,0,0,1,29.934-92.9Z" transform="translate(-9.238 110.558)"/></svg>