<svg xmlns="http://www.w3.org/2000/svg" width="1330.45" height="104.39" viewBox="0 0 1330.45 104.39"><defs><style>.a{fill:#fa4b91;}</style></defs><path class="a" d="M-610.885-14.3h-25.3l7.7-7.37c4.73-4.51,8.58-8.25,11.77-12.65,3.52-4.95,5.5-9.68,5.5-16.17a24.539,24.539,0,0,0-6.82-17.6c-2.64-2.53-8.36-6.93-19.03-6.93-10.45,0-16.72,3.85-20.24,7.59-4.51,4.73-7.04,11.99-7.59,18.37h16.94c0-2.86,1.1-6.82,3.08-9.02a8.637,8.637,0,0,1,6.71-2.64,9.985,9.985,0,0,1,6.71,2.09,10.316,10.316,0,0,1,2.86,7.26c0,5.06-2.75,9.79-4.4,12.43a169.642,169.642,0,0,1-11.99,14.96l-22,23.98h56.1Zm70.4-22.33c0-12.65-3.41-23.87-10.56-30.8-4.29-4.18-10.67-7.59-19.69-7.59-8.8,0-15.07,3.3-19.47,7.59-7.15,6.93-10.56,18.15-10.56,30.8,0,12.54,3.41,23.65,10.56,30.69,4.4,4.29,10.67,7.59,19.47,7.59,9.02,0,15.4-3.41,19.69-7.59C-543.895-12.98-540.485-24.09-540.485-36.63Zm-30.14-23.87a9.121,9.121,0,0,1,6.82,2.75c5.39,5.28,6.16,15.84,6.16,21.01,0,5.72-.99,16.06-6.16,21.12a9.121,9.121,0,0,1-6.82,2.75,9.121,9.121,0,0,1-6.82-2.75c-5.17-5.06-6.16-15.4-6.16-21.12,0-5.17.77-15.73,6.16-21.01A9.121,9.121,0,0,1-570.625-60.5Zm90.53,46.2h-25.3l7.7-7.37c4.73-4.51,8.58-8.25,11.77-12.65,3.52-4.95,5.5-9.68,5.5-16.17a24.538,24.538,0,0,0-6.82-17.6c-2.64-2.53-8.36-6.93-19.03-6.93-10.45,0-16.72,3.85-20.24,7.59-4.51,4.73-7.04,11.99-7.59,18.37h16.94c0-2.86,1.1-6.82,3.08-9.02a8.637,8.637,0,0,1,6.71-2.64,9.985,9.985,0,0,1,6.71,2.09,10.316,10.316,0,0,1,2.86,7.26c0,5.06-2.75,9.79-4.4,12.43a169.642,169.642,0,0,1-11.99,14.96l-22,23.98h56.1Zm70.4-22.33c0-12.65-3.41-23.87-10.56-30.8-4.29-4.18-10.67-7.59-19.69-7.59-8.8,0-15.07,3.3-19.47,7.59-7.15,6.93-10.56,18.15-10.56,30.8,0,12.54,3.41,23.65,10.56,30.69,4.4,4.29,10.67,7.59,19.47,7.59,9.02,0,15.4-3.41,19.69-7.59C-413.1-12.98-409.695-24.09-409.695-36.63Zm-30.14-23.87a9.121,9.121,0,0,1,6.82,2.75c5.39,5.28,6.16,15.84,6.16,21.01,0,5.72-.99,16.06-6.16,21.12a9.121,9.121,0,0,1-6.82,2.75,9.121,9.121,0,0,1-6.82-2.75c-5.17-5.06-6.16-15.4-6.16-21.12,0-5.17.77-15.73,6.16-21.01A9.121,9.121,0,0,1-439.835-60.5Zm112.09-7.26a35.463,35.463,0,0,0-21.78-7.26c-6.82,0-12.98,1.43-18.15,6.71-4.4,4.51-6.38,10.01-6.38,16.5,0,3.52.55,8.69,4.4,12.76,2.86,3.08,6.82,4.62,10.23,5.83l6.05,2.09c2.09.77,6.6,2.42,8.58,4.07a6.47,6.47,0,0,1,2.53,5.28,7.592,7.592,0,0,1-2.64,5.94,11.715,11.715,0,0,1-7.7,2.53,17.044,17.044,0,0,1-9.24-2.64,44.922,44.922,0,0,1-6.82-5.61l-8.8,12.1a46.666,46.666,0,0,0,10.78,8.03,31.089,31.089,0,0,0,14.52,3.08c4.84,0,14.3-.66,20.79-7.48,3.85-3.96,6.49-10.56,6.49-18.15a18.3,18.3,0,0,0-5.39-13.64c-2.86-2.75-6.82-4.4-10.01-5.61l-5.5-2.09c-4.95-1.87-7.48-2.53-9.24-4.18a5.146,5.146,0,0,1-1.65-4.07,6.561,6.561,0,0,1,1.87-4.62c1.98-2.2,4.84-2.53,7.15-2.53,2.09,0,6.82.33,12.32,5.28Zm15.07-5.61V0h16.94V-25.74h10.34c5.17,0,12.87-.55,18.7-6.49,2.75-2.86,6.27-8.03,6.27-17.27,0-5.06-.88-12.32-7.15-17.82-5.83-5.17-12.87-6.05-19.25-6.05Zm16.94,13.86h5.72c3.3,0,6.93.33,9.46,2.75a9.68,9.68,0,0,1,2.75,7.15,10.217,10.217,0,0,1-2.75,7.26c-2.75,2.64-6.82,2.75-9.13,2.75h-6.05Zm45.98-13.86V0h16.94V-28.93L-213.015,0h20.68l-22.55-30.03a23.086,23.086,0,0,0,10.23-5.61c4.73-4.62,5.72-10.34,5.72-14.96,0-8.14-3.3-13.42-6.38-16.39-3.52-3.3-9.35-6.38-18.7-6.38Zm16.94,13.2h3.96c2.2,0,6.6.22,9.35,2.31a8.9,8.9,0,0,1,3.41,7.48,9.876,9.876,0,0,1-2.75,7.15c-2.86,2.86-7.04,3.19-10.12,3.19h-3.85Zm50.16-13.2V0h16.94V-73.37ZM-132.385,0V-47.52L-92.565,0h14.74V-73.37h-16.94v47.3l-39.82-47.3h-14.74V0Zm105.93-26.4h17.71a17.12,17.12,0,0,1-5.28,8.69c-1.65,1.43-5.5,3.96-12.76,3.96-5.61,0-10.56-1.32-14.85-5.72-3.08-3.08-6.16-8.47-6.16-16.83,0-6.82,2.2-13.09,6.27-17.38,3.52-3.74,8.47-5.94,15.18-5.94a18.4,18.4,0,0,1,11.22,3.52,22.212,22.212,0,0,1,6.49,7.92l15.29-8.25A40.562,40.562,0,0,0-5.225-69.52c-6.82-4.51-14.52-5.5-20.57-5.5-8.69,0-19.8,1.32-28.82,10.67-6.16,6.27-10.56,15.84-10.56,27.83,0,14.63,6.49,23.54,10.78,27.94,8.58,8.8,18.04,10.23,26.84,10.23,8.69,0,18.04-1.54,26.18-10.01s11.33-22,11.33-30.91v-.77h-36.41ZM83.215-47.96a27.962,27.962,0,0,0-12.43-2.75c-6.71,0-13.2,1.76-18.7,6.93a26.36,26.36,0,0,0-8.14,19.36,25.577,25.577,0,0,0,7.7,18.7c4.51,4.4,10.78,7.37,19.03,7.37a24.507,24.507,0,0,0,12.54-2.97v-14.3A15.46,15.46,0,0,1,73.1-11.77a13.038,13.038,0,0,1-9.57-3.96,12.7,12.7,0,0,1-3.3-8.8,12.926,12.926,0,0,1,3.63-9.24,12.616,12.616,0,0,1,9.02-3.52,15.9,15.9,0,0,1,10.34,3.74ZM149-24.53a26.361,26.361,0,0,0-7.37-18.26c-4.4-4.4-11.88-7.92-21.45-7.92s-17.05,3.52-21.45,7.92a26.361,26.361,0,0,0-7.37,18.26,26.361,26.361,0,0,0,7.37,18.26c4.4,4.4,11.88,7.92,21.45,7.92s17.05-3.52,21.45-7.92A26.361,26.361,0,0,0,149-24.53Zm-28.82-12.76a12.1,12.1,0,0,1,8.91,3.52,12.418,12.418,0,0,1,3.63,9.24,12.418,12.418,0,0,1-3.63,9.24,12.024,12.024,0,0,1-8.8,3.52,12.2,12.2,0,0,1-9.02-3.52,12.448,12.448,0,0,1-3.63-9.24,12.418,12.418,0,0,1,3.63-9.24A12.1,12.1,0,0,1,120.175-37.29ZM158.9,0h15.84V-25.08c0-1.65.11-7.15,3.08-10.01a7.723,7.723,0,0,1,5.5-1.98,7.113,7.113,0,0,1,5.28,1.98c2.42,2.42,2.53,6.27,2.53,9.57V0h15.84V-24.42c0-3.19.33-7.04,2.42-9.68a7.612,7.612,0,0,1,6.16-2.97,7.27,7.27,0,0,1,5.72,2.64c2.09,2.64,2.09,7.04,2.09,9.57V0H239.2V-31.02c0-3.52-.33-10.12-5.06-14.63-2.97-2.86-7.81-4.62-13.75-4.62a18.645,18.645,0,0,0-10.45,2.75,18.727,18.727,0,0,0-6.27,6.27,14.52,14.52,0,0,0-5.94-6.82,18.285,18.285,0,0,0-9.24-2.2c-3.74,0-9.68.77-13.75,6.93v-5.72H158.9Zm93.83-49.06V0h15.84V-49.06Zm-1.32-20.9a9.156,9.156,0,0,0,9.24,9.24,9.156,9.156,0,0,0,9.24-9.24,9.156,9.156,0,0,0-9.24-9.24A9.156,9.156,0,0,0,251.405-69.96ZM281.985,0h15.84V-25.19c0-3.19.44-6.71,3.08-9.35a8.61,8.61,0,0,1,6.6-2.64,8.308,8.308,0,0,1,6.05,2.2c2.53,2.53,2.64,6.6,2.64,9.79V0h15.84V-31.02c0-3.96-.33-9.79-4.95-14.41-4.18-4.18-9.79-4.95-14.08-4.95-4.62,0-10.34.99-15.18,7.15v-5.83h-15.84Zm99.66-43.34c-1.76-2.64-5.72-7.37-14.63-7.37-9.13,0-14.85,3.96-17.82,7.04-4.18,4.29-7.26,11.22-7.26,19.58,0,8.47,3.19,14.41,7.15,18.48,4.51,4.51,10.34,6.93,17.93,6.93,9.02,0,12.76-4.29,14.63-7.37V-.44c0,2.09-.11,7.26-3.19,10.23-1.1.99-3.41,2.64-7.92,2.64a13.063,13.063,0,0,1-6.82-1.65,8.115,8.115,0,0,1-3.52-4.84h-17.27a21.892,21.892,0,0,0,7.37,12.98c6.16,5.28,13.97,6.27,20.46,6.27,5.39,0,14.63-.77,20.68-7.26,5.72-6.16,6.05-13.97,6.05-20.9V-49.06h-15.84Zm-11,6.38a13.267,13.267,0,0,1,8.58,3.08,12.448,12.448,0,0,1,3.74,9.02,12.945,12.945,0,0,1-3.85,9.35,12.2,12.2,0,0,1-8.58,3.19,11.759,11.759,0,0,1-8.91-3.52,12.975,12.975,0,0,1-3.41-8.8,13.494,13.494,0,0,1,3.74-9.13A12.874,12.874,0,0,1,370.645-36.96Zm101.09-9.57a30.961,30.961,0,0,0-16.28-4.18c-4.51,0-10.45.88-14.85,4.95a15.2,15.2,0,0,0-4.73,11.33,12.1,12.1,0,0,0,3.52,8.91,19.6,19.6,0,0,0,7.92,4.51l3.96,1.21a20.876,20.876,0,0,1,4.84,1.76,3.241,3.241,0,0,1,1.76,2.86,4.178,4.178,0,0,1-1.65,3.19c-1.43,1.1-3.96,1.1-4.95,1.1a14.808,14.808,0,0,1-6.6-1.54,27.273,27.273,0,0,1-5.39-3.63l-6.71,10.67c6.38,5.61,13.53,7.04,20.13,7.04,5.17,0,11.11-.77,15.95-5.61a17.815,17.815,0,0,0,5.06-12.87,11.7,11.7,0,0,0-3.85-9.35,20.862,20.862,0,0,0-8.14-4.29l-4.18-1.32a28.47,28.47,0,0,1-4.73-1.65,2.569,2.569,0,0,1-1.54-2.2,3.389,3.389,0,0,1,.99-2.2,6.725,6.725,0,0,1,4.51-1.43,18.012,18.012,0,0,1,8.69,2.75Zm66.66,22a26.361,26.361,0,0,0-7.37-18.26c-4.4-4.4-11.88-7.92-21.45-7.92s-17.05,3.52-21.45,7.92a26.361,26.361,0,0,0-7.37,18.26,26.361,26.361,0,0,0,7.37,18.26c4.4,4.4,11.88,7.92,21.45,7.92s17.05-3.52,21.45-7.92A26.361,26.361,0,0,0,538.395-24.53Zm-28.82-12.76a12.1,12.1,0,0,1,8.91,3.52,12.418,12.418,0,0,1,3.63,9.24,12.418,12.418,0,0,1-3.63,9.24,12.024,12.024,0,0,1-8.8,3.52,12.2,12.2,0,0,1-9.02-3.52,12.448,12.448,0,0,1-3.63-9.24,12.418,12.418,0,0,1,3.63-9.24A12.1,12.1,0,0,1,509.575-37.29Zm93.94,12.76a26.361,26.361,0,0,0-7.37-18.26c-4.4-4.4-11.88-7.92-21.45-7.92s-17.05,3.52-21.45,7.92a26.361,26.361,0,0,0-7.37,18.26,26.361,26.361,0,0,0,7.37,18.26c4.4,4.4,11.88,7.92,21.45,7.92s17.05-3.52,21.45-7.92A26.361,26.361,0,0,0,603.515-24.53Zm-28.82-12.76a12.1,12.1,0,0,1,8.91,3.52,12.418,12.418,0,0,1,3.63,9.24,12.418,12.418,0,0,1-3.63,9.24,12.025,12.025,0,0,1-8.8,3.52,12.2,12.2,0,0,1-9.02-3.52,12.448,12.448,0,0,1-3.63-9.24,12.418,12.418,0,0,1,3.63-9.24A12.1,12.1,0,0,1,574.695-37.29ZM613.415,0h15.84V-25.19c0-3.19.44-6.71,3.08-9.35a8.609,8.609,0,0,1,6.6-2.64,8.308,8.308,0,0,1,6.05,2.2c2.53,2.53,2.64,6.6,2.64,9.79V0h15.84V-31.02c0-3.96-.33-9.79-4.95-14.41-4.18-4.18-9.79-4.95-14.08-4.95-4.62,0-10.34.99-15.18,7.15v-5.83h-15.84Z" transform="translate(666.985 79.2)"/></svg>