<svg xmlns="http://www.w3.org/2000/svg" width="142.884" height="19.488" viewBox="0 0 142.884 19.488"><defs><style>.a{fill:#3c2819;}</style></defs><path class="a" d="M-60.48-18.7q0,.476-.014.994t-.014,1.022a11.74,11.74,0,0,0,.07,1.2,12.2,12.2,0,0,1,.07,1.26H-60.7a4.935,4.935,0,0,0-.448-1.586,5.53,5.53,0,0,0-.938-1.405,4.458,4.458,0,0,0-1.344-1,3.812,3.812,0,0,0-1.694-.376,3.314,3.314,0,0,0-1.358.279,3.415,3.415,0,0,0-1.078.74,3.277,3.277,0,0,0-.7,1.1,3.633,3.633,0,0,0-.252,1.34,2.71,2.71,0,0,0,.532,1.716,4.653,4.653,0,0,0,1.344,1.158,12.911,12.911,0,0,0,1.764.851q.952.377,1.792.8a18.167,18.167,0,0,1,1.638.951,6.374,6.374,0,0,1,1.33,1.148,5.113,5.113,0,0,1,.9,1.5,5.538,5.538,0,0,1,.336,2.03,4.869,4.869,0,0,1-.476,2.156,5.016,5.016,0,0,1-1.316,1.68A6.2,6.2,0,0,1-62.664-.056a7.756,7.756,0,0,1-2.52.392A6.449,6.449,0,0,1-67.69-.126a13.007,13.007,0,0,1-2.2-1.19l-.644,1.092h-.28q0-.868.028-1.372t.028-1.064q0-.588-.028-1.274t-.028-1.582h.336a6.466,6.466,0,0,0,.434,2.03,5.475,5.475,0,0,0,1.036,1.694A5.115,5.115,0,0,0-67.424-.616a4.753,4.753,0,0,0,2.1.448,4.756,4.756,0,0,0,1.638-.28,4.046,4.046,0,0,0,1.344-.8,3.717,3.717,0,0,0,.9-1.218A3.641,3.641,0,0,0-61.124-4a2.845,2.845,0,0,0-.42-1.54,4.642,4.642,0,0,0-1.078-1.19,8.545,8.545,0,0,0-1.47-.924q-.812-.406-1.568-.77-.9-.42-1.764-.924a7.819,7.819,0,0,1-1.554-1.176,5.416,5.416,0,0,1-1.106-1.554,4.809,4.809,0,0,1-.42-2.086,4.312,4.312,0,0,1,.434-1.9,5.2,5.2,0,0,1,1.162-1.568,5.592,5.592,0,0,1,1.68-1.064A5.172,5.172,0,0,1-65.24-19.1a5.631,5.631,0,0,1,2.044.378,6.881,6.881,0,0,1,1.848,1.078l.588-1.064ZM-38.92-.28a5.022,5.022,0,0,0,.854-.07,1.919,1.919,0,0,0,.714-.266,1.4,1.4,0,0,0,.49-.547A2.049,2.049,0,0,0-36.68-2.1V-18.228q-1.6-.056-2.3-.084t-.84-.028a2.846,2.846,0,0,0-2.394,1.03,4.866,4.866,0,0,0-.854,2.61h-.28l.14-4.088q.644-.028,1.19-.028h1.022q1.12,0,1.96.028t1.5.042q.658.014,1.19.042t1.064.028q.532,0,1.064-.028t1.2-.042q.672-.014,1.526-.042t2.03-.028h1.064q.56,0,1.2.028l.168,4.088h-.28a6.678,6.678,0,0,0-.252-1.368,3.7,3.7,0,0,0-.588-1.185,2.867,2.867,0,0,0-.994-.832,3.112,3.112,0,0,0-1.442-.31q-.14,0-.9.042l-2.352.126V-2.1a2.049,2.049,0,0,0,.182.939,1.4,1.4,0,0,0,.49.547,1.919,1.919,0,0,0,.714.266,5.022,5.022,0,0,0,.854.07V0q-.84,0-1.344-.014T-33.8-.056q-.364-.028-.686-.042t-.77-.014q-.476,0-.784.014t-.672.042q-.364.028-.868.042T-38.92,0ZM-1.9-19.068a10.559,10.559,0,0,1,3.808.686,9.7,9.7,0,0,1,3.164,1.96,9.246,9.246,0,0,1,2.17,3.08,9.836,9.836,0,0,1,.8,4.018,9.881,9.881,0,0,1-.8,4.06A9.228,9.228,0,0,1,5.082-2.212,9.436,9.436,0,0,1,1.918-.28,10.87,10.87,0,0,1-1.9.392,11.186,11.186,0,0,1-5.88-.294a9.321,9.321,0,0,1-3.164-1.96,8.942,8.942,0,0,1-2.1-3.08A10.385,10.385,0,0,1-11.9-9.38a9.881,9.881,0,0,1,.756-3.906,9.258,9.258,0,0,1,2.086-3.066,9.382,9.382,0,0,1,3.164-2A10.9,10.9,0,0,1-1.9-19.068Zm0,.5A5.551,5.551,0,0,0-4.83-17.8,6.675,6.675,0,0,0-6.958-15.74a9.705,9.705,0,0,0-1.288,2.963A13.784,13.784,0,0,0-8.68-9.31a14.244,14.244,0,0,0,.434,3.579A9.174,9.174,0,0,0-6.958-2.81,6.41,6.41,0,0,0-4.83-.839,5.8,5.8,0,0,0-1.9-.112,5.564,5.564,0,0,0,.91-.825,6.553,6.553,0,0,0,3.024-2.768,9.248,9.248,0,0,0,4.354-5.69a13.691,13.691,0,0,0,.462-3.62A13.582,13.582,0,0,0,4.354-12.9a9.6,9.6,0,0,0-1.33-2.949A6.588,6.588,0,0,0,.91-17.837,5.48,5.48,0,0,0-1.9-18.564Zm26.236-.168q.84,0,1.344.014t.854.014q.35,0,.658.014t.756.014q.728,0,1.694-.07t2.142-.07a16.336,16.336,0,0,1,2.282.168,6.937,6.937,0,0,1,2.184.672,4.344,4.344,0,0,1,1.638,1.442,4.3,4.3,0,0,1,.644,2.478,4.136,4.136,0,0,1-.42,1.876A4.856,4.856,0,0,1,37-10.724,6.224,6.224,0,0,1,35.434-9.7a6.7,6.7,0,0,1-1.806.546q.28.364.98,1.2t1.568,1.89q.868,1.05,1.806,2.156t1.694,1.974a10.226,10.226,0,0,0,1.218,1.19,1.983,1.983,0,0,0,1.274.462V0q-.616,0-.994-.014t-.63-.028L40.068-.07q-.224-.014-.56-.014t-.574.014l-.448.028-.462.028Q37.772,0,37.38,0q-.868-1.092-1.6-2.058t-1.428-1.89q-.7-.924-1.428-1.862t-1.568-2a3.649,3.649,0,0,0-.728-.742,1.713,1.713,0,0,0-.952-.21h-.252V-2.1a2.044,2.044,0,0,0,.182.938,1.393,1.393,0,0,0,.49.546,1.923,1.923,0,0,0,.714.266,5.022,5.022,0,0,0,.854.07V0q-.84,0-1.344-.014t-.868-.042Q29.092-.084,28.77-.1T28-.112q-.476,0-.784.014t-.672.042q-.364.028-.868.042T24.332,0V-.28a5.022,5.022,0,0,0,.854-.07A1.923,1.923,0,0,0,25.9-.616a1.393,1.393,0,0,0,.49-.546,2.044,2.044,0,0,0,.182-.938V-16.632a2.044,2.044,0,0,0-.182-.938,1.393,1.393,0,0,0-.49-.546,1.923,1.923,0,0,0-.714-.266,5.023,5.023,0,0,0-.854-.07Zm5.1,9.464h1.4A4.354,4.354,0,0,0,34.216-10.5a5.2,5.2,0,0,0,1.12-3.612,4.639,4.639,0,0,0-.28-1.624,3.956,3.956,0,0,0-.812-1.33,3.815,3.815,0,0,0-1.316-.91,4.437,4.437,0,0,0-1.764-.336q-.224,0-.532.014a1.661,1.661,0,0,0-.574.126,1.2,1.2,0,0,0-.448.322.847.847,0,0,0-.182.574ZM59.584-.28a5.022,5.022,0,0,0,.854-.07,1.923,1.923,0,0,0,.714-.266,1.393,1.393,0,0,0,.49-.546,2.044,2.044,0,0,0,.182-.938V-7.98L57.2-16.156q-.364-.644-.616-1.064a3.238,3.238,0,0,0-.532-.686,1.612,1.612,0,0,0-.644-.378,4.857,4.857,0,0,0-.924-.168v-.28q.7,0,1.148.014t.812.042q.364.028.7.042t.812.014q.448,0,.77-.014t.686-.042q.364-.028.826-.042t1.218-.014v.28q-.252,0-.546.028a1.6,1.6,0,0,0-.532.14,1.2,1.2,0,0,0-.406.308.836.836,0,0,0-.168.56,1.662,1.662,0,0,0,.154.7q.154.336.378.728l3.948,7.2,4.284-7.14a2.571,2.571,0,0,0,.392-1.2,1.091,1.091,0,0,0-.476-1.064,2.558,2.558,0,0,0-1.2-.252v-.28q.588,0,.952.014t.616.028q.252.014.434.028t.434.014q.252,0,.448-.014l.434-.028q.238-.014.574-.028t.9-.014v.28a2.3,2.3,0,0,0-.9.154,2.323,2.323,0,0,0-.658.42,3.218,3.218,0,0,0-.532.63q-.238.364-.49.812L64.68-8.4v6.3a2.044,2.044,0,0,0,.182.938,1.393,1.393,0,0,0,.49.546,1.923,1.923,0,0,0,.714.266,5.022,5.022,0,0,0,.854.07V0q-.84,0-1.344-.014t-.868-.042q-.364-.028-.686-.042t-.77-.014q-.476,0-.784.014T61.8-.056q-.364.028-.868.042T59.584,0Z" transform="translate(70.812 19.096)"/></svg>