<svg xmlns="http://www.w3.org/2000/svg" width="215.516" height="19.46" viewBox="0 0 215.516 19.46"><defs><style>.a{fill:#3c2819;}</style></defs><path class="a" d="M-107.52-.28a5.022,5.022,0,0,0,.854-.07,1.923,1.923,0,0,0,.714-.266,1.393,1.393,0,0,0,.49-.546,2.044,2.044,0,0,0,.182-.938V-16.632a2.044,2.044,0,0,0-.182-.938,1.393,1.393,0,0,0-.49-.546,1.923,1.923,0,0,0-.714-.266,5.023,5.023,0,0,0-.854-.07v-.28q.84,0,1.386.014t.952.014q.406,0,.714.014t.644.014q.672,0,1.61-.07t1.834-.07A8.913,8.913,0,0,1-95.256-17.6a4,4,0,0,1,1.736,3.486A4.706,4.706,0,0,1-95.326-10a8.537,8.537,0,0,1-5.026,1.288q-.532,0-1.05-.028t-1.022-.084V-2.1a2.044,2.044,0,0,0,.182.938,1.393,1.393,0,0,0,.49.546,1.923,1.923,0,0,0,.714.266,5.022,5.022,0,0,0,.854.07V0q-.84,0-1.344-.014t-.868-.042q-.364-.028-.686-.042t-.77-.014q-.476,0-.784.014t-.672.042q-.364.028-.868.042T-107.52,0Zm5.1-9.043q.392.056.77.083t.714.028a4.236,4.236,0,0,0,3.164-1.113,5.031,5.031,0,0,0,1.092-3.617,4.529,4.529,0,0,0-1.078-3.214,3.915,3.915,0,0,0-3.01-1.155,4.078,4.078,0,0,0-.574.042,2.232,2.232,0,0,0-.532.139.9.9,0,0,0-.392.306.892.892,0,0,0-.154.543Zm25.088-9.409q.84,0,1.344.014t.854.014q.35,0,.658.014t.756.014q.728,0,1.694-.07t2.142-.07a16.336,16.336,0,0,1,2.282.168,6.937,6.937,0,0,1,2.184.672,4.344,4.344,0,0,1,1.638,1.442,4.3,4.3,0,0,1,.644,2.478,4.136,4.136,0,0,1-.42,1.876,4.856,4.856,0,0,1-1.106,1.456A6.225,6.225,0,0,1-66.234-9.7a6.7,6.7,0,0,1-1.806.546q.28.364.98,1.2t1.568,1.89q.868,1.05,1.806,2.156t1.694,1.974a10.226,10.226,0,0,0,1.218,1.19A1.983,1.983,0,0,0-59.5-.28V0q-.616,0-.994-.014t-.63-.028L-61.6-.07q-.224-.014-.56-.014t-.574.014l-.448.028-.462.028Q-63.9,0-64.288,0q-.868-1.092-1.6-2.058t-1.428-1.89q-.7-.924-1.428-1.862t-1.568-2a3.649,3.649,0,0,0-.728-.742,1.713,1.713,0,0,0-.952-.21h-.252V-2.1a2.044,2.044,0,0,0,.182.938,1.393,1.393,0,0,0,.49.546,1.923,1.923,0,0,0,.714.266A5.022,5.022,0,0,0-70-.28V0q-.84,0-1.344-.014t-.868-.042Q-72.576-.084-72.9-.1t-.77-.014q-.476,0-.784.014t-.672.042q-.364.028-.868.042T-77.336,0V-.28a5.022,5.022,0,0,0,.854-.07,1.923,1.923,0,0,0,.714-.266,1.393,1.393,0,0,0,.49-.546A2.044,2.044,0,0,0-75.1-2.1V-16.632a2.044,2.044,0,0,0-.182-.938,1.393,1.393,0,0,0-.49-.546,1.923,1.923,0,0,0-.714-.266,5.023,5.023,0,0,0-.854-.07Zm5.1,9.464h1.4A4.354,4.354,0,0,0-67.452-10.5a5.2,5.2,0,0,0,1.12-3.612,4.639,4.639,0,0,0-.28-1.624,3.956,3.956,0,0,0-.812-1.33,3.815,3.815,0,0,0-1.316-.91,4.437,4.437,0,0,0-1.764-.336q-.224,0-.532.014a1.661,1.661,0,0,0-.574.126,1.2,1.2,0,0,0-.448.322.847.847,0,0,0-.182.574Zm36.6-9.8a10.559,10.559,0,0,1,3.808.686,9.7,9.7,0,0,1,3.164,1.96,9.246,9.246,0,0,1,2.17,3.08,9.836,9.836,0,0,1,.8,4.018,9.881,9.881,0,0,1-.8,4.06,9.228,9.228,0,0,1-2.156,3.052A9.436,9.436,0,0,1-31.822-.28a10.87,10.87,0,0,1-3.822.672A11.186,11.186,0,0,1-39.62-.294a9.321,9.321,0,0,1-3.164-1.96,8.942,8.942,0,0,1-2.1-3.08A10.385,10.385,0,0,1-45.64-9.38a9.881,9.881,0,0,1,.756-3.906A9.258,9.258,0,0,1-42.8-16.352a9.382,9.382,0,0,1,3.164-2A10.9,10.9,0,0,1-35.644-19.068Zm0,.5a5.551,5.551,0,0,0-2.926.769A6.675,6.675,0,0,0-40.7-15.74a9.705,9.705,0,0,0-1.288,2.963A13.784,13.784,0,0,0-42.42-9.31a14.244,14.244,0,0,0,.434,3.579A9.174,9.174,0,0,0-40.7-2.81,6.41,6.41,0,0,0-38.57-.839a5.8,5.8,0,0,0,2.926.727A5.564,5.564,0,0,0-32.83-.825a6.553,6.553,0,0,0,2.114-1.943,9.248,9.248,0,0,0,1.33-2.922,13.691,13.691,0,0,0,.462-3.62,13.582,13.582,0,0,0-.462-3.593,9.6,9.6,0,0,0-1.33-2.949,6.588,6.588,0,0,0-2.114-1.985A5.48,5.48,0,0,0-35.644-18.564Zm26.236-.168q.84,0,1.344.014t.882.028l.686.028q.308.014.784.014.9,0,2.03-.084t2.142-.084a11.623,11.623,0,0,1,3.906.63,8.924,8.924,0,0,1,3.08,1.82,8.2,8.2,0,0,1,2.03,2.926A10.128,10.128,0,0,1,8.2-9.492q0,4.62-2.38,7.084T-1.26.056q-1.008,0-2.226-.07t-2.226-.07q-.476,0-.784.014l-.672.028q-.364.014-.868.028T-9.408,0V-.28a5.022,5.022,0,0,0,.854-.07A1.923,1.923,0,0,0-7.84-.616a1.393,1.393,0,0,0,.49-.546A2.044,2.044,0,0,0-7.168-2.1V-16.632a2.044,2.044,0,0,0-.182-.938,1.393,1.393,0,0,0-.49-.546,1.923,1.923,0,0,0-.714-.266,5.023,5.023,0,0,0-.854-.07Zm5.1,15.349A6.935,6.935,0,0,0-4.2-2.041a1.911,1.911,0,0,0,.42.908,1.828,1.828,0,0,0,.9.517,5.906,5.906,0,0,0,1.568.168,5.6,5.6,0,0,0,2.842-.685,5.746,5.746,0,0,0,1.96-1.859A8.421,8.421,0,0,0,4.62-5.76,15.289,15.289,0,0,0,4.984-9.17a15.1,15.1,0,0,0-.378-3.383,9.009,9.009,0,0,0-1.2-2.921,6.542,6.542,0,0,0-2.114-2.055,5.819,5.819,0,0,0-3.08-.783q-.392,0-.8.014t-.966.07a1.027,1.027,0,0,0-.546.252.933.933,0,0,0-.21.7Zm45-3.029a9.062,9.062,0,0,1-.476,3.15A5.254,5.254,0,0,1,38.864-1.19a5.113,5.113,0,0,1-2.1,1.148,10.03,10.03,0,0,1-2.744.35,16.578,16.578,0,0,1-2.7-.224,6.434,6.434,0,0,1-2.436-.91,5.01,5.01,0,0,1-1.75-1.988A7.645,7.645,0,0,1,26.46-6.3V-16.632a2.044,2.044,0,0,0-.182-.938,1.393,1.393,0,0,0-.49-.546,1.923,1.923,0,0,0-.714-.266,5.023,5.023,0,0,0-.854-.07v-.28q.84,0,1.344.014t.868.042q.364.028.672.042t.784.014q.448,0,.77-.014t.686-.042q.364-.028.868-.042t1.344-.014v.28a5.022,5.022,0,0,0-.854.07,1.923,1.923,0,0,0-.714.266,1.393,1.393,0,0,0-.49.546,2.044,2.044,0,0,0-.182.938V-6.076a8.793,8.793,0,0,0,.28,2.3A4.433,4.433,0,0,0,30.52-2,4.1,4.1,0,0,0,32.186-.868a7.121,7.121,0,0,0,2.534.392,5.383,5.383,0,0,0,4-1.442,5.662,5.662,0,0,0,1.428-4.158V-16.632a2.044,2.044,0,0,0-.182-.938,1.393,1.393,0,0,0-.49-.546,1.923,1.923,0,0,0-.714-.266,5.023,5.023,0,0,0-.854-.07v-.28q.56,0,.9.014t.588.028l.476.028q.224.014.532.014t.532-.014l.476-.028q.252-.014.6-.028t.91-.014v.28a5.022,5.022,0,0,0-.854.07,1.923,1.923,0,0,0-.714.266,1.393,1.393,0,0,0-.49.546,2.044,2.044,0,0,0-.182.938ZM74.844-18.34q0,.672-.014,1.288t-.014,1.232q0,.672.042,1.4t.042,1.484h-.336a6.05,6.05,0,0,0-1.736-4.1,5.984,5.984,0,0,0-4.368-1.532,4.855,4.855,0,0,0-2.282.615,6.6,6.6,0,0,0-2.1,1.817,9.84,9.84,0,0,0-1.526,2.963,12.793,12.793,0,0,0-.588,4.054A14.027,14.027,0,0,0,62.3-6.179a10.034,10.034,0,0,0,1.106,2.908,6.879,6.879,0,0,0,2.016,2.223,5.177,5.177,0,0,0,3.066.881A7.073,7.073,0,0,0,71.008-.6a5.506,5.506,0,0,0,1.974-1.26,6.013,6.013,0,0,0,1.3-1.974,7.442,7.442,0,0,0,.532-2.576h.336q0,.812-.042,1.722t-.042,1.442v.532q0,.252.014.56t.028.728q.014.42.042,1.036h-.28L74.2-1.54q-.252.2-.728.5a8.168,8.168,0,0,1-1.19.616,10.02,10.02,0,0,1-1.666.532A9.446,9.446,0,0,1,68.46.336a11.535,11.535,0,0,1-3.878-.63A8.7,8.7,0,0,1,61.5-2.142a8.32,8.32,0,0,1-2.03-3.038,11.332,11.332,0,0,1-.728-4.228,9.476,9.476,0,0,1,.742-3.738,9.579,9.579,0,0,1,2.058-3.066A9.88,9.88,0,0,1,64.638-18.3a9.653,9.653,0,0,1,3.878-.77,9.282,9.282,0,0,1,2.954.462,10.611,10.611,0,0,1,2.59,1.274l.5-1.008ZM96.1-.28a5.022,5.022,0,0,0,.854-.07,1.919,1.919,0,0,0,.714-.266,1.4,1.4,0,0,0,.49-.547,2.05,2.05,0,0,0,.182-.939V-18.228q-1.6-.056-2.3-.084t-.84-.028a2.846,2.846,0,0,0-2.394,1.03,4.866,4.866,0,0,0-.854,2.61h-.28l.14-4.088q.644-.028,1.19-.028h1.022q1.12,0,1.96.028t1.5.042q.658.014,1.19.042t1.064.028q.532,0,1.064-.028t1.2-.042q.672-.014,1.526-.042t2.03-.028h1.064q.56,0,1.2.028L108-14.7h-.28a6.677,6.677,0,0,0-.252-1.368,3.7,3.7,0,0,0-.588-1.185,2.867,2.867,0,0,0-.994-.832,3.112,3.112,0,0,0-1.442-.31q-.14,0-.9.042l-2.352.126V-2.1a2.05,2.05,0,0,0,.182.939,1.4,1.4,0,0,0,.49.547,1.919,1.919,0,0,0,.714.266,5.022,5.022,0,0,0,.854.07V0q-.84,0-1.344-.014t-.868-.042q-.364-.028-.686-.042t-.77-.014q-.476,0-.784.014t-.672.042q-.364.028-.868.042T96.1,0Z" transform="translate(107.52 19.068)"/></svg>